<svg viewBox="0 0 848 805" xmlns:xlink="http://www.w3.org/1999/xlink" xmlns="http://www.w3.org/2000/svg" data-name="Layer 2" id="Layer_2">
  <defs>
    <style>
      .cls-1 {
        stroke: #cdd2e6;
        stroke-width: .4px;
      }

      .cls-1, .cls-2, .cls-3 {
        fill: none;
      }

      .cls-4 {
        fill: #cdd2e6;
      }

      .cls-5 {
        fill: #ccd4ec;
      }

      .cls-6 {
        clip-path: url(#clippath-2);
      }

      .cls-7 {
        clip-path: url(#clippath-6);
      }

      .cls-8 {
        fill: #9ca4ce;
      }

      .cls-9 {
        clip-path: url(#clippath-7);
      }

      .cls-2 {
        stroke: #54565a;
        stroke-miterlimit: 10;
        stroke-width: 3px;
      }

      .cls-10 {
        clip-path: url(#clippath-1);
      }

      .cls-11 {
        clip-path: url(#clippath-4);
      }

      .cls-12 {
        clip-path: url(#clippath-9);
      }

      .cls-13 {
        clip-path: url(#clippath);
      }

      .cls-14 {
        fill: #54565a;
      }

      .cls-15 {
        clip-path: url(#clippath-3);
      }

      .cls-16 {
        clip-path: url(#clippath-8);
      }

      .cls-17 {
        clip-path: url(#clippath-5);
      }

      .cls-18 {
        fill: #949fd0;
      }

      .cls-19 {
        fill: url(#linear-gradient);
      }

      .cls-20 {
        clip-path: url(#clippath-10);
      }
    </style>
    <clipPath id="clippath">
      <rect height="59.84" width="100" y="8.08" x="727" class="cls-3"></rect>
    </clipPath>
    <clipPath id="clippath-1">
      <rect height="59.84" width="100" y="8.08" x="727" class="cls-3"></rect>
    </clipPath>
    <clipPath id="clippath-2">
      <rect height="59.84" width="100" y="8.08" x="727" class="cls-3"></rect>
    </clipPath>
    <clipPath id="clippath-3">
      <path d="m743.16,14.2l52.26,10.41v.6l-50.05-8.61,4.36,4.8,45.69,4.5v.59c-14.65-1.01-29.14-1.99-43.79-3l3.35,3.68c13.52,0,26.92,0,40.44,0v.51h5.38v-1.79c0-1.39-1.11-2.53-2.47-2.53h-2.91v.56l-57.79-15.84,5.53,6.12Z" class="cls-3"></path>
    </clipPath>
    <linearGradient gradientUnits="userSpaceOnUse" gradientTransform="translate(-20911.1 54055.09) scale(44.22 -44.22)" y2="1222.01" x2="491" y1="1222.01" x1="489.57" id="linear-gradient">
      <stop stop-color="#fff" offset="0"></stop>
      <stop stop-color="#949fd1" offset="1"></stop>
    </linearGradient>
    <clipPath id="clippath-4">
      <rect height="59.84" width="100" y="8.08" x="727" class="cls-3"></rect>
    </clipPath>
    <clipPath id="clippath-5">
      <rect height="59.84" width="100" y="8.08" x="727" class="cls-3"></rect>
    </clipPath>
    <clipPath id="clippath-6">
      <rect height="59.84" width="100" y="8.08" x="727" class="cls-3"></rect>
    </clipPath>
    <clipPath id="clippath-7">
      <rect height="59.84" width="100" y="8.08" x="727" class="cls-3"></rect>
    </clipPath>
    <clipPath id="clippath-8">
      <rect height="59.84" width="100" y="8.08" x="727" class="cls-3"></rect>
    </clipPath>
    <clipPath id="clippath-9">
      <rect height="59.84" width="100" y="8.08" x="727" class="cls-3"></rect>
    </clipPath>
    <clipPath id="clippath-10">
      <rect height="59.84" width="100" y="8.08" x="727" class="cls-3"></rect>
    </clipPath>
  </defs>
  <g>
    <path d="m50.34,55.84c0,2.08-.75,3.7-2.26,4.86s-3.55,1.74-6.14,1.74c-2.8,0-4.95-.36-6.46-1.08v-2.65c.97.41,2.02.73,3.16.97s2.27.36,3.39.36c1.83,0,3.21-.35,4.13-1.04.93-.7,1.39-1.66,1.39-2.9,0-.82-.16-1.49-.49-2.01-.33-.52-.88-1-1.65-1.45-.77-.44-1.94-.94-3.51-1.5-2.2-.79-3.77-1.72-4.71-2.79-.94-1.08-1.41-2.48-1.41-4.21,0-1.82.68-3.27,2.05-4.34s3.18-1.61,5.43-1.61,4.51.43,6.48,1.29l-.86,2.39c-1.95-.82-3.84-1.23-5.68-1.23-1.45,0-2.59.31-3.41.94s-1.23,1.49-1.23,2.6c0,.82.15,1.49.45,2.01s.81,1,1.52,1.44c.72.44,1.81.92,3.29,1.45,2.48.88,4.18,1.83,5.11,2.84.93,1.01,1.4,2.33,1.4,3.94Z"></path>
    <path d="m57.28,44.43v11.48c0,1.44.33,2.52.99,3.23s1.68,1.07,3.08,1.07c1.85,0,3.21-.51,4.06-1.52.86-1.01,1.29-2.66,1.29-4.96v-9.3h2.68v17.7h-2.21l-.39-2.37h-.14c-.55.87-1.31,1.54-2.29,2-.97.46-2.08.69-3.33.69-2.15,0-3.77-.51-4.84-1.53-1.07-1.02-1.61-2.66-1.61-4.91v-11.58h2.71Z"></path>
    <path d="m83.3,44.14c2.33,0,4.13.79,5.42,2.38,1.29,1.59,1.93,3.84,1.93,6.74s-.65,5.16-1.94,6.77c-1.3,1.61-3.1,2.41-5.4,2.41-1.15,0-2.2-.21-3.16-.64-.95-.43-1.75-1.08-2.4-1.96h-.19l-.57,2.28h-1.92v-25.13h2.68v6.1c0,1.37-.04,2.59-.13,3.68h.13c1.25-1.77,3.1-2.65,5.55-2.65Zm-.39,2.24c-1.83,0-3.15.52-3.96,1.57-.81,1.05-1.21,2.82-1.21,5.3s.41,4.27,1.24,5.34c.83,1.07,2.16,1.61,3.99,1.61,1.65,0,2.87-.6,3.68-1.8.81-1.2,1.21-2.92,1.21-5.17s-.4-4.02-1.21-5.15-2.06-1.7-3.75-1.7Z"></path>
    <path d="m106.74,57.3c0,1.65-.61,2.92-1.84,3.81s-2.95,1.34-5.17,1.34c-2.35,0-4.18-.37-5.49-1.11v-2.49c.85.43,1.76.77,2.74,1.02.97.25,1.91.37,2.82.37,1.4,0,2.48-.22,3.23-.67.75-.45,1.13-1.13,1.13-2.04,0-.69-.3-1.28-.9-1.77-.6-.49-1.76-1.07-3.49-1.74-1.65-.61-2.82-1.15-3.51-1.61-.69-.46-1.21-.98-1.55-1.56-.34-.58-.51-1.28-.51-2.08,0-1.44.59-2.58,1.76-3.42,1.17-.83,2.78-1.25,4.83-1.25,1.91,0,3.77.39,5.59,1.16l-.95,2.18c-1.78-.73-3.39-1.1-4.83-1.1-1.27,0-2.23.2-2.87.6s-.97.95-.97,1.65c0,.47.12.88.36,1.21.24.33.63.65,1.17.95s1.57.74,3.1,1.31c2.1.76,3.52,1.53,4.25,2.31.74.78,1.11,1.75,1.11,2.92Z"></path>
    <path d="m116.82,60.24c.47,0,.93-.03,1.37-.1s.79-.14,1.05-.22v2.05c-.29.14-.72.26-1.28.35-.57.09-1.07.14-1.53.14-3.42,0-5.13-1.8-5.13-5.41v-10.53h-2.54v-1.29l2.54-1.11,1.13-3.78h1.55v4.1h5.13v2.08h-5.13v10.41c0,1.07.25,1.88.76,2.45s1.2.86,2.08.86Z"></path>
    <path d="m130.85,44.1c.79,0,1.49.06,2.12.19l-.37,2.49c-.73-.16-1.38-.24-1.94-.24-1.43,0-2.66.58-3.67,1.74-1.02,1.16-1.53,2.61-1.53,4.34v9.49h-2.68v-17.7h2.21l.31,3.28h.13c.66-1.15,1.45-2.04,2.37-2.66s1.94-.94,3.05-.94Z"></path>
    <path d="m147.16,62.13l-.53-2.52h-.13c-.88,1.11-1.76,1.86-2.64,2.25-.88.39-1.97.59-3.29.59-1.75,0-3.13-.45-4.13-1.36-1-.9-1.49-2.19-1.49-3.86,0-3.57,2.86-5.45,8.58-5.62l3-.1v-1.1c0-1.39-.3-2.41-.9-3.08-.6-.66-1.55-.99-2.87-.99-1.47,0-3.14.45-5.01,1.36l-.82-2.05c.87-.47,1.83-.85,2.87-1.11,1.04-.27,2.08-.4,3.12-.4,2.11,0,3.67.47,4.69,1.4,1.02.94,1.53,2.44,1.53,4.51v12.08h-1.99Zm-6.05-1.89c1.67,0,2.98-.46,3.93-1.37.95-.92,1.43-2.2,1.43-3.84v-1.6l-2.68.11c-2.13.08-3.67.41-4.61.99-.94.59-1.41,1.5-1.41,2.74,0,.97.29,1.71.88,2.21.59.51,1.41.76,2.46.76Z"></path>
    <path d="m160.38,60.24c.47,0,.93-.03,1.37-.1s.79-.14,1.05-.22v2.05c-.29.14-.72.26-1.28.35-.57.09-1.07.14-1.53.14-3.42,0-5.13-1.8-5.13-5.41v-10.53h-2.54v-1.29l2.54-1.11,1.13-3.78h1.55v4.1h5.13v2.08h-5.13v10.41c0,1.07.25,1.88.76,2.45s1.2.86,2.08.86Z"></path>
    <path d="m173.82,62.45c-2.62,0-4.68-.8-6.19-2.39-1.51-1.59-2.27-3.81-2.27-6.64s.7-5.12,2.11-6.8c1.41-1.68,3.29-2.52,5.66-2.52,2.22,0,3.97.73,5.26,2.19,1.29,1.46,1.94,3.38,1.94,5.77v1.7h-12.19c.05,2.08.58,3.65,1.57,4.73.99,1.08,2.4,1.61,4.21,1.61,1.91,0,3.79-.4,5.65-1.19v2.39c-.95.41-1.85.7-2.69.88-.85.18-1.86.27-3.06.27Zm-.73-16.1c-1.42,0-2.55.46-3.4,1.39-.84.93-1.34,2.21-1.49,3.84h9.25c0-1.69-.38-2.98-1.13-3.88s-1.83-1.35-3.23-1.35Z"></path>
    <path d="m193.26,39.63c0-.61.15-1.06.45-1.35.3-.28.68-.43,1.13-.43s.8.15,1.11.44.47.74.47,1.34-.16,1.05-.47,1.35-.68.44-1.11.44c-.45,0-.83-.15-1.13-.44s-.45-.75-.45-1.35Zm2.91,22.49h-2.68v-17.7h2.68v17.7Z"></path>
    <path d="m213.27,57.3c0,1.65-.61,2.92-1.84,3.81s-2.95,1.34-5.17,1.34c-2.35,0-4.18-.37-5.49-1.11v-2.49c.85.43,1.76.77,2.74,1.02.97.25,1.91.37,2.82.37,1.4,0,2.48-.22,3.23-.67.75-.45,1.13-1.13,1.13-2.04,0-.69-.3-1.28-.9-1.77-.6-.49-1.76-1.07-3.5-1.74-1.65-.61-2.82-1.15-3.51-1.61-.69-.46-1.21-.98-1.55-1.56-.34-.58-.51-1.28-.51-2.08,0-1.44.59-2.58,1.76-3.42,1.17-.83,2.78-1.25,4.83-1.25,1.91,0,3.77.39,5.59,1.16l-.95,2.18c-1.78-.73-3.38-1.1-4.83-1.1-1.27,0-2.23.2-2.87.6s-.97.95-.97,1.65c0,.47.12.88.36,1.21.24.33.63.65,1.17.95s1.57.74,3.1,1.31c2.1.76,3.52,1.53,4.26,2.31.74.78,1.1,1.75,1.1,2.92Z"></path>
    <path d="m225.99,39.63c0-.61.15-1.06.45-1.35.3-.28.68-.43,1.13-.43s.8.15,1.12.44.47.74.47,1.34-.16,1.05-.47,1.35-.68.44-1.12.44c-.45,0-.83-.15-1.13-.44s-.45-.75-.45-1.35Zm2.91,22.49h-2.68v-17.7h2.68v17.7Z"></path>
    <path d="m257.14,62.13v-11.51c0-1.41-.3-2.47-.9-3.17s-1.54-1.06-2.81-1.06c-1.67,0-2.9.48-3.7,1.44s-1.19,2.43-1.19,4.42v9.88h-2.68v-11.51c0-1.41-.3-2.47-.9-3.17s-1.54-1.06-2.82-1.06c-1.68,0-2.91.5-3.69,1.51-.78,1.01-1.17,2.66-1.17,4.95v9.28h-2.68v-17.7h2.18l.43,2.42h.13c.51-.86,1.22-1.53,2.14-2.02.92-.48,1.95-.73,3.09-.73,2.77,0,4.58,1,5.43,3h.13c.53-.93,1.29-1.66,2.29-2.2s2.14-.81,3.42-.81c2,0,3.5.51,4.5,1.54.99,1.03,1.49,2.67,1.49,4.93v11.55h-2.68Z"></path>
    <path d="m287.9,62.13v-11.51c0-1.41-.3-2.47-.9-3.17s-1.54-1.06-2.81-1.06c-1.67,0-2.9.48-3.7,1.44s-1.19,2.43-1.19,4.42v9.88h-2.68v-11.51c0-1.41-.3-2.47-.9-3.17s-1.55-1.06-2.83-1.06c-1.68,0-2.91.5-3.69,1.51-.78,1.01-1.17,2.66-1.17,4.95v9.28h-2.68v-17.7h2.18l.44,2.42h.13c.51-.86,1.22-1.53,2.14-2.02.92-.48,1.95-.73,3.09-.73,2.77,0,4.58,1,5.43,3h.13c.53-.93,1.29-1.66,2.29-2.2s2.14-.81,3.42-.81c2,0,3.5.51,4.5,1.54.99,1.03,1.49,2.67,1.49,4.93v11.55h-2.68Z"></path>
    <path d="m303.58,62.45c-2.62,0-4.68-.8-6.19-2.39-1.51-1.59-2.27-3.81-2.27-6.64s.7-5.12,2.11-6.8c1.41-1.68,3.29-2.52,5.66-2.52,2.22,0,3.97.73,5.26,2.19,1.29,1.46,1.94,3.38,1.94,5.77v1.7h-12.19c.05,2.08.58,3.65,1.57,4.73.99,1.08,2.4,1.61,4.21,1.61,1.91,0,3.79-.4,5.65-1.19v2.39c-.95.41-1.85.7-2.69.88-.85.18-1.86.27-3.06.27Zm-.73-16.1c-1.42,0-2.55.46-3.4,1.39-.84.93-1.34,2.21-1.49,3.84h9.25c0-1.69-.38-2.98-1.13-3.88s-1.83-1.35-3.23-1.35Z"></path>
    <path d="m322.73,44.1c.79,0,1.49.06,2.11.19l-.37,2.49c-.73-.16-1.38-.24-1.94-.24-1.43,0-2.66.58-3.67,1.74-1.02,1.16-1.53,2.61-1.53,4.34v9.49h-2.68v-17.7h2.21l.31,3.28h.13c.66-1.15,1.45-2.04,2.37-2.66s1.94-.94,3.05-.94Z"></path>
    <path d="m339.57,57.3c0,1.65-.61,2.92-1.84,3.81s-2.95,1.34-5.17,1.34c-2.35,0-4.18-.37-5.49-1.11v-2.49c.85.43,1.76.77,2.74,1.02.97.25,1.91.37,2.82.37,1.4,0,2.48-.22,3.23-.67.75-.45,1.13-1.13,1.13-2.04,0-.69-.3-1.28-.9-1.77-.6-.49-1.76-1.07-3.5-1.74-1.65-.61-2.82-1.15-3.51-1.61-.69-.46-1.21-.98-1.55-1.56-.34-.58-.51-1.28-.51-2.08,0-1.44.59-2.58,1.76-3.42,1.17-.83,2.78-1.25,4.83-1.25,1.91,0,3.77.39,5.59,1.16l-.95,2.18c-1.78-.73-3.38-1.1-4.83-1.1-1.27,0-2.23.2-2.87.6s-.97.95-.97,1.65c0,.47.12.88.36,1.21.24.33.63.65,1.17.95s1.57.74,3.1,1.31c2.1.76,3.52,1.53,4.26,2.31.74.78,1.1,1.75,1.1,2.92Z"></path>
    <path d="m351.41,62.45c-2.62,0-4.68-.8-6.19-2.39-1.51-1.59-2.27-3.81-2.27-6.64s.7-5.12,2.11-6.8c1.41-1.68,3.29-2.52,5.66-2.52,2.22,0,3.97.73,5.26,2.19,1.29,1.46,1.94,3.38,1.94,5.77v1.7h-12.19c.05,2.08.58,3.65,1.57,4.73.99,1.08,2.4,1.61,4.21,1.61,1.91,0,3.79-.4,5.65-1.19v2.39c-.95.41-1.85.7-2.69.88-.85.18-1.86.27-3.06.27Zm-.73-16.1c-1.42,0-2.55.46-3.4,1.39-.84.93-1.34,2.21-1.49,3.84h9.25c0-1.69-.38-2.98-1.13-3.88s-1.83-1.35-3.23-1.35Z"></path>
    <path d="m374.53,59.75h-.15c-1.24,1.8-3.09,2.7-5.55,2.7-2.31,0-4.11-.79-5.4-2.37-1.29-1.58-1.93-3.83-1.93-6.75s.65-5.18,1.94-6.8,3.09-2.42,5.39-2.42,4.24.87,5.52,2.62h.21l-.11-1.28-.06-1.24v-7.2h2.68v25.13h-2.18l-.36-2.37Zm-5.36.45c1.83,0,3.16-.5,3.98-1.49.82-1,1.23-2.6,1.23-4.82v-.57c0-2.51-.42-4.3-1.25-5.37-.84-1.07-2.17-1.61-4-1.61-1.57,0-2.78.61-3.61,1.83-.84,1.22-1.25,2.95-1.25,5.17s.42,3.97,1.24,5.12,2.05,1.73,3.65,1.73Z"></path>
    <path d="m36.39,79.32c0-.61.15-1.06.45-1.35.3-.28.68-.43,1.13-.43s.8.15,1.12.44.47.74.47,1.34-.16,1.05-.47,1.35-.68.44-1.12.44c-.45,0-.83-.15-1.13-.44s-.45-.75-.45-1.35Zm2.91,22.49h-2.68v-17.7h2.68v17.7Z"></path>
    <path d="m57.09,101.81v-11.45c0-1.44-.33-2.52-.98-3.23s-1.69-1.07-3.09-1.07c-1.85,0-3.21.5-4.07,1.5s-1.29,2.65-1.29,4.96v9.28h-2.68v-17.7h2.18l.43,2.42h.13c.55-.87,1.32-1.55,2.31-2.03s2.09-.72,3.31-.72c2.13,0,3.74.51,4.81,1.54,1.08,1.03,1.61,2.67,1.61,4.93v11.55h-2.68Z"></path>
    <path d="m80.94,102.13c-2.56,0-4.54-.79-5.95-2.37-1.4-1.58-2.11-3.81-2.11-6.69s.71-5.25,2.14-6.86c1.43-1.61,3.46-2.42,6.1-2.42.85,0,1.7.09,2.55.27s1.52.4,2,.65l-.82,2.28c-.59-.24-1.24-.43-1.94-.59-.7-.16-1.32-.23-1.86-.23-3.6,0-5.39,2.29-5.39,6.88,0,2.17.44,3.84,1.32,5.01.88,1.16,2.18,1.74,3.9,1.74,1.47,0,2.99-.32,4.54-.95v2.37c-1.18.61-2.67.92-4.47.92Z"></path>
    <path d="m104.88,92.94c0,2.88-.73,5.14-2.18,6.76-1.45,1.62-3.46,2.43-6.02,2.43-1.58,0-2.99-.37-4.21-1.11s-2.17-1.81-2.84-3.2-1-3.01-1-4.88c0-2.88.72-5.13,2.16-6.74,1.44-1.61,3.44-2.41,6.01-2.41s4.44.82,5.9,2.47c1.46,1.65,2.19,3.88,2.19,6.68Zm-13.48,0c0,2.26.45,3.98,1.36,5.17s2.23,1.78,3.99,1.78,3.09-.59,4-1.77c.91-1.18,1.36-2.9,1.36-5.17s-.45-3.96-1.36-5.13c-.91-1.17-2.25-1.75-4.03-1.75s-3.08.58-3.97,1.73-1.34,2.87-1.34,5.15Z"></path>
    <path d="m120.47,101.81l-.53-2.52h-.13c-.88,1.11-1.76,1.86-2.64,2.25-.88.39-1.97.59-3.29.59-1.75,0-3.13-.45-4.13-1.36-1-.9-1.49-2.19-1.49-3.86,0-3.57,2.86-5.45,8.57-5.62l3-.1v-1.1c0-1.39-.3-2.41-.9-3.08-.6-.66-1.55-.99-2.87-.99-1.47,0-3.14.45-5.01,1.36l-.82-2.05c.87-.47,1.83-.85,2.87-1.11,1.04-.27,2.08-.4,3.12-.4,2.11,0,3.67.47,4.69,1.4,1.02.94,1.52,2.44,1.52,4.51v12.08h-1.99Zm-6.06-1.89c1.67,0,2.98-.46,3.93-1.37.95-.92,1.43-2.2,1.43-3.84v-1.6l-2.68.11c-2.13.08-3.67.41-4.61.99-.94.59-1.41,1.5-1.41,2.74,0,.97.29,1.71.88,2.21.59.51,1.41.76,2.46.76Z"></path>
    <path d="m133.69,99.92c.47,0,.93-.03,1.37-.1s.79-.14,1.05-.22v2.05c-.29.14-.72.26-1.28.35-.57.09-1.07.14-1.53.14-3.42,0-5.13-1.8-5.13-5.41v-10.53h-2.53v-1.29l2.53-1.11,1.13-3.78h1.55v4.1h5.13v2.08h-5.13v10.41c0,1.07.25,1.88.76,2.45s1.2.86,2.08.86Z"></path>
    <path d="m139.42,79.32c0-.61.15-1.06.45-1.35.3-.28.68-.43,1.13-.43s.8.15,1.11.44.47.74.47,1.34-.16,1.05-.47,1.35-.68.44-1.11.44c-.45,0-.83-.15-1.13-.44s-.45-.75-.45-1.35Zm2.91,22.49h-2.68v-17.7h2.68v17.7Z"></path>
    <path d="m160.13,101.81v-11.45c0-1.44-.33-2.52-.99-3.23s-1.68-1.07-3.08-1.07c-1.85,0-3.21.5-4.07,1.5s-1.29,2.65-1.29,4.96v9.28h-2.68v-17.7h2.18l.44,2.42h.13c.55-.87,1.32-1.55,2.31-2.03s2.09-.72,3.31-.72c2.13,0,3.74.51,4.81,1.54,1.08,1.03,1.61,2.67,1.61,4.93v11.55h-2.68Z"></path>
    <path d="m182.8,84.11v1.7l-3.28.39c.3.38.57.87.81,1.48s.36,1.29.36,2.06c0,1.73-.59,3.12-1.78,4.15s-2.81,1.55-4.88,1.55c-.53,0-1.02-.04-1.49-.13-1.14.6-1.71,1.36-1.71,2.28,0,.48.2.84.6,1.07s1.08.35,2.05.35h3.13c1.92,0,3.39.4,4.42,1.21,1.03.81,1.54,1.98,1.54,3.52,0,1.96-.79,3.45-2.36,4.48-1.57,1.03-3.86,1.54-6.88,1.54-2.31,0-4.1-.43-5.35-1.29-1.25-.86-1.88-2.08-1.88-3.65,0-1.08.34-2.01,1.03-2.79s1.66-1.32,2.91-1.6c-.45-.2-.83-.52-1.14-.95-.31-.43-.46-.93-.46-1.5,0-.65.17-1.21.52-1.7s.89-.95,1.63-1.4c-.92-.38-1.66-1.02-2.24-1.92-.58-.9-.86-1.94-.86-3.1,0-1.94.58-3.43,1.74-4.48,1.16-1.05,2.81-1.57,4.94-1.57.93,0,1.76.11,2.5.32h6.12Zm-14.11,20.67c0,.96.4,1.68,1.21,2.18s1.97.74,3.47.74c2.25,0,3.91-.34,5-1.01,1.08-.67,1.62-1.59,1.62-2.74,0-.96-.3-1.62-.89-1.99-.59-.37-1.71-.56-3.34-.56h-3.21c-1.22,0-2.16.29-2.84.87s-1.02,1.42-1.02,2.5Zm1.45-15c0,1.24.35,2.17,1.05,2.81s1.68.95,2.92.95c2.62,0,3.92-1.27,3.92-3.81s-1.32-3.99-3.97-3.99c-1.26,0-2.23.34-2.91,1.02s-1.02,1.68-1.02,3.02Z"></path>
    <path d="m206.44,96.98c0,1.65-.61,2.92-1.84,3.81s-2.95,1.34-5.17,1.34c-2.35,0-4.18-.37-5.49-1.11v-2.49c.85.43,1.76.77,2.74,1.02.97.25,1.91.37,2.82.37,1.4,0,2.48-.22,3.23-.67.75-.45,1.13-1.13,1.13-2.04,0-.69-.3-1.28-.9-1.77-.6-.49-1.76-1.07-3.49-1.74-1.65-.61-2.82-1.15-3.51-1.61-.69-.46-1.21-.98-1.55-1.56-.34-.58-.51-1.28-.51-2.08,0-1.44.59-2.58,1.76-3.42,1.17-.83,2.78-1.25,4.83-1.25,1.91,0,3.77.39,5.59,1.16l-.95,2.18c-1.78-.73-3.39-1.1-4.83-1.1-1.27,0-2.23.2-2.87.6s-.97.95-.97,1.65c0,.47.12.88.36,1.21.24.33.63.65,1.17.95s1.57.74,3.1,1.31c2.1.76,3.52,1.53,4.25,2.31.74.78,1.11,1.75,1.11,2.92Z"></path>
    <path d="m226.07,92.94c0,2.88-.73,5.14-2.18,6.76-1.45,1.62-3.46,2.43-6.02,2.43-1.58,0-2.99-.37-4.22-1.11s-2.17-1.81-2.84-3.2-1-3.01-1-4.88c0-2.88.72-5.13,2.16-6.74,1.44-1.61,3.44-2.41,6.01-2.41s4.44.82,5.9,2.47c1.46,1.65,2.19,3.88,2.19,6.68Zm-13.48,0c0,2.26.45,3.98,1.36,5.17s2.23,1.78,3.99,1.78,3.09-.59,4-1.77c.91-1.18,1.36-2.9,1.36-5.17s-.46-3.96-1.36-5.13c-.91-1.17-2.25-1.75-4.03-1.75s-3.08.58-3.97,1.73-1.34,2.87-1.34,5.15Z"></path>
    <path d="m233.45,101.81h-2.68v-25.13h2.68v25.13Z"></path>
    <path d="m241.65,84.11v11.48c0,1.44.33,2.52.99,3.23s1.68,1.07,3.08,1.07c1.85,0,3.21-.51,4.06-1.52.86-1.01,1.29-2.66,1.29-4.96v-9.3h2.68v17.7h-2.21l-.39-2.37h-.14c-.55.87-1.31,1.54-2.29,2-.97.46-2.08.69-3.33.69-2.15,0-3.77-.51-4.84-1.53-1.07-1.02-1.61-2.66-1.61-4.91v-11.58h2.71Z"></path>
    <path d="m265.15,99.92c.47,0,.93-.03,1.37-.1s.79-.14,1.05-.22v2.05c-.29.14-.72.26-1.28.35-.57.09-1.07.14-1.53.14-3.42,0-5.13-1.8-5.13-5.41v-10.53h-2.54v-1.29l2.54-1.11,1.13-3.78h1.55v4.1h5.13v2.08h-5.13v10.41c0,1.07.25,1.88.76,2.45s1.2.86,2.08.86Z"></path>
    <path d="m270.88,79.32c0-.61.15-1.06.45-1.35.3-.28.68-.43,1.13-.43s.8.15,1.12.44.47.74.47,1.34-.16,1.05-.47,1.35-.68.44-1.12.44c-.45,0-.83-.15-1.13-.44s-.45-.75-.45-1.35Zm2.91,22.49h-2.68v-17.7h2.68v17.7Z"></path>
    <path d="m294.74,92.94c0,2.88-.73,5.14-2.18,6.76-1.45,1.62-3.46,2.43-6.02,2.43-1.58,0-2.99-.37-4.21-1.11s-2.17-1.81-2.84-3.2-1-3.01-1-4.88c0-2.88.72-5.13,2.16-6.74,1.44-1.61,3.44-2.41,6.01-2.41s4.44.82,5.9,2.47c1.46,1.65,2.19,3.88,2.19,6.68Zm-13.48,0c0,2.26.45,3.98,1.36,5.17s2.23,1.78,3.99,1.78,3.09-.59,4-1.77c.91-1.18,1.36-2.9,1.36-5.17s-.45-3.96-1.36-5.13c-.91-1.17-2.25-1.75-4.03-1.75s-3.08.58-3.97,1.73-1.34,2.87-1.34,5.15Z"></path>
    <path d="m311.55,101.81v-11.45c0-1.44-.33-2.52-.99-3.23s-1.68-1.07-3.08-1.07c-1.85,0-3.21.5-4.07,1.5s-1.29,2.65-1.29,4.96v9.28h-2.68v-17.7h2.18l.44,2.42h.13c.55-.87,1.32-1.55,2.31-2.03s2.09-.72,3.31-.72c2.13,0,3.74.51,4.81,1.54,1.08,1.03,1.61,2.67,1.61,4.93v11.55h-2.68Z"></path>
  </g>
  <g>
    <path d="m472.69,730.69c0,2.08-.75,3.7-2.26,4.86s-3.55,1.74-6.14,1.74c-2.8,0-4.95-.36-6.46-1.08v-2.65c.97.41,2.02.73,3.16.97s2.27.36,3.39.36c1.83,0,3.21-.35,4.13-1.04.93-.7,1.39-1.66,1.39-2.9,0-.82-.16-1.49-.49-2.01s-.88-1-1.65-1.45-1.94-.94-3.51-1.5c-2.2-.79-3.77-1.72-4.71-2.79-.94-1.08-1.41-2.48-1.41-4.21,0-1.82.68-3.27,2.05-4.34s3.18-1.61,5.43-1.61,4.51.43,6.48,1.29l-.86,2.39c-1.95-.82-3.84-1.23-5.68-1.23-1.45,0-2.59.31-3.41.94s-1.23,1.49-1.23,2.6c0,.82.15,1.49.45,2.01s.81,1,1.53,1.44c.72.44,1.81.92,3.29,1.45,2.48.88,4.18,1.83,5.11,2.84s1.4,2.33,1.4,3.94Z"></path>
    <path d="m479.64,719.28v11.48c0,1.44.33,2.52.98,3.23s1.68,1.07,3.08,1.07c1.85,0,3.21-.51,4.06-1.52.86-1.01,1.28-2.66,1.28-4.96v-9.3h2.68v17.7h-2.21l-.39-2.37h-.15c-.55.87-1.31,1.54-2.29,2s-2.09.69-3.33.69c-2.15,0-3.77-.51-4.84-1.53s-1.61-2.66-1.61-4.91v-11.58h2.71Z"></path>
    <path d="m505.65,718.99c2.33,0,4.13.79,5.42,2.38,1.29,1.59,1.93,3.84,1.93,6.74s-.65,5.16-1.95,6.77c-1.3,1.61-3.1,2.41-5.4,2.41-1.15,0-2.2-.21-3.16-.64-.95-.43-1.75-1.08-2.4-1.96h-.19l-.57,2.28h-1.92v-25.13h2.68v6.1c0,1.37-.04,2.59-.13,3.68h.13c1.25-1.77,3.1-2.65,5.55-2.65Zm-.39,2.24c-1.83,0-3.15.52-3.96,1.57-.81,1.05-1.21,2.82-1.21,5.3s.41,4.27,1.24,5.34c.83,1.07,2.16,1.61,3.99,1.61,1.65,0,2.87-.6,3.68-1.8.81-1.2,1.21-2.92,1.21-5.17s-.4-4.02-1.21-5.15-2.06-1.7-3.75-1.7Z"></path>
    <path d="m529.1,732.15c0,1.65-.61,2.92-1.84,3.81s-2.95,1.34-5.17,1.34c-2.35,0-4.18-.37-5.49-1.11v-2.49c.85.43,1.76.77,2.74,1.02.97.25,1.91.37,2.82.37,1.4,0,2.48-.22,3.23-.67.75-.45,1.13-1.13,1.13-2.04,0-.69-.3-1.28-.9-1.77-.6-.49-1.76-1.07-3.5-1.74-1.65-.61-2.82-1.15-3.51-1.61-.69-.46-1.21-.98-1.55-1.56-.34-.58-.51-1.28-.51-2.08,0-1.44.59-2.58,1.76-3.42,1.17-.83,2.78-1.25,4.83-1.25,1.91,0,3.77.39,5.59,1.16l-.95,2.18c-1.78-.73-3.39-1.1-4.83-1.1-1.27,0-2.23.2-2.87.6s-.97.95-.97,1.65c0,.47.12.88.36,1.21.24.33.63.65,1.17.95s1.57.74,3.1,1.31c2.1.76,3.52,1.53,4.26,2.31.74.78,1.11,1.75,1.11,2.92Z"></path>
    <path d="m539.17,735.09c.47,0,.93-.03,1.37-.1s.79-.14,1.05-.22v2.05c-.29.14-.72.26-1.28.35-.57.09-1.07.14-1.53.14-3.42,0-5.13-1.8-5.13-5.41v-10.53h-2.54v-1.29l2.54-1.11,1.13-3.78h1.55v4.1h5.13v2.08h-5.13v10.41c0,1.07.25,1.88.76,2.45s1.2.86,2.08.86Z"></path>
    <path d="m553.2,718.96c.79,0,1.49.06,2.12.19l-.37,2.49c-.73-.16-1.38-.24-1.94-.24-1.43,0-2.66.58-3.67,1.74-1.02,1.16-1.53,2.61-1.53,4.34v9.49h-2.68v-17.7h2.21l.31,3.28h.13c.66-1.15,1.45-2.04,2.37-2.66s1.94-.94,3.05-.94Z"></path>
    <path d="m569.51,736.98l-.53-2.52h-.13c-.88,1.11-1.76,1.86-2.64,2.25-.88.39-1.97.59-3.29.59-1.75,0-3.13-.45-4.13-1.36-1-.9-1.49-2.19-1.49-3.86,0-3.57,2.86-5.45,8.57-5.62l3-.1v-1.1c0-1.39-.3-2.41-.9-3.08-.6-.66-1.55-.99-2.87-.99-1.47,0-3.14.45-5.01,1.36l-.82-2.05c.87-.47,1.83-.85,2.87-1.11,1.04-.27,2.08-.4,3.12-.4,2.11,0,3.67.47,4.69,1.4,1.02.94,1.53,2.44,1.53,4.51v12.08h-1.99Zm-6.06-1.89c1.67,0,2.98-.46,3.93-1.37.95-.92,1.43-2.2,1.43-3.84v-1.6l-2.68.11c-2.13.08-3.67.41-4.61.99-.94.59-1.41,1.5-1.41,2.74,0,.97.29,1.71.88,2.21.59.51,1.41.76,2.46.76Z"></path>
    <path d="m582.74,735.09c.47,0,.93-.03,1.37-.1s.79-.14,1.05-.22v2.05c-.29.14-.72.26-1.28.35-.57.09-1.07.14-1.53.14-3.42,0-5.13-1.8-5.13-5.41v-10.53h-2.54v-1.29l2.54-1.11,1.13-3.78h1.55v4.1h5.13v2.08h-5.13v10.41c0,1.07.25,1.88.76,2.45s1.2.86,2.08.86Z"></path>
    <path d="m596.17,737.3c-2.62,0-4.68-.8-6.19-2.39s-2.27-3.81-2.27-6.64.7-5.12,2.11-6.8c1.41-1.68,3.29-2.52,5.66-2.52,2.22,0,3.97.73,5.26,2.19,1.29,1.46,1.94,3.38,1.94,5.77v1.7h-12.19c.05,2.08.58,3.65,1.57,4.73.99,1.08,2.4,1.61,4.21,1.61,1.91,0,3.79-.4,5.65-1.19v2.39c-.95.41-1.84.7-2.69.88-.85.18-1.87.27-3.06.27Zm-.73-16.1c-1.42,0-2.55.46-3.4,1.39s-1.34,2.21-1.49,3.84h9.25c0-1.69-.38-2.98-1.13-3.88s-1.83-1.35-3.23-1.35Z"></path>
    <path d="m615.61,714.48c0-.61.15-1.06.45-1.35.3-.28.68-.43,1.13-.43s.8.15,1.11.44.47.74.47,1.34-.16,1.05-.47,1.35-.68.44-1.11.44c-.45,0-.83-.15-1.13-.44s-.45-.75-.45-1.35Zm2.91,22.49h-2.68v-17.7h2.68v17.7Z"></path>
    <path d="m635.62,732.15c0,1.65-.61,2.92-1.84,3.81s-2.95,1.34-5.17,1.34c-2.35,0-4.18-.37-5.49-1.11v-2.49c.85.43,1.76.77,2.74,1.02.97.25,1.91.37,2.82.37,1.4,0,2.48-.22,3.23-.67.75-.45,1.13-1.13,1.13-2.04,0-.69-.3-1.28-.9-1.77-.6-.49-1.76-1.07-3.5-1.74-1.65-.61-2.82-1.15-3.51-1.61-.69-.46-1.21-.98-1.55-1.56-.34-.58-.51-1.28-.51-2.08,0-1.44.59-2.58,1.76-3.42,1.17-.83,2.78-1.25,4.83-1.25,1.91,0,3.77.39,5.59,1.16l-.95,2.18c-1.78-.73-3.39-1.1-4.83-1.1-1.27,0-2.23.2-2.87.6s-.97.95-.97,1.65c0,.47.12.88.36,1.21.24.33.63.65,1.17.95s1.57.74,3.1,1.31c2.1.76,3.52,1.53,4.26,2.31.74.78,1.11,1.75,1.11,2.92Z"></path>
    <path d="m663.02,736.98l-3.25-10.38c-.2-.64-.59-2.08-1.15-4.33h-.13c-.43,1.88-.81,3.34-1.13,4.36l-3.34,10.35h-3.1l-4.83-17.7h2.81c1.14,4.45,2.01,7.83,2.61,10.16.6,2.33.94,3.89,1.02,4.7h.13c.12-.61.31-1.41.57-2.38s.49-1.75.69-2.32l3.25-10.16h2.91l3.16,10.16c.6,1.85,1.01,3.41,1.23,4.67h.13c.04-.39.16-.98.35-1.79.19-.81,1.31-5.15,3.37-13.03h2.78l-4.89,17.7h-3.18Z"></path>
    <path d="m674.07,714.48c0-.61.15-1.06.45-1.35.3-.28.68-.43,1.13-.43s.8.15,1.11.44.47.74.47,1.34-.16,1.05-.47,1.35-.68.44-1.11.44c-.45,0-.83-.15-1.13-.44s-.45-.75-.45-1.35Zm2.91,22.49h-2.68v-17.7h2.68v17.7Z"></path>
    <path d="m688.37,735.09c.47,0,.93-.03,1.37-.1s.79-.14,1.05-.22v2.05c-.29.14-.72.26-1.28.35-.57.09-1.07.14-1.53.14-3.42,0-5.13-1.8-5.13-5.41v-10.53h-2.54v-1.29l2.54-1.11,1.13-3.78h1.55v4.1h5.13v2.08h-5.13v10.41c0,1.07.25,1.88.76,2.45s1.2.86,2.08.86Z"></path>
    <path d="m706.44,736.98v-11.45c0-1.44-.33-2.52-.98-3.23s-1.68-1.07-3.08-1.07c-1.86,0-3.22.51-4.08,1.52-.85,1.01-1.28,2.67-1.28,4.97v9.25h-2.68v-25.13h2.68v7.61c0,.92-.04,1.67-.13,2.28h.16c.53-.85,1.28-1.52,2.25-2.01.97-.49,2.09-.73,3.33-.73,2.16,0,3.79.51,4.87,1.54,1.08,1.03,1.62,2.66,1.62,4.9v11.55h-2.68Z"></path>
    <path d="m726.67,734.6h-.15c-1.24,1.8-3.09,2.7-5.55,2.7-2.31,0-4.12-.79-5.4-2.37-1.29-1.58-1.93-3.83-1.93-6.75s.65-5.18,1.94-6.8,3.09-2.42,5.39-2.42,4.24.87,5.52,2.62h.21l-.11-1.28-.06-1.24v-7.2h2.68v25.13h-2.18l-.36-2.37Zm-5.36.45c1.83,0,3.16-.5,3.98-1.49.82-1,1.23-2.6,1.23-4.82v-.57c0-2.51-.42-4.3-1.25-5.37s-2.17-1.61-4-1.61c-1.57,0-2.78.61-3.61,1.83-.84,1.22-1.25,2.95-1.25,5.17s.41,3.97,1.24,5.12c.83,1.15,2.05,1.73,3.65,1.73Z"></path>
    <path d="m742.97,718.96c.79,0,1.49.06,2.12.19l-.37,2.49c-.73-.16-1.38-.24-1.94-.24-1.43,0-2.66.58-3.67,1.74-1.02,1.16-1.53,2.61-1.53,4.34v9.49h-2.68v-17.7h2.21l.31,3.28h.13c.66-1.15,1.45-2.04,2.37-2.66s1.94-.94,3.05-.94Z"></path>
    <path d="m759.27,736.98l-.53-2.52h-.13c-.88,1.11-1.76,1.86-2.64,2.25-.88.39-1.97.59-3.29.59-1.75,0-3.13-.45-4.13-1.36-1-.9-1.49-2.19-1.49-3.86,0-3.57,2.86-5.45,8.57-5.62l3-.1v-1.1c0-1.39-.3-2.41-.9-3.08-.6-.66-1.55-.99-2.87-.99-1.47,0-3.14.45-5.01,1.36l-.82-2.05c.87-.47,1.83-.85,2.87-1.11,1.04-.27,2.08-.4,3.12-.4,2.11,0,3.67.47,4.69,1.4,1.02.94,1.53,2.44,1.53,4.51v12.08h-1.99Zm-6.06-1.89c1.67,0,2.98-.46,3.93-1.37.95-.92,1.43-2.2,1.43-3.84v-1.6l-2.68.11c-2.13.08-3.67.41-4.61.99-.94.59-1.41,1.5-1.41,2.74,0,.97.29,1.71.88,2.21.59.51,1.41.76,2.46.76Z"></path>
    <path d="m781.24,736.98l-3.25-10.38c-.2-.64-.59-2.08-1.15-4.33h-.13c-.43,1.88-.81,3.34-1.13,4.36l-3.34,10.35h-3.1l-4.83-17.7h2.81c1.14,4.45,2.01,7.83,2.61,10.16.6,2.33.94,3.89,1.02,4.7h.13c.12-.61.31-1.41.57-2.38s.49-1.75.69-2.32l3.25-10.16h2.91l3.16,10.16c.6,1.85,1.01,3.41,1.23,4.67h.13c.04-.39.16-.98.35-1.79.19-.81,1.31-5.15,3.37-13.03h2.78l-4.89,17.7h-3.18Z"></path>
    <path d="m804.62,736.98v-11.45c0-1.44-.33-2.52-.98-3.23s-1.68-1.07-3.08-1.07c-1.85,0-3.21.5-4.07,1.5s-1.29,2.65-1.29,4.96v9.28h-2.68v-17.7h2.18l.44,2.42h.13c.55-.87,1.32-1.55,2.31-2.03s2.09-.72,3.31-.72c2.13,0,3.74.51,4.81,1.54,1.08,1.03,1.61,2.67,1.61,4.93v11.55h-2.68Z"></path>
    <path d="m815.61,733.13l.24.37c-.28,1.08-.68,2.33-1.21,3.75-.53,1.43-1.08,2.75-1.65,3.98h-2.02c.29-1.12.61-2.5.96-4.15.35-1.65.59-2.97.73-3.96h2.94Z"></path>
    <path d="m394.99,776.98c-2.62,0-4.68-.8-6.19-2.39s-2.27-3.81-2.27-6.64.7-5.12,2.11-6.8c1.41-1.68,3.29-2.52,5.66-2.52,2.22,0,3.97.73,5.26,2.19,1.29,1.46,1.94,3.38,1.94,5.77v1.7h-12.19c.05,2.08.58,3.65,1.57,4.73.99,1.08,2.4,1.61,4.21,1.61,1.91,0,3.79-.4,5.65-1.19v2.39c-.95.41-1.84.7-2.69.88-.85.18-1.87.27-3.06.27Zm-.73-16.1c-1.42,0-2.55.46-3.4,1.39s-1.34,2.21-1.49,3.84h9.25c0-1.69-.38-2.98-1.13-3.88s-1.83-1.35-3.23-1.35Z"></path>
    <path d="m418.18,776.66v-11.45c0-1.44-.33-2.52-.98-3.23s-1.68-1.07-3.08-1.07c-1.85,0-3.21.5-4.07,1.5s-1.29,2.65-1.29,4.96v9.28h-2.68v-17.7h2.18l.44,2.42h.13c.55-.87,1.32-1.55,2.31-2.03s2.09-.72,3.31-.72c2.13,0,3.74.51,4.81,1.54,1.08,1.03,1.61,2.67,1.61,4.93v11.55h-2.68Z"></path>
    <path d="m432.08,774.77c.47,0,.93-.03,1.37-.1s.79-.14,1.05-.22v2.05c-.29.14-.72.26-1.28.35-.57.09-1.07.14-1.53.14-3.42,0-5.13-1.8-5.13-5.41v-10.53h-2.54v-1.29l2.54-1.11,1.13-3.78h1.55v4.1h5.13v2.08h-5.13v10.41c0,1.07.25,1.88.76,2.45s1.2.86,2.08.86Z"></path>
    <path d="m446.12,758.64c.79,0,1.49.06,2.12.19l-.37,2.49c-.73-.16-1.38-.24-1.94-.24-1.43,0-2.66.58-3.67,1.74-1.02,1.16-1.53,2.61-1.53,4.34v9.49h-2.68v-17.7h2.21l.31,3.28h.13c.66-1.15,1.45-2.04,2.37-2.66s1.94-.94,3.05-.94Z"></path>
    <path d="m462.42,776.66l-.53-2.52h-.13c-.88,1.11-1.76,1.86-2.64,2.25-.88.39-1.97.59-3.29.59-1.75,0-3.13-.45-4.13-1.36-1-.9-1.49-2.19-1.49-3.86,0-3.57,2.86-5.45,8.57-5.62l3-.1v-1.1c0-1.39-.3-2.41-.9-3.08-.6-.66-1.55-.99-2.87-.99-1.47,0-3.14.45-5.01,1.36l-.82-2.05c.87-.47,1.83-.85,2.87-1.11,1.04-.27,2.08-.4,3.12-.4,2.11,0,3.67.47,4.69,1.4,1.02.94,1.53,2.44,1.53,4.51v12.08h-1.99Zm-6.06-1.89c1.67,0,2.98-.46,3.93-1.37.95-.92,1.43-2.2,1.43-3.84v-1.6l-2.68.11c-2.13.08-3.67.41-4.61.99-.94.59-1.41,1.5-1.41,2.74,0,.97.29,1.71.88,2.21.59.51,1.41.76,2.46.76Z"></path>
    <path d="m469.71,754.17c0-.61.15-1.06.45-1.35.3-.28.68-.43,1.13-.43s.8.15,1.11.44.47.74.47,1.34-.16,1.05-.47,1.35-.68.44-1.11.44c-.45,0-.83-.15-1.13-.44s-.45-.75-.45-1.35Zm2.91,22.49h-2.68v-17.7h2.68v17.7Z"></path>
    <path d="m490.41,776.66v-11.45c0-1.44-.33-2.52-.98-3.23s-1.68-1.07-3.08-1.07c-1.85,0-3.21.5-4.07,1.5s-1.29,2.65-1.29,4.96v9.28h-2.68v-17.7h2.18l.44,2.42h.13c.55-.87,1.32-1.55,2.31-2.03s2.09-.72,3.31-.72c2.13,0,3.74.51,4.81,1.54,1.08,1.03,1.61,2.67,1.61,4.93v11.55h-2.68Z"></path>
    <path d="m498.37,754.17c0-.61.15-1.06.45-1.35.3-.28.68-.43,1.13-.43s.8.15,1.11.44.47.74.47,1.34-.16,1.05-.47,1.35-.68.44-1.11.44c-.45,0-.83-.15-1.13-.44s-.45-.75-.45-1.35Zm2.91,22.49h-2.68v-17.7h2.68v17.7Z"></path>
    <path d="m519.07,776.66v-11.45c0-1.44-.33-2.52-.98-3.23s-1.68-1.07-3.08-1.07c-1.85,0-3.21.5-4.07,1.5s-1.29,2.65-1.29,4.96v9.28h-2.68v-17.7h2.18l.44,2.42h.13c.55-.87,1.32-1.55,2.31-2.03s2.09-.72,3.31-.72c2.13,0,3.74.51,4.81,1.54,1.08,1.03,1.61,2.67,1.61,4.93v11.55h-2.68Z"></path>
    <path d="m541.74,758.96v1.7l-3.28.39c.3.38.57.87.81,1.48s.36,1.29.36,2.06c0,1.73-.59,3.12-1.78,4.15s-2.81,1.55-4.88,1.55c-.53,0-1.02-.04-1.49-.13-1.14.6-1.71,1.36-1.71,2.28,0,.48.2.84.6,1.07s1.08.35,2.05.35h3.13c1.92,0,3.39.4,4.42,1.21s1.54,1.98,1.54,3.52c0,1.96-.79,3.45-2.36,4.48-1.57,1.03-3.86,1.54-6.88,1.54-2.31,0-4.1-.43-5.35-1.29s-1.88-2.08-1.88-3.65c0-1.08.34-2.01,1.03-2.79s1.66-1.32,2.91-1.6c-.45-.2-.83-.52-1.14-.95-.31-.43-.46-.93-.46-1.5,0-.65.17-1.21.52-1.7s.89-.95,1.63-1.4c-.92-.38-1.66-1.02-2.24-1.92-.58-.9-.86-1.94-.86-3.1,0-1.94.58-3.43,1.74-4.48,1.16-1.05,2.81-1.57,4.94-1.57.93,0,1.76.11,2.5.32h6.12Zm-14.11,20.67c0,.96.4,1.68,1.21,2.18s1.96.74,3.47.74c2.25,0,3.92-.34,5-1.01,1.08-.67,1.62-1.59,1.62-2.74,0-.96-.3-1.62-.89-1.99-.59-.37-1.71-.56-3.34-.56h-3.21c-1.22,0-2.16.29-2.84.87s-1.02,1.42-1.02,2.5Zm1.45-15c0,1.24.35,2.17,1.05,2.81s1.67.95,2.92.95c2.62,0,3.92-1.27,3.92-3.81s-1.32-3.99-3.97-3.99c-1.26,0-2.23.34-2.91,1.02s-1.02,1.68-1.02,3.02Z"></path>
    <path d="m564.85,776.66l-.53-2.52h-.13c-.88,1.11-1.76,1.86-2.64,2.25-.88.39-1.97.59-3.29.59-1.75,0-3.13-.45-4.13-1.36-1-.9-1.49-2.19-1.49-3.86,0-3.57,2.86-5.45,8.57-5.62l3-.1v-1.1c0-1.39-.3-2.41-.9-3.08-.6-.66-1.55-.99-2.87-.99-1.47,0-3.14.45-5.01,1.36l-.82-2.05c.87-.47,1.83-.85,2.87-1.11,1.04-.27,2.08-.4,3.12-.4,2.11,0,3.67.47,4.69,1.4,1.02.94,1.53,2.44,1.53,4.51v12.08h-1.99Zm-6.06-1.89c1.67,0,2.98-.46,3.93-1.37.95-.92,1.43-2.2,1.43-3.84v-1.6l-2.68.11c-2.13.08-3.67.41-4.61.99-.94.59-1.41,1.5-1.41,2.74,0,.97.29,1.71.88,2.21.59.51,1.41.76,2.46.76Z"></path>
    <path d="m583.63,776.66h-2.68v-25.13h2.68v25.13Z"></path>
    <path d="m600.19,776.66l-.53-2.52h-.13c-.88,1.11-1.76,1.86-2.64,2.25-.88.39-1.97.59-3.29.59-1.75,0-3.13-.45-4.13-1.36-1-.9-1.49-2.19-1.49-3.86,0-3.57,2.86-5.45,8.57-5.62l3-.1v-1.1c0-1.39-.3-2.41-.9-3.08-.6-.66-1.55-.99-2.87-.99-1.47,0-3.14.45-5.01,1.36l-.82-2.05c.87-.47,1.83-.85,2.87-1.11,1.04-.27,2.08-.4,3.12-.4,2.11,0,3.67.47,4.69,1.4,1.02.94,1.53,2.44,1.53,4.51v12.08h-1.99Zm-6.06-1.89c1.67,0,2.98-.46,3.93-1.37.95-.92,1.43-2.2,1.43-3.84v-1.6l-2.68.11c-2.13.08-3.67.41-4.61.99-.94.59-1.41,1.5-1.41,2.74,0,.97.29,1.71.88,2.21.59.51,1.41.76,2.46.76Z"></path>
    <path d="m604.89,758.96h2.87l3.88,10.09c.85,2.3,1.38,3.97,1.58,4.99h.13c.14-.55.43-1.49.88-2.82.45-1.33,1.91-5.42,4.38-12.26h2.87l-7.61,20.15c-.75,1.99-1.63,3.4-2.64,4.24-1.01.83-2.24,1.25-3.71,1.25-.82,0-1.63-.09-2.42-.27v-2.15c.59.13,1.25.19,1.99.19,1.84,0,3.15-1.03,3.94-3.1l.98-2.52-7.14-17.79Z"></path>
    <path d="m631.84,776.98c-2.62,0-4.68-.8-6.19-2.39s-2.27-3.81-2.27-6.64.7-5.12,2.11-6.8c1.41-1.68,3.29-2.52,5.66-2.52,2.22,0,3.97.73,5.26,2.19,1.29,1.46,1.94,3.38,1.94,5.77v1.7h-12.19c.05,2.08.58,3.65,1.57,4.73.99,1.08,2.4,1.61,4.21,1.61,1.91,0,3.79-.4,5.65-1.19v2.39c-.95.41-1.84.7-2.69.88-.85.18-1.87.27-3.06.27Zm-.73-16.1c-1.42,0-2.55.46-3.4,1.39s-1.34,2.21-1.49,3.84h9.25c0-1.69-.38-2.98-1.13-3.88s-1.83-1.35-3.23-1.35Z"></path>
    <path d="m650.99,758.64c.79,0,1.49.06,2.12.19l-.37,2.49c-.73-.16-1.38-.24-1.94-.24-1.43,0-2.66.58-3.67,1.74-1.02,1.16-1.53,2.61-1.53,4.34v9.49h-2.68v-17.7h2.21l.31,3.28h.13c.66-1.15,1.45-2.04,2.37-2.66s1.94-.94,3.05-.94Z"></path>
    <path d="m680.28,767.79c0,2.88-.73,5.14-2.18,6.76-1.45,1.62-3.46,2.43-6.02,2.43-1.58,0-2.99-.37-4.21-1.11s-2.17-1.81-2.84-3.2-1-3.01-1-4.88c0-2.88.72-5.13,2.16-6.74,1.44-1.61,3.44-2.41,6.01-2.41s4.44.82,5.9,2.47c1.46,1.65,2.19,3.88,2.19,6.68Zm-13.48,0c0,2.26.45,3.98,1.36,5.17s2.23,1.78,3.99,1.78,3.09-.59,4-1.77c.91-1.18,1.36-2.9,1.36-5.17s-.46-3.96-1.36-5.13c-.91-1.17-2.25-1.75-4.03-1.75s-3.08.58-3.97,1.73-1.34,2.87-1.34,5.15Z"></path>
    <path d="m692.96,761.04h-4.51v15.61h-2.68v-15.61h-3.16v-1.21l3.16-.97v-.98c0-4.35,1.9-6.52,5.7-6.52.94,0,2.03.19,3.29.57l-.69,2.15c-1.03-.33-1.92-.5-2.65-.5-1.01,0-1.76.34-2.24,1.01s-.73,1.75-.73,3.24v1.15h4.51v2.08Z"></path>
    <path d="m716.19,771.83c0,1.65-.61,2.92-1.84,3.81s-2.95,1.34-5.17,1.34c-2.35,0-4.18-.37-5.49-1.11v-2.49c.85.43,1.76.77,2.74,1.02.97.25,1.91.37,2.82.37,1.4,0,2.48-.22,3.23-.67.75-.45,1.13-1.13,1.13-2.04,0-.69-.3-1.28-.9-1.77-.6-.49-1.76-1.07-3.5-1.74-1.65-.61-2.82-1.15-3.51-1.61-.69-.46-1.21-.98-1.55-1.56-.34-.58-.51-1.28-.51-2.08,0-1.44.59-2.58,1.76-3.42,1.17-.83,2.78-1.25,4.83-1.25,1.91,0,3.77.39,5.59,1.16l-.95,2.18c-1.78-.73-3.39-1.1-4.83-1.1-1.27,0-2.23.2-2.87.6s-.97.95-.97,1.65c0,.47.12.88.36,1.21.24.33.63.65,1.17.95s1.57.74,3.1,1.31c2.1.76,3.52,1.53,4.26,2.31.74.78,1.11,1.75,1.11,2.92Z"></path>
    <path d="m735.83,767.79c0,2.88-.73,5.14-2.18,6.76-1.45,1.62-3.46,2.43-6.02,2.43-1.58,0-2.99-.37-4.21-1.11s-2.17-1.81-2.84-3.2-1-3.01-1-4.88c0-2.88.72-5.13,2.16-6.74,1.44-1.61,3.44-2.41,6.01-2.41s4.44.82,5.9,2.47c1.46,1.65,2.19,3.88,2.19,6.68Zm-13.48,0c0,2.26.45,3.98,1.36,5.17s2.23,1.78,3.99,1.78,3.09-.59,4-1.77c.91-1.18,1.36-2.9,1.36-5.17s-.46-3.96-1.36-5.13c-.91-1.17-2.25-1.75-4.03-1.75s-3.08.58-3.97,1.73-1.34,2.87-1.34,5.15Z"></path>
    <path d="m743.21,776.66h-2.68v-25.13h2.68v25.13Z"></path>
    <path d="m751.41,758.96v11.48c0,1.44.33,2.52.98,3.23s1.68,1.07,3.08,1.07c1.85,0,3.21-.51,4.06-1.52.86-1.01,1.28-2.66,1.28-4.96v-9.3h2.68v17.7h-2.21l-.39-2.37h-.15c-.55.87-1.31,1.54-2.29,2s-2.09.69-3.33.69c-2.15,0-3.77-.51-4.84-1.53s-1.61-2.66-1.61-4.91v-11.58h2.71Z"></path>
    <path d="m774.91,774.77c.47,0,.93-.03,1.37-.1s.79-.14,1.05-.22v2.05c-.29.14-.72.26-1.28.35-.57.09-1.07.14-1.53.14-3.42,0-5.13-1.8-5.13-5.41v-10.53h-2.54v-1.29l2.54-1.11,1.13-3.78h1.55v4.1h5.13v2.08h-5.13v10.41c0,1.07.25,1.88.76,2.45s1.2.86,2.08.86Z"></path>
    <path d="m780.64,754.17c0-.61.15-1.06.45-1.35.3-.28.68-.43,1.13-.43s.8.15,1.11.44.47.74.47,1.34-.16,1.05-.47,1.35-.68.44-1.11.44c-.45,0-.83-.15-1.13-.44s-.45-.75-.45-1.35Zm2.91,22.49h-2.68v-17.7h2.68v17.7Z"></path>
    <path d="m804.5,767.79c0,2.88-.73,5.14-2.18,6.76-1.45,1.62-3.46,2.43-6.02,2.43-1.58,0-2.99-.37-4.21-1.11s-2.17-1.81-2.84-3.2-1-3.01-1-4.88c0-2.88.72-5.13,2.16-6.74,1.44-1.61,3.44-2.41,6.01-2.41s4.44.82,5.9,2.47c1.46,1.65,2.19,3.88,2.19,6.68Zm-13.48,0c0,2.26.45,3.98,1.36,5.17s2.23,1.78,3.99,1.78,3.09-.59,4-1.77c.91-1.18,1.36-2.9,1.36-5.17s-.46-3.96-1.36-5.13c-.91-1.17-2.25-1.75-4.03-1.75s-3.08.58-3.97,1.73-1.34,2.87-1.34,5.15Z"></path>
    <path d="m821.31,776.66v-11.45c0-1.44-.33-2.52-.98-3.23s-1.68-1.07-3.08-1.07c-1.85,0-3.21.5-4.07,1.5s-1.29,2.65-1.29,4.96v9.28h-2.68v-17.7h2.18l.44,2.42h.13c.55-.87,1.32-1.55,2.31-2.03s2.09-.72,3.31-.72c2.13,0,3.74.51,4.81,1.54,1.08,1.03,1.61,2.67,1.61,4.93v11.55h-2.68Z"></path>
  </g>
  <rect height="286.55" width="368.15" y="373.16" x="33.01" class="cls-5"></rect>
  <path d="m245.17,348.76s-2.02,26.91,66.16,26.91h-66.16v-26.91" class="cls-5"></path>
  <path d="m190.01,348.84s1.99,26.91-65.3,26.91h65.3v-26.91" class="cls-5"></path>
  <rect height="342.71" width="55.94" y="271.88" x="189.23" class="cls-18"></rect>
  <polyline points="33.8 210.35 33.8 658.99 400.6 658.99 400.6 210.35" class="cls-2"></polyline>
  <rect height="286.55" width="368.15" y="377.29" x="461.69" class="cls-5"></rect>
  <path d="m673.85,318.1s-2.02,61.6,66.16,61.6h-66.16v-61.6" class="cls-5"></path>
  <path d="m618.69,318.28s1.99,61.6-65.3,61.6h65.3v-61.6" class="cls-5"></path>
  <rect height="342.71" width="55.94" y="145.94" x="617.9" class="cls-18"></rect>
  <polyline points="462.47 214.48 462.47 663.12 829.28 663.12 829.28 214.48" class="cls-2"></polyline>
  <g>
    <path d="m757.95,348.08h-6.61v-.38h6.61v.38Zm0-13.61h-6.61v-13.23h6.61v13.23Zm0-26.46h-6.61v-13.23h6.61v13.23Zm0-26.46h-6.61v-13.23h6.61v13.23Zm0-26.46h-6.61v-13.23h6.61v13.23Zm0-26.46h-6.61v-13.23h6.61v13.23Zm0-26.46h-6.61v-13.23h6.61v13.23Zm0-26.46h-6.61v-13.23h6.61v13.23Z" class="cls-14"></path>
    <polygon points="743.43 175.69 754.64 164.47 765.85 175.69 765.85 166.16 754.64 154.95 743.43 166.16 743.43 175.69" class="cls-14"></polygon>
  </g>
  <g>
    <path d="m325.35,340.23h-6.61v-.38h6.61v.38Zm0-13.61h-6.61v-13.23h6.61v13.23Zm0-26.46h-6.61v-13.23h6.61v13.23Zm0-26.46h-6.61v-13.23h6.61v13.23Zm0-26.46h-6.61v-13.23h6.61v13.23Zm0-26.46h-6.61v-13.23h6.61v13.23Zm0-26.46h-6.61v-13.23h6.61v13.23Zm0-26.46h-6.61v-13.23h6.61v13.23Z" class="cls-14"></path>
    <polygon points="310.83 327.05 322.04 338.27 333.25 327.05 333.25 336.57 322.04 347.78 310.83 336.57 310.83 327.05" class="cls-14"></polygon>
  </g>
  <g>
    <g class="cls-13">
      <circle r="2.65" cy="63.96" cx="783.99" class="cls-1"></circle>
    </g>
    <g class="cls-10">
      <path d="m784.86,62.22c-.27-.13-.54-.19-.83-.19-.34,0-.65.09-.95.26-.29.17-.52.4-.67.69-.16.28-.24.61-.24.97,0,.57.17,1.03.52,1.39s.79.54,1.33.54c.29,0,.55-.05.78-.15s.47-.29.73-.55l-.45-.49c-.19.2-.37.34-.53.41-.16.08-.33.11-.53.11-.23,0-.43-.05-.61-.16-.19-.11-.33-.26-.43-.45s-.15-.41-.15-.65c0-.35.11-.65.34-.89.23-.24.51-.36.84-.36.39,0,.75.18,1.06.53l.46-.47c-.19-.24-.42-.42-.69-.55" class="cls-4"></path>
    </g>
    <g class="cls-6">
      <path d="m822.01,41.04c0,.67-.19,2.26-1.42,3.25-1.23.99-2.6,1.23-3.94,1.05-1.33-.17-2.02-1.36-1.98-2.43.04-1.06.5-1.99,2.13-2.44,1.63-.44,3.51-.67,5.22-1.46v2.02Zm.5-12.02c-3.99-.91-7.2-.39-8.8.43s-3.27,2.3-3.42,4.67h5.11s.57-1.37,2.75-1.41c2.18-.04,3.52.47,3.75,1.44.23.97-.58,1.72-1.92,2.05-1.33.33-3.46.56-4.95.87-1.49.31-4.18,1.43-4.84,3.23-.66,1.8-.68,4.24.06,5.9.74,1.66,3.19,3.39,6.44,3.29,3.25-.1,5.86-.31,7.78-2.05s2.52-3.56,2.52-5.44.02-7.6.02-8.24-.5-3.83-4.49-4.74" class="cls-8"></path>
    </g>
    <g class="cls-15">
      <rect height="19.6" width="63.17" y="8.08" x="737.62" class="cls-19"></rect>
    </g>
    <g class="cls-11">
      <path d="m805.44,23.45h-2.91v26.04h5.38v-23.57c0-1.36-1.11-2.47-2.47-2.47" class="cls-8"></path>
    </g>
    <g class="cls-17">
      <path d="m798.32,29.35h-2.84v20.14h5.26v-17.72c0-1.33-1.09-2.42-2.42-2.42" class="cls-8"></path>
    </g>
    <g class="cls-7">
      <path d="m790.43,38.45c-1.82-1.1-4.06-1.45-6.73-2.11-2.67-.66-3.31-1.34-3.32-1.98,0-.64.37-1.3,1.13-1.49.76-.19,1.99-.35,3.27-.06,1.28.29,1.94,1.53,2.26,1.84.31.31.88.54,1.27.54h3.68c-.13-2.19-.81-3.8-2.4-4.96-1.59-1.16-3.54-1.82-7.53-1.59-3.99.23-6.11,2.28-6.79,4.62-.68,2.34.04,4.74,1.92,5.96,1.88,1.22,4.99,1.84,6.89,2.24,1.9.41,3.37,1,3.27,2.26-.1,1.27-2.23,1.93-4.78,1.61-2.54-.32-2.8-2.93-2.8-2.93h-5.13c-.17,3.35,1.43,5.17,3.5,6.13,2.07.97,5.61,1.32,9.36.48,3.75-.83,5.19-3.5,5.2-5.86.02-2.36-.46-3.62-2.28-4.72" class="cls-8"></path>
    </g>
    <g class="cls-9">
      <path d="m770.62,38.45c-1.82-1.1-4.06-1.45-6.73-2.11-2.67-.66-3.31-1.34-3.32-1.98,0-.64.37-1.3,1.13-1.49.76-.19,1.99-.35,3.27-.06,1.28.29,1.94,1.53,2.26,1.84.31.31.88.54,1.27.54h3.68c-.13-2.19-.81-3.8-2.4-4.96-1.59-1.16-3.54-1.82-7.53-1.59-3.99.23-6.11,2.28-6.79,4.62-.68,2.34.04,4.74,1.92,5.96,1.88,1.22,4.99,1.84,6.89,2.24,1.9.41,3.37,1,3.27,2.26-.1,1.27-2.23,1.93-4.78,1.61-2.54-.32-2.8-2.93-2.8-2.93h-5.13c-.17,3.35,1.43,5.17,3.5,6.13,2.07.97,5.61,1.32,9.36.48,3.75-.83,5.19-3.5,5.2-5.86.02-2.36-.46-3.62-2.28-4.72" class="cls-8"></path>
    </g>
    <g class="cls-16">
      <path d="m739.89,44.85c-5.19,0-7.48-4.06-7.48-9.05s2.52-9.02,7.49-9.02,7.49,4.04,7.49,9.02-2.31,9.05-7.5,9.05m.01-22.74c-8.56,0-12.91,6.12-12.91,13.67s3.94,13.71,12.89,13.71,12.93-6.16,12.93-13.71-4.35-13.67-12.91-13.67" class="cls-8"></path>
    </g>
    <g class="cls-12">
      <path d="m824.19,57.82c.27-.06.53-.15.77-.27v-1.06c-.29.14-.58.24-.85.3-.27.06-.56.09-.86.09-.39,0-.69-.11-.91-.33-.22-.22-.33-.52-.35-.92h3.25v-.67c0-.72-.2-1.28-.6-1.68-.4-.41-.95-.61-1.66-.61s-1.33.23-1.75.69c-.42.46-.63,1.11-.63,1.96s.23,1.46.69,1.9c.46.45,1.09.67,1.9.67.39,0,.73-.03,1-.09m-.5-3.88c.17.19.26.45.27.79h-1.93c.02-.34.12-.6.28-.79.17-.18.39-.28.69-.28s.52.09.69.28m-3.98,1.74c-.09-.18-.22-.34-.41-.48-.18-.14-.47-.29-.87-.45-.44-.18-.73-.31-.86-.4-.13-.09-.2-.2-.2-.32,0-.22.2-.33.61-.33.23,0,.45.04.67.1.22.07.46.16.71.27l.41-.99c-.57-.26-1.16-.4-1.77-.4s-1.13.12-1.48.37c-.35.25-.52.59-.52,1.04,0,.26.04.48.12.66.08.18.21.34.4.48.18.14.47.29.85.45.27.11.49.21.65.3.16.09.28.16.34.23.07.07.1.16.1.26,0,.29-.25.43-.75.43-.24,0-.53-.04-.85-.12s-.61-.18-.86-.3v1.14c.23.1.47.17.73.22s.57.07.94.07c.72,0,1.25-.14,1.61-.41.36-.27.54-.66.54-1.18,0-.25-.04-.46-.13-.65m-4.83,2.14v-5.04h-1.38v2.37c0,.6-.09,1.02-.26,1.28-.17.26-.45.39-.83.39-.28,0-.49-.09-.62-.27-.13-.18-.19-.45-.19-.82v-2.95h-1.38v3.29c0,.6.15,1.05.45,1.37.3.32.75.48,1.34.48.35,0,.65-.06.92-.19.27-.13.48-.31.63-.54h.07l.18.64h1.06Zm-6.64-6.59l-2.46,6.59h1.25l2.46-6.59h-1.25Zm-6.35,4.06c0-.52.08-.91.25-1.15.17-.24.42-.36.76-.36.26,0,.45.09.57.27.12.18.18.46.18.82v2.95h1.38v-3.29c0-.65-.15-1.12-.44-1.41-.29-.29-.73-.44-1.3-.44-.33,0-.63.06-.89.19-.26.13-.46.31-.6.55h-.12c-.27-.49-.78-.74-1.53-.74-.33,0-.62.07-.88.2-.26.13-.45.31-.59.54h-.08l-.19-.65h-1.05v5.04h1.37v-2.37c0-.59.08-1.02.24-1.28.16-.26.41-.39.77-.39.26,0,.45.09.57.27.12.18.18.46.18.82v2.95h1.38v-2.53Zm-5.94-1.38c-.2-.39-.48-.7-.85-.91-.37-.21-.8-.32-1.28-.32-.78,0-1.38.23-1.81.69-.43.46-.65,1.1-.65,1.92,0,.53.1.99.3,1.39.2.4.48.7.85.91.37.21.8.32,1.28.32.77,0,1.38-.23,1.81-.69s.65-1.11.65-1.93c0-.53-.1-.99-.3-1.38m-2.95.26c.16-.25.43-.37.79-.37s.64.12.8.37c.16.25.24.62.24,1.12s-.08.88-.24,1.13c-.16.25-.43.38-.79.38s-.64-.13-.8-.38c-.16-.26-.25-.63-.25-1.13s.08-.88.24-1.13m-3.18,3.66c.23-.05.45-.15.67-.29v-1.18c-.23.15-.45.26-.68.33-.23.07-.47.11-.74.11-.72,0-1.07-.49-1.07-1.48s.36-1.52,1.07-1.52c.19,0,.37.03.56.08.19.06.39.13.6.21l.41-1.06c-.46-.23-.99-.34-1.57-.34-.8,0-1.41.23-1.84.68-.43.45-.64,1.11-.64,1.96,0,1.72.78,2.58,2.35,2.58.35,0,.63-.03.86-.08m-5.52-.09c.14.13.33.2.59.2s.44-.07.58-.2c.14-.14.21-.32.21-.56s-.07-.44-.21-.57c-.14-.13-.33-.2-.58-.2s-.45.06-.59.19c-.14.13-.2.32-.2.57s.07.43.21.57m-2.79-1.84c0,.3-.1.55-.29.73-.19.18-.45.28-.76.28-.45,0-.67-.19-.67-.58,0-.27.1-.47.29-.6.2-.13.49-.2.89-.22l.53-.02v.41Zm1.37,1.92v-3.36c0-.6-.18-1.05-.54-1.34-.36-.29-.88-.44-1.56-.44s-1.35.15-1.93.46l.46.93c.54-.24,1.02-.37,1.42-.37.52,0,.78.26.78.77v.22l-.87.03c-.76.03-1.32.17-1.69.42-.37.25-.56.65-.56,1.18s.14.91.42,1.18c.28.28.66.41,1.14.41.39,0,.71-.06.96-.17.25-.11.48-.32.72-.61h.04l.27.69h.96Zm-5.6-7.02h-1.38v7.02h1.38v-7.02Zm-2.81,1.98h-1.38v5.04h1.38v-5.04Zm-.69-.63c.25,0,.44-.06.56-.18.13-.12.19-.29.19-.5,0-.45-.25-.67-.75-.67s-.75.22-.75.67.25.68.75.68m-1.89,3.53c-.09-.18-.22-.34-.41-.48-.18-.14-.47-.29-.87-.45-.44-.18-.73-.31-.86-.4-.13-.09-.2-.2-.2-.32,0-.22.2-.33.61-.33.23,0,.45.04.67.1.22.07.46.16.71.27l.42-.99c-.57-.26-1.17-.4-1.77-.4-.64,0-1.13.12-1.48.37-.35.25-.52.59-.52,1.04,0,.26.04.48.12.66.08.18.21.34.4.48.18.14.47.29.85.45.27.11.49.21.65.3.16.09.28.16.34.23.07.07.1.16.1.26,0,.29-.25.43-.75.43-.24,0-.53-.04-.85-.12-.32-.08-.61-.18-.86-.3v1.14c.23.1.47.17.73.22s.57.07.94.07c.72,0,1.25-.14,1.61-.41.36-.27.54-.66.54-1.18,0-.25-.04-.46-.13-.65m-4.59,0c-.09-.18-.22-.34-.41-.48-.18-.14-.47-.29-.87-.45-.44-.18-.73-.31-.86-.4-.13-.09-.2-.2-.2-.32,0-.22.2-.33.61-.33.23,0,.45.04.67.1.22.07.46.16.71.27l.41-.99c-.57-.26-1.17-.4-1.77-.4-.64,0-1.13.12-1.48.37-.35.25-.52.59-.52,1.04,0,.26.04.48.12.66.08.18.22.34.4.48.18.14.47.29.86.45.27.11.49.21.65.3.16.09.28.16.34.23.07.07.1.16.1.26,0,.29-.25.43-.75.43-.24,0-.53-.04-.85-.12-.32-.08-.61-.18-.86-.3v1.14c.23.1.47.17.73.22.26.05.57.07.94.07.72,0,1.25-.14,1.61-.41.36-.27.54-.66.54-1.18,0-.25-.04-.46-.13-.65m-4.82-1.77c-.2-.39-.48-.7-.85-.91-.37-.21-.8-.32-1.28-.32-.78,0-1.38.23-1.81.69-.43.46-.64,1.1-.64,1.92,0,.53.1.99.3,1.39s.48.7.85.91c.37.21.8.32,1.28.32.77,0,1.38-.23,1.81-.69.43-.46.65-1.11.65-1.93,0-.53-.1-.99-.3-1.38m-2.95.26c.16-.25.43-.37.79-.37s.64.12.8.37c.16.25.24.62.24,1.12s-.08.88-.24,1.13c-.16.25-.42.38-.79.38s-.64-.13-.8-.38c-.16-.26-.25-.63-.25-1.13s.08-.88.24-1.13m-3.95,3.58c.14.13.33.2.59.2s.44-.07.58-.2c.14-.14.21-.32.21-.56s-.07-.44-.21-.57c-.14-.13-.33-.2-.58-.2s-.46.06-.59.19c-.14.13-.2.32-.2.57s.07.43.21.57m-2.27.08l1.45-5.04h-1.35l-.6,2.23c-.03.13-.08.39-.15.76-.07.38-.12.67-.14.89h-.03c0-.08-.01-.2-.03-.34-.02-.14-.04-.28-.07-.43s-.05-.28-.07-.41c-.03-.13-.04-.23-.06-.29l-.59-2.42h-1.52l-.62,2.42-.07.38c-.09.5-.15.86-.16,1.09h-.03c-.1-.7-.19-1.26-.28-1.66l-.58-2.23h-1.37l1.43,5.04h1.48l.92-3.99h.03l.52,2.23.39,1.76h1.5Zm-7.9,0l1.45-5.04h-1.35l-.6,2.23c-.03.13-.08.39-.15.76-.07.38-.12.67-.14.89h-.03c0-.08-.01-.2-.03-.34-.02-.14-.04-.28-.07-.43s-.05-.28-.07-.41c-.03-.13-.04-.23-.06-.29l-.59-2.42h-1.52l-.62,2.42-.07.38c-.09.5-.15.86-.16,1.09h-.03c-.1-.7-.19-1.26-.28-1.66l-.58-2.23h-1.37l1.43,5.04h1.48l.92-3.99h.03l.52,2.23.39,1.76h1.5Zm-7.9,0l1.45-5.04h-1.35l-.6,2.23c-.03.13-.08.39-.15.76-.07.38-.12.67-.14.89h-.03c0-.08-.01-.2-.03-.34-.02-.14-.04-.28-.07-.43-.02-.15-.05-.28-.07-.41-.03-.13-.04-.23-.06-.29l-.59-2.42h-1.52l-.62,2.42-.07.38c-.09.5-.15.86-.16,1.09h-.03c-.1-.7-.19-1.26-.28-1.66l-.58-2.23h-1.37l1.43,5.04h1.48l.92-3.99h.03l.52,2.23.39,1.76h1.5Z" class="cls-8"></path>
    </g>
    <g class="cls-20">
      <path d="m806.94,65.42c-.11-.1-.16-.24-.16-.41,0-.24.09-.43.27-.55.18-.12.47-.19.87-.2l.51-.02v.35c0,.31-.09.55-.28.72-.19.17-.43.26-.74.26-.21,0-.37-.05-.48-.15m2.35.72v-2.69c0-.47-.13-.82-.39-1.04s-.64-.33-1.15-.33c-.23,0-.47.03-.73.09-.26.06-.49.14-.71.26l.27.61c.17-.08.35-.15.54-.21s.38-.09.59-.09c.25,0,.43.06.55.19.12.13.18.32.18.57v.21l-.69.02c-.63.02-1.09.13-1.4.34-.3.21-.46.52-.46.93,0,.39.11.69.33.9s.53.32.92.32c.3,0,.56-.04.75-.13.19-.09.39-.25.58-.5h.03l.17.56h.61Zm-4.32-5.61h-.85v5.61h.85v-5.61Zm-2.83.91c.08.08.2.12.36.12s.27-.04.35-.12c.08-.08.12-.2.12-.34,0-.15-.04-.27-.12-.35-.08-.08-.2-.12-.35-.12s-.27.04-.36.12c-.08.08-.12.2-.12.35s.04.26.12.34m.77.72h-.85v3.99h.85v-3.99Zm-1.87,2.36c-.07-.14-.18-.26-.33-.37-.15-.11-.39-.22-.72-.35-.39-.15-.65-.27-.76-.36-.12-.09-.18-.19-.18-.32,0-.25.22-.38.67-.38.29,0,.66.09,1.09.27l.27-.64c-.42-.19-.86-.29-1.33-.29s-.85.09-1.12.28c-.28.19-.41.45-.41.8,0,.28.08.52.24.69.16.18.47.36.93.53.24.09.42.17.55.25.13.07.23.14.29.21.06.07.09.15.09.25,0,.32-.26.47-.78.47-.4,0-.84-.11-1.31-.32v.73c.32.16.75.24,1.28.24s.94-.1,1.22-.31c.28-.21.43-.51.43-.9,0-.19-.04-.36-.11-.5m-3.6,0c-.07-.14-.18-.26-.33-.37-.15-.11-.39-.22-.72-.35-.39-.15-.65-.27-.76-.36-.12-.09-.18-.19-.18-.32,0-.25.22-.38.67-.38.29,0,.66.09,1.09.27l.27-.64c-.42-.19-.86-.29-1.33-.29s-.85.09-1.12.28c-.27.19-.41.45-.41.8,0,.28.08.52.24.69.16.18.47.36.93.53.24.09.42.17.55.25.13.07.23.14.29.21.06.07.09.15.09.25,0,.32-.26.47-.78.47-.4,0-.84-.11-1.31-.32v.73c.32.16.75.24,1.28.24s.94-.1,1.22-.31c.28-.21.43-.51.43-.9,0-.19-.04-.36-.11-.5m-7.25-2.48c.26-.33.65-.5,1.17-.5s.9.17,1.16.5c.26.33.39.83.39,1.47s-.13,1.15-.39,1.48c-.26.33-.65.5-1.16.5s-.9-.17-1.16-.5c-.26-.34-.39-.83-.39-1.48s.13-1.14.4-1.47m2.99-.53c-.43-.47-1.03-.71-1.82-.71s-1.41.23-1.84.7c-.43.47-.64,1.14-.64,2.01s.21,1.54.64,2.01c.43.47,1.04.71,1.83.71s1.4-.24,1.82-.72c.43-.48.64-1.14.64-2s-.21-1.53-.64-2m-15.55,3.89c-.1-.1-.15-.25-.15-.45v-2.14h1.14v-.64h-1.14v-.89h-.52l-.29.84-.58.31v.38h.54v2.15c0,.85.4,1.27,1.21,1.27.16,0,.31-.01.46-.04.15-.03.27-.06.36-.1v-.64c-.21.07-.41.1-.62.1-.17,0-.3-.05-.4-.15m-2.26-1.84c0-.97-.48-1.46-1.45-1.46-.27,0-.51.05-.72.16-.21.11-.37.26-.48.45h-.05c.03-.26.04-.5.04-.73v-1.43h-.85v5.61h.85v-1.98c0-.5.08-.86.25-1.07s.43-.32.79-.32c.27,0,.47.08.59.23.12.15.19.38.19.69v2.45h.85v-2.6Zm-6.83-.71c.13-.14.31-.21.56-.21s.43.07.55.21c.12.14.18.34.18.6,0,.52-.25.79-.74.79-.24,0-.42-.07-.55-.2-.13-.13-.19-.33-.19-.58,0-.27.06-.47.19-.61m-.34,3.47c.14-.11.34-.17.58-.17h.64c.34,0,.57.04.69.11.12.07.19.2.19.37,0,.22-.11.39-.34.53-.23.13-.57.2-1.03.2-.3,0-.53-.05-.69-.15-.17-.1-.25-.24-.25-.42,0-.19.07-.35.21-.46m1.54-4.15c-.06-.02-.16-.03-.28-.05-.12-.02-.24-.02-.35-.02-.51,0-.89.12-1.17.36-.27.24-.41.57-.41,1.01,0,.27.06.5.19.71.13.2.3.35.5.43-.17.1-.29.2-.37.31-.08.1-.13.23-.13.38,0,.12.04.23.11.34.07.11.17.18.28.23-.28.06-.5.18-.65.35-.16.17-.23.37-.23.62,0,.36.14.63.43.82.29.19.7.29,1.24.29.7,0,1.24-.12,1.62-.37s.56-.59.56-1.05c0-.35-.11-.62-.34-.81-.23-.19-.56-.28-1-.28h-.7c-.23,0-.39-.02-.47-.07-.09-.05-.13-.11-.13-.21,0-.15.09-.28.27-.4.1.02.22.03.35.03.5,0,.89-.12,1.17-.35.28-.24.43-.56.43-.97,0-.14-.02-.27-.06-.39-.04-.12-.09-.23-.16-.31l.68-.13v-.46h-1.38Zm-3.97-.72c.08.08.2.12.36.12s.26-.04.35-.12c.08-.08.13-.2.13-.34,0-.15-.04-.27-.13-.35-.08-.08-.2-.12-.35-.12s-.27.04-.36.12c-.08.08-.12.2-.12.35s.04.26.12.34m.77.72h-.85v3.99h.85v-3.99Zm-2.7.14c-.21.14-.39.33-.52.57h-.04l-.11-.7h-.66v3.99h.85v-2.09c0-.35.11-.64.32-.86.21-.22.49-.33.83-.33.13,0,.25.01.37.04l.08-.79c-.11-.02-.25-.04-.42-.04-.25,0-.47.07-.69.21m-4.3,3.85l-.15.38c-.17.47-.45.71-.86.71-.16,0-.31-.01-.44-.04v.67c.18.04.36.06.55.06.72,0,1.24-.42,1.55-1.25l1.71-4.52h-.92c-.55,1.6-.86,2.5-.92,2.69-.06.19-.1.35-.12.48h-.03c-.04-.28-.12-.59-.25-.91l-.81-2.26h-.92l1.6,3.99Zm-3.09-3.03c.16.23.24.57.24,1.02s-.08.79-.24,1.03-.39.36-.68.36c-.35,0-.6-.11-.75-.33-.15-.22-.23-.57-.23-1.06v-.13c0-.43.08-.75.23-.95.16-.2.4-.3.74-.3.31,0,.54.11.69.34m.68,2.55c.28-.37.42-.87.42-1.53s-.14-1.16-.42-1.52c-.28-.36-.67-.54-1.16-.54-.53,0-.93.2-1.19.61h-.04c-.06-.28-.1-.46-.12-.53h-.69v5.77h.85v-1.63c0-.07-.02-.28-.05-.61h.05c.28.36.67.55,1.18.55s.89-.18,1.17-.55m-6.83-2.54c.16-.24.42-.35.77-.35.68,0,1.02.46,1.02,1.37s-.34,1.38-1.01,1.38-1.02-.46-1.02-1.38c0-.44.08-.78.24-1.01m2.16-.49c-.34-.37-.79-.56-1.37-.56s-1.07.18-1.4.54c-.33.36-.5.87-.5,1.52,0,.42.08.78.23,1.1.15.32.37.56.66.73.29.17.62.25.99.25.6,0,1.06-.18,1.4-.55s.5-.87.5-1.53-.17-1.13-.51-1.5m-4.76-1.01c.2.06.39.14.56.22l.31-.72c-.46-.23-.96-.34-1.49-.34s-.96.11-1.34.33c-.38.22-.67.53-.87.95-.2.41-.3.89-.3,1.44,0,.87.21,1.54.62,2.01.41.47,1.01.7,1.78.7.52,0,.99-.08,1.41-.24v-.74c-.23.07-.44.13-.65.17-.21.04-.43.07-.65.07-.52,0-.91-.17-1.19-.5-.27-.33-.41-.82-.41-1.47s.14-1.1.43-1.45c.28-.35.67-.53,1.17-.53.22,0,.43.03.63.1" class="cls-4"></path>
    </g>
  </g>
</svg>