<svg viewBox="0 0 848 279.11" xmlns:xlink="http://www.w3.org/1999/xlink" height="279.11" width="848" xmlns="http://www.w3.org/2000/svg" data-sanitized-data-name="Layer 1" data-name="Layer 1" id="Layer_1">
  <defs>
    <style>
      .cls-1 {
        fill: #ccd4ec;
      }

      .cls-2 {
        fill: #54565a;
      }

      .cls-3 {
        fill: #fff;
      }

      .cls-4 {
        stroke-width: 3px;
      }

      .cls-4, .cls-5 {
        fill: none;
        stroke: #54565a;
        stroke-linecap: round;
        stroke-linejoin: round;
      }

      .cls-6 {
        fill: #949fd0;
      }

      .cls-5 {
        stroke-width: 10px;
      }

      .cls-7 {
        font-family: OpenSans, 'Open Sans';
        font-size: 15px;
      }

      .cls-8 {
        fill: #00b4c5;
      }

      .cls-9 {
        fill: #939ecf;
      }

      .cls-10 {
        clip-path: url(#clippath);
      }
    </style>
    <clipPath id="clippath">
      <path d="M28.5,21l52.26,10.41v.6l-50.05-8.61,4.36,4.8,45.69,4.5v.59c-14.65-1.01-29.14-1.99-43.79-3l3.35,3.68c13.52,0,26.92,0,40.44,0v.51h5.38v-1.79c0-1.39-1.11-2.53-2.47-2.53h-2.91v.56L22.96,14.88l5.53,6.12Z" class="cls-9"></path>
    </clipPath>
  </defs>
  <path d="M239.98,191.11h374.8v8.31H231.67c0-4.59,3.72-8.31,8.31-8.31Z" class="cls-8"></path>
  <path d="M518.61,195.27v-61.04s101.06-12.27,104.61,65.2" class="cls-8"></path>
  <rect ry="6.67" rx="6.67" height="33.78" width="808" y="213.33" x="16.24" class="cls-1"></rect>
  <text transform="translate(400.99 271.52)" class="cls-7"><tspan y="0" x="0">Stage</tspan></text>
  <rect ry="3.54" rx="3.54" height="13.91" width="543.11" y="199.42" x="148.68" class="cls-6"></rect>
  <polyline points="535.5 44.61 535.5 81.94 518.61 98.83 518.61 188.61" class="cls-5"></polyline>
  <g>
    <path d="M719.45,192.42c0,.94-.34,1.68-1.03,2.21s-1.61.79-2.78.79c-1.27,0-2.25-.16-2.93-.49v-1.2c.44.19.92.33,1.44.44s1.03.16,1.54.16c.83,0,1.46-.16,1.88-.47.42-.32.63-.75.63-1.32,0-.37-.07-.67-.22-.91-.15-.24-.4-.46-.75-.66-.35-.2-.88-.43-1.59-.68-1-.36-1.71-.78-2.13-1.27-.43-.49-.64-1.12-.64-1.91,0-.83.31-1.48.93-1.97s1.44-.73,2.46-.73,2.04.2,2.94.59l-.39,1.08c-.88-.37-1.74-.56-2.58-.56-.66,0-1.17.14-1.54.42-.37.28-.56.68-.56,1.18,0,.37.07.67.21.91.14.24.37.45.69.65.33.2.82.42,1.49.66,1.12.4,1.9.83,2.32,1.29.42.46.63,1.05.63,1.79Z"></path>
    <path d="M722.6,187.24v5.21c0,.66.15,1.14.45,1.46.3.32.76.48,1.4.48.84,0,1.45-.23,1.84-.69.39-.46.58-1.21.58-2.25v-4.22h1.22v8.03h-1l-.18-1.08h-.07c-.25.39-.59.7-1.04.91-.44.21-.95.31-1.51.31-.98,0-1.71-.23-2.19-.7-.49-.46-.73-1.21-.73-2.23v-5.25h1.23Z"></path>
    <path d="M734.4,187.11c1.05,0,1.87.36,2.46,1.08.58.72.88,1.74.88,3.06s-.29,2.34-.88,3.07c-.59.73-1.41,1.09-2.45,1.09-.52,0-1-.1-1.43-.29-.43-.19-.79-.49-1.09-.89h-.09l-.26,1.03h-.87v-11.4h1.22v2.77c0,.62-.02,1.18-.06,1.67h.06c.57-.8,1.41-1.2,2.52-1.2ZM734.23,188.13c-.83,0-1.43.24-1.79.71-.37.48-.55,1.28-.55,2.41s.19,1.94.56,2.42c.38.49.98.73,1.81.73.75,0,1.3-.27,1.67-.82.37-.54.55-1.33.55-2.35s-.18-1.82-.55-2.34-.93-.77-1.7-.77Z"></path>
    <path d="M745.04,193.08c0,.75-.28,1.32-.83,1.73s-1.34.61-2.34.61c-1.07,0-1.9-.17-2.49-.51v-1.13c.38.2.8.35,1.24.46.44.11.87.17,1.28.17.63,0,1.12-.1,1.46-.3.34-.2.51-.51.51-.93,0-.31-.13-.58-.41-.8-.27-.22-.8-.48-1.59-.79-.75-.28-1.28-.52-1.59-.73-.31-.21-.55-.44-.7-.71-.15-.26-.23-.58-.23-.94,0-.65.27-1.17.8-1.55.53-.38,1.26-.57,2.19-.57.86,0,1.71.18,2.53.53l-.43.99c-.81-.33-1.54-.5-2.19-.5-.58,0-1.01.09-1.3.27s-.44.43-.44.75c0,.21.05.4.17.55.11.15.29.29.53.43s.71.33,1.41.59c.95.35,1.6.7,1.93,1.05.33.35.5.79.5,1.33Z"></path>
    <path d="M749.61,194.41c.21,0,.42-.02.62-.05.2-.03.36-.06.48-.1v.93c-.13.06-.33.12-.58.16-.26.04-.49.06-.69.06-1.55,0-2.33-.82-2.33-2.45v-4.78h-1.15v-.59l1.15-.51.51-1.71h.7v1.86h2.33v.95h-2.33v4.72c0,.48.11.85.34,1.11.23.26.54.39.94.39Z"></path>
    <path d="M755.97,187.09c.36,0,.68.03.96.09l-.17,1.13c-.33-.07-.62-.11-.88-.11-.65,0-1.21.26-1.67.79-.46.53-.69,1.18-.69,1.97v4.31h-1.22v-8.03h1l.14,1.49h.06c.3-.52.66-.92,1.08-1.21s.88-.42,1.38-.42Z"></path>
    <path d="M763.37,195.27l-.24-1.14h-.06c-.4.5-.8.84-1.2,1.02-.4.18-.89.27-1.49.27-.8,0-1.42-.21-1.87-.62-.45-.41-.68-.99-.68-1.75,0-1.62,1.3-2.47,3.89-2.55l1.36-.04v-.5c0-.63-.13-1.09-.41-1.39-.27-.3-.7-.45-1.3-.45-.67,0-1.43.21-2.27.62l-.37-.93c.39-.21.83-.38,1.3-.51.47-.12.94-.18,1.42-.18.96,0,1.67.21,2.13.64.46.42.69,1.11.69,2.04v5.48h-.9ZM760.62,194.41c.76,0,1.35-.21,1.78-.62.43-.42.65-1,.65-1.74v-.72l-1.21.05c-.97.03-1.66.18-2.09.45-.43.27-.64.68-.64,1.24,0,.44.13.77.4,1,.27.23.64.34,1.12.34Z"></path>
    <path d="M769.37,194.41c.21,0,.42-.02.62-.05.2-.03.36-.06.48-.1v.93c-.13.06-.33.12-.58.16-.26.04-.49.06-.69.06-1.55,0-2.33-.82-2.33-2.45v-4.78h-1.15v-.59l1.15-.51.51-1.71h.7v1.86h2.33v.95h-2.33v4.72c0,.48.11.85.34,1.11.23.26.54.39.94.39Z"></path>
    <path d="M775.46,195.41c-1.19,0-2.12-.36-2.81-1.08-.69-.72-1.03-1.73-1.03-3.01s.32-2.32.96-3.08c.64-.76,1.49-1.14,2.57-1.14,1.01,0,1.8.33,2.39.99.59.66.88,1.54.88,2.62v.77h-5.53c.02.94.26,1.66.71,2.15.45.49,1.09.73,1.91.73.86,0,1.72-.18,2.56-.54v1.08c-.43.19-.84.32-1.22.4-.38.08-.85.12-1.39.12ZM775.13,188.11c-.64,0-1.16.21-1.54.63-.38.42-.61,1-.68,1.74h4.2c0-.77-.17-1.35-.51-1.76-.34-.41-.83-.61-1.46-.61Z"></path>
  </g>
  <g>
    <path d="M571.36,73.11l-3.63-9.49h-.06c.07.75.1,1.65.1,2.68v6.81h-1.15v-10.71h1.88l3.39,8.83h.06l3.42-8.83h1.86v10.71h-1.25v-6.9c0-.79.03-1.65.1-2.58h-.06l-3.66,9.48h-1Z"></path>
    <path d="M586.91,69.09c0,1.31-.33,2.33-.99,3.07-.66.74-1.57,1.1-2.73,1.1-.72,0-1.35-.17-1.91-.51-.56-.34-.99-.82-1.29-1.45-.3-.63-.46-1.37-.46-2.21,0-1.31.33-2.33.98-3.06.65-.73,1.56-1.09,2.72-1.09s2.01.37,2.68,1.12c.66.75.99,1.76.99,3.03ZM580.79,69.09c0,1.03.21,1.81.62,2.34.41.54,1.01.81,1.81.81s1.4-.27,1.81-.8c.41-.53.62-1.32.62-2.35s-.21-1.79-.62-2.33c-.41-.53-1.02-.79-1.83-.79s-1.4.26-1.8.78-.61,1.3-.61,2.34Z"></path>
    <path d="M590.8,73.11l-3.05-8.03h1.3l1.73,4.76c.39,1.11.62,1.84.69,2.17h.06c.05-.26.22-.79.51-1.61.29-.81.93-2.59,1.92-5.32h1.3l-3.05,8.03h-1.42Z"></path>
    <path d="M599.95,73.26c-1.19,0-2.12-.36-2.81-1.08-.69-.72-1.03-1.73-1.03-3.01s.32-2.32.96-3.08c.64-.76,1.49-1.14,2.57-1.14,1.01,0,1.8.33,2.39.99.59.66.88,1.54.88,2.62v.77h-5.53c.02.94.26,1.66.71,2.15.45.49,1.09.73,1.91.73.86,0,1.72-.18,2.56-.54v1.08c-.43.19-.84.32-1.22.4-.38.08-.85.12-1.39.12ZM599.62,65.95c-.64,0-1.16.21-1.54.63-.38.42-.61,1-.68,1.74h4.2c0-.77-.17-1.35-.51-1.76-.34-.41-.83-.61-1.46-.61Z"></path>
    <path d="M615.2,73.11v-5.22c0-.64-.14-1.12-.41-1.44-.27-.32-.7-.48-1.28-.48-.76,0-1.32.22-1.68.65s-.54,1.1-.54,2.01v4.48h-1.22v-5.22c0-.64-.14-1.12-.41-1.44-.27-.32-.7-.48-1.28-.48-.76,0-1.32.23-1.67.68-.35.46-.53,1.2-.53,2.25v4.21h-1.22v-8.03h.99l.2,1.1h.06c.23-.39.55-.7.97-.92.42-.22.88-.33,1.4-.33,1.25,0,2.08.45,2.46,1.36h.06c.24-.42.59-.75,1.04-1s.97-.37,1.55-.37c.91,0,1.59.23,2.04.7.45.47.68,1.21.68,2.24v5.24h-1.21Z"></path>
    <path d="M622.31,73.26c-1.19,0-2.12-.36-2.81-1.08-.69-.72-1.03-1.73-1.03-3.01s.32-2.32.96-3.08c.64-.76,1.49-1.14,2.57-1.14,1.01,0,1.8.33,2.39.99.59.66.88,1.54.88,2.62v.77h-5.53c.02.94.26,1.66.71,2.15.45.49,1.09.73,1.91.73.86,0,1.72-.18,2.56-.54v1.08c-.43.19-.84.32-1.22.4-.38.08-.85.12-1.39.12ZM621.98,65.95c-.64,0-1.16.21-1.54.63-.38.42-.61,1-.68,1.74h4.2c0-.77-.17-1.35-.51-1.76-.34-.41-.83-.61-1.46-.61Z"></path>
    <path d="M632.83,73.11v-5.19c0-.65-.15-1.14-.45-1.46-.3-.32-.76-.48-1.4-.48-.84,0-1.46.23-1.85.68s-.59,1.2-.59,2.25v4.21h-1.22v-8.03h.99l.2,1.1h.06c.25-.4.6-.7,1.05-.92.45-.22.95-.33,1.5-.33.97,0,1.69.23,2.18.7.49.47.73,1.21.73,2.24v5.24h-1.22Z"></path>
    <path d="M639.14,72.25c.21,0,.42-.02.62-.05.2-.03.36-.06.48-.1v.93c-.13.06-.33.12-.58.16-.26.04-.49.06-.69.06-1.55,0-2.33-.82-2.33-2.45v-4.78h-1.15v-.59l1.15-.51.51-1.71h.7v1.86h2.33v.95h-2.33v4.72c0,.48.11.85.34,1.11.23.26.54.39.94.39Z"></path>
    <path d="M652.67,69.09c0,1.31-.33,2.33-.99,3.07-.66.74-1.57,1.1-2.73,1.1-.72,0-1.35-.17-1.91-.51-.56-.34-.99-.82-1.29-1.45-.3-.63-.46-1.37-.46-2.21,0-1.31.33-2.33.98-3.06.65-.73,1.56-1.09,2.72-1.09s2.01.37,2.68,1.12c.66.75.99,1.76.99,3.03ZM646.55,69.09c0,1.03.21,1.81.62,2.34.41.54,1.01.81,1.81.81s1.4-.27,1.81-.8c.41-.53.62-1.32.62-2.35s-.21-1.79-.62-2.33c-.41-.53-1.02-.79-1.83-.79s-1.4.26-1.8.78-.61,1.3-.61,2.34Z"></path>
    <path d="M658.42,66.03h-2.04v7.08h-1.21v-7.08h-1.44v-.55l1.44-.44v-.45c0-1.97.86-2.96,2.58-2.96.42,0,.92.09,1.49.26l-.32.97c-.47-.15-.87-.23-1.2-.23-.46,0-.8.15-1.02.46-.22.3-.33.79-.33,1.47v.52h2.04v.95Z"></path>
    <path d="M570.17,82.95c1.05,0,1.87.36,2.46,1.08.58.72.88,1.74.88,3.06s-.29,2.34-.88,3.07c-.59.73-1.41,1.09-2.45,1.09-.52,0-1-.1-1.43-.29-.43-.19-.79-.49-1.09-.89h-.09l-.26,1.03h-.87v-11.4h1.22v2.77c0,.62-.02,1.18-.06,1.67h.06c.57-.8,1.41-1.2,2.52-1.2ZM570,83.97c-.83,0-1.43.24-1.79.71-.37.48-.55,1.28-.55,2.41s.19,1.94.56,2.42c.38.49.98.73,1.81.73.75,0,1.3-.27,1.67-.82.37-.54.55-1.33.55-2.35s-.18-1.82-.55-2.34-.93-.77-1.7-.77Z"></path>
    <path d="M576.84,91.11h-1.22v-11.4h1.22v11.4Z"></path>
    <path d="M584.36,91.11l-.24-1.14h-.06c-.4.5-.8.84-1.2,1.02-.4.18-.89.27-1.49.27-.8,0-1.42-.21-1.87-.62-.45-.41-.68-.99-.68-1.75,0-1.62,1.3-2.47,3.89-2.55l1.36-.04v-.5c0-.63-.13-1.09-.41-1.39-.27-.3-.7-.45-1.3-.45-.67,0-1.43.21-2.27.62l-.37-.93c.39-.21.83-.38,1.3-.51.47-.12.94-.18,1.42-.18.96,0,1.67.21,2.13.64.46.42.69,1.11.69,2.04v5.48h-.9ZM581.61,90.25c.76,0,1.35-.21,1.78-.62.43-.42.65-1,.65-1.74v-.72l-1.21.05c-.97.03-1.66.18-2.09.45-.43.27-.64.68-.64,1.24,0,.44.13.77.4,1,.27.23.64.34,1.12.34Z"></path>
    <path d="M593.23,90.04h-.07c-.56.82-1.4,1.22-2.52,1.22-1.05,0-1.87-.36-2.45-1.08-.58-.72-.88-1.74-.88-3.06s.29-2.35.88-3.08,1.4-1.1,2.45-1.1,1.92.4,2.5,1.19h.1l-.05-.58-.03-.56v-3.27h1.21v11.4h-.99l-.16-1.08ZM590.8,90.24c.83,0,1.43-.23,1.81-.68.37-.45.56-1.18.56-2.19v-.26c0-1.14-.19-1.95-.57-2.43-.38-.49-.98-.73-1.81-.73-.71,0-1.26.28-1.64.83-.38.55-.57,1.34-.57,2.35s.19,1.8.56,2.32.93.78,1.66.78Z"></path>
    <path d="M600.35,91.26c-1.19,0-2.12-.36-2.81-1.08-.69-.72-1.03-1.73-1.03-3.01s.32-2.32.96-3.08c.64-.76,1.49-1.14,2.57-1.14,1.01,0,1.8.33,2.39.99.59.66.88,1.54.88,2.62v.77h-5.53c.02.94.26,1.66.71,2.15.45.49,1.09.73,1.91.73.86,0,1.72-.18,2.56-.54v1.08c-.43.19-.84.32-1.22.4-.38.08-.85.12-1.39.12ZM600.02,83.95c-.64,0-1.16.21-1.54.63-.38.42-.61,1-.68,1.74h4.2c0-.77-.17-1.35-.51-1.76-.34-.41-.83-.61-1.46-.61Z"></path>
  </g>
  <g>
    <path d="M516.29,12.58h3.02c1.42,0,2.45.21,3.08.64.63.43.95,1.1.95,2.01,0,.63-.18,1.16-.53,1.57-.35.41-.87.68-1.55.8v.07c1.62.28,2.44,1.13,2.44,2.56,0,.96-.32,1.7-.97,2.24-.65.54-1.55.81-2.71.81h-3.73v-10.71ZM517.54,17.17h2.05c.88,0,1.51-.14,1.9-.41.39-.28.58-.74.58-1.4,0-.6-.22-1.03-.64-1.3-.43-.27-1.11-.4-2.05-.4h-1.83v3.51ZM517.54,18.22v4.01h2.23c.86,0,1.51-.17,1.95-.5.44-.33.66-.86.66-1.57,0-.66-.22-1.15-.67-1.46-.45-.31-1.13-.47-2.04-.47h-2.13Z"></path>
    <path d="M527.04,23.29h-1.22v-11.4h1.22v11.4Z"></path>
    <path d="M534.56,23.29l-.24-1.14h-.06c-.4.5-.8.84-1.2,1.02-.4.18-.89.27-1.49.27-.8,0-1.42-.21-1.87-.62-.45-.41-.68-.99-.68-1.75,0-1.62,1.3-2.47,3.89-2.55l1.36-.04v-.5c0-.63-.13-1.1-.41-1.4-.27-.3-.7-.45-1.3-.45-.67,0-1.43.21-2.27.62l-.37-.93c.39-.21.83-.38,1.3-.5.47-.12.94-.18,1.42-.18.96,0,1.67.21,2.13.64.46.43.69,1.11.69,2.04v5.48h-.9ZM531.81,22.43c.76,0,1.35-.21,1.78-.62.43-.42.65-1,.65-1.74v-.73l-1.21.05c-.97.03-1.66.18-2.09.45-.43.27-.64.68-.64,1.24,0,.44.13.77.4,1,.27.23.64.34,1.12.34Z"></path>
    <path d="M543.43,22.21h-.07c-.56.82-1.4,1.22-2.52,1.22-1.05,0-1.87-.36-2.45-1.08-.58-.72-.88-1.74-.88-3.06s.29-2.35.88-3.08,1.4-1.1,2.45-1.1,1.92.4,2.5,1.19h.1l-.05-.58-.03-.56v-3.27h1.21v11.4h-.99l-.16-1.08ZM541,22.42c.83,0,1.43-.22,1.81-.68.37-.45.56-1.18.56-2.19v-.26c0-1.14-.19-1.95-.57-2.44-.38-.49-.98-.73-1.81-.73-.71,0-1.26.28-1.64.83-.38.55-.57,1.34-.57,2.35s.19,1.8.56,2.32.93.78,1.66.78Z"></path>
    <path d="M550.54,23.44c-1.19,0-2.12-.36-2.81-1.08-.69-.72-1.03-1.73-1.03-3.01s.32-2.32.96-3.08c.64-.76,1.49-1.14,2.57-1.14,1.01,0,1.8.33,2.39.99.59.66.88,1.53.88,2.62v.77h-5.53c.02.94.26,1.66.71,2.15.45.49,1.09.73,1.91.73.86,0,1.72-.18,2.56-.54v1.08c-.43.19-.84.32-1.22.4-.38.08-.85.12-1.39.12ZM550.22,16.14c-.64,0-1.16.21-1.54.63-.38.42-.61,1-.68,1.74h4.2c0-.77-.17-1.35-.51-1.76s-.83-.61-1.46-.61Z"></path>
  </g>
  <g>
    <path d="M74.16,161.76h3.02c1.42,0,2.45.21,3.08.64.63.42.95,1.1.95,2.01,0,.63-.18,1.16-.53,1.57-.35.41-.87.68-1.55.8v.07c1.62.28,2.44,1.13,2.44,2.56,0,.96-.32,1.7-.97,2.24-.65.54-1.55.81-2.71.81h-3.73v-10.71ZM75.41,166.35h2.05c.88,0,1.51-.14,1.9-.41.39-.28.58-.74.58-1.39,0-.6-.22-1.03-.64-1.3-.43-.27-1.11-.4-2.05-.4h-1.83v3.51ZM75.41,167.4v4.01h2.23c.86,0,1.51-.17,1.95-.5.44-.33.66-.86.66-1.57,0-.66-.22-1.15-.67-1.46-.45-.31-1.13-.47-2.04-.47h-2.13Z"></path>
    <path d="M84.92,172.47h-1.22v-11.4h1.22v11.4Z"></path>
    <path d="M92.43,172.47l-.24-1.14h-.06c-.4.5-.8.84-1.2,1.02-.4.18-.89.27-1.49.27-.8,0-1.42-.21-1.87-.62-.45-.41-.68-.99-.68-1.75,0-1.62,1.3-2.47,3.89-2.55l1.36-.04v-.5c0-.63-.13-1.09-.41-1.39-.27-.3-.7-.45-1.3-.45-.67,0-1.43.21-2.27.62l-.37-.93c.39-.21.83-.38,1.3-.51.47-.12.94-.18,1.42-.18.96,0,1.67.21,2.13.64.46.42.69,1.11.69,2.04v5.48h-.9ZM89.68,171.61c.76,0,1.35-.21,1.78-.62.43-.42.65-1,.65-1.74v-.72l-1.21.05c-.97.03-1.66.18-2.09.45-.43.27-.64.68-.64,1.24,0,.44.13.77.4,1,.27.23.64.34,1.12.34Z"></path>
    <path d="M101.3,171.4h-.07c-.56.82-1.4,1.22-2.52,1.22-1.05,0-1.87-.36-2.45-1.08-.58-.72-.88-1.74-.88-3.06s.29-2.35.88-3.08,1.4-1.1,2.45-1.1,1.92.4,2.5,1.19h.1l-.05-.58-.03-.56v-3.27h1.21v11.4h-.99l-.16-1.08ZM98.87,171.6c.83,0,1.43-.23,1.81-.68.37-.45.56-1.18.56-2.19v-.26c0-1.14-.19-1.95-.57-2.43-.38-.49-.98-.73-1.81-.73-.71,0-1.26.28-1.64.83-.38.55-.57,1.34-.57,2.35s.19,1.8.56,2.32.93.78,1.66.78Z"></path>
    <path d="M108.42,172.62c-1.19,0-2.12-.36-2.81-1.08-.69-.72-1.03-1.73-1.03-3.01s.32-2.32.96-3.08c.64-.76,1.49-1.14,2.57-1.14,1.01,0,1.8.33,2.39.99.59.66.88,1.54.88,2.62v.77h-5.53c.02.94.26,1.66.71,2.15.45.49,1.09.73,1.91.73.86,0,1.72-.18,2.56-.54v1.08c-.43.19-.84.32-1.22.4-.38.08-.85.12-1.39.12ZM108.09,165.32c-.64,0-1.16.21-1.54.63-.38.42-.61,1-.68,1.74h4.2c0-.77-.17-1.35-.51-1.76-.34-.41-.83-.61-1.46-.61Z"></path>
    <path d="M122.52,170.28c0,.75-.28,1.32-.83,1.73s-1.34.61-2.34.61c-1.07,0-1.9-.17-2.49-.51v-1.13c.38.2.8.35,1.24.46.44.11.87.17,1.28.17.63,0,1.12-.1,1.46-.3.34-.2.51-.51.51-.93,0-.31-.13-.58-.41-.8-.27-.22-.8-.48-1.59-.79-.75-.28-1.28-.52-1.59-.73-.31-.21-.55-.44-.7-.71-.15-.26-.23-.58-.23-.94,0-.65.27-1.17.8-1.55.53-.38,1.26-.57,2.19-.57.86,0,1.71.18,2.53.53l-.43.99c-.81-.33-1.54-.5-2.19-.5-.58,0-1.01.09-1.3.27s-.44.43-.44.75c0,.21.05.4.17.55.11.15.29.29.53.43s.71.33,1.41.59c.95.35,1.6.7,1.93,1.05.33.35.5.79.5,1.33Z"></path>
    <path d="M127.09,171.61c.21,0,.42-.02.62-.05.2-.03.36-.06.48-.1v.93c-.13.06-.33.12-.58.16-.26.04-.49.06-.69.06-1.55,0-2.33-.82-2.33-2.45v-4.78h-1.15v-.59l1.15-.51.51-1.71h.7v1.86h2.33v.95h-2.33v4.72c0,.48.11.85.34,1.11.23.26.54.39.94.39Z"></path>
    <path d="M134.73,172.47l-.24-1.14h-.06c-.4.5-.8.84-1.2,1.02-.4.18-.89.27-1.49.27-.8,0-1.42-.21-1.87-.62-.45-.41-.68-.99-.68-1.75,0-1.62,1.3-2.47,3.89-2.55l1.36-.04v-.5c0-.63-.13-1.09-.41-1.39-.27-.3-.7-.45-1.3-.45-.67,0-1.43.21-2.27.62l-.37-.93c.39-.21.83-.38,1.3-.51.47-.12.94-.18,1.42-.18.96,0,1.67.21,2.13.64.46.42.69,1.11.69,2.04v5.48h-.9ZM131.98,171.61c.76,0,1.35-.21,1.78-.62.43-.42.65-1,.65-1.74v-.72l-1.21.05c-.97.03-1.66.18-2.09.45-.43.27-.64.68-.64,1.24,0,.44.13.77.4,1,.27.23.64.34,1.12.34Z"></path>
    <path d="M141.79,164.3c.36,0,.68.03.96.09l-.17,1.13c-.33-.07-.62-.11-.88-.11-.65,0-1.21.26-1.67.79-.46.53-.69,1.18-.69,1.97v4.31h-1.22v-8.03h1l.14,1.49h.06c.3-.52.66-.92,1.08-1.21s.88-.42,1.38-.42Z"></path>
    <path d="M146.85,171.61c.21,0,.42-.02.62-.05.2-.03.36-.06.48-.1v.93c-.13.06-.33.12-.58.16-.26.04-.49.06-.69.06-1.55,0-2.33-.82-2.33-2.45v-4.78h-1.15v-.59l1.15-.51.51-1.71h.7v1.86h2.33v.95h-2.33v4.72c0,.48.11.85.34,1.11.23.26.54.39.94.39Z"></path>
    <path d="M149.45,162.27c0-.28.07-.48.21-.61.14-.13.31-.19.51-.19s.36.07.51.2c.14.13.21.33.21.61s-.07.48-.21.61c-.14.13-.31.2-.51.2-.21,0-.38-.07-.51-.2-.14-.13-.21-.34-.21-.61ZM150.77,172.47h-1.22v-8.03h1.22v8.03Z"></path>
    <path d="M158.84,172.47v-5.19c0-.65-.15-1.14-.45-1.46-.3-.32-.76-.48-1.4-.48-.84,0-1.46.23-1.85.68s-.59,1.2-.59,2.25v4.21h-1.22v-8.03h.99l.2,1.1h.06c.25-.4.6-.7,1.05-.92.45-.22.95-.33,1.5-.33.97,0,1.69.23,2.18.7.49.47.73,1.21.73,2.24v5.24h-1.22Z"></path>
    <path d="M169.12,164.44v.77l-1.49.18c.14.17.26.39.37.67.11.28.16.59.16.93,0,.79-.27,1.41-.81,1.88s-1.27.7-2.21.7c-.24,0-.46-.02-.67-.06-.52.27-.78.62-.78,1.03,0,.22.09.38.27.49.18.1.49.16.93.16h1.42c.87,0,1.54.18,2,.55.47.37.7.9.7,1.6,0,.89-.36,1.57-1.07,2.03-.71.47-1.75.7-3.12.7-1.05,0-1.86-.2-2.43-.59-.57-.39-.85-.94-.85-1.66,0-.49.16-.91.47-1.27.31-.36.75-.6,1.32-.73-.21-.09-.38-.24-.52-.43-.14-.19-.21-.42-.21-.68,0-.29.08-.55.23-.77.16-.22.4-.43.74-.64-.42-.17-.75-.46-1.01-.87-.26-.41-.39-.88-.39-1.41,0-.88.26-1.56.79-2.03.53-.48,1.27-.71,2.24-.71.42,0,.8.05,1.14.15h2.78ZM162.72,173.82c0,.43.18.76.55.99s.89.34,1.58.34c1.02,0,1.78-.15,2.27-.46.49-.31.74-.72.74-1.24,0-.44-.13-.74-.4-.91-.27-.17-.77-.25-1.52-.25h-1.46c-.55,0-.98.13-1.29.4s-.46.64-.46,1.13ZM163.38,167.01c0,.56.16.99.48,1.28s.76.43,1.33.43c1.19,0,1.78-.58,1.78-1.73s-.6-1.81-1.8-1.81c-.57,0-1.01.15-1.32.46s-.46.76-.46,1.37Z"></path>
    <path d="M77.71,190.62c-.52,0-1-.1-1.43-.29-.43-.19-.79-.49-1.09-.89h-.09c.06.47.09.91.09,1.33v3.3h-1.22v-11.63h.99l.17,1.1h.06c.31-.44.68-.76,1.09-.95s.89-.29,1.43-.29c1.06,0,1.89.36,2.46,1.09.58.73.87,1.75.87,3.06s-.29,2.34-.88,3.07c-.59.73-1.41,1.09-2.45,1.09ZM77.54,183.33c-.82,0-1.41.23-1.78.68-.37.45-.55,1.18-.56,2.17v.27c0,1.13.19,1.94.56,2.42.38.49.98.73,1.81.73.69,0,1.24-.28,1.63-.84.39-.56.59-1.33.59-2.32s-.2-1.77-.59-2.3c-.39-.54-.95-.8-1.66-.8Z"></path>
    <path d="M90.1,186.45c0,1.31-.33,2.33-.99,3.07-.66.74-1.57,1.1-2.73,1.1-.72,0-1.35-.17-1.91-.51-.56-.34-.99-.82-1.29-1.45-.3-.63-.46-1.37-.46-2.21,0-1.31.33-2.33.98-3.06.65-.73,1.56-1.09,2.72-1.09s2.01.37,2.68,1.12c.66.75.99,1.76.99,3.03ZM83.98,186.45c0,1.03.21,1.81.62,2.34.41.54,1.01.81,1.81.81s1.4-.27,1.81-.8c.41-.53.62-1.32.62-2.35s-.21-1.79-.62-2.33c-.41-.53-1.02-.79-1.83-.79s-1.4.26-1.8.78-.61,1.3-.61,2.34Z"></path>
    <path d="M92.13,180.27c0-.28.07-.48.21-.61.14-.13.31-.19.51-.19s.36.07.51.2c.14.13.21.33.21.61s-.07.48-.21.61c-.14.13-.31.2-.51.2-.21,0-.38-.07-.51-.2-.14-.13-.21-.34-.21-.61ZM93.45,190.47h-1.22v-8.03h1.22v8.03Z"></path>
    <path d="M101.52,190.47v-5.19c0-.65-.15-1.14-.45-1.46-.3-.32-.76-.48-1.4-.48-.84,0-1.46.23-1.85.68s-.59,1.2-.59,2.25v4.21h-1.22v-8.03h.99l.2,1.1h.06c.25-.4.6-.7,1.05-.92.45-.22.95-.33,1.5-.33.97,0,1.69.23,2.18.7.49.47.73,1.21.73,2.24v5.24h-1.22Z"></path>
    <path d="M107.83,189.61c.21,0,.42-.02.62-.05.2-.03.36-.06.48-.1v.93c-.13.06-.33.12-.58.16-.26.04-.49.06-.69.06-1.55,0-2.33-.82-2.33-2.45v-4.78h-1.15v-.59l1.15-.51.51-1.71h.7v1.86h2.33v.95h-2.33v4.72c0,.48.11.85.34,1.11.23.26.54.39.94.39Z"></path>
  </g>
  <g>
    <line y2="116.61" x2="670.39" y1="116.61" x1="553.82" class="cls-4"></line>
    <polygon points="664.41 121.7 669.5 116.61 664.41 111.53 668.73 111.53 673.82 116.61 668.73 121.7 664.41 121.7" class="cls-2"></polygon>
  </g>
  <g>
    <path d="M311.17,133.75c-1.18,0-2.11.39-2.79,1.17-.68.78-1.02,1.86-1.02,3.22s.33,2.48.99,3.25c.66.76,1.59,1.15,2.81,1.15.75,0,1.6-.13,2.56-.4v1.09c-.74.28-1.66.42-2.75.42-1.58,0-2.79-.48-3.65-1.44-.86-.96-1.29-2.32-1.29-4.08,0-1.1.21-2.07.62-2.9.41-.83,1.01-1.47,1.79-1.92.78-.45,1.7-.67,2.75-.67,1.12,0,2.1.21,2.94.62l-.53,1.07c-.81-.38-1.62-.57-2.43-.57Z"></path>
    <path d="M322.79,139.48c0,1.31-.33,2.33-.99,3.07-.66.74-1.57,1.1-2.73,1.1-.72,0-1.35-.17-1.91-.51-.56-.34-.99-.82-1.29-1.45-.3-.63-.46-1.37-.46-2.21,0-1.31.33-2.33.98-3.06.65-.73,1.56-1.09,2.72-1.09s2.01.37,2.68,1.12c.66.75.99,1.76.99,3.03ZM316.68,139.48c0,1.03.21,1.81.62,2.34.41.54,1.01.81,1.81.81s1.4-.27,1.81-.8c.41-.53.62-1.32.62-2.35s-.21-1.79-.62-2.33c-.41-.53-1.02-.79-1.83-.79s-1.4.26-1.8.78-.61,1.3-.61,2.34Z"></path>
    <path d="M329.86,143.5l-.24-1.14h-.06c-.4.5-.8.84-1.2,1.02-.4.18-.89.27-1.49.27-.8,0-1.42-.21-1.87-.62-.45-.41-.68-.99-.68-1.75,0-1.62,1.3-2.47,3.89-2.55l1.36-.04v-.5c0-.63-.13-1.09-.41-1.39-.27-.3-.7-.45-1.3-.45-.67,0-1.43.21-2.27.62l-.37-.93c.39-.21.83-.38,1.3-.51.47-.12.94-.18,1.42-.18.96,0,1.67.21,2.13.64.46.42.69,1.11.69,2.04v5.48h-.9ZM327.12,142.64c.76,0,1.35-.21,1.78-.62.43-.42.65-1,.65-1.74v-.72l-1.21.05c-.97.03-1.66.18-2.09.45-.43.27-.64.68-.64,1.24,0,.44.13.77.4,1,.27.23.64.34,1.12.34Z"></path>
    <path d="M335.86,142.64c.21,0,.42-.02.62-.05.2-.03.36-.06.48-.1v.93c-.13.06-.33.12-.58.16-.26.04-.49.06-.69.06-1.55,0-2.33-.82-2.33-2.45v-4.78h-1.15v-.59l1.15-.51.51-1.71h.7v1.86h2.33v.95h-2.33v4.72c0,.48.11.85.34,1.11.23.26.54.39.94.39Z"></path>
    <path d="M338.46,133.3c0-.28.07-.48.21-.61.14-.13.31-.19.51-.19s.36.07.51.2c.14.13.21.33.21.61s-.07.48-.21.61c-.14.13-.31.2-.51.2-.21,0-.38-.07-.51-.2-.14-.13-.21-.34-.21-.61ZM339.78,143.5h-1.22v-8.03h1.22v8.03Z"></path>
    <path d="M347.85,143.5v-5.19c0-.65-.15-1.14-.45-1.46-.3-.32-.76-.48-1.4-.48-.84,0-1.46.23-1.85.68s-.59,1.2-.59,2.25v4.21h-1.22v-8.03h.99l.2,1.1h.06c.25-.4.6-.7,1.05-.92.45-.22.95-.33,1.5-.33.97,0,1.69.23,2.18.7.49.47.73,1.21.73,2.24v5.24h-1.22Z"></path>
    <path d="M358.13,135.47v.77l-1.49.18c.14.17.26.39.37.67.11.28.16.59.16.93,0,.79-.27,1.41-.81,1.88s-1.27.7-2.21.7c-.24,0-.46-.02-.67-.06-.52.27-.78.62-.78,1.03,0,.22.09.38.27.49.18.1.49.16.93.16h1.42c.87,0,1.54.18,2,.55.47.37.7.9.7,1.6,0,.89-.36,1.57-1.07,2.03-.71.47-1.75.7-3.12.7-1.05,0-1.86-.2-2.43-.59-.57-.39-.85-.94-.85-1.66,0-.49.16-.91.47-1.27.31-.36.75-.6,1.32-.73-.21-.09-.38-.24-.52-.43-.14-.19-.21-.42-.21-.68,0-.29.08-.55.23-.77.16-.22.4-.43.74-.64-.42-.17-.75-.46-1.01-.87-.26-.41-.39-.88-.39-1.41,0-.88.26-1.56.79-2.03.53-.48,1.27-.71,2.24-.71.42,0,.8.05,1.14.15h2.78ZM351.73,144.85c0,.43.18.76.55.99s.89.34,1.58.34c1.02,0,1.78-.15,2.27-.46.49-.31.74-.72.74-1.24,0-.44-.13-.74-.4-.91-.27-.17-.77-.25-1.52-.25h-1.46c-.55,0-.98.13-1.29.4s-.46.64-.46,1.13ZM352.39,138.04c0,.56.16.99.48,1.28s.76.43,1.33.43c1.19,0,1.78-.58,1.78-1.73s-.6-1.81-1.8-1.81c-.57,0-1.01.15-1.32.46s-.46.76-.46,1.37Z"></path>
    <path d="M368.6,143.5l-3.63-9.49h-.06c.07.75.1,1.65.1,2.68v6.81h-1.15v-10.71h1.88l3.39,8.83h.06l3.42-8.83h1.86v10.71h-1.25v-6.9c0-.79.03-1.65.1-2.58h-.06l-3.66,9.48h-1Z"></path>
    <path d="M384.15,139.48c0,1.31-.33,2.33-.99,3.07-.66.74-1.57,1.1-2.73,1.1-.72,0-1.35-.17-1.91-.51-.56-.34-.99-.82-1.29-1.45-.3-.63-.46-1.37-.46-2.21,0-1.31.33-2.33.98-3.06.65-.73,1.56-1.09,2.72-1.09s2.01.37,2.68,1.12c.66.75.99,1.76.99,3.03ZM378.03,139.48c0,1.03.21,1.81.62,2.34.41.54,1.01.81,1.81.81s1.4-.27,1.81-.8c.41-.53.62-1.32.62-2.35s-.21-1.79-.62-2.33c-.41-.53-1.02-.79-1.83-.79s-1.4.26-1.8.78-.61,1.3-.61,2.34Z"></path>
    <path d="M388.04,143.5l-3.05-8.03h1.3l1.73,4.76c.39,1.11.62,1.84.69,2.17h.06c.05-.26.22-.79.51-1.61.29-.81.93-2.59,1.92-5.32h1.3l-3.05,8.03h-1.42Z"></path>
    <path d="M397.19,143.65c-1.19,0-2.12-.36-2.81-1.08-.69-.72-1.03-1.73-1.03-3.01s.32-2.32.96-3.08c.64-.76,1.49-1.14,2.57-1.14,1.01,0,1.8.33,2.39.99.59.66.88,1.54.88,2.62v.77h-5.53c.02.94.26,1.66.71,2.15.45.49,1.09.73,1.91.73.86,0,1.72-.18,2.56-.54v1.08c-.43.19-.84.32-1.22.4-.38.08-.85.12-1.39.12ZM396.86,136.34c-.64,0-1.16.21-1.54.63-.38.42-.61,1-.68,1.74h4.2c0-.77-.17-1.35-.51-1.76-.34-.41-.83-.61-1.46-.61Z"></path>
    <path d="M412.44,143.5v-5.22c0-.64-.14-1.12-.41-1.44-.27-.32-.7-.48-1.28-.48-.76,0-1.32.22-1.68.65s-.54,1.1-.54,2.01v4.48h-1.22v-5.22c0-.64-.14-1.12-.41-1.44-.27-.32-.7-.48-1.28-.48-.76,0-1.32.23-1.67.68-.35.46-.53,1.2-.53,2.25v4.21h-1.22v-8.03h.99l.2,1.1h.06c.23-.39.55-.7.97-.92.42-.22.88-.33,1.4-.33,1.25,0,2.08.45,2.46,1.36h.06c.24-.42.59-.75,1.04-1s.97-.37,1.55-.37c.91,0,1.59.23,2.04.7.45.47.68,1.21.68,2.24v5.24h-1.21Z"></path>
    <path d="M419.55,143.65c-1.19,0-2.12-.36-2.81-1.08-.69-.72-1.03-1.73-1.03-3.01s.32-2.32.96-3.08c.64-.76,1.49-1.14,2.57-1.14,1.01,0,1.8.33,2.39.99.59.66.88,1.54.88,2.62v.77h-5.53c.02.94.26,1.66.71,2.15.45.49,1.09.73,1.91.73.86,0,1.72-.18,2.56-.54v1.08c-.43.19-.84.32-1.22.4-.38.08-.85.12-1.39.12ZM419.23,136.34c-.64,0-1.16.21-1.54.63-.38.42-.61,1-.68,1.74h4.2c0-.77-.17-1.35-.51-1.76-.34-.41-.83-.61-1.46-.61Z"></path>
    <path d="M430.07,143.5v-5.19c0-.65-.15-1.14-.45-1.46-.3-.32-.76-.48-1.4-.48-.84,0-1.46.23-1.85.68s-.59,1.2-.59,2.25v4.21h-1.22v-8.03h.99l.2,1.1h.06c.25-.4.6-.7,1.05-.92.45-.22.95-.33,1.5-.33.97,0,1.69.23,2.18.7.49.47.73,1.21.73,2.24v5.24h-1.22Z"></path>
    <path d="M436.38,142.64c.21,0,.42-.02.62-.05.2-.03.36-.06.48-.1v.93c-.13.06-.33.12-.58.16-.26.04-.49.06-.69.06-1.55,0-2.33-.82-2.33-2.45v-4.78h-1.15v-.59l1.15-.51.51-1.71h.7v1.86h2.33v.95h-2.33v4.72c0,.48.11.85.34,1.11.23.26.54.39.94.39Z"></path>
  </g>
  <g>
    <path d="M107.35,47.84c0,.67-.19,2.26-1.42,3.25-1.23.99-2.6,1.23-3.94,1.05-1.33-.17-2.02-1.36-1.98-2.43.04-1.06.5-1.99,2.13-2.44,1.63-.44,3.51-.67,5.22-1.46v2.02ZM107.85,35.82c-3.99-.91-7.2-.39-8.8.43-1.61.81-3.27,2.3-3.42,4.67h5.11s.57-1.37,2.75-1.41c2.18-.04,3.52.47,3.75,1.44.23.97-.58,1.72-1.92,2.05-1.33.33-3.46.56-4.95.87-1.49.31-4.18,1.43-4.84,3.23-.66,1.8-.68,4.24.06,5.9.74,1.66,3.19,3.39,6.44,3.29,3.25-.1,5.86-.31,7.78-2.05s2.52-3.56,2.52-5.44.02-7.6.02-8.24-.5-3.83-4.49-4.74" class="cls-9"></path>
    <g>
      <path d="M28.5,21l52.26,10.41v.6l-50.05-8.61,4.36,4.8,45.69,4.5v.59c-14.65-1.01-29.14-1.99-43.79-3l3.35,3.68c13.52,0,26.92,0,40.44,0v.51h5.38v-1.79c0-1.39-1.11-2.53-2.47-2.53h-2.91v.56L22.96,14.88l5.53,6.12Z" class="cls-9"></path>
      <g class="cls-10">
        <rect height="19.6" width="63.17" y="14.88" x="22.96" class="cls-9"></rect>
      </g>
    </g>
    <g>
      <path d="M90.78,30.25h-2.91v26.04h5.38v-23.57c0-1.36-1.11-2.47-2.47-2.47" class="cls-9"></path>
      <path d="M83.66,36.15h-2.84v20.14h5.26v-17.72c0-1.33-1.09-2.42-2.42-2.42" class="cls-9"></path>
      <path d="M75.77,45.25c-1.82-1.1-4.06-1.45-6.73-2.11-2.67-.66-3.31-1.34-3.32-1.98,0-.64.37-1.3,1.13-1.49.76-.19,1.99-.35,3.27-.06,1.28.29,1.94,1.53,2.26,1.84.31.31.88.54,1.27.54h3.68c-.13-2.19-.81-3.8-2.4-4.96-1.59-1.16-3.54-1.82-7.53-1.59-3.99.23-6.11,2.28-6.79,4.62-.68,2.34.04,4.74,1.92,5.96,1.88,1.22,4.99,1.84,6.89,2.24,1.9.41,3.37,1,3.27,2.26-.1,1.27-2.23,1.93-4.78,1.61-2.54-.32-2.8-2.93-2.8-2.93h-5.13c-.17,3.35,1.43,5.17,3.5,6.13,2.07.97,5.61,1.32,9.36.48,3.75-.83,5.19-3.5,5.2-5.86.02-2.36-.46-3.62-2.28-4.72" class="cls-9"></path>
      <path d="M55.96,45.25c-1.82-1.1-4.06-1.45-6.73-2.11-2.67-.66-3.31-1.34-3.32-1.98,0-.64.37-1.3,1.13-1.49.76-.19,1.99-.35,3.27-.06,1.28.29,1.94,1.53,2.26,1.84.31.31.88.54,1.27.54h3.68c-.13-2.19-.81-3.8-2.4-4.96-1.59-1.16-3.54-1.82-7.53-1.59-3.99.23-6.11,2.28-6.79,4.62-.68,2.34.04,4.74,1.92,5.96,1.88,1.22,4.99,1.84,6.89,2.24,1.9.41,3.37,1,3.27,2.26-.1,1.27-2.23,1.93-4.78,1.61-2.54-.32-2.8-2.93-2.8-2.93h-5.13c-.17,3.35,1.43,5.17,3.5,6.13s5.61,1.32,9.36.48c3.75-.83,5.19-3.5,5.2-5.86.02-2.36-.46-3.62-2.28-4.72" class="cls-9"></path>
      <path d="M25.24,51.65c-5.19,0-7.48-4.06-7.48-9.05s2.52-9.02,7.49-9.02,7.49,4.04,7.49,9.02-2.31,9.05-7.5,9.05M25.25,28.91c-8.56,0-12.91,6.12-12.91,13.67s3.94,13.71,12.89,13.71,12.93-6.16,12.93-13.71-4.35-13.67-12.91-13.67" class="cls-9"></path>
    </g>
  </g>
  <g>
    <path d="M543.01,169.62c0,.94-.34,1.68-1.03,2.21s-1.61.79-2.78.79c-1.27,0-2.25-.16-2.93-.49v-1.2c.44.19.92.33,1.44.44s1.03.16,1.54.16c.83,0,1.46-.16,1.88-.47.42-.32.63-.75.63-1.32,0-.37-.07-.67-.22-.91-.15-.24-.4-.46-.75-.66-.35-.2-.88-.43-1.59-.68-1-.36-1.71-.78-2.13-1.27-.43-.49-.64-1.12-.64-1.91,0-.83.31-1.48.93-1.97s1.44-.73,2.46-.73,2.04.2,2.94.59l-.39,1.08c-.88-.37-1.74-.56-2.58-.56-.66,0-1.17.14-1.54.42-.37.28-.56.68-.56,1.18,0,.37.07.67.21.91.14.24.37.45.69.65.33.2.82.42,1.49.66,1.12.4,1.9.83,2.32,1.29.42.46.63,1.05.63,1.79Z" class="cls-3"></path>
    <path d="M551.95,168.45c0,1.31-.33,2.33-.99,3.07-.66.74-1.57,1.1-2.73,1.1-.72,0-1.35-.17-1.91-.51-.56-.34-.99-.82-1.29-1.45-.3-.63-.46-1.37-.46-2.21,0-1.31.33-2.33.98-3.06.65-.73,1.56-1.09,2.72-1.09s2.01.37,2.68,1.12c.66.75.99,1.76.99,3.03ZM545.83,168.45c0,1.03.21,1.81.62,2.34.41.54,1.01.81,1.81.81s1.4-.27,1.81-.8c.41-.53.62-1.32.62-2.35s-.21-1.79-.62-2.33c-.41-.53-1.02-.79-1.83-.79s-1.4.26-1.8.78-.61,1.3-.61,2.34Z" class="cls-3"></path>
    <path d="M555.3,172.47h-1.22v-11.4h1.22v11.4Z" class="cls-3"></path>
    <path d="M559.02,164.44v5.21c0,.66.15,1.14.45,1.46.3.32.76.48,1.4.48.84,0,1.45-.23,1.84-.69.39-.46.58-1.21.58-2.25v-4.22h1.22v8.03h-1l-.18-1.08h-.07c-.25.39-.59.7-1.04.91-.44.21-.95.31-1.51.31-.98,0-1.71-.23-2.19-.7-.49-.46-.73-1.21-.73-2.23v-5.25h1.23Z" class="cls-3"></path>
    <path d="M569.67,171.61c.21,0,.42-.02.62-.05.2-.03.36-.06.48-.1v.93c-.13.06-.33.12-.58.16-.26.04-.49.06-.69.06-1.55,0-2.33-.82-2.33-2.45v-4.78h-1.15v-.59l1.15-.51.51-1.71h.7v1.86h2.33v.95h-2.33v4.72c0,.48.11.85.34,1.11.23.26.54.39.94.39Z" class="cls-3"></path>
    <path d="M572.27,162.27c0-.28.07-.48.21-.61.14-.13.31-.19.51-.19s.36.07.51.2c.14.13.21.33.21.61s-.07.48-.21.61c-.14.13-.31.2-.51.2-.21,0-.38-.07-.51-.2-.14-.13-.21-.34-.21-.61ZM573.59,172.47h-1.22v-8.03h1.22v8.03Z" class="cls-3"></path>
    <path d="M583.1,168.45c0,1.31-.33,2.33-.99,3.07-.66.74-1.57,1.1-2.73,1.1-.72,0-1.35-.17-1.91-.51-.56-.34-.99-.82-1.29-1.45-.3-.63-.46-1.37-.46-2.21,0-1.31.33-2.33.98-3.06.65-.73,1.56-1.09,2.72-1.09s2.01.37,2.68,1.12c.66.75.99,1.76.99,3.03ZM576.98,168.45c0,1.03.21,1.81.62,2.34.41.54,1.01.81,1.81.81s1.4-.27,1.81-.8c.41-.53.62-1.32.62-2.35s-.21-1.79-.62-2.33c-.41-.53-1.02-.79-1.83-.79s-1.4.26-1.8.78-.61,1.3-.61,2.34Z" class="cls-3"></path>
    <path d="M590.72,172.47v-5.19c0-.65-.15-1.14-.45-1.46-.3-.32-.76-.48-1.4-.48-.84,0-1.46.23-1.85.68s-.59,1.2-.59,2.25v4.21h-1.22v-8.03h.99l.2,1.1h.06c.25-.4.6-.7,1.05-.92.45-.22.95-.33,1.5-.33.97,0,1.69.23,2.18.7.49.47.73,1.21.73,2.24v5.24h-1.22Z" class="cls-3"></path>
  </g>
  <g>
    <line y2="116.61" x2="481.53" y1="116.61" x1="257.95" class="cls-4"></line>
    <polygon points="475.55 121.7 480.64 116.61 475.55 111.53 479.87 111.53 484.95 116.61 479.87 121.7 475.55 121.7" class="cls-2"></polygon>
  </g>
</svg>