<svg viewBox="0 0 848 448" xmlns:xlink="http://www.w3.org/1999/xlink" xmlns="http://www.w3.org/2000/svg">
  <defs>
    <style>
      .cls-1 {
        stroke: #cdd2e6;
        stroke-width: .4px;
      }

      .cls-1, .cls-2 {
        fill: none;
      }

      .cls-3 {
        fill: #cdd2e6;
      }

      .cls-4 {
        fill: #ccd4ec;
      }

      .cls-5 {
        clip-path: url(#clippath-2);
      }

      .cls-6 {
        clip-path: url(#clippath-6);
      }

      .cls-7 {
        fill: #9ca4ce;
      }

      .cls-8 {
        clip-path: url(#clippath-7);
      }

      .cls-9 {
        clip-path: url(#clippath-1);
      }

      .cls-10 {
        clip-path: url(#clippath-4);
      }

      .cls-11 {
        clip-path: url(#clippath-9);
      }

      .cls-12 {
        clip-path: url(#clippath);
      }

      .cls-13 {
        fill: #54565a;
      }

      .cls-14 {
        clip-path: url(#clippath-3);
      }

      .cls-15 {
        clip-path: url(#clippath-8);
      }

      .cls-16 {
        clip-path: url(#clippath-5);
      }

      .cls-17 {
        fill: #949fd0;
      }

      .cls-18 {
        fill: url(#linear-gradient);
      }

      .cls-19 {
        clip-path: url(#clippath-10);
      }
    </style>
    <clipPath id="clippath">
      <rect height="59.84" width="100" y="11.36" x="11.33" class="cls-2"></rect>
    </clipPath>
    <clipPath id="clippath-1">
      <rect height="59.84" width="100" y="11.36" x="11.33" class="cls-2"></rect>
    </clipPath>
    <clipPath id="clippath-2">
      <rect height="59.84" width="100" y="11.36" x="11.33" class="cls-2"></rect>
    </clipPath>
    <clipPath id="clippath-3">
      <path d="m27.49,17.48l52.26,10.41v.6l-50.05-8.61,4.36,4.8,45.69,4.5v.59c-14.65-1.01-29.14-1.99-43.79-3l3.35,3.68c13.52,0,26.92,0,40.44,0v.51h5.38v-1.79c0-1.39-1.11-2.53-2.47-2.53h-2.91v.56L21.96,11.36l5.53,6.12Z" class="cls-2"></path>
    </clipPath>
    <linearGradient gradientUnits="userSpaceOnUse" gradientTransform="translate(-35.78 15278.84) scale(44.22 -44.22)" y2="345.04" x2="2.73" y1="345.04" x1="1.31" id="linear-gradient">
      <stop stop-color="#fff" offset="0"></stop>
      <stop stop-color="#949fd1" offset="1"></stop>
    </linearGradient>
    <clipPath id="clippath-4">
      <rect height="59.84" width="100" y="11.36" x="11.33" class="cls-2"></rect>
    </clipPath>
    <clipPath id="clippath-5">
      <rect height="59.84" width="100" y="11.36" x="11.33" class="cls-2"></rect>
    </clipPath>
    <clipPath id="clippath-6">
      <rect height="59.84" width="100" y="11.36" x="11.33" class="cls-2"></rect>
    </clipPath>
    <clipPath id="clippath-7">
      <rect height="59.84" width="100" y="11.36" x="11.33" class="cls-2"></rect>
    </clipPath>
    <clipPath id="clippath-8">
      <rect height="59.84" width="100" y="11.36" x="11.33" class="cls-2"></rect>
    </clipPath>
    <clipPath id="clippath-9">
      <rect height="59.84" width="100" y="11.36" x="11.33" class="cls-2"></rect>
    </clipPath>
    <clipPath id="clippath-10">
      <rect height="59.84" width="100" y="11.36" x="11.33" class="cls-2"></rect>
    </clipPath>
  </defs>
  <g data-sanitized-data-name="Layer 3" data-name="Layer 3" id="Layer_3">
    <path d="m522,47.33c0-4.32-3.81-7.83-8.5-7.83h-32.61c-4.57,0-8.28,3.41-8.28,7.63v272.37l49.39-51.9V47.33Z" class="cls-13"></path>
    <rect ry="9.11" rx="9.11" height="41.5" width="706.82" y="334" x="80.32" class="cls-4"></rect>
    <rect ry="9.11" rx="9.11" height="61.95" width="795.29" y="374.55" x="36.09" class="cls-13"></rect>
    <polygon points="472 319.5 472 277.5 184 277.5 184 319.5 184 332.5 184 334.5 770 334.5 770 319.5 472 319.5" class="cls-17"></polygon>
    <path d="m274.91,203.97l-11.95,23.79c-4.2,8.36-2.4,18.49,4.41,24.89h0c4.18,3.93,10.74,3.77,14.72-.36h0c6.08-6.3,7.69-15.68,4.06-23.65l-11.24-24.68Z" class="cls-17"></path>
    <g>
      <rect height="3" width="137.02" y="253.91" x="316.54" class="cls-13"></rect>
      <polygon points="322.52 250.32 317.43 255.41 322.52 260.5 318.2 260.5 313.11 255.41 318.2 250.32 322.52 250.32" class="cls-13"></polygon>
    </g>
    <g>
      <path d="m341.35,212.98l-4.84-12.66h-.08c.09,1,.14,2.19.14,3.57v9.08h-1.53v-14.28h2.5l4.52,11.78h.08l4.56-11.78h2.48v14.28h-1.66v-9.2c0-1.05.05-2.2.14-3.44h-.08l-4.88,12.64h-1.34Z"></path>
      <path d="m362.08,207.62c0,1.75-.44,3.11-1.32,4.09s-2.09,1.47-3.64,1.47c-.96,0-1.81-.22-2.55-.67s-1.31-1.09-1.72-1.93-.61-1.82-.61-2.95c0-1.75.44-3.1,1.31-4.08s2.08-1.46,3.63-1.46,2.69.5,3.57,1.49,1.32,2.34,1.32,4.04Zm-8.15,0c0,1.37.27,2.41.82,3.12s1.35,1.07,2.41,1.07,1.87-.36,2.42-1.07.83-1.76.83-3.13-.27-2.39-.83-3.1-1.36-1.06-2.44-1.06-1.86.35-2.4,1.04-.81,1.74-.81,3.12Z"></path>
      <path d="m367.26,212.98l-4.06-10.7h1.74l2.3,6.35c.52,1.48.83,2.45.92,2.89h.08c.07-.34.3-1.06.68-2.14s1.24-3.45,2.56-7.09h1.74l-4.06,10.7h-1.89Z"></path>
      <path d="m379.46,213.18c-1.58,0-2.83-.48-3.75-1.45s-1.37-2.3-1.37-4.01.42-3.1,1.27-4.11,1.99-1.52,3.42-1.52c1.34,0,2.4.44,3.18,1.32s1.17,2.05,1.17,3.49v1.03h-7.37c.03,1.26.35,2.21.95,2.86s1.45.98,2.54.98c1.15,0,2.29-.24,3.42-.72v1.45c-.57.25-1.11.42-1.63.53s-1.13.16-1.85.16Zm-.44-9.74c-.86,0-1.54.28-2.06.84s-.81,1.33-.9,2.32h5.6c0-1.02-.23-1.8-.68-2.35s-1.11-.82-1.95-.82Z"></path>
      <path d="m399.8,212.98v-6.96c0-.85-.18-1.49-.55-1.92s-.93-.64-1.7-.64c-1.01,0-1.75.29-2.24.87s-.72,1.47-.72,2.68v5.98h-1.62v-6.96c0-.85-.18-1.49-.55-1.92s-.93-.64-1.71-.64c-1.02,0-1.76.3-2.23.91s-.71,1.61-.71,2.99v5.62h-1.62v-10.7h1.32l.26,1.46h.08c.31-.52.74-.93,1.29-1.22s1.18-.44,1.87-.44c1.67,0,2.77.61,3.28,1.82h.08c.32-.56.78-1,1.39-1.33s1.3-.49,2.07-.49c1.21,0,2.12.31,2.72.93s.9,1.62.9,2.98v6.98h-1.62Z"></path>
      <path d="m409.29,213.18c-1.58,0-2.83-.48-3.75-1.45s-1.37-2.3-1.37-4.01.42-3.1,1.27-4.11,1.99-1.52,3.42-1.52c1.34,0,2.4.44,3.18,1.32s1.17,2.05,1.17,3.49v1.03h-7.37c.03,1.26.35,2.21.95,2.86s1.45.98,2.54.98c1.15,0,2.29-.24,3.42-.72v1.45c-.57.25-1.11.42-1.63.53s-1.13.16-1.85.16Zm-.44-9.74c-.86,0-1.54.28-2.06.84s-.81,1.33-.9,2.32h5.6c0-1.02-.23-1.8-.68-2.35s-1.11-.82-1.95-.82Z"></path>
      <path d="m423.31,212.98v-6.92c0-.87-.2-1.52-.6-1.95s-1.02-.64-1.87-.64c-1.12,0-1.94.3-2.46.91s-.78,1.6-.78,3v5.62h-1.62v-10.7h1.32l.26,1.46h.08c.33-.53.8-.94,1.4-1.23s1.27-.43,2-.43c1.29,0,2.26.31,2.91.93s.98,1.62.98,2.98v6.98h-1.62Z"></path>
      <path d="m431.72,211.84c.29,0,.56-.02.83-.06.27-.04.48-.09.63-.13v1.24c-.18.08-.43.15-.78.21s-.65.08-.92.08c-2.07,0-3.11-1.09-3.11-3.27v-6.37h-1.53v-.78l1.53-.67.68-2.29h.94v2.48h3.11v1.26h-3.11v6.3c0,.64.15,1.14.46,1.48.31.34.73.52,1.26.52Z"></path>
      <path d="m356.31,231.62c0,1.75-.44,3.11-1.32,4.09s-2.09,1.47-3.64,1.47c-.96,0-1.81-.22-2.55-.67s-1.31-1.09-1.72-1.93-.61-1.82-.61-2.95c0-1.75.44-3.1,1.31-4.08s2.08-1.46,3.63-1.46,2.69.5,3.57,1.49,1.32,2.34,1.32,4.04Zm-8.15,0c0,1.37.27,2.41.82,3.12s1.35,1.07,2.41,1.07,1.87-.36,2.42-1.07.83-1.76.83-3.13-.27-2.39-.83-3.1-1.36-1.06-2.44-1.06-1.86.35-2.4,1.04-.81,1.74-.81,3.12Z"></path>
      <path d="m363.97,227.54h-2.72v9.44h-1.62v-9.44h-1.91v-.73l1.91-.59v-.6c0-2.63,1.15-3.95,3.45-3.95.57,0,1.23.11,1.99.34l-.42,1.3c-.62-.2-1.16-.3-1.6-.3-.61,0-1.06.2-1.36.61s-.44,1.06-.44,1.96v.69h2.72v1.26Z"></path>
      <path d="m376.1,226.1c1.41,0,2.5.48,3.28,1.44s1.17,2.32,1.17,4.08-.39,3.12-1.18,4.1-1.87,1.46-3.27,1.46c-.7,0-1.33-.13-1.91-.39s-1.06-.65-1.45-1.19h-.12l-.34,1.38h-1.16v-15.2h1.62v3.69c0,.83-.03,1.57-.08,2.23h.08c.76-1.07,1.88-1.6,3.36-1.6Zm-.23,1.36c-1.11,0-1.9.32-2.39.95s-.73,1.7-.73,3.21.25,2.58.75,3.23,1.31.97,2.41.97c1,0,1.74-.36,2.23-1.09s.73-1.77.73-3.13-.24-2.43-.73-3.12-1.24-1.03-2.27-1.03Z"></path>
      <path d="m385,236.98h-1.62v-15.2h1.62v15.2Z"></path>
      <path d="m395.02,236.98l-.32-1.52h-.08c-.53.67-1.07,1.12-1.6,1.36s-1.19.36-1.99.36c-1.06,0-1.89-.27-2.5-.82s-.9-1.33-.9-2.33c0-2.16,1.73-3.29,5.19-3.4l1.82-.06v-.66c0-.84-.18-1.46-.54-1.86s-.94-.6-1.73-.6c-.89,0-1.9.27-3.03.82l-.5-1.24c.53-.29,1.1-.51,1.73-.67s1.26-.24,1.89-.24c1.28,0,2.22.28,2.84.85s.92,1.47.92,2.72v7.3h-1.2Zm-3.66-1.14c1.01,0,1.8-.28,2.38-.83s.86-1.33.86-2.32v-.97l-1.62.07c-1.29.05-2.22.25-2.79.6s-.85.91-.85,1.66c0,.59.18,1.03.53,1.34s.85.46,1.49.46Z"></path>
      <path d="m406.84,235.55h-.09c-.75,1.09-1.87,1.63-3.36,1.63-1.4,0-2.49-.48-3.27-1.44s-1.17-2.32-1.17-4.08.39-3.13,1.17-4.11,1.87-1.46,3.26-1.46,2.56.53,3.34,1.58h.13l-.07-.77-.04-.75v-4.36h1.62v15.2h-1.32l-.21-1.44Zm-3.24.27c1.11,0,1.91-.3,2.41-.9s.75-1.57.75-2.92v-.34c0-1.52-.25-2.6-.76-3.25s-1.31-.97-2.42-.97c-.95,0-1.68.37-2.18,1.11s-.76,1.78-.76,3.13.25,2.4.75,3.1,1.24,1.04,2.21,1.04Z"></path>
      <path d="m416.34,237.18c-1.58,0-2.83-.48-3.75-1.45s-1.37-2.3-1.37-4.01.42-3.1,1.27-4.11,1.99-1.52,3.42-1.52c1.34,0,2.4.44,3.18,1.32s1.17,2.05,1.17,3.49v1.03h-7.37c.03,1.26.35,2.21.95,2.86s1.45.98,2.54.98c1.15,0,2.29-.24,3.42-.72v1.45c-.57.25-1.11.42-1.63.53s-1.13.16-1.85.16Zm-.44-9.74c-.86,0-1.54.28-2.06.84s-.81,1.33-.9,2.32h5.6c0-1.02-.23-1.8-.68-2.35s-1.11-.82-1.95-.82Z"></path>
    </g>
    <g>
      <path d="m440.99,16.66c-1.57,0-2.81.52-3.72,1.57s-1.36,2.48-1.36,4.29.44,3.31,1.31,4.33c.88,1.02,2.12,1.53,3.75,1.53,1,0,2.13-.18,3.41-.54v1.46c-.99.37-2.21.56-3.66.56-2.1,0-3.73-.64-4.87-1.91s-1.71-3.09-1.71-5.44c0-1.47.28-2.76.83-3.87.55-1.11,1.34-1.96,2.38-2.56,1.04-.6,2.26-.9,3.67-.9,1.5,0,2.81.27,3.93.82l-.7,1.43c-1.08-.51-2.16-.76-3.24-.76Z"></path>
      <path d="m456.49,24.29c0,1.75-.44,3.11-1.32,4.09s-2.09,1.47-3.64,1.47c-.96,0-1.81-.22-2.55-.67s-1.31-1.09-1.72-1.93c-.4-.84-.61-1.82-.61-2.95,0-1.75.44-3.1,1.31-4.08.87-.97,2.08-1.46,3.63-1.46s2.69.5,3.57,1.49c.88,1,1.32,2.34,1.32,4.04Zm-8.15,0c0,1.37.27,2.41.82,3.12s1.35,1.07,2.41,1.07,1.87-.36,2.42-1.07c.55-.71.83-1.76.83-3.13s-.27-2.39-.83-3.1c-.55-.71-1.36-1.06-2.44-1.06s-1.86.35-2.4,1.04c-.54.7-.81,1.74-.81,3.12Z"></path>
      <path d="m465.92,29.66l-.32-1.52h-.08c-.53.67-1.07,1.12-1.6,1.36-.53.24-1.19.36-1.99.36-1.06,0-1.89-.27-2.5-.82-.6-.55-.9-1.33-.9-2.33,0-2.16,1.73-3.29,5.19-3.4l1.82-.06v-.66c0-.84-.18-1.46-.54-1.86s-.94-.6-1.73-.6c-.89,0-1.9.27-3.03.82l-.5-1.24c.53-.29,1.11-.51,1.73-.67.63-.16,1.26-.24,1.89-.24,1.28,0,2.22.28,2.84.85s.92,1.47.92,2.72v7.3h-1.2Zm-3.66-1.14c1.01,0,1.8-.28,2.38-.83s.86-1.33.86-2.32v-.97l-1.62.07c-1.29.05-2.22.25-2.79.6-.57.35-.85.91-.85,1.66,0,.59.18,1.03.53,1.34.36.31.85.46,1.49.46Z"></path>
      <path d="m473.91,28.51c.29,0,.56-.02.83-.06.27-.04.48-.09.63-.13v1.24c-.18.08-.43.15-.78.21s-.65.08-.92.08c-2.07,0-3.11-1.09-3.11-3.27v-6.37h-1.53v-.78l1.53-.67.68-2.29h.94v2.48h3.11v1.26h-3.11v6.3c0,.64.15,1.14.46,1.48.31.34.73.52,1.26.52Z"></path>
      <path d="m477.38,16.05c0-.37.09-.64.27-.82.18-.17.41-.26.68-.26s.49.09.67.26c.19.18.28.45.28.81s-.09.64-.28.82c-.19.18-.41.27-.67.27s-.5-.09-.68-.27c-.18-.18-.27-.45-.27-.82Zm1.76,13.6h-1.62v-10.7h1.62v10.7Z"></path>
      <path d="m489.9,29.66v-6.92c0-.87-.2-1.52-.6-1.95-.4-.43-1.02-.64-1.87-.64-1.12,0-1.94.3-2.46.91-.52.61-.78,1.6-.78,3v5.62h-1.62v-10.7h1.32l.26,1.46h.08c.33-.53.8-.94,1.4-1.23.6-.29,1.27-.43,2-.43,1.29,0,2.26.31,2.91.93.65.62.98,1.62.98,2.98v6.98h-1.62Z"></path>
      <path d="m503.61,18.95v1.03l-1.98.23c.18.23.35.53.49.89.14.37.21.78.21,1.25,0,1.05-.36,1.88-1.07,2.51-.72.62-1.7.94-2.95.94-.32,0-.62-.03-.9-.08-.69.36-1.04.82-1.04,1.38,0,.29.12.51.36.65.24.14.65.21,1.24.21h1.89c1.16,0,2.05.24,2.67.73.62.49.93,1.2.93,2.13,0,1.18-.47,2.09-1.43,2.71-.95.62-2.34.93-4.16.93-1.4,0-2.48-.26-3.24-.78-.76-.52-1.14-1.26-1.14-2.21,0-.65.21-1.21.62-1.69.42-.48,1-.8,1.76-.97-.27-.12-.5-.32-.69-.58s-.28-.56-.28-.91c0-.39.1-.73.31-1.03.21-.29.54-.58.99-.85-.55-.23-1-.62-1.35-1.16-.35-.55-.52-1.17-.52-1.88,0-1.17.35-2.08,1.05-2.71s1.7-.95,2.99-.95c.56,0,1.06.07,1.51.2h3.7Zm-8.54,12.5c0,.58.24,1.02.73,1.32s1.19.45,2.1.45c1.36,0,2.37-.2,3.02-.61s.98-.96.98-1.66c0-.58-.18-.98-.54-1.21-.36-.22-1.03-.34-2.02-.34h-1.94c-.74,0-1.31.18-1.72.53s-.62.86-.62,1.51Zm.88-9.07c0,.75.21,1.32.63,1.7.42.38,1.01.58,1.77.58,1.58,0,2.37-.77,2.37-2.3s-.8-2.41-2.4-2.41c-.76,0-1.35.21-1.76.62s-.62,1.02-.62,1.83Z"></path>
      <path d="m511.25,15.38h4.03c1.89,0,3.27.28,4.11.85.85.57,1.27,1.46,1.27,2.69,0,.85-.24,1.54-.71,2.09-.47.55-1.16.91-2.07,1.07v.1c2.17.37,3.25,1.51,3.25,3.42,0,1.28-.43,2.27-1.29,2.99-.86.72-2.07,1.07-3.62,1.07h-4.98v-14.28Zm1.66,6.11h2.73c1.17,0,2.02-.18,2.53-.55.51-.37.77-.99.77-1.86,0-.8-.29-1.38-.86-1.73-.57-.35-1.48-.53-2.73-.53h-2.44v4.68Zm0,1.41v5.34h2.98c1.15,0,2.02-.22,2.6-.67.58-.45.87-1.14.87-2.09,0-.89-.3-1.54-.89-1.95s-1.5-.62-2.72-.62h-2.84Z"></path>
      <path d="m525.58,29.66h-1.62v-15.2h1.62v15.2Z"></path>
      <path d="m535.6,29.66l-.32-1.52h-.08c-.53.67-1.07,1.12-1.6,1.36-.53.24-1.19.36-1.99.36-1.06,0-1.89-.27-2.5-.82-.6-.55-.9-1.33-.9-2.33,0-2.16,1.73-3.29,5.19-3.4l1.82-.06v-.66c0-.84-.18-1.46-.54-1.86s-.94-.6-1.73-.6c-.89,0-1.9.27-3.03.82l-.5-1.24c.53-.29,1.11-.51,1.73-.67.63-.16,1.26-.24,1.89-.24,1.28,0,2.22.28,2.84.85s.92,1.47.92,2.72v7.3h-1.2Zm-3.66-1.14c1.01,0,1.8-.28,2.38-.83s.86-1.33.86-2.32v-.97l-1.62.07c-1.29.05-2.22.25-2.79.6-.57.35-.85.91-.85,1.66,0,.59.18,1.03.53,1.34.36.31.85.46,1.49.46Z"></path>
      <path d="m547.43,28.22h-.09c-.75,1.09-1.87,1.63-3.36,1.63-1.4,0-2.49-.48-3.27-1.44-.78-.96-1.17-2.32-1.17-4.08s.39-3.13,1.17-4.11,1.87-1.46,3.26-1.46,2.57.53,3.34,1.58h.13l-.07-.77-.04-.75v-4.36h1.62v15.2h-1.32l-.21-1.44Zm-3.24.27c1.11,0,1.91-.3,2.41-.9s.75-1.57.75-2.92v-.34c0-1.52-.25-2.6-.76-3.25-.5-.65-1.31-.97-2.42-.97-.95,0-1.68.37-2.18,1.11-.5.74-.76,1.78-.76,3.13s.25,2.4.75,3.1c.5.7,1.24,1.04,2.21,1.04Z"></path>
      <path d="m556.92,29.85c-1.58,0-2.83-.48-3.75-1.45-.91-.96-1.37-2.3-1.37-4.01s.42-3.1,1.27-4.11,1.99-1.52,3.42-1.52c1.34,0,2.4.44,3.18,1.32s1.17,2.05,1.17,3.49v1.03h-7.37c.03,1.26.35,2.21.95,2.86.6.65,1.45.98,2.54.98,1.15,0,2.29-.24,3.42-.72v1.45c-.57.25-1.11.42-1.63.53-.51.11-1.13.16-1.85.16Zm-.44-9.74c-.86,0-1.54.28-2.06.84-.51.56-.81,1.33-.9,2.32h5.6c0-1.02-.23-1.8-.68-2.35-.46-.54-1.11-.82-1.95-.82Z"></path>
    </g>
    <g>
      <path d="m297.85,309.89c0,1.26-.46,2.24-1.37,2.94s-2.15,1.05-3.71,1.05c-1.69,0-2.99-.22-3.91-.65v-1.6c.59.25,1.22.44,1.91.59s1.37.21,2.05.21c1.11,0,1.94-.21,2.5-.63s.84-1,.84-1.75c0-.5-.1-.9-.3-1.22s-.53-.61-1-.87-1.17-.57-2.12-.91c-1.33-.48-2.28-1.04-2.85-1.69s-.85-1.5-.85-2.55c0-1.1.41-1.98,1.24-2.63s1.92-.98,3.28-.98,2.72.26,3.92.78l-.52,1.45c-1.18-.5-2.32-.74-3.44-.74-.88,0-1.57.19-2.06.57s-.74.9-.74,1.57c0,.5.09.9.27,1.22s.49.61.92.87,1.1.55,1.99.87c1.5.53,2.53,1.11,3.09,1.72s.84,1.41.84,2.38Z"></path>
      <path d="m309.76,308.33c0,1.75-.44,3.11-1.32,4.09s-2.09,1.47-3.64,1.47c-.96,0-1.81-.22-2.55-.67s-1.31-1.09-1.72-1.93-.61-1.82-.61-2.95c0-1.75.44-3.1,1.31-4.08s2.08-1.46,3.63-1.46,2.69.5,3.57,1.49,1.32,2.34,1.32,4.04Zm-8.15,0c0,1.37.27,2.41.82,3.12s1.35,1.07,2.41,1.07,1.87-.36,2.42-1.07.83-1.76.83-3.13-.27-2.39-.83-3.1-1.36-1.06-2.44-1.06-1.86.35-2.4,1.04-.81,1.74-.81,3.12Z"></path>
      <path d="m314.22,313.69h-1.62v-15.2h1.62v15.2Z"></path>
      <path d="m319.19,302.99v6.94c0,.87.2,1.52.6,1.95s1.02.64,1.87.64c1.12,0,1.94-.31,2.46-.92s.78-1.61.78-3v-5.62h1.62v10.7h-1.34l-.23-1.44h-.09c-.33.53-.79.93-1.38,1.21s-1.26.42-2.02.42c-1.3,0-2.28-.31-2.92-.93s-.97-1.61-.97-2.97v-7h1.64Z"></path>
      <path d="m333.39,312.55c.29,0,.56-.02.83-.06s.48-.09.63-.13v1.24c-.18.08-.43.15-.78.21s-.65.08-.92.08c-2.07,0-3.11-1.09-3.11-3.27v-6.37h-1.53v-.78l1.53-.67.68-2.29h.94v2.48h3.11v1.26h-3.11v6.3c0,.64.15,1.14.46,1.48s.73.52,1.26.52Z"></path>
      <path d="m336.86,300.09c0-.37.09-.64.27-.82s.41-.26.68-.26.48.09.67.26.28.45.28.81-.09.64-.28.82-.41.27-.67.27c-.27,0-.5-.09-.68-.27s-.27-.45-.27-.82Zm1.76,13.6h-1.62v-10.7h1.62v10.7Z"></path>
      <path d="m351.29,308.33c0,1.75-.44,3.11-1.32,4.09s-2.09,1.47-3.64,1.47c-.96,0-1.81-.22-2.55-.67s-1.31-1.09-1.72-1.93-.61-1.82-.61-2.95c0-1.75.44-3.1,1.31-4.08s2.08-1.46,3.63-1.46,2.69.5,3.57,1.49,1.32,2.34,1.32,4.04Zm-8.15,0c0,1.37.27,2.41.82,3.12s1.35,1.07,2.41,1.07,1.87-.36,2.42-1.07.83-1.76.83-3.13-.27-2.39-.83-3.1-1.36-1.06-2.44-1.06-1.86.35-2.4,1.04-.81,1.74-.81,3.12Z"></path>
      <path d="m361.46,313.69v-6.92c0-.87-.2-1.52-.6-1.95s-1.02-.64-1.87-.64c-1.12,0-1.94.3-2.46.91s-.78,1.6-.78,3v5.62h-1.62v-10.7h1.32l.26,1.46h.08c.33-.53.8-.94,1.4-1.23s1.27-.43,2-.43c1.29,0,2.26.31,2.91.93s.98,1.62.98,2.98v6.98h-1.62Z"></path>
    </g>
    <g>
      <path d="m398.91,358.89c0,1.26-.46,2.24-1.37,2.94s-2.15,1.05-3.71,1.05c-1.69,0-2.99-.22-3.91-.65v-1.6c.59.25,1.22.44,1.91.59s1.37.21,2.05.21c1.11,0,1.94-.21,2.5-.63s.84-1,.84-1.75c0-.5-.1-.9-.3-1.22s-.53-.61-1-.87-1.17-.57-2.12-.91c-1.33-.48-2.28-1.04-2.85-1.69s-.85-1.5-.85-2.55c0-1.1.41-1.98,1.24-2.63s1.92-.98,3.28-.98,2.72.26,3.92.78l-.52,1.45c-1.18-.5-2.32-.74-3.44-.74-.88,0-1.57.19-2.06.57s-.74.9-.74,1.57c0,.5.09.9.27,1.22s.49.61.92.87,1.1.55,1.99.87c1.5.53,2.53,1.11,3.09,1.72s.84,1.41.84,2.38Z"></path>
      <path d="m403.11,351.99v6.94c0,.87.2,1.52.6,1.95.4.43,1.02.64,1.87.64,1.12,0,1.94-.31,2.46-.92s.78-1.61.78-3v-5.62h1.62v10.7h-1.34l-.23-1.44h-.09c-.33.53-.79.93-1.38,1.21s-1.26.42-2.02.42c-1.3,0-2.28-.31-2.92-.93s-.97-1.61-.97-2.97v-7h1.64Z"></path>
      <path d="m418.85,351.81c1.41,0,2.5.48,3.28,1.44s1.17,2.32,1.17,4.08-.39,3.12-1.18,4.1-1.87,1.46-3.27,1.46c-.7,0-1.33-.13-1.91-.39s-1.06-.65-1.45-1.19h-.12l-.34,1.38h-1.16v-15.2h1.62v3.69c0,.83-.03,1.57-.08,2.23h.08c.76-1.07,1.88-1.6,3.36-1.6Zm-.23,1.36c-1.11,0-1.9.32-2.39.95s-.73,1.7-.73,3.21.25,2.58.75,3.23,1.31.97,2.41.97c1,0,1.74-.36,2.23-1.09s.73-1.77.73-3.13-.24-2.43-.73-3.12-1.24-1.03-2.27-1.03Z"></path>
      <path d="m433.03,359.77c0,1-.37,1.76-1.11,2.3s-1.78.81-3.12.81c-1.42,0-2.53-.22-3.32-.67v-1.5c.51.26,1.07.47,1.66.62.59.15,1.16.22,1.7.22.85,0,1.5-.13,1.95-.41.46-.27.68-.68.68-1.24,0-.42-.18-.77-.54-1.07s-1.07-.65-2.11-1.05c-1-.37-1.7-.7-2.12-.97s-.73-.59-.94-.94-.31-.77-.31-1.26c0-.87.35-1.56,1.06-2.07.71-.5,1.68-.76,2.92-.76,1.15,0,2.28.23,3.38.7l-.58,1.32c-1.07-.44-2.05-.66-2.92-.66-.77,0-1.35.12-1.74.36s-.59.57-.59,1c0,.29.07.53.22.73s.38.39.71.58c.33.18.95.45,1.88.79,1.27.46,2.13.93,2.57,1.4.45.47.67,1.06.67,1.77Z"></path>
      <path d="m439.12,361.55c.29,0,.56-.02.83-.06.27-.04.48-.09.63-.13v1.24c-.18.08-.43.15-.78.21s-.65.08-.92.08c-2.07,0-3.11-1.09-3.11-3.27v-6.37h-1.53v-.78l1.53-.67.68-2.29h.94v2.48h3.11v1.26h-3.11v6.3c0,.64.15,1.14.46,1.48.31.34.73.52,1.26.52Z"></path>
      <path d="m447.61,351.79c.47,0,.9.04,1.28.12l-.22,1.5c-.44-.1-.83-.15-1.17-.15-.87,0-1.61.35-2.22,1.05s-.92,1.58-.92,2.63v5.74h-1.62v-10.7h1.34l.19,1.98h.08c.4-.7.88-1.23,1.44-1.61.56-.38,1.17-.57,1.85-.57Z"></path>
      <path d="m457.47,362.69l-.32-1.52h-.08c-.53.67-1.07,1.12-1.6,1.36-.53.24-1.19.36-1.99.36-1.06,0-1.89-.27-2.5-.82-.6-.55-.9-1.33-.9-2.33,0-2.16,1.73-3.29,5.19-3.4l1.82-.06v-.66c0-.84-.18-1.46-.54-1.86s-.94-.6-1.73-.6c-.89,0-1.9.27-3.03.82l-.5-1.24c.53-.29,1.1-.51,1.73-.67.63-.16,1.26-.24,1.89-.24,1.28,0,2.22.28,2.84.85s.92,1.47.92,2.72v7.3h-1.2Zm-3.66-1.14c1.01,0,1.8-.28,2.38-.83s.86-1.33.86-2.32v-.97l-1.62.07c-1.29.05-2.22.25-2.79.6-.57.35-.85.91-.85,1.66,0,.59.18,1.03.53,1.34.35.31.85.46,1.49.46Z"></path>
      <path d="m465.47,361.55c.29,0,.56-.02.83-.06.27-.04.48-.09.63-.13v1.24c-.18.08-.43.15-.78.21s-.65.08-.92.08c-2.07,0-3.11-1.09-3.11-3.27v-6.37h-1.53v-.78l1.53-.67.68-2.29h.94v2.48h3.11v1.26h-3.11v6.3c0,.64.15,1.14.46,1.48.31.34.73.52,1.26.52Z"></path>
      <path d="m473.59,362.89c-1.58,0-2.83-.48-3.75-1.45-.92-.96-1.37-2.3-1.37-4.01s.42-3.1,1.27-4.11,1.99-1.52,3.42-1.52c1.34,0,2.4.44,3.18,1.32s1.17,2.05,1.17,3.49v1.03h-7.37c.03,1.26.35,2.21.95,2.86.6.65,1.45.98,2.54.98,1.15,0,2.29-.24,3.42-.72v1.45c-.57.25-1.12.42-1.63.53-.51.11-1.13.16-1.85.16Zm-.44-9.74c-.86,0-1.54.28-2.06.84-.51.56-.81,1.33-.9,2.32h5.6c0-1.02-.23-1.8-.68-2.35-.46-.54-1.11-.82-1.95-.82Z"></path>
    </g>
  </g>
  <g data-sanitized-data-name="Water Mark" data-name="Water Mark" id="Water_Mark">
    <g>
      <g class="cls-12">
        <circle r="2.65" cy="67.24" cx="68.32" class="cls-1"></circle>
      </g>
      <g class="cls-9">
        <path d="m69.19,65.5c-.27-.13-.54-.19-.83-.19-.34,0-.65.09-.95.26-.29.17-.52.4-.67.69-.16.28-.24.61-.24.97,0,.57.17,1.03.52,1.39s.79.54,1.33.54c.29,0,.55-.05.78-.15s.47-.29.73-.55l-.45-.49c-.19.2-.37.34-.53.41-.16.08-.33.11-.53.11-.23,0-.43-.05-.61-.16-.19-.11-.33-.26-.43-.45s-.15-.41-.15-.65c0-.35.11-.65.34-.89.23-.24.51-.36.84-.36.39,0,.75.18,1.06.53l.46-.47c-.19-.24-.42-.42-.69-.55" class="cls-3"></path>
      </g>
      <g class="cls-5">
        <path d="m106.34,44.32c0,.67-.19,2.26-1.42,3.25-1.23.99-2.6,1.23-3.94,1.05-1.33-.17-2.02-1.36-1.98-2.43.04-1.06.5-1.99,2.13-2.44,1.63-.44,3.51-.67,5.22-1.46v2.02Zm.5-12.02c-3.99-.91-7.2-.39-8.8.43s-3.27,2.3-3.42,4.67h5.11s.57-1.37,2.75-1.41c2.18-.04,3.52.47,3.75,1.44.23.97-.58,1.72-1.92,2.05-1.33.33-3.46.56-4.95.87-1.49.31-4.18,1.43-4.84,3.23-.66,1.8-.68,4.24.06,5.9.74,1.66,3.19,3.39,6.44,3.29,3.25-.1,5.86-.31,7.78-2.05s2.52-3.56,2.52-5.44.02-7.6.02-8.24-.5-3.83-4.49-4.74" class="cls-7"></path>
      </g>
      <g class="cls-14">
        <rect height="19.6" width="63.17" y="11.36" x="21.96" class="cls-18"></rect>
      </g>
      <g class="cls-10">
        <path d="m89.78,26.73h-2.91v26.04h5.38v-23.57c0-1.36-1.11-2.47-2.47-2.47" class="cls-7"></path>
      </g>
      <g class="cls-16">
        <path d="m82.65,32.63h-2.84v20.14h5.26v-17.72c0-1.33-1.09-2.42-2.42-2.42" class="cls-7"></path>
      </g>
      <g class="cls-6">
        <path d="m74.77,41.73c-1.82-1.1-4.06-1.45-6.73-2.11-2.67-.66-3.31-1.34-3.32-1.98,0-.64.37-1.3,1.13-1.49.76-.19,1.99-.35,3.27-.06,1.28.29,1.94,1.53,2.26,1.84.31.31.88.54,1.27.54h3.68c-.13-2.19-.81-3.8-2.4-4.96-1.59-1.16-3.54-1.82-7.53-1.59-3.99.23-6.11,2.28-6.79,4.62-.68,2.34.04,4.74,1.92,5.96,1.88,1.22,4.99,1.84,6.89,2.24,1.9.41,3.37,1,3.27,2.26-.1,1.27-2.23,1.93-4.78,1.61-2.54-.32-2.8-2.93-2.8-2.93h-5.13c-.17,3.35,1.43,5.17,3.5,6.13,2.07.97,5.61,1.32,9.36.48,3.75-.83,5.19-3.5,5.2-5.86.02-2.36-.46-3.62-2.28-4.72" class="cls-7"></path>
      </g>
      <g class="cls-8">
        <path d="m54.95,41.73c-1.82-1.1-4.06-1.45-6.73-2.11-2.67-.66-3.31-1.34-3.32-1.98,0-.64.37-1.3,1.13-1.49.76-.19,1.99-.35,3.27-.06,1.28.29,1.94,1.53,2.26,1.84.31.31.88.54,1.27.54h3.68c-.13-2.19-.81-3.8-2.4-4.96-1.59-1.16-3.54-1.82-7.53-1.59-3.99.23-6.11,2.28-6.79,4.62-.68,2.34.04,4.74,1.92,5.96,1.88,1.22,4.99,1.84,6.89,2.24,1.9.41,3.37,1,3.27,2.26-.1,1.27-2.23,1.93-4.78,1.61-2.54-.32-2.8-2.93-2.8-2.93h-5.13c-.17,3.35,1.43,5.17,3.5,6.13,2.07.97,5.61,1.32,9.36.48,3.75-.83,5.19-3.5,5.2-5.86.02-2.36-.46-3.62-2.28-4.72" class="cls-7"></path>
      </g>
      <g class="cls-15">
        <path d="m24.23,48.13c-5.19,0-7.48-4.06-7.48-9.05s2.52-9.02,7.49-9.02,7.49,4.04,7.49,9.02-2.31,9.05-7.5,9.05m.01-22.74c-8.56,0-12.91,6.12-12.91,13.67s3.94,13.71,12.89,13.71,12.93-6.16,12.93-13.71-4.35-13.67-12.91-13.67" class="cls-7"></path>
      </g>
      <g class="cls-11">
        <path d="m108.53,61.1c.27-.06.53-.15.77-.27v-1.06c-.29.14-.58.24-.85.3-.27.06-.56.09-.86.09-.39,0-.69-.11-.91-.33-.22-.22-.33-.52-.35-.92h3.25v-.67c0-.72-.2-1.28-.6-1.68-.4-.41-.95-.61-1.66-.61s-1.33.23-1.75.69c-.42.46-.63,1.11-.63,1.96s.23,1.46.69,1.9c.46.45,1.09.67,1.9.67.39,0,.73-.03,1-.09m-.5-3.88c.17.19.26.45.27.79h-1.93c.02-.34.12-.6.28-.79.17-.18.39-.28.69-.28s.52.09.69.28m-3.98,1.74c-.09-.18-.22-.34-.41-.48-.18-.14-.47-.29-.87-.45-.44-.18-.73-.31-.86-.4-.13-.09-.2-.2-.2-.32,0-.22.2-.33.61-.33.23,0,.45.04.67.1.22.07.46.16.71.27l.41-.99c-.57-.26-1.16-.4-1.77-.4s-1.13.12-1.48.37c-.35.25-.52.59-.52,1.04,0,.26.04.48.12.66.08.18.21.34.4.48.18.14.47.29.85.45.27.11.49.21.65.3.16.09.28.16.34.23.07.07.1.16.1.26,0,.29-.25.43-.75.43-.24,0-.53-.04-.85-.12s-.61-.18-.86-.3v1.14c.23.1.47.17.73.22s.57.07.94.07c.72,0,1.25-.14,1.61-.41.36-.27.54-.66.54-1.18,0-.25-.04-.46-.13-.65m-4.83,2.14v-5.04h-1.38v2.37c0,.6-.09,1.02-.26,1.28-.17.26-.45.39-.83.39-.28,0-.49-.09-.62-.27-.13-.18-.19-.45-.19-.82v-2.95h-1.38v3.29c0,.6.15,1.05.45,1.37.3.32.75.48,1.34.48.35,0,.65-.06.92-.19.27-.13.48-.31.63-.54h.07l.18.64h1.06Zm-6.64-6.59l-2.46,6.59h1.25l2.46-6.59h-1.25Zm-6.35,4.06c0-.52.08-.91.25-1.15.17-.24.42-.36.76-.36.26,0,.45.09.57.27.12.18.18.46.18.82v2.95h1.38v-3.29c0-.65-.15-1.12-.44-1.41-.29-.29-.73-.44-1.3-.44-.33,0-.63.06-.89.19-.26.13-.46.31-.6.55h-.12c-.27-.49-.78-.74-1.53-.74-.33,0-.62.07-.88.2-.26.13-.45.31-.59.54h-.08l-.19-.65h-1.05v5.04h1.37v-2.37c0-.59.08-1.02.24-1.28.16-.26.41-.39.77-.39.26,0,.45.09.57.27.12.18.18.46.18.82v2.95h1.38v-2.53Zm-5.94-1.38c-.2-.39-.48-.7-.85-.91-.37-.21-.8-.32-1.28-.32-.78,0-1.38.23-1.81.69-.43.46-.65,1.1-.65,1.92,0,.53.1.99.3,1.39.2.4.48.7.85.91.37.21.8.32,1.28.32.77,0,1.38-.23,1.81-.69s.65-1.11.65-1.93c0-.53-.1-.99-.3-1.38m-2.95.26c.16-.25.43-.37.79-.37s.64.12.8.37c.16.25.24.62.24,1.12s-.08.88-.24,1.13c-.16.25-.43.38-.79.38s-.64-.13-.8-.38c-.16-.26-.25-.63-.25-1.13s.08-.88.24-1.13m-3.18,3.66c.23-.05.45-.15.67-.29v-1.18c-.23.15-.45.26-.68.33-.23.07-.47.11-.74.11-.72,0-1.07-.49-1.07-1.48s.36-1.52,1.07-1.52c.19,0,.37.03.56.08.19.06.39.13.6.21l.41-1.06c-.46-.23-.99-.34-1.57-.34-.8,0-1.41.23-1.84.68-.43.45-.64,1.11-.64,1.96,0,1.72.78,2.58,2.35,2.58.35,0,.63-.03.86-.08m-5.52-.09c.14.13.33.2.59.2s.44-.07.58-.2c.14-.14.21-.32.21-.56s-.07-.44-.21-.57c-.14-.13-.33-.2-.58-.2s-.45.06-.59.19c-.14.13-.2.32-.2.57s.07.43.21.57m-2.79-1.84c0,.3-.1.55-.29.73-.19.18-.45.28-.76.28-.45,0-.67-.19-.67-.58,0-.27.1-.47.29-.6.2-.13.49-.2.89-.22l.53-.02v.41Zm1.37,1.92v-3.36c0-.6-.18-1.05-.54-1.34-.36-.29-.88-.44-1.56-.44s-1.35.15-1.93.46l.46.93c.54-.24,1.02-.37,1.42-.37.52,0,.78.26.78.77v.22l-.87.03c-.76.03-1.32.17-1.69.42-.37.25-.56.65-.56,1.18s.14.91.42,1.18c.28.28.66.41,1.14.41.39,0,.71-.06.96-.17.25-.11.48-.32.72-.61h.04l.27.69h.96Zm-5.6-7.02h-1.38v7.02h1.38v-7.02Zm-2.81,1.98h-1.38v5.04h1.38v-5.04Zm-.69-.63c.25,0,.44-.06.56-.18.13-.12.19-.29.19-.5,0-.45-.25-.67-.75-.67s-.75.22-.75.67.25.68.75.68m-1.89,3.53c-.09-.18-.22-.34-.41-.48-.18-.14-.47-.29-.87-.45-.44-.18-.73-.31-.86-.4-.13-.09-.2-.2-.2-.32,0-.22.2-.33.61-.33.23,0,.45.04.67.1.22.07.46.16.71.27l.42-.99c-.57-.26-1.17-.4-1.77-.4-.64,0-1.13.12-1.48.37-.35.25-.52.59-.52,1.04,0,.26.04.48.12.66.08.18.21.34.4.48.18.14.47.29.85.45.27.11.49.21.65.3.16.09.28.16.34.23.07.07.1.16.1.26,0,.29-.25.43-.75.43-.24,0-.53-.04-.85-.12-.32-.08-.61-.18-.86-.3v1.14c.23.1.47.17.73.22s.57.07.94.07c.72,0,1.25-.14,1.61-.41.36-.27.54-.66.54-1.18,0-.25-.04-.46-.13-.65m-4.59,0c-.09-.18-.22-.34-.41-.48-.18-.14-.47-.29-.87-.45-.44-.18-.73-.31-.86-.4-.13-.09-.2-.2-.2-.32,0-.22.2-.33.61-.33.23,0,.45.04.67.1.22.07.46.16.71.27l.41-.99c-.57-.26-1.17-.4-1.77-.4-.64,0-1.13.12-1.48.37-.35.25-.52.59-.52,1.04,0,.26.04.48.12.66.08.18.22.34.4.48.18.14.47.29.86.45.27.11.49.21.65.3.16.09.28.16.34.23.07.07.1.16.1.26,0,.29-.25.43-.75.43-.24,0-.53-.04-.85-.12-.32-.08-.61-.18-.86-.3v1.14c.23.1.47.17.73.22.26.05.57.07.94.07.72,0,1.25-.14,1.61-.41.36-.27.54-.66.54-1.18,0-.25-.04-.46-.13-.65m-4.82-1.77c-.2-.39-.48-.7-.85-.91-.37-.21-.8-.32-1.28-.32-.78,0-1.38.23-1.81.69-.43.46-.64,1.1-.64,1.92,0,.53.1.99.3,1.39s.48.7.85.91c.37.21.8.32,1.28.32.77,0,1.38-.23,1.81-.69.43-.46.65-1.11.65-1.93,0-.53-.1-.99-.3-1.38m-2.95.26c.16-.25.43-.37.79-.37s.64.12.8.37c.16.25.24.62.24,1.12s-.08.88-.24,1.13c-.16.25-.42.38-.79.38s-.64-.13-.8-.38c-.16-.26-.25-.63-.25-1.13s.08-.88.24-1.13m-3.95,3.58c.14.13.33.2.59.2s.44-.07.58-.2c.14-.14.21-.32.21-.56s-.07-.44-.21-.57c-.14-.13-.33-.2-.58-.2s-.46.06-.59.19c-.14.13-.2.32-.2.57s.07.43.21.57m-2.27.08l1.45-5.04h-1.35l-.6,2.23c-.03.13-.08.39-.15.76-.07.38-.12.67-.14.89h-.03c0-.08-.01-.2-.03-.34-.02-.14-.04-.28-.07-.43s-.05-.28-.07-.41c-.03-.13-.04-.23-.06-.29l-.59-2.42h-1.52l-.62,2.42-.07.38c-.09.5-.15.86-.16,1.09h-.03c-.1-.7-.19-1.26-.28-1.66l-.58-2.23h-1.37l1.43,5.04h1.48l.92-3.99h.03l.52,2.23.39,1.76h1.5Zm-7.9,0l1.45-5.04h-1.35l-.6,2.23c-.03.13-.08.39-.15.76-.07.38-.12.67-.14.89h-.03c0-.08-.01-.2-.03-.34-.02-.14-.04-.28-.07-.43s-.05-.28-.07-.41c-.03-.13-.04-.23-.06-.29l-.59-2.42h-1.52l-.62,2.42-.07.38c-.09.5-.15.86-.16,1.09h-.03c-.1-.7-.19-1.26-.28-1.66l-.58-2.23h-1.37l1.43,5.04h1.48l.92-3.99h.03l.52,2.23.39,1.76h1.5Zm-7.9,0l1.45-5.04h-1.35l-.6,2.23c-.03.13-.08.39-.15.76-.07.38-.12.67-.14.89h-.03c0-.08-.01-.2-.03-.34-.02-.14-.04-.28-.07-.43-.02-.15-.05-.28-.07-.41-.03-.13-.04-.23-.06-.29l-.59-2.42h-1.52l-.62,2.42-.07.38c-.09.5-.15.86-.16,1.09h-.03c-.1-.7-.19-1.26-.28-1.66l-.58-2.23h-1.37l1.43,5.04h1.48l.92-3.99h.03l.52,2.23.39,1.76h1.5Z" class="cls-7"></path>
      </g>
      <g class="cls-19">
        <path d="m91.28,68.7c-.11-.1-.16-.24-.16-.41,0-.24.09-.43.27-.55.18-.12.47-.19.87-.2l.51-.02v.35c0,.31-.09.55-.28.72-.19.17-.43.26-.74.26-.21,0-.37-.05-.48-.15m2.35.72v-2.69c0-.47-.13-.82-.39-1.04s-.64-.33-1.15-.33c-.23,0-.47.03-.73.09-.26.06-.49.14-.71.26l.27.61c.17-.08.35-.15.54-.21s.38-.09.59-.09c.25,0,.43.06.55.19.12.13.18.32.18.57v.21l-.69.02c-.63.02-1.09.13-1.4.34-.3.21-.46.52-.46.93,0,.39.11.69.33.9s.53.32.92.32c.3,0,.56-.04.75-.13.19-.09.39-.25.58-.5h.03l.17.56h.61Zm-4.32-5.61h-.85v5.61h.85v-5.61Zm-2.83.91c.08.08.2.12.36.12s.27-.04.35-.12c.08-.08.12-.2.12-.34,0-.15-.04-.27-.12-.35-.08-.08-.2-.12-.35-.12s-.27.04-.36.12c-.08.08-.12.2-.12.35s.04.26.12.34m.77.72h-.85v3.99h.85v-3.99Zm-1.87,2.36c-.07-.14-.18-.26-.33-.37-.15-.11-.39-.22-.72-.35-.39-.15-.65-.27-.76-.36-.12-.09-.18-.19-.18-.32,0-.25.22-.38.67-.38.29,0,.66.09,1.09.27l.27-.64c-.42-.19-.86-.29-1.33-.29s-.85.09-1.12.28c-.28.19-.41.45-.41.8,0,.28.08.52.24.69.16.18.47.36.93.53.24.09.42.17.55.25.13.07.23.14.29.21.06.07.09.15.09.25,0,.32-.26.47-.78.47-.4,0-.84-.11-1.31-.32v.73c.32.16.75.24,1.28.24s.94-.1,1.22-.31c.28-.21.43-.51.43-.9,0-.19-.04-.36-.11-.5m-3.6,0c-.07-.14-.18-.26-.33-.37-.15-.11-.39-.22-.72-.35-.39-.15-.65-.27-.76-.36-.12-.09-.18-.19-.18-.32,0-.25.22-.38.67-.38.29,0,.66.09,1.09.27l.27-.64c-.42-.19-.86-.29-1.33-.29s-.85.09-1.12.28c-.27.19-.41.45-.41.8,0,.28.08.52.24.69.16.18.47.36.93.53.24.09.42.17.55.25.13.07.23.14.29.21.06.07.09.15.09.25,0,.32-.26.47-.78.47-.4,0-.84-.11-1.31-.32v.73c.32.16.75.24,1.28.24s.94-.1,1.22-.31c.28-.21.43-.51.43-.9,0-.19-.04-.36-.11-.5m-7.25-2.48c.26-.33.65-.5,1.17-.5s.9.17,1.16.5c.26.33.39.83.39,1.47s-.13,1.15-.39,1.48c-.26.33-.65.5-1.16.5s-.9-.17-1.16-.5c-.26-.34-.39-.83-.39-1.48s.13-1.14.4-1.47m2.99-.53c-.43-.47-1.03-.71-1.82-.71s-1.41.23-1.84.7c-.43.47-.64,1.14-.64,2.01s.21,1.54.64,2.01c.43.47,1.04.71,1.83.71s1.4-.24,1.82-.72c.43-.48.64-1.14.64-2s-.21-1.53-.64-2m-15.55,3.89c-.1-.1-.15-.25-.15-.45v-2.14h1.14v-.64h-1.14v-.89h-.52l-.29.84-.58.31v.38h.54v2.15c0,.85.4,1.27,1.21,1.27.16,0,.31-.01.46-.04.15-.03.27-.06.36-.1v-.64c-.21.07-.41.1-.62.1-.17,0-.3-.05-.4-.15m-2.26-1.84c0-.97-.48-1.46-1.45-1.46-.27,0-.51.05-.72.16-.21.11-.37.26-.48.45h-.05c.03-.26.04-.5.04-.73v-1.43h-.85v5.61h.85v-1.98c0-.5.08-.86.25-1.07s.43-.32.79-.32c.27,0,.47.08.59.23.12.15.19.38.19.69v2.45h.85v-2.6Zm-6.83-.71c.13-.14.31-.21.56-.21s.43.07.55.21c.12.14.18.34.18.6,0,.52-.25.79-.74.79-.24,0-.42-.07-.55-.2-.13-.13-.19-.33-.19-.58,0-.27.06-.47.19-.61m-.34,3.47c.14-.11.34-.17.58-.17h.64c.34,0,.57.04.69.11.12.07.19.2.19.37,0,.22-.11.39-.34.53-.23.13-.57.2-1.03.2-.3,0-.53-.05-.69-.15-.17-.1-.25-.24-.25-.42,0-.19.07-.35.21-.46m1.54-4.15c-.06-.02-.16-.03-.28-.05-.12-.02-.24-.02-.35-.02-.51,0-.89.12-1.17.36-.27.24-.41.57-.41,1.01,0,.27.06.5.19.71.13.2.3.35.5.43-.17.1-.29.2-.37.31-.08.1-.13.23-.13.38,0,.12.04.23.11.34.07.11.17.18.28.23-.28.06-.5.18-.65.35-.16.17-.23.37-.23.62,0,.36.14.63.43.82.29.19.7.29,1.24.29.7,0,1.24-.12,1.62-.37s.56-.59.56-1.05c0-.35-.11-.62-.34-.81-.23-.19-.56-.28-1-.28h-.7c-.23,0-.39-.02-.47-.07-.09-.05-.13-.11-.13-.21,0-.15.09-.28.27-.4.1.02.22.03.35.03.5,0,.89-.12,1.17-.35.28-.24.43-.56.43-.97,0-.14-.02-.27-.06-.39-.04-.12-.09-.23-.16-.31l.68-.13v-.46h-1.38Zm-3.97-.72c.08.08.2.12.36.12s.26-.04.35-.12c.08-.08.13-.2.13-.34,0-.15-.04-.27-.13-.35-.08-.08-.2-.12-.35-.12s-.27.04-.36.12c-.08.08-.12.2-.12.35s.04.26.12.34m.77.72h-.85v3.99h.85v-3.99Zm-2.7.14c-.21.14-.39.33-.52.57h-.04l-.11-.7h-.66v3.99h.85v-2.09c0-.35.11-.64.32-.86.21-.22.49-.33.83-.33.13,0,.25.01.37.04l.08-.79c-.11-.02-.25-.04-.42-.04-.25,0-.47.07-.69.21m-4.3,3.85l-.15.38c-.17.47-.45.71-.86.71-.16,0-.31-.01-.44-.04v.67c.18.04.36.06.55.06.72,0,1.24-.42,1.55-1.25l1.71-4.52h-.92c-.55,1.6-.86,2.5-.92,2.69-.06.19-.1.35-.12.48h-.03c-.04-.28-.12-.59-.25-.91l-.81-2.26h-.92l1.6,3.99Zm-3.09-3.03c.16.23.24.57.24,1.02s-.08.79-.24,1.03-.39.36-.68.36c-.35,0-.6-.11-.75-.33-.15-.22-.23-.57-.23-1.06v-.13c0-.43.08-.75.23-.95.16-.2.4-.3.74-.3.31,0,.54.11.69.34m.68,2.55c.28-.37.42-.87.42-1.53s-.14-1.16-.42-1.52c-.28-.36-.67-.54-1.16-.54-.53,0-.93.2-1.19.61h-.04c-.06-.28-.1-.46-.12-.53h-.69v5.77h.85v-1.63c0-.07-.02-.28-.05-.61h.05c.28.36.67.55,1.18.55s.89-.18,1.17-.55m-6.83-2.54c.16-.24.42-.35.77-.35.68,0,1.02.46,1.02,1.37s-.34,1.38-1.01,1.38-1.02-.46-1.02-1.38c0-.44.08-.78.24-1.01m2.16-.49c-.34-.37-.79-.56-1.37-.56s-1.07.18-1.4.54c-.33.36-.5.87-.5,1.52,0,.42.08.78.23,1.1.15.32.37.56.66.73.29.17.62.25.99.25.6,0,1.06-.18,1.4-.55s.5-.87.5-1.53-.17-1.13-.51-1.5m-4.76-1.01c.2.06.39.14.56.22l.31-.72c-.46-.23-.96-.34-1.49-.34s-.96.11-1.34.33c-.38.22-.67.53-.87.95-.2.41-.3.89-.3,1.44,0,.87.21,1.54.62,2.01.41.47,1.01.7,1.78.7.52,0,.99-.08,1.41-.24v-.74c-.23.07-.44.13-.65.17-.21.04-.43.07-.65.07-.52,0-.91-.17-1.19-.5-.27-.33-.41-.82-.41-1.47s.14-1.1.43-1.45c.28-.35.67-.53,1.17-.53.22,0,.43.03.63.1" class="cls-3"></path>
      </g>
    </g>
  </g>
</svg>