<svg viewBox="0 0 848 258.67" xmlns:xlink="http://www.w3.org/1999/xlink" height="258.67" width="848" xmlns="http://www.w3.org/2000/svg" data-sanitized-data-name="Layer 1" data-name="Layer 1" id="Layer_1">
  <defs>
    <style>
      .cls-1 {
        fill: #ccd4ec;
      }

      .cls-2 {
        fill: #54565a;
      }

      .cls-3 {
        stroke: #54565a;
        stroke-linecap: round;
        stroke-linejoin: round;
        stroke-width: 3px;
      }

      .cls-3, .cls-4 {
        fill: none;
      }

      .cls-5 {
        clip-path: url(#clippath-1);
      }

      .cls-6 {
        fill: #949fd0;
      }

      .cls-7 {
        clip-path: url(#clippath-3);
      }

      .cls-8 {
        fill: #00b4c5;
      }

      .cls-9 {
        clip-path: url(#clippath-2);
      }

      .cls-10 {
        clip-path: url(#clippath);
      }
    </style>
    <clipPath id="clippath">
      <rect height="31.07" width="75" y="15.88" x="758.56" class="cls-4"></rect>
    </clipPath>
    <clipPath id="clippath-1">
      <rect height="31.07" width="75" y="15.88" x="758.56" class="cls-4"></rect>
    </clipPath>
    <clipPath id="clippath-2">
      <path d="M766.53,15.88l4.15,4.59,39.2,7.81v.45l-37.54-6.46,3.27,3.6,34.27,3.38v.44c-10.98-.76-21.86-1.49-32.84-2.25l2.51,2.76c10.14,0,20.19,0,30.33,0v.38h4.03v-1.34c0-1.04-.84-1.89-1.85-1.89h-2.18v.42l-43.34-11.88Z" class="cls-4"></path>
    </clipPath>
    <clipPath id="clippath-3">
      <rect height="31.07" width="75" y="15.88" x="758.56" class="cls-4"></rect>
    </clipPath>
  </defs>
  <rect height="156.76" width="15.12" y="24.2" x="156.28" class="cls-1"></rect>
  <rect height="17.69" width="199.99" y="191.14" x="38.28" class="cls-6"></rect>
  <rect transform="translate(192.28 377.77) rotate(180)" height="4.5" width="115.86" y="186.64" x="38.21" class="cls-8"></rect>
  <g>
    <line y2="109.38" x2="75.45" y1="109.38" x1="134.64" class="cls-3"></line>
    <polygon points="128.66 104.3 133.75 109.38 128.66 114.47 132.98 114.47 138.07 109.38 132.98 104.3 128.66 104.3" class="cls-2"></polygon>
  </g>
  <g>
    <path d="M86.39,92.08c-.06-1.18-.14-2.59-.13-3.65h-.04c-.29.99-.64,2.04-1.06,3.21l-1.49,4.1h-.83l-1.37-4.02c-.4-1.19-.74-2.28-.98-3.28h-.02c-.02,1.05-.09,2.47-.16,3.73l-.23,3.62h-1.04l.59-8.44h1.39l1.44,4.08c.35,1.04.64,1.97.85,2.84h.04c.21-.85.51-1.78.89-2.84l1.5-4.08h1.39l.53,8.44h-1.06l-.21-3.71Z"></path>
    <path d="M94.87,92.71c0,2.24-1.55,3.22-3.02,3.22-1.64,0-2.91-1.2-2.91-3.12,0-2.03,1.33-3.22,3.01-3.22s2.92,1.27,2.92,3.12ZM90.06,92.77c0,1.33.76,2.33,1.84,2.33s1.84-.99,1.84-2.35c0-1.03-.51-2.33-1.82-2.33s-1.87,1.2-1.87,2.36Z"></path>
    <path d="M96.6,89.72l1.19,3.41c.2.55.36,1.05.49,1.55h.04c.14-.5.31-1,.51-1.55l1.18-3.41h1.15l-2.38,6.06h-1.05l-2.3-6.06h1.18Z"></path>
    <path d="M102.68,92.96c.02,1.49.98,2.1,2.08,2.1.79,0,1.27-.14,1.68-.31l.19.79c-.39.18-1.05.38-2.02.38-1.87,0-2.98-1.23-2.98-3.06s1.08-3.27,2.84-3.27c1.98,0,2.51,1.74,2.51,2.86,0,.23-.02.4-.04.51h-4.26ZM105.92,92.17c.01-.7-.29-1.79-1.53-1.79-1.11,0-1.6,1.03-1.69,1.79h3.22Z"></path>
    <path d="M108.34,91.37c0-.63-.01-1.14-.05-1.64h.96l.05.98h.04c.34-.58.9-1.12,1.9-1.12.83,0,1.45.5,1.72,1.22h.02c.19-.34.43-.6.68-.79.36-.28.76-.43,1.34-.43.8,0,1.99.53,1.99,2.63v3.57h-1.08v-3.43c0-1.17-.43-1.87-1.32-1.87-.63,0-1.11.46-1.3,1-.05.15-.09.35-.09.55v3.75h-1.08v-3.63c0-.96-.43-1.67-1.27-1.67-.69,0-1.19.55-1.37,1.1-.06.16-.09.35-.09.54v3.66h-1.08v-4.42Z"></path>
    <path d="M119.4,92.96c.02,1.49.98,2.1,2.08,2.1.79,0,1.27-.14,1.68-.31l.19.79c-.39.18-1.05.38-2.02.38-1.87,0-2.98-1.23-2.98-3.06s1.08-3.27,2.84-3.27c1.98,0,2.51,1.74,2.51,2.86,0,.23-.02.4-.04.51h-4.26ZM122.63,92.17c.01-.7-.29-1.79-1.53-1.79-1.11,0-1.6,1.03-1.69,1.79h3.22Z"></path>
    <path d="M125.06,91.37c0-.63-.01-1.14-.05-1.64h.98l.06,1h.02c.3-.58,1-1.14,2-1.14.84,0,2.14.5,2.14,2.58v3.62h-1.1v-3.5c0-.98-.36-1.79-1.4-1.79-.73,0-1.29.51-1.48,1.13-.05.14-.08.33-.08.51v3.65h-1.1v-4.42Z"></path>
    <path d="M133.29,87.98v1.74h1.58v.84h-1.58v3.27c0,.75.21,1.18.83,1.18.29,0,.5-.04.64-.08l.05.83c-.21.09-.55.15-.98.15-.51,0-.93-.16-1.19-.46-.31-.33-.43-.86-.43-1.58v-3.31h-.94v-.84h.94v-1.45l1.08-.29Z"></path>
  </g>
  <g>
    <path d="M200.35,138.39v8.44h-1.09v-8.44h1.09Z"></path>
    <path d="M202.34,142.41c0-.63-.01-1.14-.05-1.64h.98l.06,1h.02c.3-.58,1-1.14,2-1.14.84,0,2.14.5,2.14,2.58v3.62h-1.1v-3.5c0-.98-.36-1.79-1.4-1.79-.73,0-1.29.51-1.48,1.13-.05.14-.08.33-.08.51v3.65h-1.1v-4.42Z"></path>
    <path d="M210.38,143.55h.02c.15-.21.36-.48.54-.69l1.78-2.09h1.33l-2.34,2.49,2.67,3.57h-1.34l-2.09-2.91-.56.63v2.28h-1.09v-8.89h1.09v5.61Z"></path>
  </g>
  <g>
    <path d="M148.86,5.28c.48-.1,1.23-.18,1.99-.18,1.09,0,1.79.19,2.32.61.44.33.7.83.7,1.49,0,.81-.54,1.53-1.43,1.85v.02c.8.2,1.74.86,1.74,2.12,0,.73-.29,1.28-.71,1.69-.59.54-1.54.79-2.92.79-.75,0-1.33-.05-1.69-.1V5.28ZM149.95,8.74h.99c1.15,0,1.83-.6,1.83-1.42,0-.99-.75-1.38-1.85-1.38-.5,0-.79.04-.96.08v2.72ZM149.95,12.78c.21.04.53.05.91.05,1.13,0,2.17-.41,2.17-1.64,0-1.15-.99-1.63-2.18-1.63h-.9v3.22Z"></path>
    <path d="M155.61,4.71h1.1v8.89h-1.1V4.71Z"></path>
    <path d="M161.92,13.61l-.09-.76h-.04c-.34.48-.99.9-1.85.9-1.23,0-1.85-.86-1.85-1.74,0-1.47,1.3-2.27,3.65-2.25v-.13c0-.5-.14-1.4-1.38-1.4-.56,0-1.15.18-1.58.45l-.25-.73c.5-.33,1.23-.54,1.99-.54,1.85,0,2.31,1.27,2.31,2.48v2.27c0,.53.02,1.04.1,1.45h-1ZM161.76,10.51c-1.2-.02-2.57.19-2.57,1.37,0,.71.48,1.05,1.04,1.05.79,0,1.29-.5,1.47-1.02.04-.11.06-.24.06-.35v-1.05Z"></path>
    <path d="M169.84,4.71v7.33c0,.54.01,1.15.05,1.57h-.99l-.05-1.05h-.02c-.34.68-1.08,1.19-2.07,1.19-1.47,0-2.59-1.24-2.59-3.08-.01-2.02,1.24-3.26,2.72-3.26.93,0,1.55.44,1.83.93h.02v-3.62h1.1ZM168.73,10.01c0-.14-.01-.33-.05-.46-.16-.7-.76-1.28-1.59-1.28-1.14,0-1.82,1-1.82,2.34,0,1.23.6,2.24,1.79,2.24.74,0,1.42-.49,1.62-1.32.04-.15.05-.3.05-.48v-1.05Z"></path>
    <path d="M172.28,10.78c.02,1.49.98,2.1,2.08,2.1.79,0,1.27-.14,1.68-.31l.19.79c-.39.18-1.05.38-2.02.38-1.87,0-2.98-1.23-2.98-3.06s1.08-3.27,2.84-3.27c1.98,0,2.51,1.74,2.51,2.86,0,.23-.02.4-.04.51h-4.26ZM175.51,9.99c.01-.7-.29-1.79-1.53-1.79-1.11,0-1.6,1.03-1.69,1.79h3.22Z"></path>
  </g>
  <g>
    <path d="M48.42,174.23c-.4.2-1.2.4-2.23.4-2.38,0-4.17-1.5-4.17-4.27s1.79-4.44,4.41-4.44c1.05,0,1.72.23,2,.38l-.26.89c-.41-.2-1-.35-1.7-.35-1.98,0-3.29,1.27-3.29,3.48,0,2.07,1.19,3.4,3.24,3.4.66,0,1.34-.14,1.78-.35l.23.86Z"></path>
    <path d="M55.09,171.43c0,2.24-1.55,3.22-3.02,3.22-1.64,0-2.91-1.2-2.91-3.12,0-2.03,1.33-3.22,3.01-3.22s2.92,1.27,2.92,3.12ZM50.28,171.49c0,1.33.76,2.33,1.84,2.33s1.84-.99,1.84-2.35c0-1.03-.51-2.33-1.82-2.33s-1.87,1.2-1.87,2.36Z"></path>
    <path d="M59.84,174.51l-.09-.76h-.04c-.34.48-.99.9-1.85.9-1.23,0-1.85-.86-1.85-1.74,0-1.47,1.3-2.27,3.65-2.25v-.13c0-.5-.14-1.4-1.38-1.4-.56,0-1.15.18-1.58.45l-.25-.73c.5-.33,1.23-.54,1.99-.54,1.85,0,2.31,1.27,2.31,2.48v2.27c0,.53.02,1.04.1,1.45h-1ZM59.67,171.41c-1.2-.02-2.57.19-2.57,1.37,0,.71.48,1.05,1.04,1.05.79,0,1.29-.5,1.47-1.02.04-.11.06-.24.06-.35v-1.05Z"></path>
    <path d="M63.79,166.7v1.74h1.58v.84h-1.58v3.27c0,.75.21,1.18.83,1.18.29,0,.5-.04.64-.08l.05.83c-.21.09-.55.15-.98.15-.51,0-.93-.16-1.19-.46-.31-.33-.43-.86-.43-1.58v-3.31h-.94v-.84h.94v-1.45l1.08-.29Z"></path>
    <path d="M67.84,166.74c.01.38-.26.68-.7.68-.39,0-.66-.3-.66-.68s.29-.69.69-.69.68.3.68.69ZM66.61,174.51v-6.06h1.1v6.06h-1.1Z"></path>
    <path d="M69.54,170.09c0-.63-.01-1.14-.05-1.64h.98l.06,1h.02c.3-.58,1-1.14,2-1.14.84,0,2.14.5,2.14,2.58v3.62h-1.1v-3.5c0-.98-.36-1.79-1.4-1.79-.73,0-1.29.51-1.48,1.13-.05.14-.08.33-.08.51v3.65h-1.1v-4.42Z"></path>
    <path d="M81.72,168.44c-.03.44-.05.93-.05,1.67v3.52c0,1.39-.28,2.24-.86,2.77-.59.55-1.44.73-2.21.73s-1.53-.18-2.02-.5l.28-.84c.4.25,1.03.48,1.78.48,1.13,0,1.95-.59,1.95-2.12v-.68h-.02c-.34.56-.99,1.01-1.93,1.01-1.5,0-2.58-1.28-2.58-2.96,0-2.05,1.34-3.22,2.73-3.22,1.05,0,1.63.55,1.89,1.05h.02l.05-.91h.96ZM80.58,170.84c0-.19-.01-.35-.06-.5-.2-.64-.74-1.17-1.54-1.17-1.05,0-1.8.89-1.8,2.29,0,1.19.6,2.18,1.79,2.18.68,0,1.29-.43,1.53-1.13.06-.19.09-.4.09-.59v-1.09Z"></path>
    <path d="M86.03,173.18c.49.3,1.2.55,1.95.55,1.12,0,1.77-.59,1.77-1.44,0-.79-.45-1.24-1.59-1.68-1.38-.49-2.23-1.2-2.23-2.39,0-1.32,1.09-2.29,2.73-2.29.86,0,1.49.2,1.87.41l-.3.89c-.28-.15-.84-.4-1.6-.4-1.15,0-1.59.69-1.59,1.27,0,.79.51,1.18,1.68,1.63,1.43.55,2.15,1.24,2.15,2.48,0,1.3-.96,2.43-2.96,2.43-.81,0-1.7-.24-2.15-.54l.28-.91Z"></path>
    <path d="M97.88,171.43c0,2.24-1.55,3.22-3.02,3.22-1.64,0-2.91-1.2-2.91-3.12,0-2.03,1.33-3.22,3.01-3.22s2.92,1.27,2.92,3.12ZM93.07,171.49c0,1.33.76,2.33,1.84,2.33s1.84-.99,1.84-2.35c0-1.03-.51-2.33-1.82-2.33s-1.87,1.2-1.87,2.36Z"></path>
    <path d="M99.27,165.61h1.1v8.89h-1.1v-8.89Z"></path>
    <path d="M107.3,172.85c0,.63.01,1.18.05,1.65h-.98l-.06-.99h-.02c-.29.49-.93,1.13-2,1.13-.95,0-2.09-.53-2.09-2.66v-3.55h1.1v3.36c0,1.15.35,1.93,1.35,1.93.74,0,1.25-.51,1.45-1,.06-.16.1-.36.1-.56v-3.72h1.1v4.41Z"></path>
    <path d="M110.45,166.7v1.74h1.58v.84h-1.58v3.27c0,.75.21,1.18.83,1.18.29,0,.5-.04.64-.08l.05.83c-.21.09-.55.15-.98.15-.51,0-.93-.16-1.19-.46-.31-.33-.43-.86-.43-1.58v-3.31h-.94v-.84h.94v-1.45l1.08-.29Z"></path>
    <path d="M114.5,166.74c.01.38-.26.68-.7.68-.39,0-.66-.3-.66-.68s.29-.69.69-.69.68.3.68.69ZM113.27,174.51v-6.06h1.1v6.06h-1.1Z"></path>
    <path d="M121.69,171.43c0,2.24-1.55,3.22-3.02,3.22-1.64,0-2.91-1.2-2.91-3.12,0-2.03,1.33-3.22,3.01-3.22s2.92,1.27,2.92,3.12ZM116.88,171.49c0,1.33.76,2.33,1.84,2.33s1.84-.99,1.84-2.35c0-1.03-.51-2.33-1.82-2.33s-1.87,1.2-1.87,2.36Z"></path>
    <path d="M123.08,170.09c0-.63-.01-1.14-.05-1.64h.98l.06,1h.02c.3-.58,1-1.14,2-1.14.84,0,2.14.5,2.14,2.58v3.62h-1.1v-3.5c0-.98-.36-1.79-1.4-1.79-.73,0-1.29.51-1.48,1.13-.05.14-.08.33-.08.51v3.65h-1.1v-4.42Z"></path>
  </g>
  <g>
    <path d="M255.17,201.9c.49.3,1.2.55,1.95.55,1.12,0,1.77-.59,1.77-1.44,0-.79-.45-1.24-1.59-1.68-1.38-.49-2.23-1.2-2.23-2.39,0-1.32,1.09-2.29,2.73-2.29.86,0,1.49.2,1.87.41l-.3.89c-.28-.15-.84-.4-1.6-.4-1.15,0-1.59.69-1.59,1.27,0,.79.51,1.18,1.68,1.63,1.43.55,2.15,1.24,2.15,2.48,0,1.3-.96,2.43-2.96,2.43-.81,0-1.7-.24-2.15-.54l.28-.91Z"></path>
    <path d="M266.53,201.58c0,.63.01,1.18.05,1.65h-.98l-.06-.99h-.02c-.29.49-.93,1.13-2,1.13-.95,0-2.09-.53-2.09-2.66v-3.55h1.1v3.36c0,1.15.35,1.93,1.35,1.93.74,0,1.25-.51,1.45-1,.06-.16.1-.36.1-.56v-3.72h1.1v4.41Z"></path>
    <path d="M268.3,203.23c.03-.41.05-1.03.05-1.57v-7.33h1.09v3.81h.02c.39-.68,1.09-1.12,2.07-1.12,1.5,0,2.57,1.25,2.56,3.09,0,2.17-1.37,3.24-2.72,3.24-.88,0-1.58-.34-2.03-1.14h-.04l-.05,1h-.95ZM269.44,200.8c0,.14.02.28.05.4.21.76.85,1.29,1.65,1.29,1.15,0,1.84-.94,1.84-2.33,0-1.21-.63-2.25-1.8-2.25-.75,0-1.45.51-1.68,1.35-.02.13-.06.28-.06.45v1.09Z"></path>
    <path d="M275.33,202.1c.33.21.9.44,1.45.44.8,0,1.18-.4,1.18-.9,0-.53-.31-.81-1.13-1.12-1.09-.39-1.6-.99-1.6-1.72,0-.98.79-1.78,2.09-1.78.61,0,1.15.18,1.49.38l-.28.8c-.24-.15-.68-.35-1.24-.35-.65,0-1.01.38-1.01.83,0,.5.36.73,1.15,1.03,1.05.4,1.59.93,1.59,1.83,0,1.06-.83,1.82-2.27,1.82-.66,0-1.28-.16-1.7-.41l.28-.84Z"></path>
    <path d="M281.77,195.43v1.74h1.58v.84h-1.58v3.27c0,.75.21,1.18.83,1.18.29,0,.5-.04.64-.08l.05.83c-.21.09-.55.15-.98.15-.51,0-.93-.16-1.19-.46-.31-.33-.43-.86-.43-1.58v-3.31h-.94v-.84h.94v-1.45l1.08-.29Z"></path>
    <path d="M284.58,199.06c0-.71-.01-1.33-.05-1.89h.96l.04,1.19h.05c.28-.81.94-1.33,1.68-1.33.13,0,.21.01.31.04v1.04c-.11-.03-.23-.04-.38-.04-.78,0-1.33.59-1.48,1.42-.03.15-.05.33-.05.51v3.23h-1.09v-4.17Z"></path>
    <path d="M291.97,203.23l-.09-.76h-.04c-.34.48-.99.9-1.85.9-1.23,0-1.85-.86-1.85-1.74,0-1.47,1.3-2.27,3.65-2.25v-.13c0-.5-.14-1.4-1.38-1.4-.56,0-1.15.18-1.58.45l-.25-.73c.5-.33,1.23-.54,1.99-.54,1.85,0,2.31,1.27,2.31,2.48v2.27c0,.53.02,1.04.1,1.45h-1ZM291.81,200.14c-1.2-.02-2.57.19-2.57,1.37,0,.71.48,1.05,1.04,1.05.79,0,1.29-.5,1.47-1.02.04-.11.06-.24.06-.35v-1.05Z"></path>
    <path d="M295.93,195.43v1.74h1.58v.84h-1.58v3.27c0,.75.21,1.18.83,1.18.29,0,.5-.04.64-.08l.05.83c-.21.09-.55.15-.98.15-.51,0-.93-.16-1.19-.46-.31-.33-.43-.86-.43-1.58v-3.31h-.94v-.84h.94v-1.45l1.08-.29Z"></path>
    <path d="M299.29,200.4c.02,1.49.98,2.1,2.08,2.1.79,0,1.27-.14,1.68-.31l.19.79c-.39.18-1.05.38-2.02.38-1.87,0-2.98-1.23-2.98-3.06s1.08-3.27,2.84-3.27c1.98,0,2.51,1.74,2.51,2.86,0,.23-.02.4-.04.51h-4.26ZM302.52,199.61c.01-.7-.29-1.79-1.53-1.79-1.11,0-1.6,1.03-1.69,1.79h3.22Z"></path>
  </g>
  <g>
    <path d="M96.53,225.93h-2.57v-.93h6.25v.93h-2.58v7.52h-1.1v-7.52Z"></path>
    <path d="M101.03,224.55h1.1v3.78h.02c.18-.31.45-.59.79-.78.33-.19.71-.31,1.13-.31.81,0,2.12.5,2.12,2.59v3.61h-1.1v-3.48c0-.98-.36-1.8-1.4-1.8-.71,0-1.28.5-1.48,1.1-.06.15-.08.31-.08.53v3.66h-1.1v-8.89Z"></path>
    <path d="M109.21,225.68c.01.38-.26.68-.7.68-.39,0-.66-.3-.66-.68s.29-.69.69-.69.68.3.68.69ZM107.98,233.45v-6.06h1.1v6.06h-1.1Z"></path>
    <path d="M110.91,229.02c0-.63-.01-1.14-.05-1.64h.98l.06,1h.02c.3-.58,1-1.14,2-1.14.84,0,2.14.5,2.14,2.58v3.62h-1.1v-3.5c0-.98-.36-1.79-1.4-1.79-.73,0-1.29.51-1.48,1.13-.05.14-.08.33-.08.51v3.65h-1.1v-4.42Z"></path>
    <path d="M120.55,225h4.55v.91h-3.46v2.81h3.19v.9h-3.19v3.82h-1.09v-8.44Z"></path>
    <path d="M127.51,225.68c.01.38-.26.68-.7.68-.39,0-.66-.3-.66-.68s.29-.69.69-.69.68.3.68.69ZM126.29,233.45v-6.06h1.1v6.06h-1.1Z"></path>
    <path d="M129.22,224.55h1.1v8.89h-1.1v-8.89Z"></path>
    <path d="M132.17,229.02c0-.63-.01-1.14-.05-1.64h.96l.05.98h.04c.34-.58.9-1.12,1.9-1.12.83,0,1.45.5,1.72,1.21h.02c.19-.34.43-.6.68-.79.36-.28.76-.43,1.34-.43.8,0,1.99.53,1.99,2.63v3.57h-1.08v-3.43c0-1.17-.43-1.87-1.32-1.87-.63,0-1.11.46-1.3,1-.05.15-.09.35-.09.55v3.75h-1.08v-3.63c0-.96-.43-1.67-1.27-1.67-.69,0-1.19.55-1.37,1.1-.06.16-.09.35-.09.54v3.66h-1.08v-4.42Z"></path>
    <path d="M151.21,233.17c-.4.2-1.2.4-2.23.4-2.38,0-4.17-1.5-4.17-4.27s1.79-4.43,4.41-4.43c1.05,0,1.72.23,2,.38l-.26.89c-.41-.2-1-.35-1.7-.35-1.98,0-3.29,1.27-3.29,3.48,0,2.07,1.19,3.4,3.24,3.4.66,0,1.34-.14,1.78-.35l.23.86Z"></path>
    <path d="M157.88,230.36c0,2.24-1.55,3.22-3.02,3.22-1.64,0-2.91-1.2-2.91-3.12,0-2.03,1.33-3.22,3.01-3.22s2.92,1.27,2.92,3.12ZM153.07,230.43c0,1.33.76,2.33,1.84,2.33s1.84-.99,1.84-2.35c0-1.03-.51-2.33-1.82-2.33s-1.87,1.2-1.87,2.35Z"></path>
    <path d="M162.63,233.45l-.09-.76h-.04c-.34.48-.99.9-1.85.9-1.23,0-1.85-.86-1.85-1.74,0-1.47,1.3-2.27,3.65-2.25v-.12c0-.5-.14-1.4-1.38-1.4-.56,0-1.15.17-1.58.45l-.25-.73c.5-.33,1.23-.54,1.99-.54,1.85,0,2.31,1.27,2.31,2.48v2.27c0,.53.02,1.04.1,1.45h-1ZM162.47,230.35c-1.2-.02-2.57.19-2.57,1.37,0,.71.48,1.05,1.04,1.05.79,0,1.29-.5,1.47-1.01.04-.11.06-.24.06-.35v-1.05Z"></path>
    <path d="M166.59,225.64v1.74h1.58v.84h-1.58v3.27c0,.75.21,1.18.83,1.18.29,0,.5-.04.64-.08l.05.83c-.21.09-.55.15-.98.15-.51,0-.93-.16-1.19-.46-.31-.33-.43-.86-.43-1.58v-3.31h-.94v-.84h.94v-1.45l1.08-.29Z"></path>
    <path d="M170.63,225.68c.01.38-.26.68-.7.68-.39,0-.66-.3-.66-.68s.29-.69.69-.69.68.3.68.69ZM169.4,233.45v-6.06h1.1v6.06h-1.1Z"></path>
    <path d="M172.33,229.02c0-.63-.01-1.14-.05-1.64h.98l.06,1h.02c.3-.58,1-1.14,2-1.14.84,0,2.14.5,2.14,2.58v3.62h-1.1v-3.5c0-.98-.36-1.79-1.4-1.79-.73,0-1.29.51-1.48,1.13-.05.14-.08.33-.08.51v3.65h-1.1v-4.42Z"></path>
    <path d="M184.51,227.38c-.03.44-.05.93-.05,1.67v3.52c0,1.39-.28,2.24-.86,2.77-.59.55-1.44.73-2.21.73s-1.53-.18-2.02-.5l.28-.84c.4.25,1.03.48,1.78.48,1.13,0,1.95-.59,1.95-2.12v-.68h-.02c-.34.56-.99,1.01-1.93,1.01-1.5,0-2.58-1.28-2.58-2.96,0-2.05,1.34-3.22,2.73-3.22,1.05,0,1.63.55,1.89,1.05h.02l.05-.92h.96ZM183.37,229.78c0-.19-.01-.35-.06-.5-.2-.64-.74-1.17-1.54-1.17-1.05,0-1.8.89-1.8,2.29,0,1.19.6,2.18,1.79,2.18.68,0,1.29-.43,1.53-1.13.06-.19.09-.4.09-.59v-1.09Z"></path>
    <path d="M189.23,232.67c.24.02.51,0,.89-.04.64-.09,1.24-.35,1.7-.79.54-.49.93-1.2,1.08-2.17h-.04c-.45.55-1.1.88-1.92.88-1.47,0-2.41-1.1-2.41-2.49,0-1.54,1.11-2.89,2.78-2.89s2.69,1.35,2.69,3.43c0,1.79-.6,3.04-1.4,3.82-.63.61-1.49.99-2.37,1.09-.4.06-.75.08-1.01.06v-.9ZM189.63,227.98c0,1.01.61,1.73,1.57,1.73.74,0,1.32-.36,1.6-.85.06-.1.1-.23.1-.4,0-1.39-.51-2.46-1.67-2.46-.94,0-1.6.83-1.6,1.98Z"></path>
    <path d="M200.43,229.29c0,2.77-1.03,4.3-2.83,4.3-1.59,0-2.67-1.49-2.69-4.18,0-2.73,1.18-4.23,2.83-4.23s2.69,1.53,2.69,4.12ZM196,229.41c0,2.12.65,3.32,1.65,3.32,1.13,0,1.67-1.32,1.67-3.4s-.51-3.32-1.65-3.32c-.96,0-1.67,1.18-1.67,3.39Z"></path>
    <path d="M204.56,226.49c0,1.01-.81,1.68-1.68,1.68-.98,0-1.64-.74-1.64-1.62-.01-.96.74-1.69,1.67-1.69,1.03,0,1.65.78,1.65,1.63ZM201.91,226.56c0,.58.43,1.03.98,1.03s.99-.46.99-1.08c0-.46-.28-1.05-.99-1.05-.65,0-.98.56-.98,1.1Z"></path>
    <path d="M103.16,244.77c-.06-1.18-.14-2.59-.13-3.65h-.04c-.29.99-.64,2.04-1.06,3.21l-1.49,4.1h-.83l-1.37-4.02c-.4-1.19-.74-2.28-.98-3.28h-.02c-.02,1.05-.09,2.47-.16,3.73l-.23,3.62h-1.04l.59-8.44h1.39l1.44,4.08c.35,1.04.64,1.97.85,2.84h.04c.21-.85.51-1.78.89-2.84l1.5-4.08h1.39l.53,8.44h-1.06l-.21-3.71Z"></path>
    <path d="M109.51,248.48l-.09-.76h-.04c-.34.48-.99.9-1.85.9-1.23,0-1.85-.86-1.85-1.74,0-1.47,1.3-2.27,3.65-2.25v-.12c0-.5-.14-1.4-1.38-1.4-.56,0-1.15.18-1.58.45l-.25-.73c.5-.33,1.23-.54,1.99-.54,1.85,0,2.31,1.27,2.31,2.48v2.27c0,.53.02,1.04.1,1.45h-1ZM109.34,245.38c-1.2-.02-2.57.19-2.57,1.37,0,.71.48,1.05,1.04,1.05.79,0,1.29-.5,1.47-1.01.04-.11.06-.24.06-.35v-1.05Z"></path>
    <path d="M112.7,242.41l.86,1.3c.23.34.41.65.61.99h.04c.2-.36.4-.68.6-1l.85-1.29h1.19l-2.07,2.93,2.13,3.13h-1.25l-.89-1.37c-.24-.35-.44-.69-.65-1.05h-.03c-.2.36-.41.69-.64,1.05l-.88,1.37h-1.22l2.15-3.09-2.05-2.97h1.23Z"></path>
    <path d="M119.11,242.95c.29-1.05.83-2.41,1.18-2.98l.7-.08c-.28.74-.6,2.03-.74,2.93l-1.14.12ZM120.98,242.95c.28-1.05.83-2.41,1.17-2.98l.7-.08c-.28.74-.6,2.03-.74,2.93l-1.13.12Z"></path>
    <path d="M123.47,247.35c.33.21.9.44,1.45.44.8,0,1.18-.4,1.18-.9,0-.53-.31-.81-1.13-1.12-1.09-.39-1.6-.99-1.6-1.72,0-.98.79-1.78,2.09-1.78.61,0,1.15.18,1.49.38l-.28.8c-.24-.15-.68-.35-1.24-.35-.65,0-1.01.38-1.01.83,0,.5.36.73,1.15,1.03,1.05.4,1.59.93,1.59,1.83,0,1.07-.83,1.82-2.27,1.82-.66,0-1.28-.16-1.7-.41l.28-.84Z"></path>
    <path d="M128.58,239.58h1.1v3.78h.02c.18-.31.45-.59.79-.78.33-.19.71-.31,1.13-.31.81,0,2.12.5,2.12,2.59v3.61h-1.1v-3.48c0-.98-.36-1.8-1.4-1.8-.71,0-1.28.5-1.48,1.1-.06.15-.08.31-.08.53v3.66h-1.1v-8.89Z"></path>
    <path d="M136.14,245.64c.02,1.49.98,2.1,2.08,2.1.79,0,1.27-.14,1.68-.31l.19.79c-.39.18-1.05.38-2.02.38-1.87,0-2.98-1.23-2.98-3.06s1.08-3.27,2.84-3.27c1.98,0,2.51,1.74,2.51,2.86,0,.23-.02.4-.04.51h-4.26ZM139.38,244.86c.01-.7-.29-1.79-1.53-1.79-1.11,0-1.6,1.03-1.69,1.79h3.22Z"></path>
    <path d="M145.16,248.48l-.09-.76h-.04c-.34.48-.99.9-1.85.9-1.23,0-1.85-.86-1.85-1.74,0-1.47,1.3-2.27,3.65-2.25v-.12c0-.5-.14-1.4-1.38-1.4-.56,0-1.15.18-1.58.45l-.25-.73c.5-.33,1.23-.54,1.99-.54,1.85,0,2.31,1.27,2.31,2.48v2.27c0,.53.02,1.04.1,1.45h-1ZM145,245.38c-1.2-.02-2.57.19-2.57,1.37,0,.71.48,1.05,1.04,1.05.79,0,1.29-.5,1.47-1.01.04-.11.06-.24.06-.35v-1.05Z"></path>
    <path d="M147.84,244.3c0-.71-.01-1.33-.05-1.89h.96l.04,1.19h.05c.28-.81.94-1.33,1.68-1.33.13,0,.21.01.31.04v1.04c-.11-.02-.23-.04-.38-.04-.78,0-1.33.59-1.48,1.42-.03.15-.05.33-.05.51v3.23h-1.09v-4.17Z"></path>
    <path d="M153.21,240.71c.01.38-.26.68-.7.68-.39,0-.66-.3-.66-.68s.29-.69.69-.69.68.3.68.69ZM151.98,248.48v-6.06h1.1v6.06h-1.1Z"></path>
    <path d="M154.91,244.05c0-.63-.01-1.14-.05-1.64h.98l.06,1h.02c.3-.58,1-1.14,2-1.14.84,0,2.14.5,2.14,2.58v3.62h-1.1v-3.5c0-.98-.36-1.79-1.4-1.79-.73,0-1.29.51-1.48,1.13-.05.14-.08.33-.08.51v3.65h-1.1v-4.42Z"></path>
    <path d="M167.09,242.41c-.03.44-.05.93-.05,1.67v3.52c0,1.39-.28,2.24-.86,2.77-.59.55-1.44.73-2.21.73s-1.53-.18-2.02-.5l.28-.84c.4.25,1.03.48,1.78.48,1.13,0,1.95-.59,1.95-2.12v-.68h-.02c-.34.56-.99,1.01-1.93,1.01-1.5,0-2.58-1.28-2.58-2.96,0-2.05,1.34-3.22,2.73-3.22,1.05,0,1.63.55,1.89,1.05h.02l.05-.92h.96ZM165.95,244.8c0-.19-.01-.35-.06-.5-.2-.64-.74-1.17-1.54-1.17-1.05,0-1.8.89-1.8,2.29,0,1.19.6,2.18,1.79,2.18.68,0,1.29-.43,1.53-1.13.06-.19.09-.4.09-.59v-1.09Z"></path>
    <path d="M169.97,239.89c-.29,1.05-.83,2.39-1.17,2.97l-.7.09c.26-.74.6-2.04.74-2.94l1.13-.11ZM171.82,239.89c-.29,1.05-.83,2.39-1.17,2.97l-.7.09c.28-.74.6-2.04.74-2.94l1.13-.11Z"></path>
    <path d="M177.96,248.48l-.09-.76h-.04c-.34.48-.99.9-1.85.9-1.23,0-1.85-.86-1.85-1.74,0-1.47,1.3-2.27,3.65-2.25v-.12c0-.5-.14-1.4-1.38-1.4-.56,0-1.15.18-1.58.45l-.25-.73c.5-.33,1.23-.54,1.99-.54,1.85,0,2.31,1.27,2.31,2.48v2.27c0,.53.02,1.04.1,1.45h-1ZM177.8,245.38c-1.2-.02-2.57.19-2.57,1.37,0,.71.48,1.05,1.04,1.05.79,0,1.29-.5,1.47-1.01.04-.11.06-.24.06-.35v-1.05Z"></path>
    <path d="M184.96,248.25c-.29.15-.93.35-1.74.35-1.83,0-3.02-1.24-3.02-3.09s1.28-3.22,3.26-3.22c.65,0,1.23.16,1.53.31l-.25.85c-.26-.15-.68-.29-1.28-.29-1.39,0-2.14,1.03-2.14,2.29,0,1.4.9,2.27,2.1,2.27.63,0,1.04-.16,1.35-.3l.19.83Z"></path>
    <path d="M187.74,240.67v1.74h1.58v.84h-1.58v3.27c0,.75.21,1.18.83,1.18.29,0,.5-.04.64-.08l.05.83c-.21.09-.55.15-.98.15-.51,0-.93-.16-1.19-.46-.31-.33-.43-.87-.43-1.58v-3.31h-.94v-.84h.94v-1.45l1.08-.29Z"></path>
    <path d="M191.78,240.71c.01.38-.26.68-.7.68-.39,0-.66-.3-.66-.68s.29-.69.69-.69.68.3.68.69ZM190.56,248.48v-6.06h1.1v6.06h-1.1Z"></path>
    <path d="M198.97,245.39c0,2.24-1.55,3.22-3.02,3.22-1.64,0-2.91-1.2-2.91-3.12,0-2.03,1.33-3.22,3.01-3.22s2.92,1.27,2.92,3.12ZM194.16,245.46c0,1.33.76,2.33,1.84,2.33s1.84-.99,1.84-2.35c0-1.03-.51-2.33-1.82-2.33s-1.87,1.2-1.87,2.35Z"></path>
    <path d="M200.36,244.05c0-.63-.01-1.14-.05-1.64h.98l.06,1h.02c.3-.58,1-1.14,2-1.14.84,0,2.14.5,2.14,2.58v3.62h-1.1v-3.5c0-.98-.36-1.79-1.4-1.79-.73,0-1.29.51-1.48,1.13-.05.14-.08.33-.08.51v3.65h-1.1v-4.42Z"></path>
  </g>
  <rect height="17.69" width="199.99" y="191.14" x="342.44" class="cls-6"></rect>
  <rect transform="translate(798.5 377.07) rotate(-180)" height="5.21" width="99.94" y="185.93" x="349.28" class="cls-8"></rect>
  <g>
    <path d="M392.48,225.93h-2.57v-.93h6.25v.93h-2.58v7.52h-1.1v-7.52Z"></path>
    <path d="M396.97,224.55h1.1v3.78h.02c.18-.31.45-.59.79-.78.33-.19.71-.31,1.13-.31.81,0,2.12.5,2.12,2.59v3.61h-1.1v-3.48c0-.98-.36-1.8-1.4-1.8-.71,0-1.28.5-1.48,1.1-.06.15-.08.31-.08.53v3.66h-1.1v-8.89Z"></path>
    <path d="M405.15,225.68c.01.38-.26.68-.7.68-.39,0-.66-.3-.66-.68s.29-.69.69-.69.68.3.68.69ZM403.92,233.45v-6.06h1.1v6.06h-1.1Z"></path>
    <path d="M406.85,229.02c0-.63-.01-1.14-.05-1.64h.98l.06,1h.03c.3-.58,1-1.14,2-1.14.84,0,2.14.5,2.14,2.58v3.62h-1.1v-3.5c0-.98-.36-1.79-1.4-1.79-.73,0-1.29.51-1.48,1.13-.05.14-.08.33-.08.51v3.65h-1.1v-4.42Z"></path>
    <path d="M416.5,225h4.55v.91h-3.46v2.81h3.19v.9h-3.19v3.82h-1.09v-8.44Z"></path>
    <path d="M423.46,225.68c.01.38-.26.68-.7.68-.39,0-.66-.3-.66-.68s.29-.69.69-.69.68.3.68.69ZM422.23,233.45v-6.06h1.1v6.06h-1.1Z"></path>
    <path d="M425.16,224.55h1.1v8.89h-1.1v-8.89Z"></path>
    <path d="M428.12,229.02c0-.63-.01-1.14-.05-1.64h.96l.05.98h.04c.34-.58.9-1.12,1.9-1.12.83,0,1.45.5,1.72,1.21h.03c.19-.34.43-.6.68-.79.36-.28.76-.43,1.34-.43.8,0,1.99.53,1.99,2.63v3.57h-1.08v-3.43c0-1.17-.43-1.87-1.31-1.87-.63,0-1.12.46-1.3,1-.05.15-.09.35-.09.55v3.75h-1.08v-3.63c0-.96-.43-1.67-1.26-1.67-.69,0-1.19.55-1.37,1.1-.06.16-.09.35-.09.54v3.66h-1.08v-4.42Z"></path>
    <path d="M447.16,233.17c-.4.2-1.2.4-2.23.4-2.38,0-4.17-1.5-4.17-4.27s1.79-4.43,4.41-4.43c1.05,0,1.72.23,2,.38l-.26.89c-.41-.2-1-.35-1.7-.35-1.98,0-3.29,1.27-3.29,3.48,0,2.07,1.19,3.4,3.24,3.4.66,0,1.34-.14,1.78-.35l.23.86Z"></path>
    <path d="M453.83,230.36c0,2.24-1.55,3.22-3.02,3.22-1.64,0-2.91-1.2-2.91-3.12,0-2.03,1.33-3.22,3.01-3.22s2.92,1.27,2.92,3.12ZM449.02,230.43c0,1.33.76,2.33,1.84,2.33s1.84-.99,1.84-2.35c0-1.03-.51-2.33-1.82-2.33s-1.87,1.2-1.87,2.35Z"></path>
    <path d="M458.58,233.45l-.09-.76h-.04c-.34.48-.99.9-1.85.9-1.23,0-1.85-.86-1.85-1.74,0-1.47,1.3-2.27,3.65-2.25v-.12c0-.5-.14-1.4-1.38-1.4-.56,0-1.15.18-1.58.45l-.25-.73c.5-.33,1.23-.54,1.99-.54,1.85,0,2.3,1.27,2.3,2.48v2.27c0,.53.03,1.04.1,1.45h-1ZM458.41,230.35c-1.2-.02-2.57.19-2.57,1.37,0,.71.48,1.05,1.04,1.05.79,0,1.29-.5,1.46-1.01.04-.11.06-.24.06-.35v-1.05Z"></path>
    <path d="M462.53,225.64v1.74h1.58v.84h-1.58v3.27c0,.75.21,1.18.83,1.18.29,0,.5-.04.64-.08l.05.83c-.21.09-.55.15-.98.15-.51,0-.93-.16-1.19-.46-.31-.33-.43-.87-.43-1.58v-3.31h-.94v-.84h.94v-1.45l1.08-.29Z"></path>
    <path d="M466.58,225.68c.01.38-.26.68-.7.68-.39,0-.66-.3-.66-.68s.29-.69.69-.69.68.3.68.69ZM465.35,233.45v-6.06h1.1v6.06h-1.1Z"></path>
    <path d="M468.28,229.02c0-.63-.01-1.14-.05-1.64h.98l.06,1h.03c.3-.58,1-1.14,2-1.14.84,0,2.14.5,2.14,2.58v3.62h-1.1v-3.5c0-.98-.36-1.79-1.4-1.79-.73,0-1.29.51-1.48,1.13-.05.14-.08.33-.08.51v3.65h-1.1v-4.42Z"></path>
    <path d="M480.45,227.38c-.03.44-.05.93-.05,1.67v3.52c0,1.39-.28,2.24-.86,2.77-.59.55-1.44.73-2.2.73s-1.53-.18-2.02-.5l.28-.84c.4.25,1.03.48,1.78.48,1.13,0,1.95-.59,1.95-2.12v-.68h-.02c-.34.56-.99,1.01-1.93,1.01-1.5,0-2.58-1.28-2.58-2.96,0-2.05,1.34-3.22,2.73-3.22,1.05,0,1.63.55,1.89,1.05h.03l.05-.92h.96ZM479.31,229.78c0-.19-.01-.35-.06-.5-.2-.64-.74-1.17-1.54-1.17-1.05,0-1.8.89-1.8,2.29,0,1.19.6,2.18,1.79,2.18.68,0,1.29-.43,1.53-1.13.06-.19.09-.4.09-.59v-1.09Z"></path>
    <path d="M487.94,233.45v-2.22h-3.78v-.73l3.63-5.2h1.19v5.06h1.14v.86h-1.14v2.22h-1.04ZM487.94,230.36v-2.72c0-.43.01-.85.04-1.28h-.04c-.25.48-.45.83-.68,1.2l-1.99,2.77v.02h2.67Z"></path>
    <path d="M495.82,226.23h-3.11l-.31,2.09c.19-.02.36-.05.66-.05.63,0,1.25.14,1.75.44.64.36,1.17,1.06,1.17,2.09,0,1.59-1.26,2.78-3.03,2.78-.89,0-1.64-.25-2.03-.5l.28-.84c.34.2,1,.45,1.74.45,1.04,0,1.93-.68,1.93-1.77-.01-1.05-.71-1.8-2.34-1.8-.46,0-.83.05-1.13.09l.53-3.91h3.9v.93Z"></path>
    <path d="M500.5,226.49c0,1.01-.81,1.68-1.68,1.68-.98,0-1.64-.74-1.64-1.62-.01-.96.74-1.69,1.67-1.69,1.03,0,1.65.78,1.65,1.63ZM497.86,226.56c0,.58.43,1.03.98,1.03s.99-.46.99-1.08c0-.46-.28-1.05-.99-1.05-.65,0-.98.56-.98,1.1Z"></path>
  </g>
  <rect height="17.69" width="199.99" y="190.69" x="605.35" class="cls-6"></rect>
  <rect transform="translate(1313.94 376.17) rotate(-180)" height="5.21" width="77.64" y="185.48" x="618.15" class="cls-8"></rect>
  <g>
    <path d="M646.38,225.93h-2.57v-.93h6.25v.93h-2.58v7.52h-1.1v-7.52Z"></path>
    <path d="M650.88,224.55h1.1v3.78h.03c.18-.31.45-.59.79-.78.33-.19.71-.31,1.13-.31.81,0,2.12.5,2.12,2.59v3.61h-1.1v-3.48c0-.98-.36-1.8-1.4-1.8-.71,0-1.28.5-1.48,1.1-.06.15-.08.31-.08.53v3.66h-1.1v-8.89Z"></path>
    <path d="M659.05,225.68c.01.38-.26.68-.7.68-.39,0-.66-.3-.66-.68s.29-.69.69-.69.68.3.68.69ZM657.83,233.45v-6.06h1.1v6.06h-1.1Z"></path>
    <path d="M660.75,229.02c0-.63-.01-1.14-.05-1.64h.98l.06,1h.03c.3-.58,1-1.14,2-1.14.84,0,2.14.5,2.14,2.58v3.62h-1.1v-3.5c0-.98-.36-1.79-1.4-1.79-.73,0-1.29.51-1.48,1.13-.05.14-.08.33-.08.51v3.65h-1.1v-4.42Z"></path>
    <path d="M670.4,225h4.55v.91h-3.46v2.81h3.19v.9h-3.19v3.82h-1.09v-8.44Z"></path>
    <path d="M677.36,225.68c.01.38-.26.68-.7.68-.39,0-.66-.3-.66-.68s.29-.69.69-.69.68.3.68.69ZM676.13,233.45v-6.06h1.1v6.06h-1.1Z"></path>
    <path d="M679.06,224.55h1.1v8.89h-1.1v-8.89Z"></path>
    <path d="M682.02,229.02c0-.63-.01-1.14-.05-1.64h.96l.05.98h.04c.34-.58.9-1.12,1.9-1.12.83,0,1.45.5,1.72,1.21h.03c.19-.34.43-.6.68-.79.36-.28.76-.43,1.34-.43.8,0,1.99.53,1.99,2.63v3.57h-1.08v-3.43c0-1.17-.43-1.87-1.31-1.87-.63,0-1.12.46-1.3,1-.05.15-.09.35-.09.55v3.75h-1.08v-3.63c0-.96-.43-1.67-1.26-1.67-.69,0-1.19.55-1.37,1.1-.06.16-.09.35-.09.54v3.66h-1.08v-4.42Z"></path>
    <path d="M701.06,233.17c-.4.2-1.2.4-2.23.4-2.38,0-4.17-1.5-4.17-4.27s1.79-4.43,4.41-4.43c1.05,0,1.72.23,2,.38l-.26.89c-.41-.2-1-.35-1.7-.35-1.98,0-3.29,1.27-3.29,3.48,0,2.07,1.19,3.4,3.24,3.4.66,0,1.34-.14,1.78-.35l.23.86Z"></path>
    <path d="M707.73,230.36c0,2.24-1.55,3.22-3.02,3.22-1.64,0-2.91-1.2-2.91-3.12,0-2.03,1.33-3.22,3.01-3.22s2.92,1.27,2.92,3.12ZM702.92,230.43c0,1.33.76,2.33,1.84,2.33s1.84-.99,1.84-2.35c0-1.03-.51-2.33-1.82-2.33s-1.87,1.2-1.87,2.35Z"></path>
    <path d="M712.48,233.45l-.09-.76h-.04c-.34.48-.99.9-1.85.9-1.23,0-1.85-.86-1.85-1.74,0-1.47,1.3-2.27,3.65-2.25v-.12c0-.5-.14-1.4-1.38-1.4-.56,0-1.15.17-1.58.45l-.25-.73c.5-.33,1.23-.54,1.99-.54,1.85,0,2.3,1.27,2.3,2.48v2.27c0,.53.03,1.04.1,1.45h-1ZM712.31,230.35c-1.2-.02-2.57.19-2.57,1.37,0,.71.48,1.05,1.04,1.05.79,0,1.29-.5,1.46-1.01.04-.11.06-.24.06-.35v-1.05Z"></path>
    <path d="M716.43,225.64v1.74h1.58v.84h-1.58v3.27c0,.75.21,1.18.83,1.18.29,0,.5-.04.64-.08l.05.83c-.21.09-.55.15-.98.15-.51,0-.93-.16-1.19-.46-.31-.33-.43-.86-.43-1.58v-3.31h-.94v-.84h.94v-1.45l1.08-.29Z"></path>
    <path d="M720.48,225.68c.01.38-.26.68-.7.68-.39,0-.66-.3-.66-.68s.29-.69.69-.69.68.3.68.69ZM719.25,233.45v-6.06h1.1v6.06h-1.1Z"></path>
    <path d="M722.18,229.02c0-.63-.01-1.14-.05-1.64h.98l.06,1h.03c.3-.58,1-1.14,2-1.14.84,0,2.14.5,2.14,2.58v3.62h-1.1v-3.5c0-.98-.36-1.79-1.4-1.79-.73,0-1.29.51-1.48,1.13-.05.14-.08.33-.08.51v3.65h-1.1v-4.42Z"></path>
    <path d="M734.36,227.38c-.03.44-.05.93-.05,1.67v3.52c0,1.39-.28,2.24-.86,2.77-.59.55-1.44.73-2.2.73s-1.53-.18-2.02-.5l.28-.84c.4.25,1.03.48,1.78.48,1.13,0,1.95-.59,1.95-2.12v-.68h-.02c-.34.56-.99,1.01-1.93,1.01-1.5,0-2.58-1.28-2.58-2.96,0-2.05,1.34-3.22,2.73-3.22,1.05,0,1.63.55,1.89,1.05h.03l.05-.92h.96ZM733.22,229.78c0-.19-.01-.35-.06-.5-.2-.64-.74-1.17-1.54-1.17-1.05,0-1.8.89-1.8,2.29,0,1.19.6,2.18,1.79,2.18.68,0,1.29-.43,1.53-1.13.06-.19.09-.4.09-.59v-1.09Z"></path>
    <path d="M740.83,226.33h-.02l-1.42.76-.21-.84,1.78-.95h.94v8.14h-1.07v-7.12Z"></path>
    <path d="M749.72,226.23h-3.11l-.31,2.09c.19-.02.36-.05.66-.05.63,0,1.25.14,1.75.44.64.36,1.17,1.06,1.17,2.09,0,1.59-1.26,2.78-3.03,2.78-.89,0-1.64-.25-2.03-.5l.28-.84c.34.2,1,.45,1.74.45,1.04,0,1.93-.68,1.93-1.77-.01-1.05-.71-1.8-2.34-1.8-.46,0-.83.05-1.13.09l.53-3.91h3.9v.93Z"></path>
    <path d="M754.4,226.49c0,1.01-.81,1.68-1.68,1.68-.98,0-1.64-.74-1.64-1.62-.01-.96.74-1.69,1.67-1.69,1.03,0,1.65.78,1.65,1.63ZM751.76,226.56c0,.58.43,1.03.98,1.03s.99-.46.99-1.08c0-.46-.28-1.05-.99-1.05-.65,0-.98.56-.98,1.1Z"></path>
    <path d="M758.17,229.65v.81h-3.09v-.81h3.09Z"></path>
    <path d="M759.38,232.18c.31.2,1.04.51,1.8.51,1.42,0,1.85-.9,1.84-1.58-.01-1.14-1.04-1.63-2.1-1.63h-.61v-.83h.61c.8,0,1.82-.41,1.82-1.38,0-.65-.41-1.23-1.43-1.23-.65,0-1.28.29-1.63.54l-.29-.8c.43-.31,1.25-.63,2.13-.63,1.6,0,2.33.95,2.33,1.94,0,.84-.5,1.55-1.5,1.92v.02c1,.2,1.82.95,1.82,2.09,0,1.3-1.01,2.44-2.97,2.44-.92,0-1.72-.29-2.12-.55l.3-.85Z"></path>
    <path d="M770.95,229.29c0,2.77-1.03,4.3-2.83,4.3-1.59,0-2.67-1.49-2.69-4.18,0-2.73,1.18-4.23,2.83-4.23s2.69,1.53,2.69,4.12ZM766.53,229.41c0,2.12.65,3.32,1.65,3.32,1.13,0,1.67-1.32,1.67-3.4s-.51-3.32-1.65-3.32c-.96,0-1.67,1.18-1.67,3.39Z"></path>
    <path d="M775.08,226.49c0,1.01-.81,1.68-1.68,1.68-.98,0-1.64-.74-1.64-1.62-.01-.96.74-1.69,1.67-1.69,1.03,0,1.65.78,1.65,1.63ZM772.44,226.56c0,.58.43,1.03.98,1.03s.99-.46.99-1.08c0-.46-.28-1.05-.99-1.05-.65,0-.98.56-.98,1.1Z"></path>
    <path d="M676.57,240.96h-2.57v-.93h6.25v.93h-2.58v7.52h-1.1v-7.52Z"></path>
    <path d="M681.07,239.58h1.1v3.78h.03c.18-.31.45-.59.79-.78.33-.19.71-.31,1.13-.31.81,0,2.12.5,2.12,2.59v3.61h-1.1v-3.48c0-.98-.36-1.8-1.4-1.8-.71,0-1.28.5-1.48,1.1-.06.15-.08.31-.08.53v3.66h-1.1v-8.89Z"></path>
    <path d="M689.25,240.71c.01.38-.26.68-.7.68-.39,0-.66-.3-.66-.68s.29-.69.69-.69.68.3.68.69ZM688.02,248.48v-6.06h1.1v6.06h-1.1Z"></path>
    <path d="M695.27,248.25c-.29.15-.93.35-1.74.35-1.83,0-3.02-1.24-3.02-3.09s1.28-3.22,3.26-3.22c.65,0,1.23.16,1.53.31l-.25.85c-.26-.15-.68-.29-1.28-.29-1.39,0-2.14,1.03-2.14,2.29,0,1.4.9,2.27,2.1,2.27.63,0,1.04-.16,1.35-.3l.19.83Z"></path>
    <path d="M697.65,245.19h.03c.15-.21.36-.48.54-.69l1.78-2.09h1.33l-2.34,2.49,2.67,3.57h-1.34l-2.09-2.91-.56.63v2.28h-1.09v-8.89h1.09v5.61Z"></path>
    <path d="M711.03,248.2c-.4.2-1.2.4-2.23.4-2.38,0-4.17-1.5-4.17-4.27s1.79-4.43,4.41-4.43c1.05,0,1.72.23,2,.38l-.26.89c-.41-.2-1-.35-1.7-.35-1.98,0-3.29,1.27-3.29,3.48,0,2.07,1.19,3.4,3.24,3.4.66,0,1.34-.14,1.78-.35l.23.86Z"></path>
    <path d="M717.7,245.39c0,2.24-1.55,3.22-3.02,3.22-1.64,0-2.91-1.2-2.91-3.12,0-2.03,1.33-3.22,3.01-3.22s2.92,1.27,2.92,3.12ZM712.89,245.46c0,1.33.76,2.33,1.84,2.33s1.84-.99,1.84-2.35c0-1.03-.51-2.33-1.82-2.33s-1.87,1.2-1.87,2.35Z"></path>
    <path d="M722.45,248.48l-.09-.76h-.04c-.34.48-.99.9-1.85.9-1.23,0-1.85-.86-1.85-1.74,0-1.47,1.3-2.27,3.65-2.25v-.12c0-.5-.14-1.4-1.38-1.4-.56,0-1.15.18-1.58.45l-.25-.73c.5-.33,1.23-.54,1.99-.54,1.85,0,2.3,1.27,2.3,2.48v2.27c0,.53.03,1.04.1,1.45h-1ZM722.28,245.38c-1.2-.02-2.57.19-2.57,1.37,0,.71.48,1.05,1.04,1.05.79,0,1.29-.5,1.46-1.01.04-.11.06-.24.06-.35v-1.05Z"></path>
    <path d="M726.4,240.67v1.74h1.58v.84h-1.58v3.27c0,.75.21,1.18.83,1.18.29,0,.5-.04.64-.08l.05.83c-.21.09-.55.15-.98.15-.51,0-.93-.16-1.19-.46-.31-.33-.43-.87-.43-1.58v-3.31h-.94v-.84h.94v-1.45l1.08-.29Z"></path>
    <path d="M730.45,240.71c.01.38-.26.68-.7.68-.39,0-.66-.3-.66-.68s.29-.69.69-.69.68.3.68.69ZM729.22,248.48v-6.06h1.1v6.06h-1.1Z"></path>
    <path d="M732.15,244.05c0-.63-.01-1.14-.05-1.64h.98l.06,1h.03c.3-.58,1-1.14,2-1.14.84,0,2.14.5,2.14,2.58v3.62h-1.1v-3.5c0-.98-.36-1.79-1.4-1.79-.73,0-1.29.51-1.48,1.13-.05.14-.08.33-.08.51v3.65h-1.1v-4.42Z"></path>
    <path d="M744.32,242.41c-.03.44-.05.93-.05,1.67v3.52c0,1.39-.28,2.24-.86,2.77-.59.55-1.44.73-2.2.73s-1.53-.18-2.02-.5l.28-.84c.4.25,1.03.48,1.78.48,1.13,0,1.95-.59,1.95-2.12v-.68h-.02c-.34.56-.99,1.01-1.93,1.01-1.5,0-2.58-1.28-2.58-2.96,0-2.05,1.34-3.22,2.73-3.22,1.05,0,1.63.55,1.89,1.05h.03l.05-.92h.96ZM743.18,244.8c0-.19-.01-.35-.06-.5-.2-.64-.74-1.17-1.54-1.17-1.05,0-1.8.89-1.8,2.29,0,1.19.6,2.18,1.79,2.18.68,0,1.29-.43,1.53-1.13.06-.19.09-.4.09-.59v-1.09Z"></path>
  </g>
  <g data-sanitized-data-name="blue watermark" data-name="blue watermark" id="blue_watermark">
    <g class="cls-10">
      <g class="cls-5">
        <path d="M829.82,40.6c0,.5-.15,1.7-1.07,2.44-.92.74-1.95.92-2.95.79-1-.13-1.52-1.02-1.49-1.82.03-.8.38-1.49,1.6-1.83,1.22-.33,2.63-.5,3.91-1.1v1.52ZM830.19,31.59c-2.99-.68-5.4-.29-6.6.32-1.2.61-2.45,1.73-2.57,3.5h3.83s.43-1.03,2.06-1.06c1.63-.03,2.64.35,2.82,1.08.17.73-.44,1.29-1.44,1.54-1,.25-2.6.42-3.71.65-1.12.23-3.13,1.07-3.63,2.42-.49,1.35-.51,3.18.04,4.43.55,1.25,2.39,2.54,4.83,2.47,2.44-.07,4.4-.23,5.83-1.54,1.44-1.31,1.89-2.67,1.89-4.08s.01-5.7.01-6.18-.38-2.87-3.37-3.55" class="cls-6"></path>
        <path d="M770.68,20.47l39.19,7.81v.45l-37.54-6.46,3.27,3.6,34.27,3.38v.44c-10.98-.76-21.86-1.49-32.84-2.25l2.51,2.76c10.14,0,20.19,0,30.33,0v.38h4.03v-1.34c0-1.04-.83-1.89-1.85-1.89h-2.18v.42l-43.34-11.88,4.15,4.59Z" class="cls-6"></path>
      </g>
      <g class="cls-9">
        <rect height="14.7" width="47.38" y="15.88" x="766.53" class="cls-6"></rect>
      </g>
      <g class="cls-7">
        <path d="M817.39,27.41h-2.18v19.53h4.03v-17.68c0-1.02-.83-1.85-1.85-1.85" class="cls-6"></path>
        <path d="M812.05,31.84h-2.13v15.11h3.95v-13.29c0-1-.82-1.81-1.81-1.81" class="cls-6"></path>
        <path d="M806.13,38.66c-1.36-.83-3.05-1.09-5.05-1.58s-2.48-1.01-2.49-1.49c0-.48.28-.97.85-1.12.57-.15,1.49-.26,2.45-.04.96.22,1.46,1.15,1.69,1.38.24.23.66.41.95.41h2.76c-.1-1.64-.61-2.85-1.8-3.72-1.19-.87-2.65-1.36-5.64-1.19-2.99.17-4.59,1.71-5.09,3.47-.51,1.76.03,3.55,1.44,4.47,1.41.92,3.74,1.38,5.17,1.68,1.42.31,2.53.75,2.45,1.7-.07.95-1.68,1.44-3.58,1.2-1.91-.24-2.1-2.2-2.1-2.2h-3.85c-.13,2.51,1.07,3.88,2.63,4.6,1.55.73,4.21.99,7.02.36,2.82-.62,3.89-2.63,3.9-4.4.02-1.77-.35-2.71-1.71-3.54" class="cls-6"></path>
        <path d="M791.28,38.66c-1.36-.83-3.05-1.09-5.05-1.58s-2.48-1.01-2.49-1.49c0-.48.28-.97.85-1.12.57-.15,1.49-.26,2.45-.04.96.22,1.46,1.15,1.69,1.38.24.23.66.41.95.41h2.76c-.1-1.64-.61-2.85-1.8-3.72-1.19-.87-2.65-1.36-5.64-1.19-2.99.17-4.59,1.71-5.09,3.47-.51,1.76.03,3.55,1.44,4.47,1.41.92,3.74,1.38,5.17,1.68,1.42.31,2.53.75,2.45,1.7-.07.95-1.68,1.44-3.58,1.2-1.91-.24-2.1-2.2-2.1-2.2h-3.85c-.13,2.51,1.07,3.88,2.63,4.6,1.55.73,4.21.99,7.02.36,2.82-.62,3.89-2.63,3.9-4.4.02-1.77-.35-2.71-1.71-3.54" class="cls-6"></path>
        <path d="M768.23,43.46c-3.89,0-5.61-3.05-5.61-6.79s1.89-6.77,5.62-6.77,5.62,3.03,5.62,6.77-1.73,6.79-5.62,6.79M768.24,26.4c-6.42,0-9.68,4.59-9.68,10.26s2.96,10.28,9.66,10.28,9.69-4.62,9.69-10.28-3.26-10.26-9.68-10.26" class="cls-6"></path>
      </g>
    </g>
  </g>
  <rect transform="translate(32.51 397.8) rotate(-30)" height="15.12" width="156.76" y="130.67" x="680.18" class="cls-1"></rect>
  <rect transform="translate(108.69 443.89) rotate(-54.28)" height="15.12" width="156.76" y="108.36" x="408.98" class="cls-1"></rect>
  <g>
    <path d="M462.47,181.82c6.47,2.72,14.18,1.9,20.04-2.79,8.51-6.82,9.88-19.26,3.05-27.77-1.43-1.79-3.11-3.26-4.95-4.41" class="cls-3"></path>
    <polygon points="465.45 189.06 463.27 182.2 470.13 180.02 466.29 178.04 459.44 180.22 461.62 187.07 465.45 189.06" class="cls-2"></polygon>
  </g>
  <g>
    <path d="M706.19,188.31c7.01.19,13.9-3.37,17.66-9.88" class="cls-3"></path>
    <polygon points="711.59 193.97 707.07 188.37 712.67 183.85 708.37 183.4 702.78 187.92 707.3 193.51 711.59 193.97" class="cls-2"></polygon>
  </g>
  <g>
    <path d="M177.05,143.21c8.22.94,15.28,7.02,17.08,15.56,2.01,9.53-3.23,18.91-11.97,22.41" class="cls-3"></path>
    <polygon points="186.33 174.51 182.99 180.88 189.36 184.22 185.24 185.51 178.87 182.17 182.21 175.8 186.33 174.51" class="cls-2"></polygon>
  </g>
  <g>
    <line y2="125.98" x2="378.53" y1="125.98" x1="437.72" class="cls-3"></line>
    <polygon points="431.74 120.89 436.83 125.98 431.74 131.06 436.06 131.06 441.14 125.98 436.06 120.89 431.74 120.89" class="cls-2"></polygon>
  </g>
  <g>
    <path d="M389.47,108.67c-.06-1.18-.14-2.59-.13-3.65h-.04c-.29.99-.64,2.04-1.06,3.21l-1.49,4.1h-.83l-1.37-4.02c-.4-1.19-.74-2.28-.98-3.28h-.02c-.02,1.05-.09,2.47-.16,3.73l-.23,3.62h-1.04l.59-8.44h1.39l1.44,4.08c.35,1.04.64,1.97.85,2.84h.04c.21-.85.51-1.78.89-2.84l1.5-4.08h1.39l.53,8.44h-1.06l-.21-3.71Z"></path>
    <path d="M397.95,109.3c0,2.24-1.55,3.22-3.02,3.22-1.64,0-2.91-1.2-2.91-3.12,0-2.03,1.33-3.22,3.01-3.22s2.92,1.27,2.92,3.12ZM393.14,109.36c0,1.33.76,2.33,1.84,2.33s1.84-.99,1.84-2.35c0-1.03-.51-2.33-1.82-2.33s-1.87,1.2-1.87,2.36Z"></path>
    <path d="M399.67,106.32l1.19,3.41c.2.55.36,1.05.49,1.55h.04c.14-.5.31-1,.51-1.55l1.18-3.41h1.15l-2.38,6.06h-1.05l-2.3-6.06h1.18Z"></path>
    <path d="M405.76,109.55c.02,1.49.98,2.1,2.08,2.1.79,0,1.27-.14,1.68-.31l.19.79c-.39.18-1.05.38-2.02.38-1.87,0-2.98-1.23-2.98-3.06s1.08-3.27,2.84-3.27c1.98,0,2.51,1.74,2.51,2.86,0,.23-.02.4-.04.51h-4.26ZM408.99,108.76c.01-.7-.29-1.79-1.53-1.79-1.11,0-1.6,1.03-1.69,1.79h3.22Z"></path>
    <path d="M411.42,107.96c0-.63-.01-1.14-.05-1.64h.96l.05.98h.04c.34-.58.9-1.12,1.9-1.12.83,0,1.45.5,1.72,1.22h.02c.19-.34.43-.6.68-.79.36-.28.76-.43,1.34-.43.8,0,1.99.53,1.99,2.63v3.57h-1.08v-3.43c0-1.17-.43-1.87-1.32-1.87-.63,0-1.11.46-1.3,1-.05.15-.09.35-.09.55v3.75h-1.08v-3.63c0-.96-.43-1.67-1.27-1.67-.69,0-1.19.55-1.37,1.1-.06.16-.09.35-.09.54v3.66h-1.08v-4.42Z"></path>
    <path d="M422.48,109.55c.02,1.49.98,2.1,2.08,2.1.79,0,1.27-.14,1.68-.31l.19.79c-.39.18-1.05.38-2.02.38-1.87,0-2.98-1.23-2.98-3.06s1.08-3.27,2.84-3.27c1.98,0,2.51,1.74,2.51,2.86,0,.23-.02.4-.04.51h-4.26ZM425.71,108.76c.01-.7-.29-1.79-1.53-1.79-1.11,0-1.6,1.03-1.69,1.79h3.22Z"></path>
    <path d="M428.14,107.96c0-.63-.01-1.14-.05-1.64h.98l.06,1h.03c.3-.58,1-1.14,2-1.14.84,0,2.14.5,2.14,2.58v3.62h-1.1v-3.5c0-.98-.36-1.79-1.4-1.79-.73,0-1.29.51-1.48,1.13-.05.14-.08.33-.08.51v3.65h-1.1v-4.42Z"></path>
    <path d="M436.37,104.58v1.74h1.58v.84h-1.58v3.27c0,.75.21,1.18.83,1.18.29,0,.5-.04.64-.08l.05.83c-.21.09-.55.15-.98.15-.51,0-.93-.16-1.19-.46-.31-.33-.43-.86-.43-1.58v-3.31h-.94v-.84h.94v-1.45l1.08-.29Z"></path>
  </g>
  <g>
    <path d="M502.54,156.67v8.44h-1.09v-8.44h1.09Z"></path>
    <path d="M504.53,160.69c0-.63-.01-1.14-.05-1.64h.98l.06,1h.02c.3-.58,1-1.14,2-1.14.84,0,2.14.5,2.14,2.58v3.62h-1.1v-3.5c0-.98-.36-1.79-1.4-1.79-.73,0-1.29.51-1.48,1.13-.05.14-.08.33-.08.51v3.65h-1.1v-4.42Z"></path>
    <path d="M512.57,161.83h.03c.15-.21.36-.48.54-.69l1.78-2.09h1.33l-2.34,2.49,2.67,3.57h-1.34l-2.09-2.91-.56.63v2.28h-1.09v-8.89h1.09v5.61Z"></path>
  </g>
  <g>
    <path d="M517.52,31.98c.48-.1,1.23-.18,1.99-.18,1.09,0,1.79.19,2.32.61.44.33.7.83.7,1.49,0,.81-.54,1.53-1.43,1.85v.02c.8.2,1.74.86,1.74,2.12,0,.73-.29,1.28-.71,1.69-.59.54-1.54.79-2.92.79-.75,0-1.33-.05-1.69-.1v-8.31ZM518.61,35.43h.99c1.15,0,1.83-.6,1.83-1.42,0-.99-.75-1.38-1.85-1.38-.5,0-.79.04-.96.08v2.72ZM518.61,39.48c.21.04.53.05.91.05,1.13,0,2.17-.41,2.17-1.64,0-1.15-.99-1.63-2.18-1.63h-.9v3.22Z"></path>
    <path d="M524.27,31.41h1.1v8.89h-1.1v-8.89Z"></path>
    <path d="M530.58,40.31l-.09-.76h-.04c-.34.48-.99.9-1.85.9-1.23,0-1.85-.86-1.85-1.74,0-1.47,1.3-2.27,3.65-2.25v-.13c0-.5-.14-1.4-1.38-1.4-.56,0-1.15.18-1.58.45l-.25-.73c.5-.33,1.23-.54,1.99-.54,1.85,0,2.3,1.27,2.3,2.48v2.27c0,.53.03,1.04.1,1.45h-1ZM530.42,37.21c-1.2-.02-2.57.19-2.57,1.37,0,.71.48,1.05,1.04,1.05.79,0,1.29-.5,1.47-1.02.04-.11.06-.24.06-.35v-1.05Z"></path>
    <path d="M538.5,31.41v7.33c0,.54.01,1.15.05,1.57h-.99l-.05-1.05h-.02c-.34.68-1.08,1.19-2.07,1.19-1.47,0-2.59-1.24-2.59-3.08-.01-2.02,1.24-3.26,2.72-3.26.93,0,1.55.44,1.83.93h.03v-3.62h1.1ZM537.4,36.71c0-.14-.01-.33-.05-.46-.16-.7-.76-1.28-1.59-1.28-1.14,0-1.82,1-1.82,2.34,0,1.23.6,2.24,1.79,2.24.74,0,1.42-.49,1.62-1.32.04-.15.05-.3.05-.48v-1.05Z"></path>
    <path d="M540.94,37.48c.02,1.49.98,2.1,2.08,2.1.79,0,1.27-.14,1.68-.31l.19.79c-.39.18-1.05.38-2.02.38-1.87,0-2.98-1.23-2.98-3.06s1.08-3.27,2.84-3.27c1.98,0,2.51,1.74,2.51,2.86,0,.23-.03.4-.04.51h-4.26ZM544.17,36.69c.01-.7-.29-1.79-1.53-1.79-1.11,0-1.6,1.03-1.69,1.79h3.22Z"></path>
  </g>
  <g>
    <line y2="148.04" x2="623.36" y1="148.04" x1="682.55" class="cls-3"></line>
    <polygon points="676.57 142.95 681.66 148.04 676.57 153.12 680.89 153.12 685.97 148.04 680.89 142.95 676.57 142.95" class="cls-2"></polygon>
  </g>
  <g>
    <path d="M634.3,130.74c-.06-1.18-.14-2.59-.12-3.65h-.04c-.29.99-.64,2.04-1.07,3.21l-1.49,4.1h-.83l-1.37-4.02c-.4-1.19-.74-2.28-.98-3.28h-.02c-.03,1.05-.09,2.47-.16,3.73l-.22,3.62h-1.04l.59-8.44h1.39l1.44,4.08c.35,1.04.64,1.97.85,2.84h.04c.21-.85.51-1.78.89-2.84l1.5-4.08h1.39l.53,8.44h-1.07l-.21-3.71Z"></path>
    <path d="M642.78,131.36c0,2.24-1.55,3.22-3.02,3.22-1.64,0-2.91-1.2-2.91-3.12,0-2.03,1.33-3.22,3.01-3.22s2.92,1.27,2.92,3.12ZM637.97,131.43c0,1.33.76,2.33,1.84,2.33s1.84-.99,1.84-2.35c0-1.03-.51-2.33-1.82-2.33s-1.87,1.2-1.87,2.36Z"></path>
    <path d="M644.5,128.38l1.19,3.41c.2.55.36,1.05.49,1.55h.04c.14-.5.31-1,.51-1.55l1.18-3.41h1.15l-2.38,6.06h-1.05l-2.3-6.06h1.18Z"></path>
    <path d="M650.59,131.61c.02,1.49.98,2.1,2.08,2.1.79,0,1.26-.14,1.68-.31l.19.79c-.39.18-1.05.38-2.02.38-1.87,0-2.98-1.23-2.98-3.06s1.08-3.27,2.84-3.27c1.98,0,2.51,1.74,2.51,2.86,0,.23-.03.4-.04.51h-4.26ZM653.82,130.82c.01-.7-.29-1.79-1.53-1.79-1.12,0-1.6,1.03-1.69,1.79h3.22Z"></path>
    <path d="M656.25,130.02c0-.63-.01-1.14-.05-1.64h.96l.05.98h.04c.34-.58.9-1.12,1.9-1.12.83,0,1.45.5,1.72,1.22h.02c.19-.34.43-.6.68-.79.36-.28.76-.43,1.34-.43.8,0,1.99.53,1.99,2.63v3.57h-1.08v-3.43c0-1.17-.43-1.87-1.31-1.87-.63,0-1.12.46-1.3,1-.05.15-.09.35-.09.55v3.75h-1.08v-3.63c0-.96-.43-1.67-1.27-1.67-.69,0-1.19.55-1.37,1.1-.06.16-.09.35-.09.54v3.66h-1.08v-4.42Z"></path>
    <path d="M667.31,131.61c.02,1.49.98,2.1,2.08,2.1.79,0,1.27-.14,1.68-.31l.19.79c-.39.18-1.05.38-2.02.38-1.87,0-2.98-1.23-2.98-3.06s1.08-3.27,2.84-3.27c1.98,0,2.5,1.74,2.5,2.86,0,.23-.02.4-.04.51h-4.26ZM670.54,130.82c.01-.7-.29-1.79-1.53-1.79-1.12,0-1.6,1.03-1.69,1.79h3.22Z"></path>
    <path d="M672.97,130.02c0-.63-.01-1.14-.05-1.64h.98l.06,1h.02c.3-.58,1-1.14,2-1.14.84,0,2.14.5,2.14,2.58v3.62h-1.1v-3.5c0-.98-.36-1.79-1.4-1.79-.73,0-1.29.51-1.48,1.13-.05.14-.08.33-.08.51v3.65h-1.1v-4.42Z"></path>
    <path d="M681.2,126.64v1.74h1.58v.84h-1.58v3.27c0,.75.21,1.18.83,1.18.29,0,.5-.04.64-.08l.05.83c-.21.09-.55.15-.98.15-.51,0-.93-.16-1.19-.46-.31-.33-.43-.86-.43-1.58v-3.31h-.94v-.84h.94v-1.45l1.08-.29Z"></path>
  </g>
  <g>
    <path d="M733.71,174.93v8.44h-1.09v-8.44h1.09Z"></path>
    <path d="M735.7,178.95c0-.63-.01-1.14-.05-1.64h.98l.06,1h.03c.3-.58,1-1.14,2-1.14.84,0,2.14.5,2.14,2.58v3.62h-1.1v-3.5c0-.98-.36-1.79-1.4-1.79-.73,0-1.29.51-1.48,1.13-.05.14-.08.33-.08.51v3.65h-1.1v-4.42Z"></path>
    <path d="M743.74,180.09h.02c.15-.21.36-.48.54-.69l1.78-2.09h1.33l-2.34,2.49,2.67,3.57h-1.34l-2.09-2.91-.56.63v2.28h-1.09v-8.89h1.09v5.61Z"></path>
  </g>
  <g>
    <path d="M810.39,74.84c.48-.1,1.23-.18,1.99-.18,1.09,0,1.79.19,2.32.61.44.33.7.83.7,1.49,0,.81-.54,1.53-1.43,1.85v.02c.8.2,1.74.86,1.74,2.12,0,.73-.29,1.28-.71,1.69-.59.54-1.54.79-2.92.79-.75,0-1.33-.05-1.69-.1v-8.31ZM811.48,78.3h.99c1.15,0,1.83-.6,1.83-1.42,0-.99-.75-1.38-1.85-1.38-.5,0-.79.04-.96.08v2.72ZM811.48,82.34c.21.04.53.05.92.05,1.13,0,2.17-.41,2.17-1.64,0-1.15-.99-1.63-2.18-1.63h-.9v3.22Z"></path>
    <path d="M817.14,74.28h1.1v8.89h-1.1v-8.89Z"></path>
    <path d="M823.46,83.17l-.09-.76h-.04c-.34.48-.99.9-1.85.9-1.23,0-1.85-.86-1.85-1.74,0-1.47,1.3-2.27,3.65-2.25v-.13c0-.5-.14-1.4-1.38-1.4-.56,0-1.15.18-1.58.45l-.25-.73c.5-.33,1.23-.54,1.99-.54,1.85,0,2.31,1.27,2.31,2.48v2.27c0,.53.02,1.04.1,1.45h-1ZM823.29,80.08c-1.2-.02-2.57.19-2.57,1.37,0,.71.48,1.05,1.04,1.05.79,0,1.29-.5,1.47-1.02.04-.11.06-.24.06-.35v-1.05Z"></path>
    <path d="M831.37,74.28v7.33c0,.54.01,1.15.05,1.57h-.99l-.05-1.05h-.03c-.34.68-1.08,1.19-2.07,1.19-1.47,0-2.59-1.24-2.59-3.08-.01-2.02,1.24-3.26,2.72-3.26.93,0,1.55.44,1.83.93h.02v-3.62h1.1ZM830.27,79.57c0-.14-.01-.33-.05-.46-.16-.7-.76-1.28-1.59-1.28-1.14,0-1.82,1-1.82,2.34,0,1.23.6,2.24,1.79,2.24.74,0,1.42-.49,1.62-1.32.04-.15.05-.3.05-.48v-1.05Z"></path>
    <path d="M833.81,80.34c.03,1.49.98,2.1,2.08,2.1.79,0,1.26-.14,1.68-.31l.19.79c-.39.18-1.05.38-2.02.38-1.87,0-2.98-1.23-2.98-3.06s1.08-3.27,2.84-3.27c1.98,0,2.5,1.74,2.5,2.86,0,.23-.02.4-.04.51h-4.26ZM837.04,79.55c.01-.7-.29-1.79-1.53-1.79-1.12,0-1.6,1.03-1.69,1.79h3.22Z"></path>
  </g>
</svg>