<svg viewBox="0 0 810.03 394.26" xmlns:xlink="http://www.w3.org/1999/xlink" height="139.09mm" width="285.76mm" xmlns="http://www.w3.org/2000/svg" data-sanitized-data-name="Layer 1" data-name="Layer 1" id="Layer_1">
  <defs>
    <style>
      .cls-1 {
        stroke: #cdd2e6;
        stroke-width: .4px;
      }

      .cls-1, .cls-2 {
        fill: none;
      }

      .cls-3 {
        fill: url(#linear-gradient);
      }

      .cls-3, .cls-4, .cls-5, .cls-6, .cls-2, .cls-7, .cls-8, .cls-9 {
        stroke-width: 0px;
      }

      .cls-4 {
        fill: #000;
      }

      .cls-10 {
        clip-path: url(#clippath-2);
      }

      .cls-5 {
        fill: #54565a;
      }

      .cls-11 {
        clip-path: url(#clippath-6);
      }

      .cls-6 {
        fill: #949fd0;
      }

      .cls-7 {
        fill: #ccd4ec;
      }

      .cls-12 {
        clip-path: url(#clippath-7);
      }

      .cls-13 {
        clip-path: url(#clippath-1);
      }

      .cls-14 {
        clip-path: url(#clippath-4);
      }

      .cls-8 {
        fill: #9ca4ce;
      }

      .cls-15 {
        clip-path: url(#clippath-9);
      }

      .cls-16 {
        clip-path: url(#clippath);
      }

      .cls-17 {
        clip-path: url(#clippath-3);
      }

      .cls-18 {
        clip-path: url(#clippath-8);
      }

      .cls-19 {
        clip-path: url(#clippath-5);
      }

      .cls-9 {
        fill: #cdd2e6;
      }

      .cls-20 {
        clip-path: url(#clippath-10);
      }
    </style>
    <clipPath id="clippath">
      <rect height="59.84" width="100" x="0" class="cls-2"></rect>
    </clipPath>
    <clipPath id="clippath-1">
      <rect height="59.84" width="100" x="0" class="cls-2"></rect>
    </clipPath>
    <clipPath id="clippath-2">
      <rect height="59.84" width="100" x="0" class="cls-2"></rect>
    </clipPath>
    <clipPath id="clippath-3">
      <path d="M16.16,6.12l52.26,10.41v.6L18.37,8.52l4.36,4.8,45.69,4.5v.59c-14.65-1.01-29.14-1.99-43.79-3l3.35,3.68h40.44v.51h5.38v-1.79c0-1.39-1.11-2.53-2.47-2.53h-2.91v.56L10.63,0l5.53,6.12Z" class="cls-2"></path>
    </clipPath>
    <linearGradient gradientUnits="userSpaceOnUse" gradientTransform="translate(75555.35 3322) scale(44.22)" y2="-74.9" x2="-1706.95" y1="-74.9" x1="-1708.38" id="linear-gradient">
      <stop stop-color="#fff" offset="0"></stop>
      <stop stop-color="#949fd1" offset="1"></stop>
    </linearGradient>
    <clipPath id="clippath-4">
      <rect height="59.84" width="100" x="0" class="cls-2"></rect>
    </clipPath>
    <clipPath id="clippath-5">
      <rect height="59.84" width="100" x="0" class="cls-2"></rect>
    </clipPath>
    <clipPath id="clippath-6">
      <rect height="59.84" width="100" x="0" class="cls-2"></rect>
    </clipPath>
    <clipPath id="clippath-7">
      <rect height="59.84" width="100" x="0" class="cls-2"></rect>
    </clipPath>
    <clipPath id="clippath-8">
      <rect height="59.84" width="100" x="0" class="cls-2"></rect>
    </clipPath>
    <clipPath id="clippath-9">
      <rect height="59.84" width="100" x="0" class="cls-2"></rect>
    </clipPath>
    <clipPath id="clippath-10">
      <rect height="59.84" width="100" x="0" class="cls-2"></rect>
    </clipPath>
  </defs>
  <polygon points="358.1 21.26 358.1 198.51 450.05 265.26 537.39 198.51 537.39 21.26 358.1 21.26" class="cls-5"></polygon>
  <rect ry="9.11" rx="9.11" height="41.5" width="568.41" y="291.76" x="197.39" class="cls-7"></rect>
  <rect ry="9.11" rx="9.11" height="61.95" width="795.29" y="332.31" x="14.74" class="cls-5"></rect>
  <path d="M459.39,273.26V5.26h-20v93h-3.16c-3.22-.23-6.76,0-10.34,0h-1.5v.05c-12.28.77-22,10.97-22,23.45v20c0,12.98,10.52,23.5,23.5,23.5h13.5v127h307v-19h-287Z" class="cls-6"></path>
  <g>
    <path d="M259.1,128.99v5.94h-1.66v-14.28h3.92c1.75,0,3.04.33,3.88,1.01s1.25,1.68,1.25,3.03c0,1.89-.96,3.16-2.87,3.83l3.88,6.42h-1.96l-3.46-5.94h-2.98ZM259.1,127.56h2.28c1.17,0,2.03-.23,2.58-.7s.82-1.16.82-2.09-.28-1.62-.83-2.04-1.45-.62-2.68-.62h-2.16v5.46h-.01Z" class="cls-4"></path>
    <path d="M274.08,135.12c-1.58,0-2.83-.48-3.75-1.45s-1.37-2.3-1.37-4.01.42-3.1,1.27-4.11,1.99-1.52,3.42-1.52c1.34,0,2.4.44,3.18,1.32s1.17,2.05,1.17,3.49v1.03h-7.37c.03,1.26.35,2.21.95,2.86s1.45.98,2.54.98c1.15,0,2.29-.24,3.42-.72v1.45c-.57.25-1.12.42-1.63.53s-1.13.16-1.85.16h.02ZM273.64,125.38c-.86,0-1.54.28-2.06.84s-.81,1.33-.9,2.32h5.6c0-1.02-.23-1.8-.68-2.35s-1.11-.82-1.95-.82h-.01Z" class="cls-4"></path>
    <path d="M287.68,132c0,1-.37,1.76-1.11,2.3s-1.78.81-3.12.81c-1.42,0-2.53-.22-3.32-.67v-1.5c.51.26,1.07.47,1.66.62s1.16.22,1.7.22c.85,0,1.5-.13,1.95-.41s.68-.68.68-1.24c0-.42-.18-.77-.54-1.07s-1.07-.65-2.11-1.05c-1-.37-1.7-.7-2.12-.97s-.73-.59-.94-.94-.31-.77-.31-1.26c0-.87.35-1.56,1.06-2.07s1.68-.76,2.92-.76c1.15,0,2.28.23,3.38.7l-.58,1.32c-1.07-.44-2.05-.66-2.92-.66-.77,0-1.35.12-1.74.36s-.59.57-.59,1c0,.29.07.53.22.73s.38.39.71.58.95.45,1.88.79c1.27.46,2.13.93,2.57,1.4s.67,1.06.67,1.77h0Z" class="cls-4"></path>
    <path d="M294.84,135.12c-1.58,0-2.83-.48-3.75-1.45s-1.37-2.3-1.37-4.01.42-3.1,1.27-4.11,1.99-1.52,3.42-1.52c1.34,0,2.4.44,3.18,1.32s1.17,2.05,1.17,3.49v1.03h-7.37c.03,1.26.35,2.21.95,2.86s1.45.98,2.54.98c1.15,0,2.29-.24,3.42-.72v1.45c-.57.25-1.12.42-1.63.53s-1.13.16-1.85.16h.02ZM294.4,125.38c-.86,0-1.54.28-2.06.84s-.81,1.33-.9,2.32h5.6c0-1.02-.23-1.8-.68-2.35s-1.11-.82-1.95-.82h-.01Z" class="cls-4"></path>
    <path d="M306.42,124.03c.48,0,.9.04,1.28.12l-.22,1.5c-.44-.1-.83-.15-1.17-.15-.87,0-1.61.35-2.22,1.05s-.92,1.58-.92,2.63v5.74h-1.62v-10.7h1.34l.19,1.98h.08c.4-.7.88-1.23,1.44-1.61s1.17-.57,1.85-.57h-.03Z" class="cls-4"></path>
    <path d="M312.05,134.92l-4.06-10.7h1.74l2.3,6.35c.52,1.48.83,2.45.92,2.89h.08c.07-.34.3-1.06.68-2.14s1.24-3.45,2.56-7.09h1.74l-4.06,10.7h-1.9Z" class="cls-4"></path>
    <path d="M328.96,129.56c0,1.75-.44,3.11-1.32,4.09s-2.09,1.47-3.64,1.47c-.96,0-1.81-.22-2.55-.67s-1.32-1.09-1.72-1.93-.61-1.82-.61-2.95c0-1.75.44-3.1,1.31-4.08s2.08-1.46,3.63-1.46,2.69.5,3.57,1.49,1.32,2.34,1.32,4.04h0ZM320.81,129.56c0,1.37.27,2.41.82,3.12s1.35,1.07,2.41,1.07,1.87-.36,2.42-1.07.83-1.76.83-3.13-.28-2.39-.83-3.1-1.36-1.06-2.44-1.06-1.86.35-2.4,1.04-.81,1.74-.81,3.12h0Z" class="cls-4"></path>
    <path d="M331.67,121.32c0-.37.09-.64.27-.82s.41-.26.68-.26.49.09.67.26.28.45.28.81-.09.64-.28.82-.41.27-.67.27-.5-.09-.68-.27-.27-.45-.27-.82h0ZM333.43,134.92h-1.62v-10.7h1.62v10.7Z" class="cls-4"></path>
    <path d="M341.74,124.03c.48,0,.9.04,1.28.12l-.22,1.5c-.44-.1-.83-.15-1.17-.15-.87,0-1.61.35-2.22,1.05s-.92,1.58-.92,2.63v5.74h-1.62v-10.7h1.34l.19,1.98h.08c.4-.7.88-1.23,1.44-1.61s1.17-.57,1.85-.57h-.03Z" class="cls-4"></path>
  </g>
  <g>
    <path d="M412.83,318.32c0,1.26-.46,2.24-1.37,2.94s-2.15,1.05-3.71,1.05c-1.69,0-3-.22-3.91-.65v-1.6c.59.25,1.22.44,1.91.59s1.37.21,2.05.21c1.11,0,1.94-.21,2.5-.63s.84-1,.84-1.75c0-.5-.1-.9-.3-1.22s-.53-.61-1-.87-1.17-.57-2.12-.91c-1.33-.48-2.28-1.04-2.85-1.69s-.85-1.5-.85-2.55.41-1.98,1.24-2.63,1.92-.98,3.28-.98,2.72.26,3.92.78l-.52,1.45c-1.18-.5-2.32-.74-3.44-.74-.88,0-1.57.19-2.06.57s-.74.9-.74,1.57c0,.5.09.9.27,1.22s.49.61.92.87,1.1.55,1.99.87c1.5.53,2.53,1.11,3.09,1.72s.84,1.41.84,2.38h.02Z" class="cls-4"></path>
    <path d="M417.03,311.41v6.94c0,.87.2,1.52.6,1.95s1.02.64,1.87.64c1.12,0,1.94-.31,2.46-.92s.78-1.61.78-3v-5.62h1.62v10.7h-1.34l-.23-1.44h-.09c-.33.53-.79.93-1.38,1.21s-1.26.42-2.02.42c-1.3,0-2.28-.31-2.92-.93s-.97-1.61-.97-2.97v-7h1.64l-.02.02Z" class="cls-4"></path>
    <path d="M432.76,311.24c1.41,0,2.5.48,3.28,1.44s1.17,2.32,1.17,4.08-.39,3.12-1.18,4.1-1.87,1.46-3.27,1.46c-.7,0-1.33-.13-1.91-.39s-1.06-.65-1.45-1.19h-.12l-.34,1.38h-1.16v-15.2h1.62v3.69c0,.83-.03,1.57-.08,2.23h.08c.75-1.07,1.88-1.6,3.36-1.6h0ZM432.53,312.6c-1.11,0-1.9.32-2.39.95s-.73,1.7-.73,3.21.25,2.58.75,3.23,1.31.97,2.41.97c1,0,1.74-.36,2.23-1.09s.73-1.77.73-3.13-.24-2.43-.73-3.12-1.24-1.03-2.27-1.03h0Z" class="cls-4"></path>
    <path d="M446.94,319.2c0,1-.37,1.76-1.11,2.3s-1.78.81-3.12.81c-1.42,0-2.53-.22-3.32-.67v-1.5c.51.26,1.07.47,1.66.62s1.16.22,1.7.22c.85,0,1.5-.13,1.95-.41s.68-.68.68-1.24c0-.42-.18-.77-.54-1.07s-1.07-.65-2.11-1.05c-1-.37-1.7-.7-2.12-.97s-.73-.59-.94-.94-.31-.77-.31-1.26c0-.87.35-1.56,1.06-2.07s1.68-.76,2.92-.76c1.15,0,2.28.23,3.38.7l-.58,1.32c-1.07-.44-2.05-.66-2.92-.66-.77,0-1.35.12-1.74.36s-.59.57-.59,1c0,.29.07.53.22.73s.38.39.71.58.95.45,1.88.79c1.27.46,2.13.93,2.57,1.4s.67,1.06.67,1.77h0Z" class="cls-4"></path>
    <path d="M453.04,320.97c.29,0,.56-.02.83-.06s.48-.09.63-.13v1.24c-.18.08-.43.15-.78.21s-.65.08-.92.08c-2.07,0-3.11-1.09-3.11-3.27v-6.37h-1.53v-.78l1.53-.67.68-2.29h.94v2.48h3.11v1.26h-3.11v6.3c0,.64.15,1.14.46,1.48s.73.52,1.26.52h.01Z" class="cls-4"></path>
    <path d="M461.52,311.22c.48,0,.9.04,1.28.12l-.22,1.5c-.44-.1-.83-.15-1.17-.15-.87,0-1.61.35-2.22,1.05s-.92,1.58-.92,2.63v5.74h-1.62v-10.7h1.34l.19,1.98h.08c.4-.7.88-1.23,1.44-1.61s1.17-.57,1.85-.57h-.03Z" class="cls-4"></path>
    <path d="M471.39,322.12l-.32-1.52h-.08c-.53.67-1.07,1.12-1.6,1.36s-1.19.36-1.99.36c-1.06,0-1.89-.27-2.5-.82s-.9-1.33-.9-2.33c0-2.16,1.73-3.29,5.19-3.4l1.82-.06v-.66c0-.84-.18-1.46-.54-1.86s-.94-.6-1.73-.6c-.89,0-1.9.27-3.03.82l-.5-1.24c.53-.29,1.11-.51,1.73-.67s1.26-.24,1.89-.24c1.28,0,2.22.28,2.84.85s.92,1.47.92,2.72v7.3h-1.2ZM467.73,320.98c1.01,0,1.8-.28,2.38-.83s.86-1.33.86-2.32v-.97l-1.62.07c-1.29.05-2.22.25-2.79.6s-.85.91-.85,1.66c0,.59.18,1.03.53,1.34s.85.46,1.49.46h0Z" class="cls-4"></path>
    <path d="M479.38,320.97c.29,0,.56-.02.83-.06s.48-.09.63-.13v1.24c-.18.08-.43.15-.78.21s-.65.08-.92.08c-2.07,0-3.11-1.09-3.11-3.27v-6.37h-1.53v-.78l1.53-.67.68-2.29h.94v2.48h3.11v1.26h-3.11v6.3c0,.64.15,1.14.46,1.48s.73.52,1.26.52h.01Z" class="cls-4"></path>
    <path d="M487.51,322.31c-1.58,0-2.83-.48-3.75-1.45s-1.37-2.3-1.37-4.01.42-3.1,1.27-4.11,1.99-1.52,3.42-1.52c1.34,0,2.4.44,3.18,1.32s1.17,2.05,1.17,3.49v1.03h-7.37c.03,1.26.35,2.21.95,2.86s1.45.98,2.54.98c1.15,0,2.29-.24,3.42-.72v1.45c-.57.25-1.12.42-1.63.53s-1.13.16-1.85.16h.02ZM487.07,312.57c-.86,0-1.54.28-2.06.84s-.81,1.33-.9,2.32h5.6c0-1.02-.23-1.8-.68-2.35s-1.11-.82-1.95-.82h-.01Z" class="cls-4"></path>
  </g>
  <g>
    <path d="M49.64,271.12l-4.84-12.66h-.08c.09,1,.14,2.19.14,3.57v9.08h-1.53v-14.28h2.5l4.52,11.78h.08l4.56-11.78h2.48v14.28h-1.66v-9.2c0-1.05.05-2.2.14-3.44h-.08l-4.88,12.64h-1.35Z" class="cls-4"></path>
    <path d="M70.37,265.76c0,1.75-.44,3.11-1.32,4.09s-2.09,1.47-3.64,1.47c-.96,0-1.81-.22-2.55-.67s-1.31-1.09-1.72-1.93c-.4-.84-.61-1.82-.61-2.95,0-1.75.44-3.1,1.31-4.08.87-.97,2.08-1.46,3.63-1.46s2.69.5,3.57,1.49c.88,1,1.32,2.34,1.32,4.04h.01ZM62.22,265.76c0,1.37.27,2.41.82,3.12s1.35,1.07,2.41,1.07,1.87-.36,2.42-1.07c.55-.71.82-1.76.82-3.13s-.28-2.39-.82-3.1c-.55-.71-1.36-1.06-2.44-1.06s-1.86.35-2.4,1.04c-.54.7-.81,1.74-.81,3.12h0Z" class="cls-4"></path>
    <path d="M75.56,271.12l-4.06-10.7h1.74l2.3,6.35c.52,1.48.83,2.45.92,2.89h.08c.07-.34.3-1.06.68-2.14s1.23-3.45,2.56-7.09h1.74l-4.06,10.7h-1.9Z" class="cls-4"></path>
    <path d="M87.75,271.31c-1.58,0-2.83-.48-3.74-1.45-.92-.96-1.37-2.3-1.37-4.01s.43-3.1,1.28-4.11,1.99-1.52,3.42-1.52c1.34,0,2.4.44,3.18,1.32s1.17,2.05,1.17,3.49v1.03h-7.37c.03,1.26.35,2.21.95,2.86s1.45.98,2.54.98c1.15,0,2.29-.24,3.42-.72v1.45c-.57.25-1.12.42-1.62.53-.51.11-1.13.16-1.85.16h0ZM87.31,261.57c-.86,0-1.54.28-2.05.84s-.81,1.33-.9,2.32h5.6c0-1.02-.23-1.8-.68-2.35-.46-.54-1.11-.82-1.95-.82h-.02Z" class="cls-4"></path>
    <path d="M108.09,271.12v-6.96c0-.85-.18-1.49-.55-1.92-.36-.43-.93-.64-1.7-.64-1.01,0-1.75.29-2.24.87-.48.58-.72,1.47-.72,2.68v5.98h-1.62v-6.96c0-.85-.18-1.49-.55-1.92-.36-.43-.93-.64-1.71-.64-1.02,0-1.76.3-2.23.91-.47.61-.71,1.61-.71,2.99v5.62h-1.62v-10.7h1.32l.26,1.46h.08c.31-.52.74-.93,1.29-1.22s1.18-.44,1.87-.44c1.67,0,2.77.61,3.28,1.82h.08c.32-.56.78-1,1.39-1.33s1.3-.49,2.07-.49c1.21,0,2.12.31,2.72.93s.9,1.62.9,2.98v6.98h-1.62.01Z" class="cls-4"></path>
    <path d="M117.58,271.31c-1.58,0-2.83-.48-3.74-1.45-.92-.96-1.37-2.3-1.37-4.01s.43-3.1,1.28-4.11,1.99-1.52,3.42-1.52c1.34,0,2.4.44,3.18,1.32s1.17,2.05,1.17,3.49v1.03h-7.37c.03,1.26.35,2.21.95,2.86.6.65,1.45.98,2.54.98,1.15,0,2.29-.24,3.42-.72v1.45c-.57.25-1.12.42-1.62.53-.51.11-1.13.16-1.85.16h0ZM117.14,261.57c-.86,0-1.54.28-2.05.84-.51.56-.81,1.33-.9,2.32h5.6c0-1.02-.23-1.8-.68-2.35-.46-.54-1.11-.82-1.95-.82h-.02Z" class="cls-4"></path>
    <path d="M131.6,271.12v-6.92c0-.87-.2-1.52-.6-1.95-.4-.43-1.02-.64-1.87-.64-1.12,0-1.94.3-2.46.91-.52.61-.78,1.6-.78,3v5.62h-1.62v-10.7h1.32l.26,1.46h.08c.33-.53.8-.94,1.4-1.23.6-.29,1.27-.43,2-.43,1.29,0,2.26.31,2.91.93.65.62.98,1.62.98,2.98v6.98h-1.62Z" class="cls-4"></path>
    <path d="M140.01,269.97c.29,0,.56-.02.83-.06s.48-.09.63-.13v1.24c-.18.08-.43.15-.78.21s-.65.08-.92.08c-2.07,0-3.11-1.09-3.11-3.27v-6.37h-1.53v-.78l1.53-.67.68-2.29h.94v2.48h3.11v1.26h-3.11v6.3c0,.64.15,1.14.46,1.48.31.34.73.52,1.26.52h0Z" class="cls-4"></path>
    <path d="M158.05,265.76c0,1.75-.44,3.11-1.32,4.09s-2.09,1.47-3.64,1.47c-.96,0-1.81-.22-2.55-.67s-1.31-1.09-1.72-1.93c-.4-.84-.61-1.82-.61-2.95,0-1.75.44-3.1,1.31-4.08.87-.97,2.08-1.46,3.63-1.46s2.69.5,3.57,1.49c.88,1,1.32,2.34,1.32,4.04h0ZM149.9,265.76c0,1.37.27,2.41.82,3.12s1.35,1.07,2.41,1.07,1.87-.36,2.42-1.07c.55-.71.82-1.76.82-3.13s-.28-2.39-.82-3.1c-.55-.71-1.36-1.06-2.44-1.06s-1.86.35-2.4,1.04c-.54.7-.81,1.74-.81,3.12h0Z" class="cls-4"></path>
    <path d="M165.71,261.67h-2.72v9.44h-1.62v-9.44h-1.91v-.73l1.91-.59v-.6c0-2.63,1.15-3.95,3.45-3.95.57,0,1.23.11,1.99.34l-.42,1.3c-.62-.2-1.16-.3-1.6-.3-.61,0-1.06.2-1.36.61s-.44,1.06-.44,1.96v.69h2.72v1.26h0Z" class="cls-4"></path>
    <path d="M68.15,292.2c0,1-.37,1.76-1.11,2.3s-1.78.81-3.12.81c-1.42,0-2.53-.22-3.32-.67v-1.5c.52.26,1.07.47,1.66.62.59.15,1.16.22,1.7.22.85,0,1.5-.13,1.95-.41.46-.27.68-.68.68-1.24,0-.42-.18-.77-.54-1.07s-1.07-.65-2.12-1.05c-1-.37-1.7-.7-2.12-.97s-.73-.59-.94-.94-.31-.77-.31-1.26c0-.87.36-1.56,1.06-2.07.71-.5,1.68-.76,2.92-.76,1.15,0,2.28.23,3.38.7l-.58,1.32c-1.07-.44-2.05-.66-2.92-.66-.77,0-1.35.12-1.74.36s-.59.57-.59,1c0,.29.07.53.22.73s.38.39.71.58c.33.18.95.45,1.88.79,1.27.46,2.13.93,2.57,1.4.45.47.67,1.06.67,1.77h.01Z" class="cls-4"></path>
    <path d="M72.31,284.41v6.94c0,.87.2,1.52.6,1.95.4.43,1.02.64,1.87.64,1.12,0,1.94-.31,2.46-.92s.78-1.61.78-3v-5.62h1.62v10.7h-1.34l-.23-1.44h-.09c-.33.53-.79.93-1.38,1.21s-1.26.42-2.02.42c-1.3,0-2.28-.31-2.92-.93-.65-.62-.97-1.61-.97-2.97v-7h1.64l-.02.02Z" class="cls-4"></path>
    <path d="M88.05,284.24c1.41,0,2.5.48,3.28,1.44s1.17,2.32,1.17,4.08-.39,3.12-1.18,4.1c-.79.97-1.87,1.46-3.27,1.46-.7,0-1.33-.13-1.91-.39s-1.06-.65-1.45-1.19h-.12l-.34,1.38h-1.16v-15.2h1.62v3.69c0,.83-.03,1.57-.08,2.23h.08c.76-1.07,1.88-1.6,3.36-1.6h0ZM87.82,285.6c-1.11,0-1.9.32-2.39.95s-.73,1.7-.73,3.21.25,2.58.75,3.23c.5.65,1.31.97,2.41.97,1,0,1.74-.36,2.23-1.09s.73-1.77.73-3.13-.24-2.43-.73-3.12-1.24-1.03-2.27-1.03h0Z" class="cls-4"></path>
    <path d="M102.23,292.2c0,1-.37,1.76-1.11,2.3s-1.78.81-3.12.81c-1.42,0-2.53-.22-3.32-.67v-1.5c.52.26,1.07.47,1.66.62.59.15,1.16.22,1.7.22.85,0,1.5-.13,1.95-.41.46-.27.68-.68.68-1.24,0-.42-.18-.77-.54-1.07s-1.07-.65-2.12-1.05c-1-.37-1.7-.7-2.12-.97s-.73-.59-.94-.94-.31-.77-.31-1.26c0-.87.36-1.56,1.06-2.07.71-.5,1.68-.76,2.92-.76,1.15,0,2.28.23,3.38.7l-.58,1.32c-1.07-.44-2.05-.66-2.92-.66-.77,0-1.35.12-1.74.36s-.59.57-.59,1c0,.29.07.53.22.73s.38.39.71.58c.33.18.95.45,1.88.79,1.27.46,2.13.93,2.57,1.4.45.47.67,1.06.67,1.77h.01Z" class="cls-4"></path>
    <path d="M108.32,293.97c.29,0,.56-.02.83-.06.27-.04.48-.09.63-.13v1.24c-.18.08-.43.15-.78.21s-.65.08-.92.08c-2.07,0-3.11-1.09-3.11-3.27v-6.37h-1.53v-.78l1.53-.67.68-2.29h.94v2.48h3.11v1.26h-3.11v6.3c0,.64.15,1.14.46,1.48s.73.52,1.26.52h0Z" class="cls-4"></path>
    <path d="M116.81,284.22c.48,0,.9.04,1.28.12l-.22,1.5c-.44-.1-.83-.15-1.17-.15-.87,0-1.61.35-2.22,1.05s-.92,1.58-.92,2.63v5.74h-1.62v-10.7h1.34l.19,1.98h.08c.4-.7.88-1.23,1.44-1.61.56-.38,1.18-.57,1.85-.57h-.03Z" class="cls-4"></path>
    <path d="M126.67,295.12l-.32-1.52h-.08c-.53.67-1.07,1.12-1.6,1.36s-1.19.36-1.99.36c-1.06,0-1.89-.27-2.49-.82-.6-.55-.9-1.33-.9-2.33,0-2.16,1.73-3.29,5.19-3.4l1.82-.06v-.66c0-.84-.18-1.46-.54-1.86s-.94-.6-1.73-.6c-.89,0-1.9.27-3.03.82l-.5-1.24c.53-.29,1.11-.51,1.73-.67.63-.16,1.26-.24,1.89-.24,1.28,0,2.22.28,2.84.85s.92,1.47.92,2.72v7.3h-1.21ZM123.01,293.98c1.01,0,1.8-.28,2.38-.83s.86-1.33.86-2.32v-.97l-1.62.07c-1.29.05-2.22.25-2.79.6-.57.35-.86.91-.86,1.66,0,.59.18,1.03.53,1.34s.85.46,1.49.46h0Z" class="cls-4"></path>
    <path d="M134.67,293.97c.29,0,.56-.02.83-.06s.48-.09.63-.13v1.24c-.18.08-.43.15-.78.21s-.65.08-.92.08c-2.07,0-3.11-1.09-3.11-3.27v-6.37h-1.53v-.78l1.53-.67.68-2.29h.94v2.48h3.11v1.26h-3.11v6.3c0,.64.15,1.14.46,1.48.31.34.73.52,1.26.52h0Z" class="cls-4"></path>
    <path d="M142.79,295.31c-1.58,0-2.83-.48-3.74-1.45-.92-.96-1.37-2.3-1.37-4.01s.43-3.1,1.28-4.11,1.99-1.52,3.42-1.52c1.34,0,2.4.44,3.18,1.32s1.17,2.05,1.17,3.49v1.03h-7.37c.03,1.26.35,2.21.95,2.86.6.65,1.45.98,2.54.98,1.15,0,2.29-.24,3.42-.72v1.45c-.57.25-1.12.42-1.62.53-.51.11-1.13.16-1.85.16h0ZM142.35,285.57c-.86,0-1.54.28-2.05.84-.51.56-.81,1.33-.9,2.32h5.6c0-1.02-.23-1.8-.68-2.35-.46-.54-1.11-.82-1.95-.82h-.02Z" class="cls-4"></path>
  </g>
  <g>
    <rect height="3" width="164.12" y="311.42" x="17.17" class="cls-5"></rect>
    <polygon points="174.13 318.01 180.22 312.92 174.13 307.84 179.3 307.84 185.39 312.92 179.3 318.01 174.13 318.01" class="cls-5"></polygon>
  </g>
  <g>
    <g class="cls-16">
      <circle r="2.65" cy="55.88" cx="56.99" class="cls-1"></circle>
    </g>
    <g class="cls-13">
      <path d="M57.86,54.15c-.27-.13-.54-.19-.83-.19-.34,0-.65.09-.95.26-.29.17-.52.4-.67.69-.16.28-.24.61-.24.97,0,.57.17,1.03.52,1.39s.79.54,1.33.54c.29,0,.55-.05.78-.15s.47-.29.73-.55l-.45-.49c-.19.2-.37.34-.53.41-.16.08-.33.11-.53.11-.23,0-.43-.05-.61-.16-.19-.11-.33-.26-.43-.45s-.15-.41-.15-.65c0-.35.11-.65.34-.89.23-.24.51-.36.84-.36.39,0,.75.18,1.06.53l.46-.47c-.19-.24-.42-.42-.69-.55" class="cls-9"></path>
    </g>
    <g class="cls-10">
      <path d="M95.01,32.97c0,.67-.19,2.26-1.42,3.25-1.23.99-2.6,1.23-3.94,1.05-1.33-.17-2.02-1.36-1.98-2.43.04-1.06.5-1.99,2.13-2.44,1.63-.44,3.51-.67,5.22-1.46v2.02h0ZM95.51,20.95c-3.99-.91-7.2-.39-8.8.43s-3.27,2.3-3.42,4.67h5.11s.57-1.37,2.75-1.41,3.52.47,3.75,1.44c.23.97-.58,1.72-1.92,2.05-1.33.33-3.46.56-4.95.87-1.49.31-4.18,1.43-4.84,3.23s-.68,4.24.06,5.9,3.19,3.39,6.44,3.29,5.86-.31,7.78-2.05,2.52-3.56,2.52-5.44.02-7.6.02-8.24-.5-3.83-4.49-4.74" class="cls-8"></path>
    </g>
    <g class="cls-17">
      <rect height="19.6" width="63.17" y="0" x="10.63" class="cls-3"></rect>
    </g>
    <g class="cls-14">
      <path d="M78.45,15.38h-2.91v26.04h5.38v-23.57c0-1.36-1.11-2.47-2.47-2.47" class="cls-8"></path>
    </g>
    <g class="cls-19">
      <path d="M71.32,21.28h-2.84v20.14h5.26v-17.72c0-1.33-1.09-2.42-2.42-2.42" class="cls-8"></path>
    </g>
    <g class="cls-11">
      <path d="M63.43,30.37c-1.82-1.1-4.06-1.45-6.73-2.11-2.67-.66-3.31-1.34-3.32-1.98,0-.64.37-1.3,1.13-1.49.76-.19,1.99-.35,3.27-.06,1.28.29,1.94,1.53,2.26,1.84.31.31.88.54,1.27.54h3.68c-.13-2.19-.81-3.8-2.4-4.96-1.59-1.16-3.54-1.82-7.53-1.59s-6.11,2.28-6.79,4.62c-.68,2.34.04,4.74,1.92,5.96,1.88,1.22,4.99,1.84,6.89,2.24,1.9.41,3.37,1,3.27,2.26-.1,1.27-2.23,1.93-4.78,1.61-2.54-.32-2.8-2.93-2.8-2.93h-5.13c-.17,3.35,1.43,5.17,3.5,6.13,2.07.97,5.61,1.32,9.36.48,3.75-.83,5.19-3.5,5.2-5.86.02-2.36-.46-3.62-2.28-4.72" class="cls-8"></path>
    </g>
    <g class="cls-12">
      <path d="M43.62,30.37c-1.82-1.1-4.06-1.45-6.73-2.11-2.67-.66-3.31-1.34-3.32-1.98,0-.64.37-1.3,1.13-1.49.76-.19,1.99-.35,3.27-.06,1.28.29,1.94,1.53,2.26,1.84.31.31.88.54,1.27.54h3.68c-.13-2.19-.81-3.8-2.4-4.96s-3.54-1.82-7.53-1.59c-3.99.23-6.11,2.28-6.79,4.62-.68,2.34.04,4.74,1.92,5.96,1.88,1.22,4.99,1.84,6.89,2.24,1.9.41,3.37,1,3.27,2.26-.1,1.27-2.23,1.93-4.78,1.61-2.54-.32-2.8-2.93-2.8-2.93h-5.13c-.17,3.35,1.43,5.17,3.5,6.13,2.07.97,5.61,1.32,9.36.48,3.75-.83,5.19-3.5,5.2-5.86.02-2.36-.46-3.62-2.28-4.72" class="cls-8"></path>
    </g>
    <g class="cls-18">
      <path d="M12.9,36.77c-5.19,0-7.48-4.06-7.48-9.05s2.52-9.02,7.49-9.02,7.49,4.04,7.49,9.02-2.31,9.05-7.5,9.05M12.91,14.03C4.35,14.03,0,20.15,0,27.7s3.94,13.71,12.89,13.71,12.93-6.16,12.93-13.71-4.35-13.67-12.91-13.67" class="cls-8"></path>
    </g>
    <g class="cls-15">
      <path d="M97.2,49.75c.27-.06.53-.15.77-.27v-1.06c-.29.14-.58.24-.85.3-.27.06-.56.09-.86.09-.39,0-.69-.11-.91-.33s-.33-.52-.35-.92h3.25v-.67c0-.72-.2-1.28-.6-1.68-.4-.41-.95-.61-1.66-.61s-1.33.23-1.75.69-.63,1.11-.63,1.96.23,1.46.69,1.9c.46.45,1.09.67,1.9.67.39,0,.73-.03,1-.09M96.7,45.85c.17.19.26.45.27.79h-1.93c.02-.34.12-.6.28-.79.17-.18.39-.28.69-.28s.52.09.69.28M92.72,47.59c-.09-.18-.22-.34-.41-.48-.18-.14-.47-.29-.87-.45-.44-.18-.73-.31-.86-.4s-.2-.2-.2-.32c0-.22.2-.33.61-.33.23,0,.45.04.67.1.22.07.46.16.71.27l.41-.99c-.57-.26-1.16-.4-1.77-.4s-1.13.12-1.48.37c-.35.25-.52.59-.52,1.04,0,.26.04.48.12.66s.21.34.4.48c.18.14.47.29.85.45.27.11.49.21.65.3s.28.16.34.23c.07.07.1.16.1.26,0,.29-.25.43-.75.43-.24,0-.53-.04-.85-.12s-.61-.18-.86-.3v1.14c.23.1.47.17.73.22s.57.07.94.07c.72,0,1.25-.14,1.61-.41s.54-.66.54-1.18c0-.25-.04-.46-.13-.65M87.87,49.72v-5.04h-1.38v2.37c0,.6-.09,1.02-.26,1.28-.17.26-.45.39-.83.39-.28,0-.49-.09-.62-.27-.13-.18-.19-.45-.19-.82v-2.95h-1.38v3.29c0,.6.15,1.05.45,1.37.3.32.75.48,1.34.48.35,0,.65-.06.92-.19.27-.13.48-.31.63-.54h.07l.18.64h1.07ZM81.23,43.13l-2.46,6.59h1.25l2.46-6.59h-1.25ZM74.88,47.19c0-.52.08-.91.25-1.15s.42-.36.76-.36c.26,0,.45.09.57.27s.18.46.18.82v2.95h1.38v-3.29c0-.65-.15-1.12-.44-1.41s-.73-.44-1.3-.44c-.33,0-.63.06-.89.19-.26.13-.46.31-.6.55h-.12c-.27-.49-.78-.74-1.53-.74-.33,0-.62.07-.88.2-.26.13-.45.31-.59.54h-.08l-.19-.65h-1.05v5.04h1.37v-2.37c0-.59.08-1.02.24-1.28.16-.26.41-.39.77-.39.26,0,.45.09.57.27s.18.46.18.82v2.95h1.38v-2.53h.02ZM68.94,45.81c-.2-.39-.48-.7-.85-.91-.37-.21-.8-.32-1.28-.32-.78,0-1.38.23-1.81.69s-.65,1.1-.65,1.92c0,.53.1.99.3,1.39.2.4.48.7.85.91.37.21.8.32,1.28.32.77,0,1.38-.23,1.81-.69s.65-1.11.65-1.93c0-.53-.1-.99-.3-1.38M65.99,46.07c.16-.25.43-.37.79-.37s.64.12.8.37.24.62.24,1.12-.08.88-.24,1.13c-.16.25-.43.38-.79.38s-.64-.13-.8-.38c-.16-.26-.25-.63-.25-1.13s.08-.88.24-1.13M62.8,49.72c.23-.05.45-.15.67-.29v-1.18c-.23.15-.45.26-.68.33-.23.07-.47.11-.74.11-.72,0-1.07-.49-1.07-1.48s.36-1.52,1.07-1.52c.19,0,.37.03.56.08.19.06.39.13.6.21l.41-1.06c-.46-.23-.99-.34-1.57-.34-.8,0-1.41.23-1.84.68-.43.45-.64,1.11-.64,1.96,0,1.72.78,2.58,2.35,2.58.35,0,.63-.03.86-.08M57.26,49.63c.14.13.33.2.59.2s.44-.07.58-.2c.14-.14.21-.32.21-.56s-.07-.44-.21-.57-.33-.2-.58-.2-.45.06-.59.19c-.14.13-.2.32-.2.57s.07.43.21.57M54.48,47.79c0,.3-.1.55-.29.73s-.45.28-.76.28c-.45,0-.67-.19-.67-.58,0-.27.1-.47.29-.6.2-.13.49-.2.89-.22l.53-.02v.41h.01ZM55.85,49.71v-3.36c0-.6-.18-1.05-.54-1.34s-.88-.44-1.56-.44-1.35.15-1.93.46l.46.93c.54-.24,1.02-.37,1.42-.37.52,0,.78.26.78.77v.22l-.87.03c-.76.03-1.32.17-1.69.42s-.56.65-.56,1.18.14.91.42,1.18c.28.28.66.41,1.14.41.39,0,.71-.06.96-.17.25-.11.48-.32.72-.61h.04l.27.69h.96-.02ZM50.25,42.69h-1.38v7.02h1.38v-7.02ZM47.44,44.67h-1.38v5.04h1.38v-5.04ZM46.75,44.04c.25,0,.44-.06.56-.18.13-.12.19-.29.19-.5,0-.45-.25-.67-.75-.67s-.75.22-.75.67.25.68.75.68M44.86,47.57c-.09-.18-.22-.34-.41-.48-.18-.14-.47-.29-.87-.45-.44-.18-.73-.31-.86-.4s-.2-.2-.2-.32c0-.22.2-.33.61-.33.23,0,.45.04.67.1.22.07.46.16.71.27l.42-.99c-.57-.26-1.17-.4-1.77-.4-.64,0-1.13.12-1.48.37s-.52.59-.52,1.04c0,.26.04.48.12.66.08.18.21.34.4.48.18.14.47.29.85.45.27.11.49.21.65.3s.28.16.34.23c.07.07.1.16.1.26,0,.29-.25.43-.75.43-.24,0-.53-.04-.85-.12-.32-.08-.61-.18-.86-.3v1.14c.23.1.47.17.73.22s.57.07.94.07c.72,0,1.25-.14,1.61-.41s.54-.66.54-1.18c0-.25-.04-.46-.13-.65M40.26,47.56c-.09-.18-.22-.34-.41-.48-.18-.14-.47-.29-.87-.45-.44-.18-.73-.31-.86-.4s-.2-.2-.2-.32c0-.22.2-.33.61-.33.23,0,.45.04.67.1.22.07.46.16.71.27l.41-.99c-.57-.26-1.17-.4-1.77-.4-.64,0-1.13.12-1.48.37s-.52.59-.52,1.04c0,.26.04.48.12.66.08.18.22.34.4.48s.47.29.86.45c.27.11.49.21.65.3s.28.16.34.23c.07.07.1.16.1.26,0,.29-.25.43-.75.43-.24,0-.53-.04-.85-.12-.32-.08-.61-.18-.86-.3v1.14c.23.1.47.17.73.22.26.05.57.07.94.07.72,0,1.25-.14,1.61-.41s.54-.66.54-1.18c0-.25-.04-.46-.13-.65M35.43,45.78c-.2-.39-.48-.7-.85-.91s-.8-.32-1.28-.32c-.78,0-1.38.23-1.81.69s-.64,1.1-.64,1.92c0,.53.1.99.3,1.39s.48.7.85.91.8.32,1.28.32c.77,0,1.38-.23,1.81-.69s.65-1.11.65-1.93c0-.53-.1-.99-.3-1.38M32.49,46.04c.16-.25.43-.37.79-.37s.64.12.8.37.24.62.24,1.12-.08.88-.24,1.13-.42.38-.79.38-.64-.13-.8-.38c-.16-.26-.25-.63-.25-1.13s.08-.88.24-1.13M28.53,49.61c.14.13.33.2.59.2s.44-.07.58-.2c.14-.14.21-.32.21-.56s-.07-.44-.21-.57-.33-.2-.58-.2-.46.06-.59.19c-.14.13-.2.32-.2.57s.07.43.21.57M26.27,49.69l1.45-5.04h-1.35l-.6,2.23c-.03.13-.08.39-.15.76-.07.38-.12.67-.14.89h-.03c0-.08,0-.2-.03-.34s-.04-.28-.07-.43-.05-.28-.07-.41c-.03-.13-.04-.23-.06-.29l-.59-2.42h-1.52l-.62,2.42-.07.38c-.09.5-.15.86-.16,1.09h-.03c-.1-.7-.19-1.26-.28-1.66l-.58-2.23h-1.37l1.43,5.04h1.48l.92-3.99h.03l.52,2.23.39,1.76h1.5,0ZM18.37,49.69l1.45-5.04h-1.35l-.6,2.23c-.03.13-.08.39-.15.76-.07.38-.12.67-.14.89h-.03c0-.08,0-.2-.03-.34s-.04-.28-.07-.43-.05-.28-.07-.41c-.03-.13-.04-.23-.06-.29l-.59-2.42h-1.52l-.62,2.42-.07.38c-.09.5-.15.86-.16,1.09h-.03c-.1-.7-.19-1.26-.28-1.66l-.58-2.23h-1.37l1.43,5.04h1.48l.92-3.99h.03l.52,2.23.39,1.76h1.5ZM10.47,49.69l1.45-5.04h-1.35l-.6,2.23c-.03.13-.08.39-.15.76-.07.38-.12.67-.14.89h-.03c0-.08-.01-.2-.03-.34s-.04-.28-.07-.43c-.02-.15-.05-.28-.07-.41-.03-.13-.04-.23-.06-.29l-.59-2.42h-1.52l-.62,2.42-.07.38c-.09.5-.15.86-.16,1.09h-.03c-.1-.7-.19-1.26-.28-1.66l-.58-2.23h-1.37l1.43,5.04h1.48l.92-3.99h.03l.52,2.23.39,1.76h1.5Z" class="cls-8"></path>
    </g>
    <g class="cls-20">
      <path d="M79.95,57.35c-.11-.1-.16-.24-.16-.41,0-.24.09-.43.27-.55s.47-.19.87-.2l.51-.02v.35c0,.31-.09.55-.28.72s-.43.26-.74.26c-.21,0-.37-.05-.48-.15M82.29,58.07v-2.69c0-.47-.13-.82-.39-1.04s-.64-.33-1.15-.33c-.23,0-.47.03-.73.09s-.49.14-.71.26l.27.61c.17-.08.35-.15.54-.21s.38-.09.59-.09c.25,0,.43.06.55.19.12.13.18.32.18.57v.21l-.69.02c-.63.02-1.09.13-1.4.34-.3.21-.46.52-.46.93s.11.69.33.9.53.32.92.32c.3,0,.56-.04.75-.13s.39-.25.58-.5h.03l.17.56h.62ZM77.97,52.46h-.85v5.61h.85v-5.61ZM75.14,53.37c.08.08.2.12.36.12s.27-.04.35-.12c.08-.08.12-.2.12-.34,0-.15-.04-.27-.12-.35-.08-.08-.2-.12-.35-.12s-.27.04-.36.12c-.08.08-.12.2-.12.35s.04.26.12.34M75.91,54.09h-.85v3.99h.85v-3.99ZM74.04,56.45c-.07-.14-.18-.26-.33-.37s-.39-.22-.72-.35c-.39-.15-.65-.27-.76-.36-.12-.09-.18-.19-.18-.32,0-.25.22-.38.67-.38.29,0,.66.09,1.09.27l.27-.64c-.42-.19-.86-.29-1.33-.29s-.85.09-1.12.28c-.28.19-.41.45-.41.8,0,.28.08.52.24.69.16.18.47.36.93.53.24.09.42.17.55.25.13.07.23.14.29.21s.09.15.09.25c0,.32-.26.47-.78.47-.4,0-.84-.11-1.31-.32v.73c.32.16.75.24,1.28.24s.94-.1,1.22-.31.43-.51.43-.9c0-.19-.04-.36-.11-.5M70.45,56.43c-.07-.14-.18-.26-.33-.37s-.39-.22-.72-.35c-.39-.15-.65-.27-.76-.36-.12-.09-.18-.19-.18-.32,0-.25.22-.38.67-.38.29,0,.66.09,1.09.27l.27-.64c-.42-.19-.86-.29-1.33-.29s-.85.09-1.12.28c-.27.19-.41.45-.41.8,0,.28.08.52.24.69.16.18.47.36.93.53.24.09.42.17.55.25.13.07.23.14.29.21s.09.15.09.25c0,.32-.26.47-.78.47-.4,0-.84-.11-1.31-.32v.73c.32.16.75.24,1.28.24s.94-.1,1.22-.31.43-.51.43-.9c0-.19-.04-.36-.11-.5M63.21,53.93c.26-.33.65-.5,1.17-.5s.9.17,1.16.5.39.83.39,1.47-.13,1.15-.39,1.48-.65.5-1.16.5-.9-.17-1.16-.5c-.26-.34-.39-.83-.39-1.48s.13-1.14.4-1.47M66.22,53.4c-.43-.47-1.03-.71-1.82-.71s-1.41.23-1.84.7c-.43.47-.64,1.14-.64,2.01s.21,1.54.64,2.01,1.04.71,1.83.71,1.4-.24,1.82-.72c.43-.48.64-1.14.64-2s-.21-1.53-.64-2M50.66,57.29c-.1-.1-.15-.25-.15-.45v-2.14h1.14v-.64h-1.14v-.89h-.52l-.29.84-.58.31v.38h.54v2.15c0,.85.4,1.27,1.21,1.27.16,0,.31-.01.46-.04s.27-.06.36-.1v-.64c-.21.07-.41.1-.62.1-.17,0-.3-.05-.4-.15M48.41,55.45c0-.97-.48-1.46-1.45-1.46-.27,0-.51.05-.72.16-.21.11-.37.26-.48.45h-.05c.03-.26.04-.5.04-.73v-1.43h-.85v5.61h.85v-1.98c0-.5.08-.86.25-1.07s.43-.32.79-.32c.27,0,.47.08.59.23.12.15.19.38.19.69v2.45h.85v-2.6h-.01ZM41.58,54.74c.13-.14.31-.21.56-.21s.43.07.55.21.18.34.18.6c0,.52-.25.79-.74.79-.24,0-.42-.07-.55-.2s-.19-.33-.19-.58c0-.27.06-.47.19-.61M41.24,58.21c.14-.11.34-.17.58-.17h.64c.34,0,.57.04.69.11s.19.2.19.37c0,.22-.11.39-.34.53-.23.13-.57.2-1.03.2-.3,0-.53-.05-.69-.15-.17-.1-.25-.24-.25-.42,0-.19.07-.35.21-.46M42.78,54.07c-.06-.02-.16-.03-.28-.05s-.24-.02-.35-.02c-.51,0-.89.12-1.17.36-.27.24-.41.57-.41,1.01,0,.27.06.5.19.71.13.2.3.35.5.43-.17.1-.29.2-.37.31-.08.1-.13.23-.13.38,0,.12.04.23.11.34.07.11.17.18.28.23-.28.06-.5.18-.65.35-.16.17-.23.37-.23.62,0,.36.14.63.43.82s.7.29,1.24.29c.7,0,1.24-.12,1.62-.37s.56-.59.56-1.05c0-.35-.11-.62-.34-.81-.23-.19-.56-.28-1-.28h-.7c-.23,0-.39-.02-.47-.07-.09-.05-.13-.11-.13-.21,0-.15.09-.28.27-.4.1.02.22.03.35.03.5,0,.89-.12,1.17-.35.28-.24.43-.56.43-.97,0-.14-.02-.27-.06-.39s-.09-.23-.16-.31l.68-.13v-.46h-1.38,0ZM38.81,53.35c.08.08.2.12.36.12s.26-.04.35-.12c.08-.08.13-.2.13-.34,0-.15-.04-.27-.13-.35-.08-.08-.2-.12-.35-.12s-.27.04-.36.12c-.08.08-.12.2-.12.35s.04.26.12.34M39.58,54.07h-.85v3.99h.85s0-3.99,0-3.99ZM36.88,54.21c-.21.14-.39.33-.52.57h-.04l-.11-.7h-.66v3.99h.85v-2.09c0-.35.11-.64.32-.86s.49-.33.83-.33c.13,0,.25,0,.37.04l.08-.79c-.11-.02-.25-.04-.42-.04-.25,0-.47.07-.69.21M32.59,58.06l-.15.38c-.17.47-.45.71-.86.71-.16,0-.31-.01-.44-.04v.67c.18.04.36.06.55.06.72,0,1.24-.42,1.55-1.25l1.71-4.52h-.92c-.55,1.6-.86,2.5-.92,2.69-.06.19-.1.35-.12.48h-.03c-.04-.28-.12-.59-.25-.91l-.81-2.26h-.92l1.6,3.99h0ZM29.5,55.03c.16.23.24.57.24,1.02s-.08.79-.24,1.03-.39.36-.68.36c-.35,0-.6-.11-.75-.33s-.23-.57-.23-1.06v-.13c0-.43.08-.75.23-.95.16-.2.4-.3.74-.3.31,0,.54.11.69.34M30.18,57.56c.28-.37.42-.87.42-1.53s-.14-1.16-.42-1.52-.67-.54-1.16-.54c-.53,0-.93.2-1.19.61h-.04c-.06-.28-.1-.46-.12-.53h-.69v5.77h.85v-1.63c0-.07-.02-.28-.05-.61h.05c.28.36.67.55,1.18.55s.89-.18,1.17-.55M23.35,55.04c.16-.24.42-.35.77-.35.68,0,1.02.46,1.02,1.37s-.34,1.38-1.01,1.38-1.02-.46-1.02-1.38c0-.44.08-.78.24-1.01M25.51,54.56c-.34-.37-.79-.56-1.37-.56s-1.07.18-1.4.54-.5.87-.5,1.52c0,.42.08.78.23,1.1.15.32.37.56.66.73.29.17.62.25.99.25.6,0,1.06-.18,1.4-.55s.5-.87.5-1.53-.17-1.13-.51-1.5M20.75,53.55c.2.06.39.14.56.22l.31-.72c-.46-.23-.96-.34-1.49-.34s-.96.11-1.34.33-.67.53-.87.95c-.2.41-.3.89-.3,1.44,0,.87.21,1.54.62,2.01s1.01.7,1.78.7c.52,0,.99-.08,1.41-.24v-.74c-.23.07-.44.13-.65.17-.21.04-.43.07-.65.07-.52,0-.91-.17-1.19-.5-.27-.33-.41-.82-.41-1.47s.14-1.1.43-1.45c.28-.35.67-.53,1.17-.53.22,0,.43.03.63.1" class="cls-9"></path>
    </g>
  </g>
</svg>