<svg viewBox="0 0 848 404.5" xmlns:xlink="http://www.w3.org/1999/xlink" xmlns="http://www.w3.org/2000/svg">
  <defs>
    <style>
      .cls-1 {
        stroke: #cdd2e6;
        stroke-width: .4px;
      }

      .cls-1, .cls-2, .cls-3 {
        fill: none;
      }

      .cls-2 {
        stroke: #949fd0;
        stroke-miterlimit: 10;
        stroke-width: 3px;
      }

      .cls-4 {
        fill: #cdd2e6;
      }

      .cls-5 {
        fill: #ccd4ec;
      }

      .cls-6 {
        clip-path: url(#clippath-2);
      }

      .cls-7 {
        clip-path: url(#clippath-6);
      }

      .cls-8 {
        fill: #9ca4ce;
      }

      .cls-9 {
        clip-path: url(#clippath-7);
      }

      .cls-10 {
        clip-path: url(#clippath-1);
      }

      .cls-11 {
        clip-path: url(#clippath-4);
      }

      .cls-12 {
        clip-path: url(#clippath-9);
      }

      .cls-13 {
        clip-path: url(#clippath);
      }

      .cls-14 {
        fill: #54565a;
      }

      .cls-15 {
        clip-path: url(#clippath-3);
      }

      .cls-16 {
        clip-path: url(#clippath-8);
      }

      .cls-17 {
        clip-path: url(#clippath-5);
      }

      .cls-18 {
        fill: #949fd0;
      }

      .cls-19 {
        fill: url(#linear-gradient);
      }

      .cls-20 {
        clip-path: url(#clippath-10);
      }
    </style>
    <clipPath id="clippath">
      <rect height="59.84" width="100" y="9.52" x="11.61" class="cls-3"></rect>
    </clipPath>
    <clipPath id="clippath-1">
      <rect height="59.84" width="100" y="9.52" x="11.61" class="cls-3"></rect>
    </clipPath>
    <clipPath id="clippath-2">
      <rect height="59.84" width="100" y="9.52" x="11.61" class="cls-3"></rect>
    </clipPath>
    <clipPath id="clippath-3">
      <path d="m27.77,15.64l52.26,10.41v.6l-50.05-8.61,4.36,4.8,45.69,4.5v.59c-14.65-1.01-29.14-1.99-43.79-3l3.35,3.68c13.52,0,26.92,0,40.44,0v.51h5.38v-1.79c0-1.39-1.11-2.53-2.47-2.53h-2.91v.56L22.23,9.52l5.53,6.12Z" class="cls-3"></path>
    </clipPath>
    <linearGradient gradientUnits="userSpaceOnUse" gradientTransform="translate(37479.28 34158.24) scale(44.22 -44.22)" y2="772.02" x2="-845.63" y1="772.02" x1="-847.06" id="linear-gradient">
      <stop stop-color="#fff" offset="0"></stop>
      <stop stop-color="#949fd1" offset="1"></stop>
    </linearGradient>
    <clipPath id="clippath-4">
      <rect height="59.84" width="100" y="9.52" x="11.61" class="cls-3"></rect>
    </clipPath>
    <clipPath id="clippath-5">
      <rect height="59.84" width="100" y="9.52" x="11.61" class="cls-3"></rect>
    </clipPath>
    <clipPath id="clippath-6">
      <rect height="59.84" width="100" y="9.52" x="11.61" class="cls-3"></rect>
    </clipPath>
    <clipPath id="clippath-7">
      <rect height="59.84" width="100" y="9.52" x="11.61" class="cls-3"></rect>
    </clipPath>
    <clipPath id="clippath-8">
      <rect height="59.84" width="100" y="9.52" x="11.61" class="cls-3"></rect>
    </clipPath>
    <clipPath id="clippath-9">
      <rect height="59.84" width="100" y="9.52" x="11.61" class="cls-3"></rect>
    </clipPath>
    <clipPath id="clippath-10">
      <rect height="59.84" width="100" y="9.52" x="11.61" class="cls-3"></rect>
    </clipPath>
  </defs>
  <g data-sanitized-data-name="Layer 3" data-name="Layer 3" id="Layer_3">
    <g>
      <g>
        <path d="m816.88,149h-347.91c-1.96,0-3.54,1.59-3.54,3.54v40.91c0,1.96,1.59,3.54,3.54,3.54h152.04c1.96,0,3.54,1.59,3.54,3.54v132.91c0,1.96,1.59,3.54,3.54,3.54h29.66c1.96,0,3.54-1.59,3.54-3.54v-132.91c0-1.96,1.59-3.54,3.54-3.54h152.04c1.96,0,3.54-1.59,3.54-3.54v-40.91c0-1.96-1.59-3.54-3.54-3.54Z" class="cls-14"></path>
        <rect ry="4.09" rx="4.09" height="38" width="284" y="110" x="500.96" class="cls-5"></rect>
        <g>
          <path d="m688.88,242.09c20.03,2.99,33.07,7.89,33.07,13.41,0,9.11-35.48,16.5-79.25,16.5s-79.25-7.39-79.25-16.5c0-7.13,21.72-13.2,52.13-15.51" class="cls-2"></path>
          <polygon points="694.02 248.05 689.75 242.26 695.55 238 691.28 237.35 685.49 241.61 689.75 247.4 694.02 248.05" class="cls-18"></polygon>
        </g>
      </g>
      <rect ry="4.09" rx="4.09" height="14" width="284" y="95.31" x="501" class="cls-18"></rect>
    </g>
    <g>
      <g>
        <path d="m409.7,149H61.79c-1.96,0-3.54,1.59-3.54,3.54v40.91c0,1.96,1.59,3.54,3.54,3.54h152.04c1.96,0,3.54,1.59,3.54,3.54v132.91c0,1.96,1.59,3.54,3.54,3.54h29.66c1.96,0,3.54-1.59,3.54-3.54v-132.91c0-1.96,1.59-3.54,3.54-3.54h152.04c1.96,0,3.54-1.59,3.54-3.54v-40.91c0-1.96-1.59-3.54-3.54-3.54Z" class="cls-14"></path>
        <rect ry="4.09" rx="4.09" height="38" width="284" y="110" x="93.78" class="cls-5"></rect>
        <g>
          <path d="m281.7,242.09c20.03,2.99,33.07,7.89,33.07,13.41,0,9.11-35.48,16.5-79.25,16.5s-79.25-7.39-79.25-16.5c0-7.13,21.72-13.2,52.13-15.51" class="cls-2"></path>
          <polygon points="286.84 248.05 282.58 242.26 288.37 238 284.1 237.35 278.31 241.61 282.57 247.4 286.84 248.05" class="cls-18"></polygon>
        </g>
      </g>
      <path d="m175.3,109.69h120.89l-.7-.96c-12.96-17.74-33.62-28.23-55.59-28.23h0l-4.32-1.59c-23.86-8.78-50.32,3.49-59.04,27.38l-1.24,3.4Z" class="cls-18"></path>
    </g>
    <g>
      <path d="m200.93,132.76c0,1.26-.46,2.24-1.37,2.94s-2.15,1.05-3.71,1.05c-1.69,0-3-.22-3.91-.65v-1.6c.59.25,1.22.44,1.91.59s1.37.21,2.05.21c1.11,0,1.94-.21,2.5-.63s.84-1,.84-1.75c0-.49-.1-.9-.3-1.22s-.53-.61-1-.87-1.17-.57-2.12-.91c-1.33-.48-2.28-1.04-2.85-1.69s-.85-1.5-.85-2.55c0-1.1.41-1.98,1.24-2.63s1.92-.98,3.28-.98,2.72.26,3.92.78l-.52,1.45c-1.18-.49-2.32-.74-3.44-.74-.88,0-1.57.19-2.06.57s-.74.9-.74,1.57c0,.49.09.9.27,1.22s.49.61.92.87,1.1.56,1.99.87c1.5.53,2.53,1.11,3.09,1.72s.84,1.41.84,2.38Z"></path>
      <path d="m205.13,125.85v6.94c0,.87.2,1.52.6,1.95s1.02.64,1.87.64c1.12,0,1.94-.31,2.46-.92s.78-1.61.78-3v-5.62h1.62v10.7h-1.34l-.23-1.44h-.09c-.33.53-.79.93-1.38,1.21s-1.26.42-2.02.42c-1.3,0-2.28-.31-2.92-.93s-.97-1.61-.97-2.97v-7h1.64Z"></path>
      <path d="m220.86,125.68c1.41,0,2.5.48,3.28,1.44s1.17,2.32,1.17,4.08-.39,3.12-1.18,4.1-1.87,1.46-3.27,1.46c-.7,0-1.33-.13-1.91-.39s-1.06-.65-1.45-1.19h-.12l-.34,1.38h-1.16v-15.2h1.62v3.69c0,.83-.03,1.57-.08,2.23h.08c.75-1.07,1.88-1.6,3.36-1.6Zm-.23,1.36c-1.11,0-1.9.32-2.39.95s-.73,1.7-.73,3.21.25,2.58.75,3.23,1.31.97,2.41.97c1,0,1.74-.36,2.23-1.09s.73-1.77.73-3.13-.24-2.43-.73-3.12-1.24-1.03-2.27-1.03Z"></path>
      <path d="m235.04,133.64c0,1-.37,1.76-1.11,2.3s-1.78.81-3.12.81c-1.42,0-2.53-.22-3.32-.67v-1.5c.51.26,1.07.47,1.66.62s1.16.22,1.7.22c.85,0,1.5-.14,1.95-.41s.68-.68.68-1.24c0-.42-.18-.77-.54-1.07s-1.07-.65-2.11-1.05c-1-.37-1.7-.69-2.12-.97s-.73-.59-.94-.94-.31-.77-.31-1.26c0-.87.35-1.56,1.06-2.07s1.68-.76,2.92-.76c1.15,0,2.28.23,3.38.7l-.58,1.32c-1.07-.44-2.05-.66-2.92-.66-.77,0-1.35.12-1.74.36s-.59.57-.59,1c0,.29.07.53.22.73s.38.39.71.58.95.45,1.88.79c1.27.46,2.13.93,2.57,1.4s.67,1.06.67,1.77Z"></path>
      <path d="m241.13,135.41c.29,0,.56-.02.83-.06s.48-.09.63-.13v1.24c-.18.08-.43.15-.78.21s-.65.08-.92.08c-2.07,0-3.11-1.09-3.11-3.27v-6.37h-1.53v-.78l1.53-.67.68-2.29h.94v2.48h3.11v1.26h-3.11v6.3c0,.64.15,1.14.46,1.48s.73.52,1.26.52Z"></path>
      <path d="m249.62,125.66c.48,0,.9.04,1.28.12l-.22,1.5c-.44-.1-.83-.15-1.17-.15-.87,0-1.61.35-2.22,1.05s-.92,1.58-.92,2.63v5.74h-1.62v-10.7h1.34l.19,1.98h.08c.4-.7.88-1.23,1.44-1.61s1.17-.57,1.85-.57Z"></path>
      <path d="m259.48,136.56l-.32-1.52h-.08c-.53.67-1.07,1.12-1.6,1.36s-1.19.36-1.99.36c-1.06,0-1.89-.27-2.5-.82s-.9-1.32-.9-2.33c0-2.16,1.73-3.29,5.19-3.4l1.82-.06v-.66c0-.84-.18-1.46-.54-1.86s-.94-.6-1.73-.6c-.89,0-1.9.27-3.03.82l-.5-1.24c.53-.29,1.11-.51,1.73-.67s1.26-.24,1.89-.24c1.28,0,2.22.28,2.84.85s.92,1.47.92,2.72v7.3h-1.2Zm-3.66-1.14c1.01,0,1.8-.28,2.38-.83s.86-1.33.86-2.32v-.97l-1.62.07c-1.29.05-2.22.25-2.79.6s-.85.91-.85,1.66c0,.59.18,1.03.53,1.34s.85.46,1.49.46Z"></path>
      <path d="m267.48,135.41c.29,0,.56-.02.83-.06s.48-.09.63-.13v1.24c-.18.08-.43.15-.78.21s-.65.08-.92.08c-2.07,0-3.11-1.09-3.11-3.27v-6.37h-1.53v-.78l1.53-.67.68-2.29h.94v2.48h3.11v1.26h-3.11v6.3c0,.64.15,1.14.46,1.48s.73.52,1.26.52Z"></path>
      <path d="m275.61,136.75c-1.58,0-2.83-.48-3.75-1.45s-1.37-2.3-1.37-4.01.42-3.1,1.27-4.11,1.99-1.52,3.42-1.52c1.34,0,2.4.44,3.18,1.32s1.17,2.05,1.17,3.49v1.03h-7.37c.03,1.26.35,2.21.95,2.86s1.45.98,2.54.98c1.15,0,2.29-.24,3.42-.72v1.45c-.57.25-1.12.42-1.63.53s-1.13.16-1.85.16Zm-.44-9.74c-.86,0-1.54.28-2.06.84s-.81,1.33-.9,2.32h5.6c0-1.02-.23-1.81-.68-2.35s-1.11-.82-1.95-.82Z"></path>
    </g>
    <g>
      <path d="m169.19,365.7v5.94h-1.66v-14.28h3.92c1.75,0,3.04.34,3.88,1.01s1.25,1.68,1.25,3.03c0,1.89-.96,3.16-2.87,3.83l3.88,6.42h-1.96l-3.46-5.94h-2.98Zm0-1.43h2.28c1.17,0,2.03-.23,2.58-.7s.82-1.16.82-2.09-.28-1.62-.83-2.04-1.45-.62-2.68-.62h-2.16v5.46Z"></path>
      <path d="m188.89,366.28c0,1.74-.44,3.11-1.32,4.09s-2.09,1.47-3.64,1.47c-.96,0-1.81-.22-2.55-.67s-1.32-1.09-1.72-1.93-.61-1.82-.61-2.95c0-1.74.44-3.1,1.31-4.08s2.08-1.46,3.63-1.46,2.69.5,3.57,1.49,1.32,2.34,1.32,4.04Zm-8.15,0c0,1.37.27,2.41.82,3.12s1.35,1.07,2.41,1.07,1.87-.36,2.42-1.07.83-1.76.83-3.13-.28-2.39-.83-3.1-1.36-1.06-2.44-1.06-1.86.35-2.4,1.04-.81,1.73-.81,3.12Z"></path>
      <path d="m195.18,370.49c.29,0,.56-.02.83-.06s.48-.09.63-.13v1.24c-.18.08-.43.15-.78.21s-.65.08-.92.08c-2.07,0-3.11-1.09-3.11-3.27v-6.37h-1.53v-.78l1.53-.67.68-2.29h.94v2.48h3.11v1.26h-3.11v6.3c0,.64.15,1.14.46,1.48s.73.52,1.26.52Z"></path>
      <path d="m205.37,371.64l-.32-1.52h-.08c-.53.67-1.07,1.12-1.6,1.36s-1.19.36-1.99.36c-1.06,0-1.89-.27-2.5-.82s-.9-1.32-.9-2.33c0-2.16,1.73-3.29,5.19-3.4l1.82-.06v-.66c0-.84-.18-1.46-.54-1.86s-.94-.6-1.73-.6c-.89,0-1.9.27-3.03.82l-.5-1.24c.53-.29,1.11-.51,1.73-.67s1.26-.24,1.89-.24c1.28,0,2.22.28,2.84.85s.92,1.47.92,2.72v7.3h-1.2Zm-3.66-1.14c1.01,0,1.8-.28,2.38-.83s.86-1.33.86-2.32v-.97l-1.62.07c-1.29.05-2.22.25-2.79.6s-.85.91-.85,1.66c0,.59.18,1.03.53,1.34s.85.46,1.49.46Z"></path>
      <path d="m213.37,370.49c.29,0,.56-.02.83-.06s.48-.09.63-.13v1.24c-.18.08-.43.15-.78.21s-.65.08-.92.08c-2.07,0-3.11-1.09-3.11-3.27v-6.37h-1.53v-.78l1.53-.67.68-2.29h.94v2.48h3.11v1.26h-3.11v6.3c0,.64.15,1.14.46,1.48s.73.52,1.26.52Z"></path>
      <path d="m216.83,358.03c0-.37.09-.64.27-.82s.41-.26.68-.26.49.09.67.26.28.45.28.81-.09.64-.28.82-.41.27-.67.27-.5-.09-.68-.27-.27-.45-.27-.82Zm1.76,13.6h-1.62v-10.7h1.62v10.7Z"></path>
      <path d="m229.35,371.64v-6.92c0-.87-.2-1.52-.6-1.95s-1.02-.64-1.87-.64c-1.12,0-1.94.3-2.46.91s-.78,1.6-.78,3v5.62h-1.62v-10.7h1.32l.26,1.46h.08c.33-.53.8-.94,1.4-1.23s1.27-.43,2-.43c1.29,0,2.26.31,2.91.93s.98,1.62.98,2.98v6.98h-1.62Z"></path>
      <path d="m243.07,360.93v1.03l-1.98.23c.18.23.34.53.49.89s.21.78.21,1.25c0,1.05-.36,1.88-1.07,2.51s-1.7.94-2.95.94c-.32,0-.62-.03-.9-.08-.69.36-1.04.82-1.04,1.38,0,.29.12.51.36.65s.65.21,1.24.21h1.89c1.16,0,2.05.24,2.67.73s.93,1.2.93,2.13c0,1.19-.48,2.09-1.43,2.71-.95.62-2.34.93-4.16.93-1.4,0-2.48-.26-3.24-.78-.76-.52-1.14-1.26-1.14-2.21,0-.65.21-1.21.62-1.69s1-.8,1.76-.97c-.27-.12-.5-.32-.69-.58s-.28-.56-.28-.91c0-.39.1-.73.31-1.03s.54-.58.99-.85c-.55-.23-1-.62-1.35-1.16s-.52-1.17-.52-1.88c0-1.17.35-2.08,1.05-2.71s1.7-.95,2.99-.95c.56,0,1.06.06,1.51.2h3.7Zm-8.54,12.5c0,.58.24,1.02.73,1.32.49.3,1.19.45,2.1.45,1.36,0,2.37-.2,3.02-.61.65-.41.98-.96.98-1.66,0-.58-.18-.98-.54-1.21s-1.03-.34-2.02-.34h-1.94c-.74,0-1.31.18-1.72.53-.41.35-.62.86-.62,1.51Zm.88-9.07c0,.75.21,1.31.63,1.7s1.01.58,1.77.58c1.58,0,2.37-.77,2.37-2.3s-.8-2.41-2.4-2.41c-.76,0-1.35.21-1.76.62s-.62,1.02-.62,1.83Z"></path>
      <path d="m256.82,358.64c-1.57,0-2.81.52-3.72,1.57s-1.36,2.48-1.36,4.29.44,3.31,1.31,4.33,2.12,1.53,3.75,1.53c1,0,2.13-.18,3.41-.54v1.46c-.99.37-2.21.56-3.66.56-2.1,0-3.73-.64-4.87-1.91s-1.71-3.09-1.71-5.44c0-1.47.28-2.76.83-3.87s1.34-1.96,2.38-2.56,2.26-.9,3.67-.9c1.5,0,2.81.27,3.93.82l-.7,1.43c-1.08-.51-2.16-.76-3.24-.76Z"></path>
      <path d="m270.4,371.64v-6.92c0-.87-.2-1.52-.6-1.95s-1.02-.64-1.87-.64c-1.13,0-1.95.31-2.47.92s-.78,1.61-.78,3.01v5.6h-1.62v-15.2h1.62v4.6c0,.55-.03,1.01-.08,1.38h.1c.32-.51.77-.92,1.36-1.22s1.26-.44,2.02-.44c1.31,0,2.29.31,2.94.93s.98,1.61.98,2.96v6.98h-1.62Z"></path>
      <path d="m276.87,360.93v6.94c0,.87.2,1.52.6,1.95s1.02.64,1.87.64c1.12,0,1.94-.31,2.46-.92s.78-1.61.78-3v-5.62h1.62v10.7h-1.34l-.23-1.44h-.09c-.33.53-.79.93-1.38,1.21s-1.26.42-2.02.42c-1.3,0-2.28-.31-2.92-.93s-.97-1.61-.97-2.97v-7h1.64Z"></path>
      <path d="m291.9,371.83c-1.55,0-2.75-.48-3.6-1.43s-1.27-2.3-1.27-4.05.43-3.17,1.29-4.15,2.09-1.46,3.69-1.46c.51,0,1.03.06,1.54.17s.92.24,1.21.39l-.5,1.38c-.36-.14-.75-.26-1.17-.36s-.8-.14-1.12-.14c-2.17,0-3.26,1.39-3.26,4.16,0,1.31.27,2.32.8,3.03s1.32,1.05,2.36,1.05c.89,0,1.81-.19,2.74-.58v1.44c-.72.37-1.62.56-2.71.56Z"></path>
      <path d="m298.75,366.16c.28-.4.71-.92,1.28-1.56l3.46-3.66h1.92l-4.34,4.56,4.64,6.14h-1.96l-3.78-5.06-1.22,1.05v4h-1.6v-15.2h1.6v8.06c0,.36-.03.91-.08,1.66h.08Z"></path>
    </g>
    <g>
      <path d="m279.8,35.5c0,2.36-.64,4.16-1.92,5.41s-3.12,1.87-5.52,1.87h-3.96v-14.28h4.38c2.22,0,3.95.62,5.18,1.85s1.85,2.95,1.85,5.16Zm-1.76.06c0-1.86-.47-3.27-1.4-4.21s-2.32-1.42-4.17-1.42h-2.41v11.41h2.02c1.98,0,3.47-.49,4.46-1.46s1.49-2.41,1.49-4.32Z"></path>
      <path d="m287.26,42.97c-1.58,0-2.83-.48-3.75-1.45s-1.37-2.3-1.37-4.01.42-3.1,1.27-4.11,1.99-1.52,3.42-1.52c1.34,0,2.4.44,3.18,1.32s1.17,2.05,1.17,3.49v1.03h-7.37c.03,1.26.35,2.21.95,2.86s1.45.98,2.54.98c1.15,0,2.29-.24,3.42-.72v1.45c-.57.25-1.12.42-1.63.53s-1.13.16-1.85.16Zm-.44-9.74c-.86,0-1.54.28-2.06.84s-.81,1.33-.9,2.32h5.6c0-1.02-.23-1.81-.68-2.35s-1.11-.82-1.95-.82Z"></path>
      <path d="m298.94,42.97c-.7,0-1.33-.13-1.91-.39s-1.06-.65-1.45-1.19h-.12c.08.62.12,1.22.12,1.78v4.4h-1.62v-15.51h1.32l.22,1.46h.08c.42-.59.9-1.01,1.46-1.27s1.19-.39,1.9-.39c1.42,0,2.51.48,3.29,1.46s1.16,2.33,1.16,4.08-.39,3.12-1.18,4.1-1.87,1.46-3.27,1.46Zm-.23-9.72c-1.09,0-1.88.3-2.37.91s-.74,1.57-.75,2.89v.36c0,1.5.25,2.58.75,3.23s1.31.97,2.41.97c.92,0,1.65-.37,2.17-1.12s.79-1.78.79-3.1-.26-2.36-.79-3.07-1.26-1.07-2.21-1.07Z"></path>
      <path d="m315.46,37.42c0,1.74-.44,3.11-1.32,4.09s-2.09,1.47-3.64,1.47c-.96,0-1.81-.22-2.55-.67s-1.32-1.09-1.72-1.93-.61-1.82-.61-2.95c0-1.74.44-3.1,1.31-4.08s2.08-1.46,3.63-1.46,2.69.5,3.57,1.49,1.32,2.34,1.32,4.04Zm-8.15,0c0,1.37.27,2.41.82,3.12s1.35,1.07,2.41,1.07,1.87-.36,2.42-1.07.83-1.76.83-3.13-.28-2.39-.83-3.1-1.36-1.06-2.44-1.06-1.86.35-2.4,1.04-.81,1.73-.81,3.12Z"></path>
      <path d="m325.2,39.86c0,1-.37,1.76-1.11,2.3s-1.78.81-3.12.81c-1.42,0-2.53-.22-3.32-.67v-1.5c.51.26,1.07.47,1.66.62s1.16.22,1.7.22c.85,0,1.5-.14,1.95-.41s.68-.68.68-1.24c0-.42-.18-.77-.54-1.07s-1.07-.65-2.11-1.05c-1-.37-1.7-.69-2.12-.97s-.73-.59-.94-.94-.31-.77-.31-1.26c0-.87.35-1.56,1.06-2.07s1.68-.76,2.92-.76c1.15,0,2.28.23,3.38.7l-.58,1.32c-1.07-.44-2.05-.66-2.92-.66-.77,0-1.35.12-1.74.36s-.59.57-.59,1c0,.29.07.53.22.73s.38.39.71.58.95.45,1.88.79c1.27.46,2.13.93,2.57,1.4s.67,1.06.67,1.77Z"></path>
      <path d="m327.7,29.17c0-.37.09-.64.27-.82s.41-.26.68-.26.49.09.67.26.28.45.28.81-.09.64-.28.82-.41.27-.67.27-.5-.09-.68-.27-.27-.45-.27-.82Zm1.76,13.6h-1.62v-10.7h1.62v10.7Z"></path>
      <path d="m336.36,41.64c.29,0,.56-.02.83-.06s.48-.09.63-.13v1.24c-.18.08-.43.15-.78.21s-.65.08-.92.08c-2.07,0-3.11-1.09-3.11-3.27v-6.37h-1.53v-.78l1.53-.67.68-2.29h.94v2.48h3.11v1.26h-3.11v6.3c0,.64.15,1.14.46,1.48s.73.52,1.26.52Z"></path>
      <path d="m344.48,42.97c-1.58,0-2.83-.48-3.75-1.45s-1.37-2.3-1.37-4.01.42-3.1,1.27-4.11,1.99-1.52,3.42-1.52c1.34,0,2.4.44,3.18,1.32s1.17,2.05,1.17,3.49v1.03h-7.37c.03,1.26.35,2.21.95,2.86s1.45.98,2.54.98c1.15,0,2.29-.24,3.42-.72v1.45c-.57.25-1.12.42-1.63.53s-1.13.16-1.85.16Zm-.44-9.74c-.86,0-1.54.28-2.06.84s-.81,1.33-.9,2.32h5.6c0-1.02-.23-1.81-.68-2.35s-1.11-.82-1.95-.82Z"></path>
      <path d="m358.47,41.34h-.09c-.75,1.09-1.87,1.63-3.36,1.63-1.4,0-2.49-.48-3.27-1.44s-1.17-2.32-1.17-4.08.39-3.13,1.17-4.11,1.87-1.46,3.26-1.46,2.57.53,3.34,1.58h.13l-.07-.77-.04-.75v-4.36h1.62v15.2h-1.32l-.21-1.44Zm-3.24.27c1.11,0,1.91-.3,2.41-.9s.75-1.57.75-2.92v-.34c0-1.52-.25-2.6-.76-3.25s-1.31-.97-2.42-.97c-.95,0-1.68.37-2.18,1.11s-.76,1.78-.76,3.13.25,2.4.75,3.1,1.24,1.04,2.21,1.04Z"></path>
      <path d="m376.93,38.98c0,1.26-.46,2.24-1.37,2.94s-2.15,1.05-3.71,1.05c-1.69,0-3-.22-3.91-.65v-1.6c.59.25,1.22.44,1.91.59s1.37.21,2.05.21c1.11,0,1.94-.21,2.5-.63s.84-1,.84-1.75c0-.49-.1-.9-.3-1.22s-.53-.61-1-.87-1.17-.57-2.12-.91c-1.33-.48-2.28-1.04-2.85-1.69s-.85-1.5-.85-2.55c0-1.1.41-1.98,1.24-2.63s1.92-.98,3.28-.98,2.72.26,3.92.78l-.52,1.45c-1.18-.49-2.32-.74-3.44-.74-.88,0-1.57.19-2.06.57s-.74.9-.74,1.57c0,.49.09.9.27,1.22s.49.61.92.87,1.1.56,1.99.87c1.5.53,2.53,1.11,3.09,1.72s.84,1.41.84,2.38Z"></path>
      <path d="m388.85,37.42c0,1.74-.44,3.11-1.32,4.09s-2.09,1.47-3.64,1.47c-.96,0-1.81-.22-2.55-.67s-1.32-1.09-1.72-1.93-.61-1.82-.61-2.95c0-1.74.44-3.1,1.31-4.08s2.08-1.46,3.63-1.46,2.69.5,3.57,1.49,1.32,2.34,1.32,4.04Zm-8.15,0c0,1.37.27,2.41.82,3.12s1.35,1.07,2.41,1.07,1.87-.36,2.42-1.07.83-1.76.83-3.13-.28-2.39-.83-3.1-1.36-1.06-2.44-1.06-1.86.35-2.4,1.04-.81,1.73-.81,3.12Z"></path>
      <path d="m393.31,42.78h-1.62v-15.2h1.62v15.2Z"></path>
      <path d="m398.27,32.07v6.94c0,.87.2,1.52.6,1.95s1.02.64,1.87.64c1.12,0,1.94-.31,2.46-.92s.78-1.61.78-3v-5.62h1.62v10.7h-1.34l-.23-1.44h-.09c-.33.53-.79.93-1.38,1.21s-1.26.42-2.02.42c-1.3,0-2.28-.31-2.92-.93s-.97-1.61-.97-2.97v-7h1.64Z"></path>
      <path d="m412.48,41.64c.29,0,.56-.02.83-.06s.48-.09.63-.13v1.24c-.18.08-.43.15-.78.21s-.65.08-.92.08c-2.07,0-3.11-1.09-3.11-3.27v-6.37h-1.53v-.78l1.53-.67.68-2.29h.94v2.48h3.11v1.26h-3.11v6.3c0,.64.15,1.14.46,1.48s.73.52,1.26.52Z"></path>
      <path d="m415.95,29.17c0-.37.09-.64.27-.82s.41-.26.68-.26.49.09.67.26.28.45.28.81-.09.64-.28.82-.41.27-.67.27-.5-.09-.68-.27-.27-.45-.27-.82Zm1.76,13.6h-1.62v-10.7h1.62v10.7Z"></path>
      <path d="m430.38,37.42c0,1.74-.44,3.11-1.32,4.09s-2.09,1.47-3.64,1.47c-.96,0-1.81-.22-2.55-.67s-1.32-1.09-1.72-1.93-.61-1.82-.61-2.95c0-1.74.44-3.1,1.31-4.08s2.08-1.46,3.63-1.46,2.69.5,3.57,1.49,1.32,2.34,1.32,4.04Zm-8.15,0c0,1.37.27,2.41.82,3.12s1.35,1.07,2.41,1.07,1.87-.36,2.42-1.07.83-1.76.83-3.13-.28-2.39-.83-3.1-1.36-1.06-2.44-1.06-1.86.35-2.4,1.04-.81,1.73-.81,3.12Z"></path>
      <path d="m440.55,42.78v-6.92c0-.87-.2-1.52-.6-1.95s-1.02-.64-1.87-.64c-1.12,0-1.94.3-2.46.91s-.78,1.6-.78,3v5.62h-1.62v-10.7h1.32l.26,1.46h.08c.33-.53.8-.94,1.4-1.23s1.27-.43,2-.43c1.29,0,2.26.31,2.91.93s.98,1.62.98,2.98v6.98h-1.62Z"></path>
    </g>
    <path d="m235.78,12.59l-10.54,20.98c-3.7,7.37-2.12,16.3,3.89,21.95h0c3.69,3.47,9.47,3.32,12.98-.32h0c5.36-5.56,6.78-13.83,3.58-20.86l-9.92-21.76Z" class="cls-18"></path>
  </g>
  <g data-sanitized-data-name="Water Mark" data-name="Water Mark" id="Water_Mark">
    <g>
      <g class="cls-13">
        <circle r="2.65" cy="65.4" cx="68.6" class="cls-1"></circle>
      </g>
      <g class="cls-10">
        <path d="m69.47,63.66c-.27-.13-.54-.19-.83-.19-.34,0-.65.09-.95.26-.29.17-.52.4-.67.69-.16.28-.24.61-.24.97,0,.57.17,1.03.52,1.39s.79.54,1.33.54c.29,0,.55-.05.78-.15s.47-.29.73-.55l-.45-.49c-.19.2-.37.34-.53.41-.16.08-.33.11-.53.11-.23,0-.43-.05-.61-.16-.19-.11-.33-.26-.43-.45s-.15-.41-.15-.65c0-.35.11-.65.34-.89.23-.24.51-.36.84-.36.39,0,.75.18,1.06.53l.46-.47c-.19-.24-.42-.42-.69-.55" class="cls-4"></path>
      </g>
      <g class="cls-6">
        <path d="m106.62,42.48c0,.67-.19,2.26-1.42,3.25-1.23.99-2.6,1.23-3.94,1.05-1.33-.17-2.02-1.36-1.98-2.43.04-1.06.5-1.99,2.13-2.44,1.63-.44,3.51-.67,5.22-1.46v2.02Zm.5-12.02c-3.99-.91-7.2-.39-8.8.43s-3.27,2.3-3.42,4.67h5.11s.57-1.37,2.75-1.41c2.18-.04,3.52.47,3.75,1.44.23.97-.58,1.72-1.92,2.05-1.33.33-3.46.56-4.95.87-1.49.31-4.18,1.43-4.84,3.23-.66,1.8-.68,4.24.06,5.9.74,1.66,3.19,3.39,6.44,3.29,3.25-.1,5.86-.31,7.78-2.05s2.52-3.56,2.52-5.44.02-7.6.02-8.24-.5-3.83-4.49-4.74" class="cls-8"></path>
      </g>
      <g class="cls-15">
        <rect height="19.6" width="63.17" y="9.52" x="22.23" class="cls-19"></rect>
      </g>
      <g class="cls-11">
        <path d="m90.05,24.89h-2.91v26.04h5.38v-23.57c0-1.36-1.11-2.47-2.47-2.47" class="cls-8"></path>
      </g>
      <g class="cls-17">
        <path d="m82.93,30.79h-2.84v20.14h5.26v-17.72c0-1.33-1.09-2.42-2.42-2.42" class="cls-8"></path>
      </g>
      <g class="cls-7">
        <path d="m75.04,39.89c-1.82-1.1-4.06-1.45-6.73-2.11-2.67-.66-3.31-1.34-3.32-1.98,0-.64.37-1.3,1.13-1.49.76-.19,1.99-.35,3.27-.06,1.28.29,1.94,1.53,2.26,1.84.31.31.88.54,1.27.54h3.68c-.13-2.19-.81-3.8-2.4-4.96-1.59-1.16-3.54-1.82-7.53-1.59-3.99.23-6.11,2.28-6.79,4.62-.68,2.34.04,4.74,1.92,5.96,1.88,1.22,4.99,1.84,6.89,2.24,1.9.41,3.37,1,3.27,2.26-.1,1.27-2.23,1.93-4.78,1.61-2.54-.32-2.8-2.93-2.8-2.93h-5.13c-.17,3.35,1.43,5.17,3.5,6.13,2.07.97,5.61,1.32,9.36.48,3.75-.83,5.19-3.5,5.2-5.86.02-2.36-.46-3.62-2.28-4.72" class="cls-8"></path>
      </g>
      <g class="cls-9">
        <path d="m55.23,39.89c-1.82-1.1-4.06-1.45-6.73-2.11-2.67-.66-3.31-1.34-3.32-1.98,0-.64.37-1.3,1.13-1.49.76-.19,1.99-.35,3.27-.06,1.28.29,1.94,1.53,2.26,1.84.31.31.88.54,1.27.54h3.68c-.13-2.19-.81-3.8-2.4-4.96-1.59-1.16-3.54-1.82-7.53-1.59-3.99.23-6.11,2.28-6.79,4.62-.68,2.34.04,4.74,1.92,5.96,1.88,1.22,4.99,1.84,6.89,2.24,1.9.41,3.37,1,3.27,2.26-.1,1.27-2.23,1.93-4.78,1.61-2.54-.32-2.8-2.93-2.8-2.93h-5.13c-.17,3.35,1.43,5.17,3.5,6.13,2.07.97,5.61,1.32,9.36.48,3.75-.83,5.19-3.5,5.2-5.86.02-2.36-.46-3.62-2.28-4.72" class="cls-8"></path>
      </g>
      <g class="cls-16">
        <path d="m24.51,46.29c-5.19,0-7.48-4.06-7.48-9.05s2.52-9.02,7.49-9.02,7.49,4.04,7.49,9.02-2.31,9.05-7.5,9.05m.01-22.74c-8.56,0-12.91,6.12-12.91,13.67s3.94,13.71,12.89,13.71,12.93-6.16,12.93-13.71-4.35-13.67-12.91-13.67" class="cls-8"></path>
      </g>
      <g class="cls-12">
        <path d="m108.81,59.26c.27-.06.53-.15.77-.27v-1.06c-.29.14-.58.24-.85.3-.27.06-.56.09-.86.09-.39,0-.69-.11-.91-.33-.22-.22-.33-.52-.35-.92h3.25v-.67c0-.72-.2-1.28-.6-1.68-.4-.41-.95-.61-1.66-.61s-1.33.23-1.75.69c-.42.46-.63,1.11-.63,1.96s.23,1.46.69,1.9c.46.45,1.09.67,1.9.67.39,0,.73-.03,1-.09m-.5-3.88c.17.19.26.45.27.79h-1.93c.02-.34.12-.6.28-.79.17-.18.39-.28.69-.28s.52.09.69.28m-3.98,1.74c-.09-.18-.22-.34-.41-.48-.18-.14-.47-.29-.87-.45-.44-.18-.73-.31-.86-.4-.13-.09-.2-.2-.2-.32,0-.22.2-.33.61-.33.23,0,.45.04.67.1.22.07.46.16.71.27l.41-.99c-.57-.26-1.16-.4-1.77-.4s-1.13.12-1.48.37c-.35.25-.52.59-.52,1.04,0,.26.04.48.12.66.08.18.21.34.4.48.18.14.47.29.85.45.27.11.49.21.65.3.16.09.28.16.34.23.07.07.1.16.1.26,0,.29-.25.43-.75.43-.24,0-.53-.04-.85-.12s-.61-.18-.86-.3v1.14c.23.1.47.17.73.22s.57.07.94.07c.72,0,1.25-.14,1.61-.41.36-.27.54-.66.54-1.18,0-.25-.04-.46-.13-.65m-4.83,2.14v-5.04h-1.38v2.37c0,.6-.09,1.02-.26,1.28-.17.26-.45.39-.83.39-.28,0-.49-.09-.62-.27-.13-.18-.19-.45-.19-.82v-2.95h-1.38v3.29c0,.6.15,1.05.45,1.37.3.32.75.48,1.34.48.35,0,.65-.06.92-.19.27-.13.48-.31.63-.54h.07l.18.64h1.06Zm-6.64-6.59l-2.46,6.59h1.25l2.46-6.59h-1.25Zm-6.35,4.06c0-.52.08-.91.25-1.15.17-.24.42-.36.76-.36.26,0,.45.09.57.27.12.18.18.46.18.82v2.95h1.38v-3.29c0-.65-.15-1.12-.44-1.41-.29-.29-.73-.44-1.3-.44-.33,0-.63.06-.89.19-.26.13-.46.31-.6.55h-.12c-.27-.49-.78-.74-1.53-.74-.33,0-.62.07-.88.2-.26.13-.45.31-.59.54h-.08l-.19-.65h-1.05v5.04h1.37v-2.37c0-.59.08-1.02.24-1.28.16-.26.41-.39.77-.39.26,0,.45.09.57.27.12.18.18.46.18.82v2.95h1.38v-2.53Zm-5.94-1.38c-.2-.39-.48-.7-.85-.91-.37-.21-.8-.32-1.28-.32-.78,0-1.38.23-1.81.69-.43.46-.65,1.1-.65,1.92,0,.53.1.99.3,1.39.2.4.48.7.85.91.37.21.8.32,1.28.32.77,0,1.38-.23,1.81-.69s.65-1.11.65-1.93c0-.53-.1-.99-.3-1.38m-2.95.26c.16-.25.43-.37.79-.37s.64.12.8.37c.16.25.24.62.24,1.12s-.08.88-.24,1.13c-.16.25-.43.38-.79.38s-.64-.13-.8-.38c-.16-.26-.25-.63-.25-1.13s.08-.88.24-1.13m-3.18,3.66c.23-.05.45-.15.67-.29v-1.18c-.23.15-.45.26-.68.33-.23.07-.47.11-.74.11-.72,0-1.07-.49-1.07-1.48s.36-1.52,1.07-1.52c.19,0,.37.03.56.08.19.06.39.13.6.21l.41-1.06c-.46-.23-.99-.34-1.57-.34-.8,0-1.41.23-1.84.68-.43.45-.64,1.11-.64,1.96,0,1.72.78,2.58,2.35,2.58.35,0,.63-.03.86-.08m-5.52-.09c.14.13.33.2.59.2s.44-.07.58-.2c.14-.14.21-.32.21-.56s-.07-.44-.21-.57c-.14-.13-.33-.2-.58-.2s-.45.06-.59.19c-.14.13-.2.32-.2.57s.07.43.21.57m-2.79-1.84c0,.3-.1.55-.29.73-.19.18-.45.28-.76.28-.45,0-.67-.19-.67-.58,0-.27.1-.47.29-.6.2-.13.49-.2.89-.22l.53-.02v.41Zm1.37,1.92v-3.36c0-.6-.18-1.05-.54-1.34-.36-.29-.88-.44-1.56-.44s-1.35.15-1.93.46l.46.93c.54-.24,1.02-.37,1.42-.37.52,0,.78.26.78.77v.22l-.87.03c-.76.03-1.32.17-1.69.42-.37.25-.56.65-.56,1.18s.14.91.42,1.18c.28.28.66.41,1.14.41.39,0,.71-.06.96-.17.25-.11.48-.32.72-.61h.04l.27.69h.96Zm-5.6-7.02h-1.38v7.02h1.38v-7.02Zm-2.81,1.98h-1.38v5.04h1.38v-5.04Zm-.69-.63c.25,0,.44-.06.56-.18.13-.12.19-.29.19-.5,0-.45-.25-.67-.75-.67s-.75.22-.75.67.25.68.75.68m-1.89,3.53c-.09-.18-.22-.34-.41-.48-.18-.14-.47-.29-.87-.45-.44-.18-.73-.31-.86-.4-.13-.09-.2-.2-.2-.32,0-.22.2-.33.61-.33.23,0,.45.04.67.1.22.07.46.16.71.27l.42-.99c-.57-.26-1.17-.4-1.77-.4-.64,0-1.13.12-1.48.37-.35.25-.52.59-.52,1.04,0,.26.04.48.12.66.08.18.21.34.4.48.18.14.47.29.85.45.27.11.49.21.65.3.16.09.28.16.34.23.07.07.1.16.1.26,0,.29-.25.43-.75.43-.24,0-.53-.04-.85-.12-.32-.08-.61-.18-.86-.3v1.14c.23.1.47.17.73.22s.57.07.94.07c.72,0,1.25-.14,1.61-.41.36-.27.54-.66.54-1.18,0-.25-.04-.46-.13-.65m-4.59,0c-.09-.18-.22-.34-.41-.48-.18-.14-.47-.29-.87-.45-.44-.18-.73-.31-.86-.4-.13-.09-.2-.2-.2-.32,0-.22.2-.33.61-.33.23,0,.45.04.67.1.22.07.46.16.71.27l.41-.99c-.57-.26-1.17-.4-1.77-.4-.64,0-1.13.12-1.48.37-.35.25-.52.59-.52,1.04,0,.26.04.48.12.66.08.18.22.34.4.48.18.14.47.29.86.45.27.11.49.21.65.3.16.09.28.16.34.23.07.07.1.16.1.26,0,.29-.25.43-.75.43-.24,0-.53-.04-.85-.12-.32-.08-.61-.18-.86-.3v1.14c.23.1.47.17.73.22.26.05.57.07.94.07.72,0,1.25-.14,1.61-.41.36-.27.54-.66.54-1.18,0-.25-.04-.46-.13-.65m-4.82-1.77c-.2-.39-.48-.7-.85-.91-.37-.21-.8-.32-1.28-.32-.78,0-1.38.23-1.81.69-.43.46-.64,1.1-.64,1.92,0,.53.1.99.3,1.39s.48.7.85.91c.37.21.8.32,1.28.32.77,0,1.38-.23,1.81-.69.43-.46.65-1.11.65-1.93,0-.53-.1-.99-.3-1.38m-2.95.26c.16-.25.43-.37.79-.37s.64.12.8.37c.16.25.24.62.24,1.12s-.08.88-.24,1.13c-.16.25-.42.38-.79.38s-.64-.13-.8-.38c-.16-.26-.25-.63-.25-1.13s.08-.88.24-1.13m-3.95,3.58c.14.13.33.2.59.2s.44-.07.58-.2c.14-.14.21-.32.21-.56s-.07-.44-.21-.57c-.14-.13-.33-.2-.58-.2s-.46.06-.59.19c-.14.13-.2.32-.2.57s.07.43.21.57m-2.27.08l1.45-5.04h-1.35l-.6,2.23c-.03.13-.08.39-.15.76-.07.38-.12.67-.14.89h-.03c0-.08-.01-.2-.03-.34-.02-.14-.04-.28-.07-.43s-.05-.28-.07-.41c-.03-.13-.04-.23-.06-.29l-.59-2.42h-1.52l-.62,2.42-.07.38c-.09.5-.15.86-.16,1.09h-.03c-.1-.7-.19-1.26-.28-1.66l-.58-2.23h-1.37l1.43,5.04h1.48l.92-3.99h.03l.52,2.23.39,1.76h1.5Zm-7.9,0l1.45-5.04h-1.35l-.6,2.23c-.03.13-.08.39-.15.76-.07.38-.12.67-.14.89h-.03c0-.08-.01-.2-.03-.34-.02-.14-.04-.28-.07-.43s-.05-.28-.07-.41c-.03-.13-.04-.23-.06-.29l-.59-2.42h-1.52l-.62,2.42-.07.38c-.09.5-.15.86-.16,1.09h-.03c-.1-.7-.19-1.26-.28-1.66l-.58-2.23h-1.37l1.43,5.04h1.48l.92-3.99h.03l.52,2.23.39,1.76h1.5Zm-7.9,0l1.45-5.04h-1.35l-.6,2.23c-.03.13-.08.39-.15.76-.07.38-.12.67-.14.89h-.03c0-.08-.01-.2-.03-.34-.02-.14-.04-.28-.07-.43-.02-.15-.05-.28-.07-.41-.03-.13-.04-.23-.06-.29l-.59-2.42h-1.52l-.62,2.42-.07.38c-.09.5-.15.86-.16,1.09h-.03c-.1-.7-.19-1.26-.28-1.66l-.58-2.23h-1.37l1.43,5.04h1.48l.92-3.99h.03l.52,2.23.39,1.76h1.5Z" class="cls-8"></path>
      </g>
      <g class="cls-20">
        <path d="m91.55,66.86c-.11-.1-.16-.24-.16-.41,0-.24.09-.43.27-.55.18-.12.47-.19.87-.2l.51-.02v.35c0,.31-.09.55-.28.72-.19.17-.43.26-.74.26-.21,0-.37-.05-.48-.15m2.35.72v-2.69c0-.47-.13-.82-.39-1.04s-.64-.33-1.15-.33c-.23,0-.47.03-.73.09-.26.06-.49.14-.71.26l.27.61c.17-.08.35-.15.54-.21s.38-.09.59-.09c.25,0,.43.06.55.19.12.13.18.32.18.57v.21l-.69.02c-.63.02-1.09.13-1.4.34-.3.21-.46.52-.46.93,0,.39.11.69.33.9s.53.32.92.32c.3,0,.56-.04.75-.13.19-.09.39-.25.58-.5h.03l.17.56h.61Zm-4.32-5.61h-.85v5.61h.85v-5.61Zm-2.83.91c.08.08.2.12.36.12s.27-.04.35-.12c.08-.08.12-.2.12-.34,0-.15-.04-.27-.12-.35-.08-.08-.2-.12-.35-.12s-.27.04-.36.12c-.08.08-.12.2-.12.35s.04.26.12.34m.77.72h-.85v3.99h.85v-3.99Zm-1.87,2.36c-.07-.14-.18-.26-.33-.37-.15-.11-.39-.22-.72-.35-.39-.15-.65-.27-.76-.36-.12-.09-.18-.19-.18-.32,0-.25.22-.38.67-.38.29,0,.66.09,1.09.27l.27-.64c-.42-.19-.86-.29-1.33-.29s-.85.09-1.12.28c-.28.19-.41.45-.41.8,0,.28.08.52.24.69.16.18.47.36.93.53.24.09.42.17.55.25.13.07.23.14.29.21.06.07.09.15.09.25,0,.32-.26.47-.78.47-.4,0-.84-.11-1.31-.32v.73c.32.16.75.24,1.28.24s.94-.1,1.22-.31c.28-.21.43-.51.43-.9,0-.19-.04-.36-.11-.5m-3.6,0c-.07-.14-.18-.26-.33-.37-.15-.11-.39-.22-.72-.35-.39-.15-.65-.27-.76-.36-.12-.09-.18-.19-.18-.32,0-.25.22-.38.67-.38.29,0,.66.09,1.09.27l.27-.64c-.42-.19-.86-.29-1.33-.29s-.85.09-1.12.28c-.27.19-.41.45-.41.8,0,.28.08.52.24.69.16.18.47.36.93.53.24.09.42.17.55.25.13.07.23.14.29.21.06.07.09.15.09.25,0,.32-.26.47-.78.47-.4,0-.84-.11-1.31-.32v.73c.32.16.75.24,1.28.24s.94-.1,1.22-.31c.28-.21.43-.51.43-.9,0-.19-.04-.36-.11-.5m-7.25-2.48c.26-.33.65-.5,1.17-.5s.9.17,1.16.5c.26.33.39.83.39,1.47s-.13,1.15-.39,1.48c-.26.33-.65.5-1.16.5s-.9-.17-1.16-.5c-.26-.34-.39-.83-.39-1.48s.13-1.14.4-1.47m2.99-.53c-.43-.47-1.03-.71-1.82-.71s-1.41.23-1.84.7c-.43.47-.64,1.14-.64,2.01s.21,1.54.64,2.01c.43.47,1.04.71,1.83.71s1.4-.24,1.82-.72c.43-.48.64-1.14.64-2s-.21-1.53-.64-2m-15.55,3.89c-.1-.1-.15-.25-.15-.45v-2.14h1.14v-.64h-1.14v-.89h-.52l-.29.84-.58.31v.38h.54v2.15c0,.85.4,1.27,1.21,1.27.16,0,.31-.01.46-.04.15-.03.27-.06.36-.1v-.64c-.21.07-.41.1-.62.1-.17,0-.3-.05-.4-.15m-2.26-1.84c0-.97-.48-1.46-1.45-1.46-.27,0-.51.05-.72.16-.21.11-.37.26-.48.45h-.05c.03-.26.04-.5.04-.73v-1.43h-.85v5.61h.85v-1.98c0-.5.08-.86.25-1.07s.43-.32.79-.32c.27,0,.47.08.59.23.12.15.19.38.19.69v2.45h.85v-2.6Zm-6.83-.71c.13-.14.31-.21.56-.21s.43.07.55.21c.12.14.18.34.18.6,0,.52-.25.79-.74.79-.24,0-.42-.07-.55-.2-.13-.13-.19-.33-.19-.58,0-.27.06-.47.19-.61m-.34,3.47c.14-.11.34-.17.58-.17h.64c.34,0,.57.04.69.11.12.07.19.2.19.37,0,.22-.11.39-.34.53-.23.13-.57.2-1.03.2-.3,0-.53-.05-.69-.15-.17-.1-.25-.24-.25-.42,0-.19.07-.35.21-.46m1.54-4.15c-.06-.02-.16-.03-.28-.05-.12-.02-.24-.02-.35-.02-.51,0-.89.12-1.17.36-.27.24-.41.57-.41,1.01,0,.27.06.5.19.71.13.2.3.35.5.43-.17.1-.29.2-.37.31-.08.1-.13.23-.13.38,0,.12.04.23.11.34.07.11.17.18.28.23-.28.06-.5.18-.65.35-.16.17-.23.37-.23.62,0,.36.14.63.43.82.29.19.7.29,1.24.29.7,0,1.24-.12,1.62-.37s.56-.59.56-1.05c0-.35-.11-.62-.34-.81-.23-.19-.56-.28-1-.28h-.7c-.23,0-.39-.02-.47-.07-.09-.05-.13-.11-.13-.21,0-.15.09-.28.27-.4.1.02.22.03.35.03.5,0,.89-.12,1.17-.35.28-.24.43-.56.43-.97,0-.14-.02-.27-.06-.39-.04-.12-.09-.23-.16-.31l.68-.13v-.46h-1.38Zm-3.97-.72c.08.08.2.12.36.12s.26-.04.35-.12c.08-.08.13-.2.13-.34,0-.15-.04-.27-.13-.35-.08-.08-.2-.12-.35-.12s-.27.04-.36.12c-.08.08-.12.2-.12.35s.04.26.12.34m.77.72h-.85v3.99h.85v-3.99Zm-2.7.14c-.21.14-.39.33-.52.57h-.04l-.11-.7h-.66v3.99h.85v-2.09c0-.35.11-.64.32-.86.21-.22.49-.33.83-.33.13,0,.25.01.37.04l.08-.79c-.11-.02-.25-.04-.42-.04-.25,0-.47.07-.69.21m-4.3,3.85l-.15.38c-.17.47-.45.71-.86.71-.16,0-.31-.01-.44-.04v.67c.18.04.36.06.55.06.72,0,1.24-.42,1.55-1.25l1.71-4.52h-.92c-.55,1.6-.86,2.5-.92,2.69-.06.19-.1.35-.12.48h-.03c-.04-.28-.12-.59-.25-.91l-.81-2.26h-.92l1.6,3.99Zm-3.09-3.03c.16.23.24.57.24,1.02s-.08.79-.24,1.03-.39.36-.68.36c-.35,0-.6-.11-.75-.33-.15-.22-.23-.57-.23-1.06v-.13c0-.43.08-.75.23-.95.16-.2.4-.3.74-.3.31,0,.54.11.69.34m.68,2.55c.28-.37.42-.87.42-1.53s-.14-1.16-.42-1.52c-.28-.36-.67-.54-1.16-.54-.53,0-.93.2-1.19.61h-.04c-.06-.28-.1-.46-.12-.53h-.69v5.77h.85v-1.63c0-.07-.02-.28-.05-.61h.05c.28.36.67.55,1.18.55s.89-.18,1.17-.55m-6.83-2.54c.16-.24.42-.35.77-.35.68,0,1.02.46,1.02,1.37s-.34,1.38-1.01,1.38-1.02-.46-1.02-1.38c0-.44.08-.78.24-1.01m2.16-.49c-.34-.37-.79-.56-1.37-.56s-1.07.18-1.4.54c-.33.36-.5.87-.5,1.52,0,.42.08.78.23,1.1.15.32.37.56.66.73.29.17.62.25.99.25.6,0,1.06-.18,1.4-.55s.5-.87.5-1.53-.17-1.13-.51-1.5m-4.76-1.01c.2.06.39.14.56.22l.31-.72c-.46-.23-.96-.34-1.49-.34s-.96.11-1.34.33c-.38.22-.67.53-.87.95-.2.41-.3.89-.3,1.44,0,.87.21,1.54.62,2.01.41.47,1.01.7,1.78.7.52,0,.99-.08,1.41-.24v-.74c-.23.07-.44.13-.65.17-.21.04-.43.07-.65.07-.52,0-.91-.17-1.19-.5-.27-.33-.41-.82-.41-1.47s.14-1.1.43-1.45c.28-.35.67-.53,1.17-.53.22,0,.43.03.63.1" class="cls-4"></path>
      </g>
    </g>
  </g>
</svg>