<svg viewBox="0 0 848 691.5" xmlns:xlink="http://www.w3.org/1999/xlink" xmlns="http://www.w3.org/2000/svg">
  <defs>
    <style>
      .cls-1 {
        stroke: #cdd2e6;
        stroke-width: .4px;
      }

      .cls-1, .cls-2 {
        fill: none;
      }

      .cls-3 {
        fill: #cdd2e6;
      }

      .cls-4 {
        fill: #ccd4ec;
      }

      .cls-5 {
        clip-path: url(#clippath-2);
      }

      .cls-6 {
        clip-path: url(#clippath-6);
      }

      .cls-7 {
        fill: #9ca4ce;
      }

      .cls-8 {
        clip-path: url(#clippath-7);
      }

      .cls-9 {
        clip-path: url(#clippath-1);
      }

      .cls-10 {
        clip-path: url(#clippath-4);
      }

      .cls-11 {
        clip-path: url(#clippath-9);
      }

      .cls-12 {
        clip-path: url(#clippath);
      }

      .cls-13 {
        fill: #54565a;
      }

      .cls-14 {
        clip-path: url(#clippath-3);
      }

      .cls-15 {
        clip-path: url(#clippath-8);
      }

      .cls-16 {
        clip-path: url(#clippath-5);
      }

      .cls-17 {
        fill: #949fd0;
      }

      .cls-18 {
        fill: url(#linear-gradient);
      }

      .cls-19 {
        clip-path: url(#clippath-10);
      }
    </style>
    <clipPath id="clippath">
      <rect height="59.84" width="100" y="15.08" x="15.67" class="cls-2"></rect>
    </clipPath>
    <clipPath id="clippath-1">
      <rect height="59.84" width="100" y="15.08" x="15.67" class="cls-2"></rect>
    </clipPath>
    <clipPath id="clippath-2">
      <rect height="59.84" width="100" y="15.08" x="15.67" class="cls-2"></rect>
    </clipPath>
    <clipPath id="clippath-3">
      <path d="m31.82,21.2l52.26,10.41v.6l-50.05-8.61,4.36,4.8,45.69,4.5v.59c-14.65-1.01-29.14-1.99-43.79-3l3.35,3.68c13.52,0,26.92,0,40.44,0v.51h5.38v-1.79c0-1.39-1.11-2.53-2.47-2.53h-2.91v.56L26.29,15.08l5.53,6.12Z" class="cls-2"></path>
    </clipPath>
    <linearGradient gradientUnits="userSpaceOnUse" gradientTransform="translate(-35.78 -19834.59) scale(44.22 -44.22)" y2="-449.1" x2="2.83" y1="-449.1" x1="1.4" id="linear-gradient">
      <stop stop-color="#fff" offset="0"></stop>
      <stop stop-color="#949fd1" offset="1"></stop>
    </linearGradient>
    <clipPath id="clippath-4">
      <rect height="59.84" width="100" y="15.08" x="15.67" class="cls-2"></rect>
    </clipPath>
    <clipPath id="clippath-5">
      <rect height="59.84" width="100" y="15.08" x="15.67" class="cls-2"></rect>
    </clipPath>
    <clipPath id="clippath-6">
      <rect height="59.84" width="100" y="15.08" x="15.67" class="cls-2"></rect>
    </clipPath>
    <clipPath id="clippath-7">
      <rect height="59.84" width="100" y="15.08" x="15.67" class="cls-2"></rect>
    </clipPath>
    <clipPath id="clippath-8">
      <rect height="59.84" width="100" y="15.08" x="15.67" class="cls-2"></rect>
    </clipPath>
    <clipPath id="clippath-9">
      <rect height="59.84" width="100" y="15.08" x="15.67" class="cls-2"></rect>
    </clipPath>
    <clipPath id="clippath-10">
      <rect height="59.84" width="100" y="15.08" x="15.67" class="cls-2"></rect>
    </clipPath>
  </defs>
  <g data-sanitized-data-name="Layer 3" data-name="Layer 3" id="Layer_3">
    <polygon points="440.49 46.27 440.49 221.2 531.23 287.07 617.43 221.2 617.43 46.27 440.49 46.27" class="cls-13"></polygon>
    <rect height="60.84" width="796.34" y="614.16" x="13.66" class="cls-13"></rect>
    <rect height="33.41" width="749.74" y="580.75" x="48.26" class="cls-4"></rect>
    <path d="m371.67,559.28h397.33c9.93,0,18,8.07,18,18v3.47h-433.33v-3.47c0-9.93,8.07-18,18-18Z" class="cls-17"></path>
    <circle r="10.74" cy="366" cx="472.98" class="cls-17"></circle>
    <circle r="10.74" cy="418.5" cx="451.5" class="cls-17"></circle>
    <circle r="10.74" cy="394.64" cx="507.58" class="cls-17"></circle>
    <circle r="10.74" cy="325.44" cx="507.58" class="cls-17"></circle>
    <circle r="5.24" cy="358.12" cx="501.94" class="cls-17"></circle>
    <circle r="5.24" cy="396.09" cx="474.7" class="cls-17"></circle>
    <circle r="5.24" cy="430.69" cx="484.24" class="cls-17"></circle>
    <circle r="10.74" cy="509.17" cx="443.15" class="cls-17"></circle>
    <circle r="10.74" cy="553.58" cx="437.12" class="cls-17"></circle>
    <circle r="10.74" cy="543.77" cx="519.51" class="cls-17"></circle>
    <circle r="10.74" cy="460.52" cx="493.19" class="cls-17"></circle>
    <circle r="5.24" cy="489.61" cx="473.24" class="cls-17"></circle>
    <circle r="5.24" cy="531.17" cx="460.32" class="cls-17"></circle>
    <circle r="5.24" cy="558.61" cx="488.95" class="cls-17"></circle>
    <circle r="10.74" cy="515.13" cx="494.45" class="cls-17"></circle>
    <circle r="10.74" cy="480.53" cx="527.86" class="cls-17"></circle>
    <circle r="10.74" cy="525.74" cx="398.94" class="cls-17"></circle>
    <circle r="10.74" cy="475.76" cx="430.03" class="cls-17"></circle>
    <circle r="5.24" cy="454.62" cx="451.77" class="cls-17"></circle>
    <circle r="5.24" cy="491.4" cx="399.47" class="cls-17"></circle>
    <circle r="5.24" cy="554.64" cx="394.7" class="cls-17"></circle>
    <circle r="5.24" cy="306.62" cx="535.55" class="cls-17"></circle>
    <circle r="5.24" cy="513.54" cx="526" class="cls-17"></circle>
    <circle r="10.74" cy="389.86" cx="564.84" class="cls-17"></circle>
    <circle r="5.24" cy="493.66" cx="582.6" class="cls-17"></circle>
    <circle r="5.24" cy="559.08" cx="705.69" class="cls-17"></circle>
    <circle r="10.74" cy="516.66" cx="559.6" class="cls-17"></circle>
    <circle r="10.74" cy="466.68" cx="590.69" class="cls-17"></circle>
    <circle r="5.24" cy="482.32" cx="560.14" class="cls-17"></circle>
    <circle r="10.74" cy="469.8" cx="642.39" class="cls-17"></circle>
    <circle r="5.24" cy="548.54" cx="552.78" class="cls-17"></circle>
    <circle r="5.24" cy="414.72" cx="545.82" class="cls-17"></circle>
    <circle r="10.74" cy="445.07" cx="538.13" class="cls-17"></circle>
    <circle r="10.74" cy="401.79" cx="601.83" class="cls-17"></circle>
    <circle r="5.24" cy="420.29" cx="520.76" class="cls-17"></circle>
    <circle r="5.24" cy="378.33" cx="535.55" class="cls-17"></circle>
    <circle r="5.24" cy="362.82" cx="562.99" class="cls-17"></circle>
    <circle r="5.24" cy="337.77" cx="554.63" class="cls-17"></circle>
    <circle r="10.74" cy="350.49" cx="532.63" class="cls-17"></circle>
    <circle r="5.24" cy="376.74" cx="586.85" class="cls-17"></circle>
    <circle r="10.74" cy="526.28" cx="652.29" class="cls-17"></circle>
    <circle r="10.74" cy="538.21" cx="689.27" class="cls-17"></circle>
    <circle r="5.24" cy="548.15" cx="663.55" class="cls-17"></circle>
    <circle r="5.24" cy="499.24" cx="650.43" class="cls-17"></circle>
    <circle r="5.24" cy="477.76" cx="615.83" class="cls-17"></circle>
    <circle r="10.74" cy="504.4" cx="607.79" class="cls-17"></circle>
    <circle r="5.24" cy="513.16" cx="674.29" class="cls-17"></circle>
    <circle r="10.74" cy="429.23" cx="576.77" class="cls-17"></circle>
    <circle r="10.74" cy="540.19" cx="583.93" class="cls-17"></circle>
    <circle r="10.74" cy="559.09" cx="615.4" class="cls-17"></circle>
    <circle r="5.24" cy="532.05" cx="613.55" class="cls-17"></circle>
    <circle r="5.24" cy="545.96" cx="637.41" class="cls-17"></circle>
    <circle r="5.24" cy="425.43" cx="605.76" class="cls-17"></circle>
    <circle r="5.24" cy="448.1" cx="617.69" class="cls-17"></circle>
    <circle r="5.24" cy="429.01" cx="632" class="cls-17"></circle>
    <g>
      <path d="m450.89,29.23c0,1.57-.57,2.79-1.71,3.67s-2.69,1.32-4.64,1.32c-2.12,0-3.74-.27-4.88-.82v-2c.73.31,1.53.55,2.39.73.86.18,1.72.27,2.56.27,1.38,0,2.42-.26,3.12-.79.7-.52,1.05-1.25,1.05-2.19,0-.62-.12-1.12-.37-1.52-.25-.39-.66-.76-1.25-1.09-.58-.33-1.47-.71-2.66-1.13-1.66-.59-2.85-1.3-3.56-2.11-.71-.81-1.07-1.88-1.07-3.19,0-1.38.52-2.47,1.55-3.28,1.03-.81,2.4-1.22,4.1-1.22s3.41.33,4.89.98l-.65,1.81c-1.47-.62-2.91-.93-4.3-.93-1.1,0-1.96.24-2.58.71-.62.47-.93,1.13-.93,1.96,0,.62.11,1.12.34,1.52.23.4.61.76,1.15,1.09.54.33,1.37.69,2.48,1.09,1.87.67,3.16,1.38,3.86,2.15.7.76,1.06,1.76,1.06,2.98Z"></path>
      <path d="m465.78,27.27c0,2.18-.55,3.88-1.65,5.11-1.1,1.22-2.62,1.84-4.55,1.84-1.2,0-2.26-.28-3.19-.84-.93-.56-1.64-1.37-2.15-2.42-.5-1.05-.76-2.28-.76-3.69,0-2.18.54-3.88,1.63-5.1,1.09-1.22,2.6-1.83,4.54-1.83s3.36.62,4.46,1.87c1.1,1.25,1.65,2.93,1.65,5.05Zm-10.19,0c0,1.71.34,3.01,1.03,3.91.68.89,1.69,1.34,3.01,1.34s2.33-.45,3.02-1.34c.69-.89,1.03-2.2,1.03-3.91s-.34-2.99-1.03-3.88c-.69-.88-1.7-1.33-3.05-1.33s-2.33.44-3,1.31-1.01,2.17-1.01,3.89Z"></path>
      <path d="m471.36,33.97h-2.03V14.98h2.03v18.99Z"></path>
      <path d="m477.56,20.6v8.68c0,1.09.25,1.9.74,2.44.5.54,1.27.8,2.33.8,1.4,0,2.42-.38,3.07-1.15.65-.77.97-2.01.97-3.75v-7.03h2.03v13.38h-1.67l-.29-1.79h-.11c-.42.66-.99,1.16-1.73,1.51-.74.35-1.58.53-2.52.53-1.63,0-2.85-.39-3.66-1.16-.81-.77-1.21-2.01-1.21-3.71v-8.75h2.05Z"></path>
      <path d="m495.32,32.55c.36,0,.7-.03,1.04-.08.33-.05.6-.11.79-.16v1.55c-.22.11-.54.19-.97.26-.43.07-.81.1-1.15.1-2.59,0-3.88-1.36-3.88-4.09v-7.96h-1.92v-.98l1.92-.84.85-2.86h1.17v3.1h3.88v1.57h-3.88v7.87c0,.81.19,1.42.57,1.86.38.43.91.65,1.58.65Z"></path>
      <path d="m499.65,16.97c0-.46.11-.8.34-1.02s.51-.32.85-.32.61.11.84.33c.24.22.35.56.35,1.01s-.12.79-.35,1.02c-.24.22-.52.34-.84.34-.34,0-.63-.11-.85-.34-.23-.22-.34-.56-.34-1.02Zm2.2,17h-2.03v-13.38h2.03v13.38Z"></path>
      <path d="m517.69,27.27c0,2.18-.55,3.88-1.65,5.11-1.1,1.22-2.62,1.84-4.55,1.84-1.2,0-2.26-.28-3.19-.84-.93-.56-1.64-1.37-2.15-2.42-.5-1.05-.76-2.28-.76-3.69,0-2.18.54-3.88,1.63-5.1,1.09-1.22,2.6-1.83,4.54-1.83s3.36.62,4.46,1.87c1.1,1.25,1.65,2.93,1.65,5.05Zm-10.19,0c0,1.71.34,3.01,1.03,3.91.68.89,1.69,1.34,3.01,1.34s2.33-.45,3.02-1.34c.69-.89,1.03-2.2,1.03-3.91s-.34-2.99-1.03-3.88c-.69-.88-1.7-1.33-3.05-1.33s-2.33.44-3,1.31-1.01,2.17-1.01,3.89Z"></path>
      <path d="m530.4,33.97v-8.65c0-1.09-.25-1.9-.75-2.44-.5-.54-1.27-.81-2.33-.81-1.4,0-2.42.38-3.08,1.14s-.98,2.01-.98,3.75v7.02h-2.03v-13.38h1.65l.33,1.83h.1c.42-.66,1-1.17,1.75-1.53.75-.36,1.58-.54,2.5-.54,1.61,0,2.82.39,3.64,1.17s1.22,2.02,1.22,3.73v8.73h-2.03Z"></path>
      <path d="m553.46,29.23c0,1.57-.57,2.79-1.71,3.67s-2.69,1.32-4.64,1.32c-2.12,0-3.74-.27-4.88-.82v-2c.73.31,1.53.55,2.39.73.86.18,1.72.27,2.56.27,1.38,0,2.42-.26,3.12-.79.7-.52,1.05-1.25,1.05-2.19,0-.62-.12-1.12-.37-1.52-.25-.39-.66-.76-1.25-1.09-.58-.33-1.47-.71-2.66-1.13-1.66-.59-2.85-1.3-3.56-2.11-.71-.81-1.07-1.88-1.07-3.19,0-1.38.52-2.47,1.55-3.28,1.03-.81,2.4-1.22,4.1-1.22s3.41.33,4.89.98l-.65,1.81c-1.47-.62-2.91-.93-4.3-.93-1.1,0-1.96.24-2.58.71-.62.47-.93,1.13-.93,1.96,0,.62.11,1.12.34,1.52.23.4.61.76,1.15,1.09.54.33,1.37.69,2.48,1.09,1.87.67,3.16,1.38,3.86,2.15.7.76,1.06,1.76,1.06,2.98Z"></path>
      <path d="m558.71,20.6v8.68c0,1.09.25,1.9.74,2.44.5.54,1.27.8,2.33.8,1.4,0,2.42-.38,3.07-1.15.65-.77.97-2.01.97-3.75v-7.03h2.03v13.38h-1.67l-.29-1.79h-.11c-.42.66-.99,1.16-1.73,1.51-.74.35-1.58.53-2.52.53-1.63,0-2.85-.39-3.66-1.16-.81-.77-1.21-2.01-1.21-3.71v-8.75h2.05Z"></path>
      <path d="m578.38,34.22c-.87,0-1.67-.16-2.39-.48-.72-.32-1.32-.82-1.81-1.48h-.15c.1.78.15,1.52.15,2.22v5.51h-2.03v-19.38h1.65l.28,1.83h.1c.52-.73,1.13-1.26,1.82-1.59.69-.33,1.48-.49,2.38-.49,1.77,0,3.14.61,4.11,1.82.96,1.21,1.45,2.91,1.45,5.1s-.49,3.9-1.47,5.12c-.98,1.22-2.34,1.83-4.08,1.83Zm-.29-12.15c-1.37,0-2.36.38-2.97,1.14-.61.76-.92,1.96-.94,3.61v.45c0,1.88.31,3.22.94,4.03.63.81,1.63,1.21,3.01,1.21,1.16,0,2.06-.47,2.72-1.4s.98-2.23.98-3.87-.33-2.95-.98-3.84c-.66-.89-1.58-1.34-2.76-1.34Z"></path>
      <path d="m593.7,34.22c-.87,0-1.67-.16-2.39-.48-.72-.32-1.32-.82-1.81-1.48h-.15c.1.78.15,1.52.15,2.22v5.51h-2.03v-19.38h1.65l.28,1.83h.1c.52-.73,1.13-1.26,1.82-1.59.69-.33,1.48-.49,2.38-.49,1.77,0,3.14.61,4.11,1.82.96,1.21,1.45,2.91,1.45,5.1s-.49,3.9-1.47,5.12c-.98,1.22-2.34,1.83-4.08,1.83Zm-.29-12.15c-1.37,0-2.36.38-2.97,1.14-.61.76-.92,1.96-.94,3.61v.45c0,1.88.31,3.22.94,4.03.63.81,1.63,1.21,3.01,1.21,1.16,0,2.06-.47,2.72-1.4s.98-2.23.98-3.87-.33-2.95-.98-3.84c-.66-.89-1.58-1.34-2.76-1.34Z"></path>
      <path d="m604.82,33.97h-2.03V14.98h2.03v18.99Z"></path>
      <path d="m606.99,20.6h2.17l2.93,7.63c.64,1.74,1.04,3,1.2,3.77h.1c.11-.42.33-1.12.67-2.13s1.44-4.1,3.31-9.27h2.17l-5.75,15.23c-.57,1.51-1.24,2.57-2,3.2-.76.63-1.7.95-2.8.95-.62,0-1.23-.07-1.83-.21v-1.62c.45.1.95.15,1.5.15,1.39,0,2.38-.78,2.98-2.34l.74-1.9-5.4-13.45Z"></path>
    </g>
    <rect height="27.44" width="87.09" y="166.77" x="601.83" class="cls-13"></rect>
    <g>
      <path d="m712.88,146.19h6.07v8.68c-.94.3-1.9.53-2.88.68-.98.16-2.11.23-3.39.23-2.7,0-4.81-.8-6.31-2.41-1.51-1.61-2.26-3.86-2.26-6.76,0-1.86.37-3.48,1.12-4.88.75-1.4,1.82-2.46,3.22-3.2s3.04-1.11,4.92-1.11,3.68.35,5.32,1.05l-.81,1.83c-1.61-.68-3.16-1.03-4.65-1.03-2.17,0-3.87.65-5.09,1.94s-1.83,3.09-1.83,5.38c0,2.41.59,4.24,1.76,5.48,1.18,1.25,2.9,1.87,5.18,1.87,1.24,0,2.45-.14,3.63-.43v-5.49h-3.99v-1.86Z"></path>
      <path d="m731.15,155.54l-.4-1.9h-.1c-.67.84-1.33,1.41-2,1.7-.66.3-1.49.45-2.48.45-1.33,0-2.37-.34-3.12-1.03s-1.13-1.66-1.13-2.92c0-2.7,2.16-4.12,6.48-4.25l2.27-.07v-.83c0-1.05-.23-1.83-.68-2.33-.45-.5-1.17-.75-2.17-.75-1.12,0-2.38.34-3.78,1.03l-.62-1.55c.66-.36,1.38-.64,2.17-.84.79-.2,1.57-.31,2.36-.31,1.59,0,2.78.35,3.55,1.06.77.71,1.15,1.84,1.15,3.41v9.13h-1.5Zm-4.58-1.43c1.26,0,2.25-.35,2.97-1.04.72-.69,1.08-1.66,1.08-2.91v-1.21l-2.03.09c-1.61.06-2.77.31-3.48.75-.71.44-1.07,1.13-1.07,2.07,0,.73.22,1.29.67,1.67s1.06.57,1.86.57Z"></path>
      <path d="m745.46,151.89c0,1.25-.46,2.21-1.39,2.88-.93.68-2.23,1.01-3.91,1.01-1.77,0-3.16-.28-4.15-.84v-1.88c.64.33,1.33.58,2.07.77s1.45.28,2.13.28c1.06,0,1.87-.17,2.44-.51.57-.34.86-.85.86-1.54,0-.52-.23-.97-.68-1.34-.45-.37-1.33-.81-2.64-1.31-1.25-.46-2.13-.87-2.66-1.21-.53-.35-.92-.74-1.17-1.18-.26-.44-.38-.96-.38-1.58,0-1.09.44-1.95,1.33-2.58.89-.63,2.1-.95,3.65-.95,1.44,0,2.85.29,4.22.88l-.72,1.65c-1.34-.55-2.56-.83-3.65-.83-.96,0-1.68.15-2.17.45s-.73.72-.73,1.25c0,.36.09.66.27.92.18.25.48.49.89.72.41.23,1.19.56,2.34.99,1.59.58,2.66,1.16,3.22,1.75s.84,1.32.84,2.21Z"></path>
      <path d="m763.88,151.89c0,1.25-.46,2.21-1.39,2.88-.93.68-2.23,1.01-3.91,1.01-1.77,0-3.16-.28-4.15-.84v-1.88c.64.33,1.33.58,2.07.77s1.45.28,2.13.28c1.06,0,1.87-.17,2.44-.51.57-.34.86-.85.86-1.54,0-.52-.23-.97-.68-1.34-.45-.37-1.33-.81-2.64-1.31-1.25-.46-2.13-.87-2.66-1.21-.53-.35-.92-.74-1.17-1.18-.26-.44-.38-.96-.38-1.58,0-1.09.44-1.95,1.33-2.58.89-.63,2.1-.95,3.65-.95,1.44,0,2.85.29,4.22.88l-.72,1.65c-1.34-.55-2.56-.83-3.65-.83-.96,0-1.68.15-2.17.45s-.73.72-.73,1.25c0,.36.09.66.27.92.18.25.48.49.89.72.41.23,1.19.56,2.34.99,1.59.58,2.66,1.16,3.22,1.75s.84,1.32.84,2.21Z"></path>
      <path d="m771.5,154.11c.36,0,.7-.03,1.04-.08.33-.05.6-.11.79-.16v1.55c-.22.11-.54.19-.97.26-.43.07-.81.1-1.15.1-2.59,0-3.88-1.36-3.88-4.09v-7.96h-1.92v-.98l1.92-.84.85-2.86h1.17v3.1h3.88v1.57h-3.88v7.87c0,.81.19,1.42.57,1.86.38.43.91.65,1.58.65Z"></path>
      <path d="m782.1,141.92c.59,0,1.13.05,1.6.15l-.28,1.88c-.55-.12-1.04-.18-1.46-.18-1.08,0-2.01.44-2.78,1.32-.77.88-1.15,1.97-1.15,3.28v7.18h-2.03v-13.38h1.67l.23,2.48h.1c.5-.87,1.09-1.54,1.79-2.01.7-.47,1.47-.71,2.31-.71Z"></path>
      <path d="m791.86,155.79c-1.98,0-3.54-.6-4.68-1.81-1.14-1.2-1.71-2.88-1.71-5.02s.53-3.87,1.59-5.14c1.06-1.27,2.49-1.9,4.28-1.9,1.68,0,3,.55,3.98,1.65s1.46,2.56,1.46,4.36v1.28h-9.22c.04,1.57.44,2.76,1.19,3.58.75.81,1.81,1.22,3.18,1.22,1.44,0,2.87-.3,4.27-.9v1.81c-.72.31-1.39.53-2.03.67-.64.13-1.41.2-2.31.2Zm-.55-12.17c-1.07,0-1.93.35-2.57,1.05-.64.7-1.02,1.67-1.13,2.91h6.99c0-1.28-.29-2.26-.85-2.94-.57-.68-1.38-1.02-2.44-1.02Z"></path>
      <path d="m808.46,155.54l-.4-1.9h-.1c-.67.84-1.33,1.41-2,1.7-.66.3-1.49.45-2.48.45-1.33,0-2.37-.34-3.12-1.03s-1.13-1.66-1.13-2.92c0-2.7,2.16-4.12,6.48-4.25l2.27-.07v-.83c0-1.05-.23-1.83-.68-2.33-.45-.5-1.17-.75-2.17-.75-1.12,0-2.38.34-3.78,1.03l-.62-1.55c.66-.36,1.38-.64,2.17-.84.79-.2,1.57-.31,2.36-.31,1.59,0,2.78.35,3.55,1.06.77.71,1.15,1.84,1.15,3.41v9.13h-1.5Zm-4.58-1.43c1.26,0,2.25-.35,2.97-1.04.72-.69,1.08-1.66,1.08-2.91v-1.21l-2.03.09c-1.61.06-2.77.31-3.48.75-.71.44-1.07,1.13-1.07,2.07,0,.73.22,1.29.67,1.67s1.06.57,1.86.57Z"></path>
      <path d="m831.19,155.54v-8.7c0-1.07-.23-1.87-.68-2.4-.46-.53-1.16-.8-2.12-.8-1.26,0-2.19.36-2.8,1.09s-.9,1.84-.9,3.34v7.47h-2.03v-8.7c0-1.07-.23-1.87-.68-2.4-.46-.53-1.17-.8-2.14-.8-1.27,0-2.2.38-2.79,1.14-.59.76-.88,2.01-.88,3.74v7.02h-2.03v-13.38h1.65l.33,1.83h.1c.38-.65.92-1.16,1.62-1.53.7-.37,1.48-.55,2.34-.55,2.09,0,3.46.76,4.1,2.27h.1c.4-.7.98-1.25,1.73-1.66s1.62-.61,2.59-.61c1.51,0,2.65.39,3.4,1.17s1.13,2.02,1.13,3.73v8.73h-2.03Z"></path>
    </g>
    <g>
      <rect height="3" width="119.8" y="178.99" x="710.72" class="cls-13"></rect>
      <polygon points="716.7 175.4 711.61 180.49 716.7 185.57 712.38 185.57 707.29 180.49 712.38 175.4 716.7 175.4" class="cls-13"></polygon>
    </g>
    <g>
      <path d="m252.17,132.31l-6.05-15.82h-.1c.11,1.25.17,2.74.17,4.47v11.35h-1.92v-17.85h3.12l5.65,14.72h.1l5.7-14.72h3.1v17.85h-2.07v-11.5c0-1.32.06-2.75.17-4.3h-.1l-6.1,15.8h-1.67Z"></path>
      <path d="m278.09,125.61c0,2.18-.55,3.88-1.65,5.11-1.1,1.22-2.62,1.84-4.55,1.84-1.2,0-2.26-.28-3.19-.84-.93-.56-1.64-1.37-2.15-2.42-.5-1.05-.76-2.28-.76-3.69,0-2.18.54-3.88,1.63-5.1,1.09-1.22,2.6-1.83,4.54-1.83s3.36.62,4.46,1.87c1.1,1.25,1.65,2.93,1.65,5.05Zm-10.19,0c0,1.71.34,3.01,1.03,3.91.68.89,1.69,1.34,3.01,1.34s2.33-.45,3.02-1.34c.69-.89,1.03-2.2,1.03-3.91s-.34-2.99-1.03-3.88c-.69-.88-1.7-1.33-3.05-1.33s-2.33.44-3,1.31-1.01,2.17-1.01,3.89Z"></path>
      <path d="m284.57,132.31l-5.08-13.38h2.17l2.88,7.93c.65,1.86,1.03,3.06,1.15,3.61h.1c.09-.43.37-1.32.85-2.68.48-1.35,1.54-4.31,3.2-8.87h2.17l-5.08,13.38h-2.37Z"></path>
      <path d="m299.82,132.55c-1.98,0-3.54-.6-4.68-1.81-1.14-1.2-1.71-2.88-1.71-5.02s.53-3.87,1.59-5.14c1.06-1.27,2.49-1.9,4.28-1.9,1.68,0,3,.55,3.98,1.65s1.46,2.56,1.46,4.36v1.28h-9.22c.04,1.57.44,2.76,1.19,3.58.75.81,1.81,1.22,3.18,1.22,1.44,0,2.87-.3,4.27-.9v1.81c-.72.31-1.39.53-2.03.67-.64.13-1.41.2-2.31.2Zm-.55-12.17c-1.07,0-1.93.35-2.57,1.05-.64.7-1.02,1.67-1.13,2.91h6.99c0-1.28-.29-2.26-.85-2.94-.57-.68-1.38-1.02-2.44-1.02Z"></path>
      <path d="m325.24,132.31v-8.7c0-1.07-.23-1.87-.68-2.4-.46-.53-1.16-.8-2.12-.8-1.26,0-2.19.36-2.8,1.09s-.9,1.84-.9,3.34v7.47h-2.03v-8.7c0-1.07-.23-1.87-.68-2.4-.46-.53-1.17-.8-2.14-.8-1.27,0-2.2.38-2.79,1.14-.59.76-.88,2.01-.88,3.74v7.02h-2.03v-13.38h1.65l.33,1.83h.1c.38-.65.92-1.16,1.62-1.53.7-.37,1.48-.55,2.34-.55,2.09,0,3.46.76,4.1,2.27h.1c.4-.7.98-1.25,1.73-1.66s1.62-.61,2.59-.61c1.51,0,2.65.39,3.4,1.17s1.13,2.02,1.13,3.73v8.73h-2.03Z"></path>
      <path d="m337.1,132.55c-1.98,0-3.54-.6-4.68-1.81-1.14-1.2-1.71-2.88-1.71-5.02s.53-3.87,1.59-5.14c1.06-1.27,2.49-1.9,4.28-1.9,1.68,0,3,.55,3.98,1.65s1.46,2.56,1.46,4.36v1.28h-9.22c.04,1.57.44,2.76,1.19,3.58.75.81,1.81,1.22,3.18,1.22,1.44,0,2.87-.3,4.27-.9v1.81c-.72.31-1.39.53-2.03.67-.64.13-1.41.2-2.31.2Zm-.55-12.17c-1.07,0-1.93.35-2.57,1.05-.64.7-1.02,1.67-1.13,2.91h6.99c0-1.28-.29-2.26-.85-2.94-.57-.68-1.38-1.02-2.44-1.02Z"></path>
      <path d="m354.63,132.31v-8.65c0-1.09-.25-1.9-.75-2.44-.5-.54-1.27-.81-2.33-.81-1.4,0-2.42.38-3.08,1.14s-.98,2.01-.98,3.75v7.02h-2.03v-13.38h1.65l.33,1.83h.1c.42-.66,1-1.17,1.75-1.53.75-.36,1.58-.54,2.5-.54,1.61,0,2.82.39,3.64,1.17s1.22,2.02,1.22,3.73v8.73h-2.03Z"></path>
      <path d="m365.14,130.88c.36,0,.7-.03,1.04-.08.33-.05.6-.11.79-.16v1.55c-.22.11-.54.19-.97.26-.43.07-.81.1-1.15.1-2.59,0-3.88-1.36-3.88-4.09v-7.96h-1.92v-.98l1.92-.84.85-2.86h1.17v3.1h3.88v1.57h-3.88v7.87c0,.81.19,1.42.57,1.86.38.43.91.65,1.58.65Z"></path>
      <path d="m387.68,125.61c0,2.18-.55,3.88-1.65,5.11-1.1,1.22-2.62,1.84-4.55,1.84-1.2,0-2.26-.28-3.19-.84-.93-.56-1.64-1.37-2.15-2.42-.5-1.05-.76-2.28-.76-3.69,0-2.18.54-3.88,1.63-5.1,1.09-1.22,2.6-1.83,4.54-1.83s3.36.62,4.46,1.87c1.1,1.25,1.65,2.93,1.65,5.05Zm-10.19,0c0,1.71.34,3.01,1.03,3.91.68.89,1.69,1.34,3.01,1.34s2.33-.45,3.02-1.34c.69-.89,1.03-2.2,1.03-3.91s-.34-2.99-1.03-3.88c-.69-.88-1.7-1.33-3.05-1.33s-2.33.44-3,1.31-1.01,2.17-1.01,3.89Z"></path>
      <path d="m397.27,120.5h-3.41v11.8h-2.03v-11.8h-2.39v-.92l2.39-.73v-.75c0-3.29,1.44-4.93,4.31-4.93.71,0,1.54.14,2.49.43l-.52,1.62c-.78-.25-1.45-.38-2-.38-.77,0-1.33.25-1.7.76-.37.51-.55,1.32-.55,2.45v.87h3.41v1.57Z"></path>
      <path d="m301.7,162.31v-8.65c0-1.09-.25-1.9-.75-2.44-.5-.54-1.27-.81-2.33-.81-1.41,0-2.44.38-3.08,1.15-.65.76-.97,2.02-.97,3.76v6.99h-2.03v-18.99h2.03v5.75c0,.69-.03,1.26-.1,1.72h.12c.4-.64.97-1.15,1.7-1.52.74-.37,1.58-.56,2.52-.56,1.64,0,2.86.39,3.68,1.17.82.78,1.23,2.01,1.23,3.7v8.73h-2.03Z"></path>
      <path d="m313.54,162.55c-1.98,0-3.54-.6-4.68-1.81-1.14-1.2-1.71-2.88-1.71-5.02s.53-3.87,1.59-5.14c1.06-1.27,2.49-1.9,4.28-1.9,1.68,0,3,.55,3.98,1.65s1.46,2.56,1.46,4.36v1.28h-9.22c.04,1.57.44,2.76,1.19,3.58.75.81,1.81,1.22,3.18,1.22,1.44,0,2.87-.3,4.27-.9v1.81c-.72.31-1.39.53-2.03.67-.64.13-1.41.2-2.31.2Zm-.55-12.17c-1.07,0-1.93.35-2.57,1.05-.64.7-1.02,1.67-1.13,2.91h6.99c0-1.28-.29-2.26-.85-2.94-.57-.68-1.38-1.02-2.44-1.02Z"></path>
      <path d="m330.14,162.31l-.4-1.9h-.1c-.67.84-1.33,1.41-2,1.7-.66.3-1.49.45-2.48.45-1.33,0-2.37-.34-3.12-1.03s-1.13-1.66-1.13-2.92c0-2.7,2.16-4.12,6.48-4.25l2.27-.07v-.83c0-1.05-.23-1.83-.68-2.33-.45-.5-1.17-.75-2.17-.75-1.12,0-2.38.34-3.78,1.03l-.62-1.55c.66-.36,1.38-.64,2.17-.84.79-.2,1.57-.31,2.36-.31,1.59,0,2.78.35,3.55,1.06.77.71,1.15,1.84,1.15,3.41v9.13h-1.5Zm-4.58-1.43c1.26,0,2.25-.35,2.97-1.04.72-.69,1.08-1.66,1.08-2.91v-1.21l-2.03.09c-1.61.06-2.77.31-3.48.75-.71.44-1.07,1.13-1.07,2.07,0,.73.22,1.29.67,1.67s1.06.57,1.86.57Z"></path>
      <path d="m344.92,160.51h-.11c-.94,1.36-2.33,2.04-4.2,2.04-1.75,0-3.11-.6-4.08-1.79-.97-1.2-1.46-2.9-1.46-5.1s.49-3.92,1.46-5.14,2.33-1.83,4.08-1.83,3.21.66,4.18,1.98h.16l-.09-.96-.05-.94v-5.44h2.03v18.99h-1.65l-.27-1.79Zm-4.05.34c1.38,0,2.39-.38,3.01-1.13.62-.75.93-1.97.93-3.64v-.43c0-1.9-.32-3.25-.95-4.06-.63-.81-1.64-1.21-3.02-1.21-1.19,0-2.1.46-2.73,1.38-.63.92-.95,2.23-.95,3.91s.31,3,.94,3.87,1.55,1.31,2.76,1.31Z"></path>
    </g>
    <g>
      <rect height="3" width="210.93" y="178.75" x="216.48" class="cls-13"></rect>
      <polygon points="222.46 175.17 217.37 180.25 222.46 185.34 218.14 185.34 213.05 180.25 218.14 175.17 222.46 175.17" class="cls-13"></polygon>
    </g>
  </g>
  <g data-sanitized-data-name="Water Mark" data-name="Water Mark" id="Water_Mark">
    <g>
      <g class="cls-12">
        <circle r="2.65" cy="70.96" cx="72.65" class="cls-1"></circle>
      </g>
      <g class="cls-9">
        <path d="m73.53,69.22c-.27-.13-.54-.19-.83-.19-.34,0-.65.09-.95.26-.29.17-.52.4-.67.69-.16.28-.24.61-.24.97,0,.57.17,1.03.52,1.39s.79.54,1.33.54c.29,0,.55-.05.78-.15s.47-.29.73-.55l-.45-.49c-.19.2-.37.34-.53.41-.16.08-.33.11-.53.11-.23,0-.43-.05-.61-.16-.19-.11-.33-.26-.43-.45s-.15-.41-.15-.65c0-.35.11-.65.34-.89.23-.24.51-.36.84-.36.39,0,.75.18,1.06.53l.46-.47c-.19-.24-.42-.42-.69-.55" class="cls-3"></path>
      </g>
      <g class="cls-5">
        <path d="m110.68,48.04c0,.67-.19,2.26-1.42,3.25-1.23.99-2.6,1.23-3.94,1.05-1.33-.17-2.02-1.36-1.98-2.43.04-1.06.5-1.99,2.13-2.44,1.63-.44,3.51-.67,5.22-1.46v2.02Zm.5-12.02c-3.99-.91-7.2-.39-8.8.43s-3.27,2.3-3.42,4.67h5.11s.57-1.37,2.75-1.41c2.18-.04,3.52.47,3.75,1.44.23.97-.58,1.72-1.92,2.05-1.33.33-3.46.56-4.95.87-1.49.31-4.18,1.43-4.84,3.23-.66,1.8-.68,4.24.06,5.9.74,1.66,3.19,3.39,6.44,3.29,3.25-.1,5.86-.31,7.78-2.05,1.92-1.74,2.52-3.56,2.52-5.44s.02-7.6.02-8.24-.5-3.83-4.49-4.74" class="cls-7"></path>
      </g>
      <g class="cls-14">
        <rect height="19.6" width="63.17" y="15.08" x="26.29" class="cls-18"></rect>
      </g>
      <g class="cls-10">
        <path d="m94.11,30.45h-2.91v26.04h5.38v-23.57c0-1.36-1.11-2.47-2.47-2.47" class="cls-7"></path>
      </g>
      <g class="cls-16">
        <path d="m86.98,36.35h-2.84v20.14h5.26v-17.72c0-1.33-1.09-2.42-2.42-2.42" class="cls-7"></path>
      </g>
      <g class="cls-6">
        <path d="m79.1,45.45c-1.82-1.1-4.06-1.45-6.73-2.11-2.67-.66-3.31-1.34-3.32-1.98,0-.64.37-1.3,1.13-1.49.76-.19,1.99-.35,3.27-.06,1.28.29,1.94,1.53,2.26,1.84.31.31.88.54,1.27.54h3.68c-.13-2.19-.81-3.8-2.4-4.96-1.59-1.16-3.54-1.82-7.53-1.59-3.99.23-6.11,2.28-6.79,4.62-.68,2.34.04,4.74,1.92,5.96,1.88,1.22,4.99,1.84,6.89,2.24,1.9.41,3.37,1,3.27,2.26-.1,1.27-2.23,1.93-4.78,1.61-2.54-.32-2.8-2.93-2.8-2.93h-5.13c-.17,3.35,1.43,5.17,3.5,6.13,2.07.97,5.61,1.32,9.36.48,3.75-.83,5.19-3.5,5.2-5.86.02-2.36-.46-3.62-2.28-4.72" class="cls-7"></path>
      </g>
      <g class="cls-8">
        <path d="m59.29,45.45c-1.82-1.1-4.06-1.45-6.73-2.11-2.67-.66-3.31-1.34-3.32-1.98,0-.64.37-1.3,1.13-1.49.76-.19,1.99-.35,3.27-.06,1.28.29,1.94,1.53,2.26,1.84.31.31.88.54,1.27.54h3.68c-.13-2.19-.81-3.8-2.4-4.96-1.59-1.16-3.54-1.82-7.53-1.59-3.99.23-6.11,2.28-6.79,4.62-.68,2.34.04,4.74,1.92,5.96,1.88,1.22,4.99,1.84,6.89,2.24,1.9.41,3.37,1,3.27,2.26-.1,1.27-2.23,1.93-4.78,1.61-2.54-.32-2.8-2.93-2.8-2.93h-5.13c-.17,3.35,1.43,5.17,3.5,6.13,2.07.97,5.61,1.32,9.36.48,3.75-.83,5.19-3.5,5.2-5.86.02-2.36-.46-3.62-2.28-4.72" class="cls-7"></path>
      </g>
      <g class="cls-15">
        <path d="m28.56,51.85c-5.19,0-7.48-4.06-7.48-9.05s2.52-9.02,7.49-9.02,7.49,4.04,7.49,9.02-2.31,9.05-7.5,9.05m.01-22.74c-8.56,0-12.91,6.12-12.91,13.67s3.94,13.71,12.89,13.71,12.93-6.16,12.93-13.71-4.35-13.67-12.91-13.67" class="cls-7"></path>
      </g>
      <g class="cls-11">
        <path d="m112.86,64.82c.27-.06.53-.15.77-.27v-1.06c-.29.14-.58.24-.85.3-.27.06-.56.09-.86.09-.39,0-.69-.11-.91-.33-.22-.22-.33-.52-.35-.92h3.25v-.67c0-.72-.2-1.28-.6-1.68-.4-.41-.95-.61-1.66-.61s-1.33.23-1.75.69c-.42.46-.63,1.11-.63,1.96s.23,1.46.69,1.9c.46.45,1.09.67,1.9.67.39,0,.73-.03,1-.09m-.5-3.88c.17.19.26.45.27.79h-1.93c.02-.34.12-.6.28-.79.17-.18.39-.28.69-.28s.52.09.69.28m-3.98,1.74c-.09-.18-.22-.34-.41-.48-.18-.14-.47-.29-.87-.45-.44-.18-.73-.31-.86-.4-.13-.09-.2-.2-.2-.32,0-.22.2-.33.61-.33.23,0,.45.04.67.1.22.07.46.16.71.27l.41-.99c-.57-.26-1.16-.4-1.77-.4s-1.13.12-1.48.37c-.35.25-.52.59-.52,1.04,0,.26.04.48.12.66.08.18.21.34.4.48.18.14.47.29.85.45.27.11.49.21.65.3.16.09.28.16.34.23.07.07.1.16.1.26,0,.29-.25.43-.75.43-.24,0-.53-.04-.85-.12s-.61-.18-.86-.3v1.14c.23.1.47.17.73.22s.57.07.94.07c.72,0,1.25-.14,1.61-.41.36-.27.54-.66.54-1.18,0-.25-.04-.46-.13-.65m-4.83,2.14v-5.04h-1.38v2.37c0,.6-.09,1.02-.26,1.28-.17.26-.45.39-.83.39-.28,0-.49-.09-.62-.27-.13-.18-.19-.45-.19-.82v-2.95h-1.38v3.29c0,.6.15,1.05.45,1.37.3.32.75.48,1.34.48.35,0,.65-.06.92-.19.27-.13.48-.31.63-.54h.07l.18.64h1.06Zm-6.64-6.59l-2.46,6.59h1.25l2.46-6.59h-1.25Zm-6.35,4.06c0-.52.08-.91.25-1.15.17-.24.42-.36.76-.36.26,0,.45.09.57.27.12.18.18.46.18.82v2.95h1.38v-3.29c0-.65-.15-1.12-.44-1.41-.29-.29-.73-.44-1.3-.44-.33,0-.63.06-.89.19-.26.13-.46.31-.6.55h-.12c-.27-.49-.78-.74-1.53-.74-.33,0-.62.07-.88.2-.26.13-.45.31-.59.54h-.08l-.19-.65h-1.05v5.04h1.37v-2.37c0-.59.08-1.02.24-1.28.16-.26.41-.39.77-.39.26,0,.45.09.57.27.12.18.18.46.18.82v2.95h1.38v-2.53Zm-5.94-1.38c-.2-.39-.48-.7-.85-.91-.37-.21-.8-.32-1.28-.32-.78,0-1.38.23-1.81.69-.43.46-.65,1.1-.65,1.92,0,.53.1.99.3,1.39.2.4.48.7.85.91.37.21.8.32,1.28.32.77,0,1.38-.23,1.81-.69s.65-1.11.65-1.93c0-.53-.1-.99-.3-1.38m-2.95.26c.16-.25.43-.37.79-.37s.64.12.8.37c.16.25.24.62.24,1.12s-.08.88-.24,1.13c-.16.25-.43.38-.79.38s-.64-.13-.8-.38c-.16-.26-.25-.63-.25-1.13s.08-.88.24-1.13m-3.18,3.66c.23-.05.45-.15.67-.29v-1.18c-.23.15-.45.26-.68.33-.23.07-.47.11-.74.11-.72,0-1.07-.49-1.07-1.48s.36-1.52,1.07-1.52c.19,0,.37.03.56.08.19.06.39.13.6.21l.41-1.06c-.46-.23-.99-.34-1.57-.34-.8,0-1.41.23-1.84.68-.43.45-.64,1.11-.64,1.96,0,1.72.78,2.58,2.35,2.58.35,0,.63-.03.86-.08m-5.52-.09c.14.13.33.2.59.2s.44-.07.58-.2c.14-.14.21-.32.21-.56s-.07-.44-.21-.57c-.14-.13-.33-.2-.58-.2s-.45.06-.59.19c-.14.13-.2.32-.2.57s.07.43.21.57m-2.79-1.84c0,.3-.1.55-.29.73-.19.18-.45.28-.76.28-.45,0-.67-.19-.67-.58,0-.27.1-.47.29-.6.2-.13.49-.2.89-.22l.53-.02v.41Zm1.37,1.92v-3.36c0-.6-.18-1.05-.54-1.34-.36-.29-.88-.44-1.56-.44s-1.35.15-1.93.46l.46.93c.54-.24,1.02-.37,1.42-.37.52,0,.78.26.78.77v.22l-.87.03c-.76.03-1.32.17-1.69.42-.37.25-.56.65-.56,1.18s.14.91.42,1.18c.28.28.66.41,1.14.41.39,0,.71-.06.96-.17.25-.11.48-.32.72-.61h.04l.27.69h.96Zm-5.6-7.02h-1.38v7.02h1.38v-7.02Zm-2.81,1.98h-1.38v5.04h1.38v-5.04Zm-.69-.63c.25,0,.44-.06.56-.18.13-.12.19-.29.19-.5,0-.45-.25-.67-.75-.67s-.75.22-.75.67.25.68.75.68m-1.89,3.53c-.09-.18-.22-.34-.41-.48-.18-.14-.47-.29-.87-.45-.44-.18-.73-.31-.86-.4-.13-.09-.2-.2-.2-.32,0-.22.2-.33.61-.33.23,0,.45.04.67.1.22.07.46.16.71.27l.42-.99c-.57-.26-1.17-.4-1.77-.4-.64,0-1.13.12-1.48.37-.35.25-.52.59-.52,1.04,0,.26.04.48.12.66.08.18.21.34.4.48.18.14.47.29.85.45.27.11.49.21.65.3.16.09.28.16.34.23.07.07.1.16.1.26,0,.29-.25.43-.75.43-.24,0-.53-.04-.85-.12-.32-.08-.61-.18-.86-.3v1.14c.23.1.47.17.73.22s.57.07.94.07c.72,0,1.25-.14,1.61-.41.36-.27.54-.66.54-1.18,0-.25-.04-.46-.13-.65m-4.59,0c-.09-.18-.22-.34-.41-.48-.18-.14-.47-.29-.87-.45-.44-.18-.73-.31-.86-.4-.13-.09-.2-.2-.2-.32,0-.22.2-.33.61-.33.23,0,.45.04.67.1.22.07.46.16.71.27l.41-.99c-.57-.26-1.17-.4-1.77-.4-.64,0-1.13.12-1.48.37-.35.25-.52.59-.52,1.04,0,.26.04.48.12.66.08.18.22.34.4.48.18.14.47.29.86.45.27.11.49.21.65.3.16.09.28.16.34.23.07.07.1.16.1.26,0,.29-.25.43-.75.43-.24,0-.53-.04-.85-.12-.32-.08-.61-.18-.86-.3v1.14c.23.1.47.17.73.22.26.05.57.07.94.07.72,0,1.25-.14,1.61-.41.36-.27.54-.66.54-1.18,0-.25-.04-.46-.13-.65m-4.82-1.77c-.2-.39-.48-.7-.85-.91-.37-.21-.8-.32-1.28-.32-.78,0-1.38.23-1.81.69-.43.46-.64,1.1-.64,1.92,0,.53.1.99.3,1.39s.48.7.85.91c.37.21.8.32,1.28.32.77,0,1.38-.23,1.81-.69.43-.46.65-1.11.65-1.93,0-.53-.1-.99-.3-1.38m-2.95.26c.16-.25.43-.37.79-.37s.64.12.8.37c.16.25.24.62.24,1.12s-.08.88-.24,1.13c-.16.25-.42.38-.79.38s-.64-.13-.8-.38c-.16-.26-.25-.63-.25-1.13s.08-.88.24-1.13m-3.95,3.58c.14.13.33.2.59.2s.44-.07.58-.2c.14-.14.21-.32.21-.56s-.07-.44-.21-.57c-.14-.13-.33-.2-.58-.2s-.46.06-.59.19c-.14.13-.2.32-.2.57s.07.43.21.57m-2.27.08l1.45-5.04h-1.35l-.6,2.23c-.03.13-.08.39-.15.76-.07.38-.12.67-.14.89h-.03c0-.08-.01-.2-.03-.34-.02-.14-.04-.28-.07-.43s-.05-.28-.07-.41c-.03-.13-.04-.23-.06-.29l-.59-2.42h-1.52l-.62,2.42-.07.38c-.09.5-.15.86-.16,1.09h-.03c-.1-.7-.19-1.26-.28-1.66l-.58-2.23h-1.37l1.43,5.04h1.48l.92-3.99h.03l.52,2.23.39,1.76h1.5Zm-7.9,0l1.45-5.04h-1.35l-.6,2.23c-.03.13-.08.39-.15.76-.07.38-.12.67-.14.89h-.03c0-.08-.01-.2-.03-.34-.02-.14-.04-.28-.07-.43s-.05-.28-.07-.41c-.03-.13-.04-.23-.06-.29l-.59-2.42h-1.52l-.62,2.42-.07.38c-.09.5-.15.86-.16,1.09h-.03c-.1-.7-.19-1.26-.28-1.66l-.58-2.23h-1.37l1.43,5.04h1.48l.92-3.99h.03l.52,2.23.39,1.76h1.5Zm-7.9,0l1.45-5.04h-1.35l-.6,2.23c-.03.13-.08.39-.15.76-.07.38-.12.67-.14.89h-.03c0-.08-.01-.2-.03-.34-.02-.14-.04-.28-.07-.43-.02-.15-.05-.28-.07-.41-.03-.13-.04-.23-.06-.29l-.59-2.42h-1.52l-.62,2.42-.07.38c-.09.5-.15.86-.16,1.09h-.03c-.1-.7-.19-1.26-.28-1.66l-.58-2.23h-1.37l1.43,5.04h1.48l.92-3.99h.03l.52,2.23.39,1.76h1.5Z" class="cls-7"></path>
      </g>
      <g class="cls-19">
        <path d="m95.61,72.42c-.11-.1-.16-.24-.16-.41,0-.24.09-.43.27-.55.18-.12.47-.19.87-.2l.51-.02v.35c0,.31-.09.55-.28.72-.19.17-.43.26-.74.26-.21,0-.37-.05-.48-.15m2.35.72v-2.69c0-.47-.13-.82-.39-1.04s-.64-.33-1.15-.33c-.23,0-.47.03-.73.09-.26.06-.49.14-.71.26l.27.61c.17-.08.35-.15.54-.21s.38-.09.59-.09c.25,0,.43.06.55.19.12.13.18.32.18.57v.21l-.69.02c-.63.02-1.09.13-1.4.34-.3.21-.46.52-.46.93,0,.39.11.69.33.9s.53.32.92.32c.3,0,.56-.04.75-.13.19-.09.39-.25.58-.5h.03l.17.56h.61Zm-4.32-5.61h-.85v5.61h.85v-5.61Zm-2.83.91c.08.08.2.12.36.12s.27-.04.35-.12c.08-.08.12-.2.12-.34,0-.15-.04-.27-.12-.35-.08-.08-.2-.12-.35-.12s-.27.04-.36.12c-.08.08-.12.2-.12.35s.04.26.12.34m.77.72h-.85v3.99h.85v-3.99Zm-1.87,2.36c-.07-.14-.18-.26-.33-.37-.15-.11-.39-.22-.72-.35-.39-.15-.65-.27-.76-.36-.12-.09-.18-.19-.18-.32,0-.25.22-.38.67-.38.29,0,.66.09,1.09.27l.27-.64c-.42-.19-.86-.29-1.33-.29s-.85.09-1.12.28c-.28.19-.41.45-.41.8,0,.28.08.52.24.69.16.18.47.36.93.53.24.09.42.17.55.25.13.07.23.14.29.21.06.07.09.15.09.25,0,.32-.26.47-.78.47-.4,0-.84-.11-1.31-.32v.73c.32.16.75.24,1.28.24s.94-.1,1.22-.31c.28-.21.43-.51.43-.9,0-.19-.04-.36-.11-.5m-3.6,0c-.07-.14-.18-.26-.33-.37-.15-.11-.39-.22-.72-.35-.39-.15-.65-.27-.76-.36-.12-.09-.18-.19-.18-.32,0-.25.22-.38.67-.38.29,0,.66.09,1.09.27l.27-.64c-.42-.19-.86-.29-1.33-.29s-.85.09-1.12.28c-.27.19-.41.45-.41.8,0,.28.08.52.24.69.16.18.47.36.93.53.24.09.42.17.55.25.13.07.23.14.29.21.06.07.09.15.09.25,0,.32-.26.47-.78.47-.4,0-.84-.11-1.31-.32v.73c.32.16.75.24,1.28.24s.94-.1,1.22-.31c.28-.21.43-.51.43-.9,0-.19-.04-.36-.11-.5m-7.25-2.48c.26-.33.65-.5,1.17-.5s.9.17,1.16.5c.26.33.39.83.39,1.47s-.13,1.15-.39,1.48c-.26.33-.65.5-1.16.5s-.9-.17-1.16-.5c-.26-.34-.39-.83-.39-1.48s.13-1.14.4-1.47m2.99-.53c-.43-.47-1.03-.71-1.82-.71s-1.41.23-1.84.7c-.43.47-.64,1.14-.64,2.01s.21,1.54.64,2.01c.43.47,1.04.71,1.83.71s1.4-.24,1.82-.72c.43-.48.64-1.14.64-2s-.21-1.53-.64-2m-15.55,3.89c-.1-.1-.15-.25-.15-.45v-2.14h1.14v-.64h-1.14v-.89h-.52l-.29.84-.58.31v.38h.54v2.15c0,.85.4,1.27,1.21,1.27.16,0,.31-.01.46-.04.15-.03.27-.06.36-.1v-.64c-.21.07-.41.1-.62.1-.17,0-.3-.05-.4-.15m-2.26-1.84c0-.97-.48-1.46-1.45-1.46-.27,0-.51.05-.72.16-.21.11-.37.26-.48.45h-.05c.03-.26.04-.5.04-.73v-1.43h-.85v5.61h.85v-1.98c0-.5.08-.86.25-1.07s.43-.32.79-.32c.27,0,.47.08.59.23.12.15.19.38.19.69v2.45h.85v-2.6Zm-6.83-.71c.13-.14.31-.21.56-.21s.43.07.55.21c.12.14.18.34.18.6,0,.52-.25.79-.74.79-.24,0-.42-.07-.55-.2-.13-.13-.19-.33-.19-.58,0-.27.06-.47.19-.61m-.34,3.47c.14-.11.34-.17.58-.17h.64c.34,0,.57.04.69.11.12.07.19.2.19.37,0,.22-.11.39-.34.53-.23.13-.57.2-1.03.2-.3,0-.53-.05-.69-.15-.17-.1-.25-.24-.25-.42,0-.19.07-.35.21-.46m1.54-4.15c-.06-.02-.16-.03-.28-.05-.12-.02-.24-.02-.35-.02-.51,0-.89.12-1.17.36-.27.24-.41.57-.41,1.01,0,.27.06.5.19.71.13.2.3.35.5.43-.17.1-.29.2-.37.31-.08.1-.13.23-.13.38,0,.12.04.23.11.34.07.11.17.18.28.23-.28.06-.5.18-.65.35-.16.17-.23.37-.23.62,0,.36.14.63.43.82.29.19.7.29,1.24.29.7,0,1.24-.12,1.62-.37s.56-.59.56-1.05c0-.35-.11-.62-.34-.81-.23-.19-.56-.28-1-.28h-.7c-.23,0-.39-.02-.47-.07-.09-.05-.13-.11-.13-.21,0-.15.09-.28.27-.4.1.02.22.03.35.03.5,0,.89-.12,1.17-.35.28-.24.43-.56.43-.97,0-.14-.02-.27-.06-.39-.04-.12-.09-.23-.16-.31l.68-.13v-.46h-1.38Zm-3.97-.72c.08.08.2.12.36.12s.26-.04.35-.12c.08-.08.13-.2.13-.34,0-.15-.04-.27-.13-.35-.08-.08-.2-.12-.35-.12s-.27.04-.36.12c-.08.08-.12.2-.12.35s.04.26.12.34m.77.72h-.85v3.99h.85v-3.99Zm-2.7.14c-.21.14-.39.33-.52.57h-.04l-.11-.7h-.66v3.99h.85v-2.09c0-.35.11-.64.32-.86.21-.22.49-.33.83-.33.13,0,.25.01.37.04l.08-.79c-.11-.02-.25-.04-.42-.04-.25,0-.47.07-.69.21m-4.3,3.85l-.15.38c-.17.47-.45.71-.86.71-.16,0-.31-.01-.44-.04v.67c.18.04.36.06.55.06.72,0,1.24-.42,1.55-1.25l1.71-4.52h-.92c-.55,1.6-.86,2.5-.92,2.69-.06.19-.1.35-.12.48h-.03c-.04-.28-.12-.59-.25-.91l-.81-2.26h-.92l1.6,3.99Zm-3.09-3.03c.16.23.24.57.24,1.02s-.08.79-.24,1.03-.39.36-.68.36c-.35,0-.6-.11-.75-.33-.15-.22-.23-.57-.23-1.06v-.13c0-.43.08-.75.23-.95.16-.2.4-.3.74-.3.31,0,.54.11.69.34m.68,2.55c.28-.37.42-.87.42-1.53s-.14-1.16-.42-1.52c-.28-.36-.67-.54-1.16-.54-.53,0-.93.2-1.19.61h-.04c-.06-.28-.1-.46-.12-.53h-.69v5.77h.85v-1.63c0-.07-.02-.28-.05-.61h.05c.28.36.67.55,1.18.55s.89-.18,1.17-.55m-6.83-2.54c.16-.24.42-.35.77-.35.68,0,1.02.46,1.02,1.37s-.34,1.38-1.01,1.38-1.02-.46-1.02-1.38c0-.44.08-.78.24-1.01m2.16-.49c-.34-.37-.79-.56-1.37-.56s-1.07.18-1.4.54c-.33.36-.5.87-.5,1.52,0,.42.08.78.23,1.1.15.32.37.56.66.73.29.17.62.25.99.25.6,0,1.06-.18,1.4-.55s.5-.87.5-1.53-.17-1.13-.51-1.5m-4.76-1.01c.2.06.39.14.56.22l.31-.72c-.46-.23-.96-.34-1.49-.34s-.96.11-1.34.33c-.38.22-.67.53-.87.95-.2.41-.3.89-.3,1.44,0,.87.21,1.54.62,2.01.41.47,1.01.7,1.78.7.52,0,.99-.08,1.41-.24v-.74c-.23.07-.44.13-.65.17-.21.04-.43.07-.65.07-.52,0-.91-.17-1.19-.5-.27-.33-.41-.82-.41-1.47s.14-1.1.43-1.45c.28-.35.67-.53,1.17-.53.22,0,.43.03.63.1" class="cls-3"></path>
      </g>
    </g>
  </g>
</svg>